<?xml version="1.0" encoding="UTF-8"?>
<svg width="40px" height="37px" viewBox="0 0 40 37" version="1.1" xmlns="http://www.w3.org/2000/svg" xmlns:xlink="http://www.w3.org/1999/xlink">
    <!-- Generator: Sketch 46 (44423) - http://www.bohemiancoding.com/sketch -->
    <title>icon-scorpio</title>
    <desc>Created with Sketch.</desc>
    <defs></defs>
    <g id="icons" stroke="none" stroke-width="1" fill="none" fill-rule="evenodd">
        <g transform="translate(-700.000000, -728.000000)" id="_zodiac">
            <g transform="translate(48.000000, 722.000000)">
                <g id="icon-scorpio" transform="translate(648.000000, 0.000000)">
                    <rect id="Rectangle" x="0" y="0" width="48" height="48"></rect>
                    <path d="M23.1564444,36.4835556 C22.4204444,36.4835556 21.8231111,35.8862222 21.8231111,35.1502222 L21.8231111,15.3724444 C21.8231111,12.5671111 21.0631111,10.9671111 20.4257778,10.1182222 C19.7226667,9.18222222 18.7955556,8.66666667 17.8151111,8.66666667 C15.7537778,8.66666667 13.6666667,10.9191111 13.6666667,15.224 L13.6666667,35.1502222 C13.6666667,35.8862222 13.0693333,36.4835556 12.3333333,36.4835556 C11.5973333,36.4835556 11,35.8862222 11,35.1502222 L11,15.224 C11,9.16888889 14.4293333,6 17.8151111,6 C21.0293333,6 24.4897778,8.93333333 24.4897778,15.3724444 L24.4897778,35.1502222 C24.4897778,35.8862222 23.8924444,36.4835556 23.1564444,36.4835556" id="Fill-1" fill="#000000"></path>
                    <path d="M39.5102222,39.2871111 C37.4995556,39.2871111 36.0053333,38.7617778 34.9386667,37.6808889 C32.5822222,35.2915556 32.6462222,30.6542222 32.7626667,22.2346667 C32.7911111,20.1795556 32.8231111,17.896 32.8231111,15.3724444 C32.8231111,10.7644444 30.7457778,8.66666667 28.8151111,8.66666667 C26.7528889,8.66666667 24.6666667,10.9191111 24.6666667,15.224 L24.6666667,35.1502222 C24.6666667,35.8862222 24.0693333,36.4835556 23.3333333,36.4835556 C22.5973333,36.4835556 22,35.8862222 22,35.1502222 L22,15.224 C22,9.168 25.4284444,6 28.8151111,6 C32.0293333,6 35.4897778,8.93333333 35.4897778,15.3724444 C35.4897778,17.9093333 35.4568889,20.2044444 35.4293333,22.272 C35.3297778,29.4622222 35.264,34.2133333 36.8373333,35.8088889 C37.1813333,36.1573333 37.832,36.6204444 39.5102222,36.6204444 C40.2462222,36.6204444 40.8435556,37.2177778 40.8435556,37.9537778 C40.8435556,38.6897778 40.2462222,39.2871111 39.5102222,39.2871111" id="Fill-4" fill="#000000"></path>
                    <path d="M11.0500488,15.1551116 C11.0500488,12.2262227 9.69343526,10.1906672 8.48099082,9.2680005 C7.26321304,8.3400005 5.71121304,8.7560005 5.69610193,8.76044494 C4.9867686,8.95511161 4.25343526,8.54711161 4.05254637,7.8440005 C3.8507686,7.14088939 4.24721304,6.40844494 4.94854637,6.20044494 C5.06321304,6.16844494 7.75387971,5.3960005 10.0561019,7.11511161 C12.0107686,8.57555606 13.6669922,11.2804449 13.6669922,15.1551116 C13.6669922,15.8911116 12.4045464,16.4884449 11.6685464,16.4884449 C10.9325464,16.4884449 11.0500488,15.8911116 11.0500488,15.1551116 Z" id="Fill-6" fill="#000000"></path>
                    <path d="M40.2568889,41.8900549 C39.5662222,42.5807216 39,42.3469438 39,41.369166 L39,33.9176105 C39,32.9407216 39.5662222,32.7060549 40.2568889,33.3967216 L43.2462222,36.3869438 C43.9377778,37.0776105 43.9377778,38.209166 43.2462222,38.9007216 L40.2568889,41.8900549 Z" id="Fill-9" fill="#000000"></path>
                </g>
            </g>
        </g>
    </g>
</svg>