<?xml version="1.0" encoding="UTF-8"?>
<svg width="28px" height="40px" viewBox="0 0 28 40" version="1.1" xmlns="http://www.w3.org/2000/svg" xmlns:xlink="http://www.w3.org/1999/xlink">
    <!-- Generator: Sketch 46 (44423) - http://www.bohemiancoding.com/sketch -->
    <title>icon-saturn</title>
    <desc>Created with Sketch.</desc>
    <defs></defs>
    <g id="icons" stroke="none" stroke-width="1" fill="none" fill-rule="evenodd">
        <g transform="translate(-562.000000, -806.000000)" id="_planets">
            <g transform="translate(48.000000, 802.000000)">
                <g id="icon-saturn" transform="translate(504.000000, 0.000000)">
                    <rect id="Rectangle" x="0" y="0" width="48" height="48"></rect>
                    <path d="M29.5463918,38.1473684 C30,37.8947368 30.4123711,37.6 30.8247423,37.3477895 C34.5360825,35.1162105 38,33.0109474 38,27.7473684 C38,20.9267368 33.0515464,17.6 28.8453608,16.8421053 C25.3814433,16.2105263 21.4226804,17.0105263 18.8659794,19.4947368 L18.8659794,13.0947368 L24.6391753,13.0947368 C25.2164948,13.0947368 25.6701031,12.6315789 25.6701031,12.0421053 C25.6701031,11.4530526 25.2164948,10.9894737 24.6391753,10.9894737 L18.8659794,10.9894737 L18.8659794,5.05263158 C18.8659794,4.46315789 18.4123711,4 17.8350515,4 C17.257732,4 16.8041237,4.46315789 16.8041237,5.05263158 L16.8041237,10.9473684 L11.0309278,10.9473684 C10.4536082,10.9473684 10,11.4105263 10,12 C10,12.5894737 10.4536082,13.0526316 11.0309278,13.0526316 L16.8041237,13.0526316 L16.8041237,41.9793684 C16.8041237,42.5684211 17.257732,43.032 17.8350515,43.032 C18.4123711,43.032 18.8659794,42.5684211 18.8659794,41.9793684 L18.8659794,23.2 C20.3092784,19.4947368 24.7628866,18.2315789 28.4742268,18.9052632 C32.0618557,19.5789474 35.8969072,22.2315789 35.8969072,27.7052632 C35.8969072,31.7894737 33.3402062,33.3477895 29.7525773,35.5372632 C29.3402062,35.7894737 28.8865979,36.0846316 28.4329897,36.3368421 C26.7010309,37.4736842 25.9587629,39.1578947 26.4536082,40.9684211 C26.9484536,42.7368421 28.556701,44 30.2886598,44 C30.8659794,44 31.3195876,43.5372632 31.3195876,42.9473684 C31.3195876,42.3578947 30.8659794,41.8947368 30.2886598,41.8947368 C29.4639175,41.8947368 28.6804124,41.2631579 28.4329897,40.3793684 C28.2268041,39.5372632 28.6391753,38.7368421 29.5463918,38.1473684" id="Fill-1" fill="#000000"></path>
                </g>
            </g>
        </g>
    </g>
</svg>