<?xml version="1.0" encoding="UTF-8"?>
<svg width="36px" height="36px" viewBox="0 0 36 36" version="1.1" xmlns="http://www.w3.org/2000/svg" xmlns:xlink="http://www.w3.org/1999/xlink">
    <!-- Generator: Sketch 46 (44423) - http://www.bohemiancoding.com/sketch -->
    <title>icon-taurus</title>
    <desc>Created with Sketch.</desc>
    <defs></defs>
    <g id="icons" stroke="none" stroke-width="1" fill="none" fill-rule="evenodd">
        <g transform="translate(-774.000000, -728.000000)" id="_zodiac">
            <g transform="translate(48.000000, 722.000000)">
                <g id="icon-taurus" transform="translate(720.000000, 0.000000)">
                    <rect id="Rectangle" x="0" y="0" width="48" height="48"></rect>
                    <path d="M7.45994595,41.5838378 C7.08632432,41.5838378 6.7127027,41.4417838 6.42762162,41.1567027 C5.85745946,40.5865405 5.85745946,39.6622162 6.42762162,39.0910811 L38.0910811,7.42762162 C38.6612432,6.85745946 39.5855676,6.85745946 40.1547568,7.42762162 C40.7249189,7.99681081 40.7249189,8.92113514 40.1547568,9.4912973 L8.4912973,41.1567027 C8.20718919,41.4417838 7.83356757,41.5838378 7.45994595,41.5838378" id="Fill-1" fill="#000000"></path>
                    <path d="M29.6644865,30.1249189 C29.2908649,30.1249189 28.9172432,29.9828649 28.6321622,29.6977838 L18.4276216,19.4912973 C17.8574595,18.9211351 17.8574595,17.9977838 18.4276216,17.4276216 C18.9977838,16.8574595 19.9211351,16.8574595 20.4912973,17.4276216 L30.6968108,27.6331351 C31.266,28.2032973 31.266,29.1276216 30.6968108,29.6977838 C30.4127027,29.9828649 30.0381081,30.1249189 29.6644865,30.1249189" id="Fill-3" fill="#000000"></path>
                    <path d="M40.0271351,20.4856216 C39.2215135,20.4856216 38.5676757,19.8317838 38.5676757,19.0261622 L38.5676757,8.91891892 L28.4594595,8.91891892 C27.6538378,8.91891892 27,8.26508108 27,7.45945946 C27,6.65383784 27.6538378,6 28.4594595,6 L40.0271351,6 C40.8327568,6 41.4865946,6.65383784 41.4865946,7.45945946 L41.4865946,19.0261622 C41.4865946,19.8317838 40.8327568,20.4856216 40.0271351,20.4856216" id="Fill-5" fill="#000000"></path>
                </g>
            </g>
        </g>
    </g>
</svg>