<?xml version="1.0" encoding="UTF-8"?>
<svg width="32px" height="40px" viewBox="0 0 32 40" version="1.1" xmlns="http://www.w3.org/2000/svg" xmlns:xlink="http://www.w3.org/1999/xlink">
    <!-- Generator: Sketch 46 (44423) - http://www.bohemiancoding.com/sketch -->
    <title>icon-leo</title>
    <desc>Created with Sketch.</desc>
    <defs></defs>
    <g id="icons" stroke="none" stroke-width="1" fill="none" fill-rule="evenodd">
        <g transform="translate(-416.000000, -726.000000)" id="_zodiac">
            <g transform="translate(48.000000, 722.000000)">
                <g id="icon-leo" transform="translate(360.000000, 0.000000)">
                    <rect id="Rectangle" x="0" y="0" width="48" height="48"></rect>
                    <path d="M15.3609143,36.3342857 C11.3024,36.3342857 8,32.8952381 8,28.6666667 C8,24.4390476 11.3024,21 15.3609143,21 C19.4194286,21 22.7218286,24.4390476 22.7218286,28.6666667 C22.7218286,32.8952381 19.4194286,36.3342857 15.3609143,36.3342857 M15.3609143,23.8571429 C12.8146286,23.8571429 10.7428571,26.0161905 10.7428571,28.6666667 C10.7428571,31.3190476 12.8146286,33.4771429 15.3609143,33.4771429 C17.9072,33.4771429 19.9789714,31.3190476 19.9789714,28.6666667 C19.9789714,26.0161905 17.9072,23.8571429 15.3609143,23.8571429" id="Fill-1" fill="#000000"></path>
                    <path d="M31.6791647,43.8809524 C28.9390504,43.8809524 26.4750504,42.1704762 25.2471647,39.4171429 C23.7267076,36.0066667 24.4535647,31.9542857 27.1909361,28.5771429 C27.9689933,27.6171429 28.8915076,26.787619 29.868879,25.9095238 C32.678479,23.3819048 35.5831647,20.7685714 35.5831647,14.5152381 C35.5831647,11.6714286 33.9255647,6.85714286 27.7111647,6.85714286 C23.6489933,6.85714286 20.7991647,8.01142857 19.2403076,10.2866667 C16.3054504,14.5742857 18.5692219,21.5742857 18.592079,21.6447619 C18.8398504,22.3914286 18.4585933,23.2038095 17.7427076,23.4609524 C17.0295647,23.7133333 16.2451076,23.3219048 16.000079,22.5752381 C15.8867076,22.232381 13.2599647,14.1 17.0076219,8.62666667 C19.110479,5.55714286 22.7109361,4 27.7111647,4 C36.1079647,4 38.3260219,10.8780952 38.3260219,14.5152381 C38.3260219,22.0761905 34.6313933,25.4009524 31.6599647,28.0714286 C30.7685361,28.8742857 29.9255647,29.632381 29.2873933,30.42 C27.2558504,32.9247619 26.675279,35.8390476 27.7349361,38.2133333 C28.5075076,39.9466667 30.0197361,41.0238095 31.6791647,41.0238095 C34.2099076,41.0238095 35.8638504,40.4133333 36.5971076,39.2104762 C37.8231647,37.1971429 36.3804219,33.8714286 36.364879,33.8380952 C36.0421361,33.1238095 36.3365361,32.2733333 37.0222504,31.9371429 C37.7079647,31.6019048 38.5244219,31.9085714 38.8471647,32.6219048 C38.9340219,32.8142857 40.9573361,37.3857143 38.9129933,40.7409524 C37.6430504,42.8247619 35.2092219,43.8809524 31.6791647,43.8809524" id="Fill-3" fill="#000000"></path>
                </g>
            </g>
        </g>
    </g>
</svg>