<?xml version="1.0" encoding="UTF-8"?>
<svg width="36px" height="36px" viewBox="0 0 36 36" version="1.1" xmlns="http://www.w3.org/2000/svg" xmlns:xlink="http://www.w3.org/1999/xlink">
    <!-- Generator: Sketch 46 (44423) - http://www.bohemiancoding.com/sketch -->
    <title>icon-mars</title>
    <desc>Created with Sketch.</desc>
    <defs></defs>
    <g id="icons" stroke="none" stroke-width="1" fill="none" fill-rule="evenodd">
        <g transform="translate(-270.000000, -808.000000)" id="_planets">
            <g transform="translate(48.000000, 802.000000)">
                <g id="icon-mars" transform="translate(216.000000, 0.000000)">
                    <rect id="Rectangle" x="0" y="0" width="48" height="48"></rect>
                    <path d="M20.8926316,39.525 C13.92,39.525 8.19789474,33.9 8.19789474,26.9625 C8.19789474,20.025 13.8821053,14.4 20.8926316,14.4 C27.9031579,14.4 33.5873684,20.025 33.5873684,26.9625 C33.5873684,33.9 27.8652632,39.525 20.8926316,39.525 M41.9624842,6.9375 C41.9624842,6.9 41.9624842,6.8625 41.9242105,6.825 C41.9242105,6.7875 41.8863158,6.75 41.8863158,6.7125 C41.8863158,6.675 41.8484211,6.6375 41.8484211,6.6 C41.8484211,6.5625 41.8105263,6.5625 41.8105263,6.525 C41.7347368,6.4125 41.6210526,6.3 41.5073684,6.225 C41.4694737,6.225 41.4694737,6.1875 41.4315789,6.1875 C41.3940632,6.15 41.3557895,6.15 41.3178947,6.1125 C41.28,6.1125 41.2421053,6.075 41.2045895,6.075 C41.1663158,6.075 41.1284211,6.0375 41.0905263,6.0375 C41.0151158,6.0375 40.9389474,6 40.8631579,6 L33.6631579,6 C33.0572211,6 32.5642105,6.4875 32.5642105,7.0875 C32.5642105,7.6875 33.0572211,8.175 33.6631579,8.175 L38.2105263,8.175 L30.5940632,15.825 C27.9789474,13.6125 24.6063158,12.2625 20.8926316,12.2625 C12.6694737,12.2625 6,18.8625 6,26.9625 C6,35.0625 12.6694737,41.7 20.8926316,41.7 C29.1157895,41.7 35.7473684,35.1 35.7473684,26.9625 C35.7473684,23.2875 34.3835368,19.95 32.1473684,17.3625 L39.8021053,9.7875 L39.8021053,14.2875 C39.8021053,14.8875 40.2947368,15.375 40.9010526,15.375 C41.5073684,15.375 42,14.8875 42,14.2875 L42,7.1625 C42,7.0875 42,7.0125 41.9624842,6.9375" id="Fill-1" fill="#000000"></path>
                </g>
            </g>
        </g>
    </g>
</svg>