<?xml version="1.0" encoding="UTF-8"?>
<svg width="38px" height="40px" viewBox="0 0 38 40" version="1.1" xmlns="http://www.w3.org/2000/svg" xmlns:xlink="http://www.w3.org/1999/xlink">
    <!-- Generator: Sketch 46 (44423) - http://www.bohemiancoding.com/sketch -->
    <title>icon-neptune</title>
    <desc>Created with Sketch.</desc>
    <defs></defs>
    <g id="icons" stroke="none" stroke-width="1" fill="none" fill-rule="evenodd">
        <g transform="translate(-413.000000, -806.000000)" id="_planets">
            <g transform="translate(48.000000, 802.000000)">
                <g id="icon-neptune" transform="translate(360.000000, 0.000000)">
                    <rect id="Rectangle" x="0" y="0" width="48" height="48"></rect>
                    <path d="M42.1029943,12.90625 L35.7139833,9.90625 C35.2128844,9.65625 34.628269,9.86458333 34.3355437,10.3229167 L34.3355437,10.3645833 C34.3355437,10.40625 34.2942031,10.40625 34.2942031,10.4479167 L34.2942031,10.4895833 C34.2942031,10.4895833 34.2942031,10.53125 34.2524448,10.53125 L31.2876097,16.8229167 C31.0370602,17.3645833 31.2458514,17.9895833 31.7887086,18.2395833 C31.9557415,18.3229167 32.0810163,18.3229167 32.2476316,18.3229167 C32.6652141,18.3229167 33.0414558,18.1145833 33.2084888,17.6979167 L35.2546426,13.3645833 C35.8810163,14.8645833 36.173324,16.4479167 36.173324,18.0729167 C36.173324,24.53125 31.2036756,29.8645833 24.8568404,30.40625 L24.8568404,7.69791667 L28.0304668,10.8645833 C28.239258,11.0729167 28.5315657,11.1979167 28.7821152,11.1979167 C29.0326646,11.1979167 29.3245547,11.0729167 29.5333459,10.8645833 C29.9509283,10.4479167 29.9509283,9.78125 29.5333459,9.32291667 L24.5223569,4.32291667 C24.4810163,4.28125 24.3974998,4.23958333 24.3557415,4.19791667 C24.3135657,4.19791667 24.3135657,4.15625 24.2722251,4.15625 C24.2304668,4.15625 24.1887086,4.11458333 24.1887086,4.11458333 C24.1469503,4.11458333 24.1051921,4.07291667 24.0634338,4.07291667 C24.0216756,4.07291667 24.0216756,4.07291667 23.9799174,4.03125 C23.8546426,3.98958333 23.6876097,3.98958333 23.5623349,4.03125 C23.5205767,4.03125 23.5205767,4.03125 23.4788185,4.07291667 C23.4370602,4.07291667 23.395302,4.07291667 23.3535437,4.11458333 C23.3117855,4.11458333 23.2700272,4.15625 23.2700272,4.15625 C23.228269,4.15625 23.228269,4.19791667 23.1865108,4.19791667 C23.1447525,4.23958333 23.061236,4.28125 23.0194778,4.32291667 L18.0084888,9.32291667 C17.5909064,9.73958333 17.5909064,10.40625 18.0084888,10.8645833 C18.21728,11.0729167 18.5095877,11.1979167 18.7601371,11.1979167 C19.0524448,11.1979167 19.3029943,11.0729167 19.5117855,10.8645833 L22.6854119,7.69791667 L22.6854119,30.3645833 C16.3381591,29.8233333 11.3689283,24.4895833 11.3689283,18.03125 C11.3689283,16.3645833 11.7029943,14.7395833 12.3293679,13.2395833 L14.41728,17.6979167 C14.584313,18.0729167 15.0018954,18.3229167 15.3777196,18.3229167 C15.5447525,18.3229167 15.6700272,18.28125 15.8370602,18.2395833 C16.3799174,17.9895833 16.5887086,17.3645833 16.3381591,16.8229167 L13.4150822,10.40625 C13.1645327,9.86458333 12.5381591,9.65625 11.995302,9.90625 L5.60629099,12.90625 C5.06343384,13.15625 4.85464263,13.78125 5.10519208,14.3229167 C5.27222505,14.6979167 5.68980747,14.9479167 6.06563164,14.9479167 C6.23266461,14.9479167 6.35793934,14.90625 6.5249723,14.8645833 L10.1161811,13.1979167 C9.57332395,14.7395833 9.28101626,16.40625 9.28101626,18.0729167 C9.28101626,25.7395833 15.2524448,31.9895833 22.7689283,32.5729167 L22.7689283,34.4479167 L16.7557415,34.4479167 C16.1711262,34.4479167 15.6700272,34.9479167 15.6700272,35.53125 C15.6700272,36.1145833 16.1711262,36.6145833 16.7557415,36.6145833 L22.7271701,36.6145833 L22.7271701,42.5729167 C22.7271701,43.1566667 23.228269,43.65625 23.8128844,43.65625 C24.3974998,43.65625 24.8985987,43.1566667 24.8985987,42.5729167 L24.8985987,36.5729167 L30.8700272,36.5729167 C31.4546426,36.5729167 31.9557415,36.0733333 31.9557415,35.4895833 C31.9557415,34.90625 31.4546426,34.4066667 30.8700272,34.4066667 L24.8985987,34.4066667 L24.8985987,32.5316667 C32.4150822,31.9895833 38.3865108,25.6979167 38.3865108,18.03125 C38.3865108,16.3229167 38.0937855,14.65625 37.5095877,13.0729167 L41.2256536,14.8229167 C41.3931042,14.90625 41.5183789,14.90625 41.6854119,14.90625 C42.1029943,14.90625 42.4784009,14.6979167 42.6458514,14.28125 C42.8959833,13.78125 42.6458514,13.15625 42.1029943,12.90625" id="Fill-1" fill="#000000"></path>
                </g>
            </g>
        </g>
    </g>
</svg>