<?xml version="1.0" encoding="UTF-8"?>
<svg width="40px" height="23px" viewBox="0 0 40 23" version="1.1" xmlns="http://www.w3.org/2000/svg" xmlns:xlink="http://www.w3.org/1999/xlink">
    <!-- Generator: Sketch 46 (44423) - http://www.bohemiancoding.com/sketch -->
    <title>icon-libra</title>
    <desc>Created with Sketch.</desc>
    <defs></defs>
    <g id="icons" stroke="none" stroke-width="1" fill="none" fill-rule="evenodd">
        <g transform="translate(-125.000000, -735.000000)" id="_zodiac">
            <g transform="translate(48.000000, 722.000000)">
                <g id="icon-libra" transform="translate(72.000000, 0.000000)">
                    <rect id="Rectangle" x="0" y="0" width="48" height="48"></rect>
                    <path d="M42.9174468,35.3404255 L6.27659574,35.3404255 C5.57191489,35.3404255 5,34.7685106 5,34.0638298 C5,33.3591489 5.57191489,32.787234 6.27659574,32.787234 L42.9174468,32.787234 C43.6221277,32.787234 44.1940426,33.3591489 44.1940426,34.0638298 C44.1940426,34.7685106 43.6221277,35.3404255 42.9174468,35.3404255 M42.9174468,27.5429787 L34.2408511,27.5429787 C33.8553191,27.5429787 33.4893617,27.3685106 33.2476596,27.0680851 C33.0621277,26.8391489 32.9642553,26.5548936 32.9642553,26.2655319 C32.9642553,26.1761702 32.972766,26.0859574 32.9931915,25.9965957 C33.1242553,25.386383 33.1914894,24.7719149 33.1914894,24.1702128 C33.1914894,19.4187234 29.3259574,15.5531915 24.5744681,15.5531915 C19.8229787,15.5531915 15.9574468,19.4187234 15.9574468,24.1702128 C15.9574468,24.7693617 16.0238298,25.3855319 16.1557447,25.9991489 C16.1744681,26.0876596 16.1838298,26.1770213 16.1838298,26.2655319 C16.1838298,26.5557447 16.0859574,26.84 15.8995745,27.0689362 C15.6578723,27.3685106 15.292766,27.5429787 14.907234,27.5429787 L6.27659574,27.5429787 C5.57191489,27.5429787 5,26.9710638 5,26.266383 C5,25.5617021 5.57191489,24.9897872 6.27659574,24.9897872 L13.4348936,24.9897872 C13.4153191,24.7157447 13.4042553,24.4417021 13.4042553,24.1702128 C13.4042553,18.0110638 18.4153191,13 24.5744681,13 C30.733617,13 35.7446809,18.0110638 35.7446809,24.1702128 C35.7446809,24.4417021 35.733617,24.7157447 35.7140426,24.9897872 L42.9174468,24.9897872 C43.6221277,24.9897872 44.1940426,25.5617021 44.1940426,26.266383 C44.1940426,26.9710638 43.6221277,27.5429787 42.9174468,27.5429787" id="Fill-1" fill="#000000"></path>
                </g>
            </g>
        </g>
    </g>
</svg>