<?xml version="1.0" encoding="UTF-8"?>
<svg width="35px" height="34px" viewBox="0 0 35 34" version="1.1" xmlns="http://www.w3.org/2000/svg" xmlns:xlink="http://www.w3.org/1999/xlink">
    <!-- Generator: Sketch 46 (44423) - http://www.bohemiancoding.com/sketch -->
    <title>icon-sagittarius</title>
    <desc>Created with Sketch.</desc>
    <defs></defs>
    <g id="icons" stroke="none" stroke-width="1" fill="none" fill-rule="evenodd">
        <g transform="translate(-846.000000, -729.000000)" id="_zodiac">
            <g transform="translate(48.000000, 722.000000)">
                <g id="icon-sagittarius" transform="translate(792.000000, 0.000000)">
                    <rect id="Rectangle" x="0" y="0" width="48" height="48"></rect>
                    <path d="M22.925,40.85 C16.3496,40.85 11,35.5004 11,28.925 C11,22.3496 16.3496,17 22.925,17 C29.5004,17 34.85,22.3496 34.85,28.925 C34.85,35.5004 29.5004,40.85 22.925,40.85 M22.925,19.7 C17.8382,19.7 13.7,23.8382 13.7,28.925 C13.7,34.0118 17.8382,38.15 22.925,38.15 C28.0118,38.15 32.15,34.0118 32.15,28.925 C32.15,23.8382 28.0118,19.7 22.925,19.7" id="Fill-1" fill="#000000"></path>
                    <path d="M23.6625,19.15 C17.4048,19.15 14.7876,15.874 12.6843,13.2424 C11.0418,11.185 9.8547,9.7 7.35,9.7 C6.6048,9.7 6,9.0952 6,8.35 C6,7.6048 6.6048,7 7.35,7 C11.1534,7 13.0038,9.3166 14.793,11.5558 C16.8045,14.0731 18.7035,16.45 23.6625,16.45 C24.4077,16.45 25.0125,17.0548 25.0125,17.8 C25.0125,18.5452 24.4077,19.15 23.6625,19.15" id="Fill-3" fill="#000000"></path>
                    <path d="M23.35,19.15 C22.6048,19.15 22,18.5452 22,17.8 C22,17.0548 22.6048,16.45 23.35,16.45 C28.309,16.45 30.208,14.0731 32.2195,11.5558 C34.0087,9.3166 35.8591,7 39.6625,7 C40.4077,7 41.0125,7.6048 41.0125,8.35 C41.0125,9.0952 40.4077,9.7 39.6625,9.7 C37.1578,9.7 35.9707,11.185 34.3282,13.2424 C32.2249,15.874 29.6077,19.15 23.35,19.15" id="Fill-5" fill="#000000"></path>
                </g>
            </g>
        </g>
    </g>
</svg>