<?xml version="1.0" encoding="UTF-8"?>
<svg width="41px" height="31px" viewBox="0 0 41 31" version="1.1" xmlns="http://www.w3.org/2000/svg" xmlns:xlink="http://www.w3.org/1999/xlink">
    <!-- Generator: Sketch 46 (44423) - http://www.bohemiancoding.com/sketch -->
    <title>icon-aries</title>
    <desc>Created with Sketch.</desc>
    <defs></defs>
    <g id="icons" stroke="none" stroke-width="1" fill="none" fill-rule="evenodd">
        <g transform="translate(-484.000000, -731.000000)" id="_zodiac">
            <g transform="translate(48.000000, 722.000000)">
                <g id="icon-aries" transform="translate(432.000000, 0.000000)">
                    <rect id="Rectangle" x="0" y="0" width="48" height="48"></rect>
                    <path d="M9.90488889,29.5595429 C6.26222222,27.7254857 4,23.9970286 4,19.8278857 C4,13.8576 8.72266667,9 14.5262222,9 C20.3306667,9 25.5612793,13.8576 25.5612793,19.8278857 C25.5612793,20.5849143 24.4568889,21.1993143 23.7208889,21.1993143 C22.9848889,21.1993143 23.0056152,20.5849143 23.0056152,19.8278857 C23.0056152,15.3698286 18.8604444,11.7428571 14.5262222,11.7428571 C10.1928889,11.7428571 6.66666667,15.3698286 6.66666667,19.8278857 C6.66666667,22.9410286 8.35733333,25.7259429 11.0764444,27.0946286 C11.7377778,27.4283429 12.0124444,28.2493714 11.6888889,28.9296 C11.4568889,29.416 10.9831111,29.6985143 10.4897778,29.6985143 C10.2924444,29.6985143 10.0933333,29.6537143 9.90488889,29.5595429 Z" id="Fill-1" fill="#000000"></path>
                    <path d="M37.5644444,29.6985143 C37.0711111,29.6985143 36.5973333,29.416 36.3653333,28.9296 C36.0417778,28.2493714 36.3164444,27.4283429 36.9777778,27.0946286 C39.6968889,25.7259429 41.3875556,22.9410286 41.3875556,19.8278857 C41.3875556,15.3698286 37.8613333,11.7428571 33.528,11.7428571 C29.1937778,11.7428571 25.6666667,15.3698286 25.6666667,19.8278857 C25.6666667,20.5849143 25.0693333,21.1993143 24.3333333,21.1993143 C23.5973333,21.1993143 23,20.5849143 23,19.8278857 C23,13.8576 27.7235556,9 33.528,9 C39.3315556,9 44.0542222,13.8576 44.0542222,19.8278857 C44.0542222,23.9970286 41.792,27.7254857 38.1493333,29.5595429 C37.9608889,29.6537143 37.7617778,29.6985143 37.5644444,29.6985143" id="Fill-3" fill="#000000"></path>
                    <path d="M24.3333333,39.9154286 C23.5973333,39.9154286 23,39.3010286 23,38.544 L23,19.3714286 C23,18.6144 23.5973333,18 24.3333333,18 C25.0693333,18 25.6666667,18.6144 25.6666667,19.3714286 L25.6666667,38.544 C25.6666667,39.3010286 25.0693333,39.9154286 24.3333333,39.9154286" id="Fill-5" fill="#000000"></path>
                </g>
            </g>
        </g>
    </g>
</svg>