<?xml version="1.0" encoding="UTF-8"?>
<svg width="23px" height="32px" viewBox="0 0 23 32" version="1.1" xmlns="http://www.w3.org/2000/svg" xmlns:xlink="http://www.w3.org/1999/xlink">
    <!-- Generator: Sketch 46 (44423) - http://www.bohemiancoding.com/sketch -->
    <title>icon-moon</title>
    <desc>Created with Sketch.</desc>
    <defs></defs>
    <g id="icons" stroke="none" stroke-width="1" fill="none" fill-rule="evenodd">
        <g transform="translate(-205.000000, -810.000000)" id="_planets">
            <g transform="translate(48.000000, 802.000000)">
                <g id="icon-moon" transform="translate(144.000000, 0.000000)">
                    <rect id="Rectangle" x="0" y="0" width="48" height="48"></rect>
                    <path d="M29.0661765,37.3666667 C21.5235294,37.3666667 15.3676471,31.3 15.3676471,23.8666667 C15.3676471,16.4333333 21.5235294,10.3666667 29.0661765,10.3666667 C29.8776029,10.3666667 30.6558824,10.4333333 31.4676471,10.5666667 C26.9352941,13.4666667 24.1617647,18.4 24.1617647,23.8666667 C24.1617647,29.3333333 26.9691176,34.2666667 31.4676471,37.1666667 C30.6897059,37.3 29.8776029,37.3666667 29.0661765,37.3666667 M35.0867647,36.3666667 C29.9117647,34.3 26.5294118,29.4 26.5294118,23.8666667 C26.5294118,18.3666667 29.8776029,13.4666667 35.0191176,11.3666667 C35.1882353,11.3 35.3573529,11.2 35.4926471,11.0666667 C35.8308824,10.7333333 35.9323529,10.2333333 35.7294118,9.8 C35.5941176,9.46666667 35.3235294,9.23333333 34.9852941,9.13333333 C33.0908382,8.4 31.0955882,8 29.0320147,8 C20.2382353,8.03333333 13,15.1333333 13,23.8666667 C13,32.6 20.2044118,39.7 29.0661765,39.7 C31.1632353,39.7 33.1588235,39.3 35.0867647,38.5666667 C35.5264706,38.4 35.8308824,37.9666667 35.8308824,37.4666667 C35.8308824,36.9666667 35.5602941,36.5666667 35.0867647,36.3666667" id="Fill-1" fill="#000000"></path>
                </g>
            </g>
        </g>
    </g>
</svg>