<?xml version="1.0" encoding="UTF-8"?>
<svg width="40px" height="37px" viewBox="0 0 40 37" version="1.1" xmlns="http://www.w3.org/2000/svg" xmlns:xlink="http://www.w3.org/1999/xlink">
    <!-- Generator: Sketch 46 (44423) - http://www.bohemiancoding.com/sketch -->
    <title>icon-capricorn</title>
    <desc>Created with Sketch.</desc>
    <defs></defs>
    <g id="icons" stroke="none" stroke-width="1" fill="none" fill-rule="evenodd">
        <g transform="translate(-340.000000, -728.000000)" id="_zodiac">
            <g transform="translate(48.000000, 722.000000)">
                <g id="icon-capricorn" transform="translate(288.000000, 0.000000)">
                    <rect id="Rectangle" x="0" y="0" width="48" height="48"></rect>
                    <path d="M14.1085223,42.6983053 C13.3836435,42.6983053 12.795336,42.1099979 12.795336,41.385119 C12.795336,40.6602401 13.3836435,40.0719327 14.1085223,40.0719327 C18.2529384,40.0719327 20.8784356,37.384278 23.6571379,34.5381654 C23.7079144,34.485638 23.758691,34.4348615 23.808592,34.382334 C22.3203142,30.1214821 22.3833471,24.5203046 22.4498819,18.6880064 C22.4621383,17.5341533 22.4752702,16.3776739 22.4752702,15.2308245 C22.4752702,10.6688152 20.0423736,8.62637267 17.632239,8.62637267 C15.2212289,8.62637267 12.6263727,10.6478042 12.6263727,15.0846231 L12.6263727,34.7097551 C12.6263727,35.434634 12.0380652,36.0229415 11.3131863,36.0229415 C10.5883075,36.0229415 10,35.434634 10,34.7097551 L10,15.0846231 C10,9.12100619 13.8397568,6 17.632239,6 C21.2294941,6 25.1016429,8.88900994 25.1016429,15.2308245 C25.1016429,16.3864285 25.088511,17.5534134 25.0745037,18.7177719 C25.0211008,23.5564259 24.9650715,28.504512 25.9368294,32.2847377 C28.2349055,30.1740095 30.8341389,28.4581127 34.4629105,28.4581127 C40.1104872,28.4581127 43.0651565,31.8645181 43.0651565,35.2297769 C43.0651565,37.0069558 42.2544828,38.6361823 40.7828386,39.8171745 C39.2367806,41.0576979 37.0516385,41.7134156 34.4629105,41.7134156 C31.0626334,41.7134156 28.3627223,40.7267749 26.4384666,38.7797573 C25.8851774,38.2212154 25.4071775,37.600516 24.994837,36.9264137 C22.2275157,39.7401343 19.034722,42.6983053 14.1085223,42.6983053 M26.9208437,34.9750188 C27.3016677,35.7200331 27.7586565,36.3801281 28.3058175,36.9334173 C29.7389415,38.3814241 31.7524939,39.0870429 34.4629105,39.0870429 C36.4475728,39.0870429 38.0645429,38.6309295 39.1396048,37.7686038 C39.9774177,37.0971279 40.4387838,36.1936557 40.4387838,35.2297769 C40.4387838,33.1698253 38.3858358,31.0836099 34.4629105,31.0836099 C31.3567871,31.0836099 29.1059857,32.8336496 26.9208437,34.9750188" id="Fill-1" fill="#000000"></path>
                    <path d="M9.96459273,16.0167756 C9.96459273,13.132143 9.60740604,11.1273451 8.41328194,10.2186202 C7.21302962,9.30464251 5.68448073,9.71435665 5.67047341,9.71873394 C4.97185828,9.91045914 4.24960579,9.50862412 4.05175239,8.8161372 C3.85302352,8.12365027 4.24347759,7.40227324 4.9342136,7.19741617 C5.04714763,7.1658997 7.69715765,6.40512708 9.96459273,8.098262 C11.8897239,9.53663876 12.588501,12.2006561 12.588501,16.0167756 C12.588501,16.7416545 12.2775516,17.3299619 11.5526727,17.3299619 C10.8277939,17.3299619 9.96459273,16.7416545 9.96459273,16.0167756 Z" id="Fill-4" fill="#000000"></path>
                </g>
            </g>
        </g>
    </g>
</svg>