<?xml version="1.0" encoding="UTF-8"?>
<svg width="26px" height="40px" viewBox="0 0 26 40" version="1.1" xmlns="http://www.w3.org/2000/svg" xmlns:xlink="http://www.w3.org/1999/xlink">
    <!-- Generator: Sketch 46 (44423) - http://www.bohemiancoding.com/sketch -->
    <title>icon-mercury</title>
    <desc>Created with Sketch.</desc>
    <defs></defs>
    <g id="icons" stroke="none" stroke-width="1" fill="none" fill-rule="evenodd">
        <g transform="translate(-347.000000, -806.000000)" id="_planets">
            <g transform="translate(48.000000, 802.000000)">
                <g id="icon-mercury" transform="translate(288.000000, 0.000000)">
                    <rect id="Rectangle" x="0" y="0" width="48" height="48"></rect>
                    <path d="M12.9532554,19.1738672 C12.9532554,13.2307692 17.9015025,8.42571128 24.0217028,8.42571128 C30.1419032,8.42571128 35.0901503,13.2307692 35.0901503,19.1738672 C35.0901503,25.1169652 30.1419032,29.9220232 24.0217028,29.9220232 C17.9015025,29.9220232 12.9532554,25.1169652 12.9532554,19.1738672 M37,19.1738672 C37,15.5489989 35.39399,12.2613277 32.8330551,9.943098 C33.7445743,8.42571128 34.2220367,6.6975764 34.2220367,4.92729189 C34.2220367,4.42149631 33.78798,4 33.2671119,4 C32.7462437,4 32.312187,4.42149631 32.312187,4.92729189 C32.312187,6.27608008 31.9649416,7.58271865 31.3138564,8.76290832 C29.230384,7.3719705 26.7128548,6.5711275 24.0217028,6.5711275 C21.3305509,6.5711275 18.8130217,7.3719705 16.6861436,8.76290832 C16.0350584,7.58271865 15.687813,6.27608008 15.687813,4.92729189 C15.687813,4.42149631 15.2537563,4 14.7328881,4 C14.21202,4 13.7779633,4.42149631 13.7779633,4.92729189 C13.7779633,6.6975764 14.2554257,8.42571128 15.1669449,9.943098 C12.60601,12.2613277 11,15.5489989 11,19.1738672 C11,25.833509 16.2954925,31.2708114 23.0233723,31.7344573 L23.0233723,36.0337197 L17.7278798,36.0337197 C17.2070117,36.0337197 16.7729549,36.455216 16.7729549,36.9610116 C16.7729549,37.4668072 17.2070117,37.8883035 17.7278798,37.8883035 L23.066778,37.8883035 L23.066778,43.0727081 C23.066778,43.5785037 23.5008347,44 24.0217028,44 C24.542571,44 24.9766277,43.5785037 24.9766277,43.0727081 L24.9766277,37.9304531 L30.3155259,37.9304531 C30.836394,37.9304531 31.2704508,37.5089568 31.2704508,37.0031612 C31.2704508,36.4973656 30.836394,36.0758693 30.3155259,36.0758693 L24.9766277,36.0758693 L24.9766277,31.7344573 C31.7045075,31.2708114 37,25.833509 37,19.1738672" id="Page-1" fill="#000000"></path>
                </g>
            </g>
        </g>
    </g>
</svg>