<?xml version="1.0" encoding="UTF-8"?>
<svg width="18px" height="40px" viewBox="0 0 18 40" version="1.1" xmlns="http://www.w3.org/2000/svg" xmlns:xlink="http://www.w3.org/1999/xlink">
    <!-- Generator: Sketch 46 (44423) - http://www.bohemiancoding.com/sketch -->
    <title>icon-pluto</title>
    <desc>Created with Sketch.</desc>
    <defs></defs>
    <g id="icons" stroke="none" stroke-width="1" fill="none" fill-rule="evenodd">
        <g transform="translate(-495.000000, -806.000000)" id="_planets">
            <g transform="translate(48.000000, 802.000000)">
                <g id="icon-pluto" transform="translate(432.000000, 0.000000)">
                    <rect id="Rectangle" x="0" y="0" width="48" height="48"></rect>
                    <path d="M25.9194313,8.91126208 C28.2654028,10.8466353 29.5450237,13.6234752 29.5450237,16.6948285 C29.5450237,19.7661817 28.2654028,22.5430216 25.9194313,24.4783948 C23.5734597,26.4558414 20.5023697,27.3393814 17.3886256,27.0027947 L17.3886256,6.38686218 C20.5023697,6.05027553 23.5734597,6.97588883 25.9194313,8.91126208 M31.8056872,41.6022408 L17.3886256,41.6022408 L17.3886256,29.4009746 C17.8151659,29.443048 18.2417062,29.4847006 18.6682464,29.4847006 C21.9099526,29.4847006 25.0236967,28.3912147 27.4549763,26.3296214 C30.3554502,23.9314415 31.9336493,20.5235016 31.9336493,16.7369018 C31.9336493,12.9503019 30.3554502,9.54236206 27.4549763,7.14418215 C24.4265403,4.57770892 20.3317536,3.52587562 16.3222749,4.19904893 L16.1943128,4.19904893 C15.5545024,4.19904893 15,4.74600224 15,5.37710222 L15,42.8223674 C15,43.4534674 15.5545024,44 16.1943128,44 L31.8056872,44 C32.4454976,44 33,43.4534674 33,42.8223674 C33,42.1912675 32.4454976,41.6022408 31.8056872,41.6022408" id="Page-1" fill="#000000"></path>
                </g>
            </g>
        </g>
    </g>
</svg>