<?xml version="1.0" encoding="UTF-8"?>
<svg width="35px" height="35px" viewBox="0 0 35 35" version="1.1" xmlns="http://www.w3.org/2000/svg" xmlns:xlink="http://www.w3.org/1999/xlink">
    <!-- Generator: Sketch 46 (44423) - http://www.bohemiancoding.com/sketch -->
    <title>icon-yinyang</title>
    <desc>Created with Sketch.</desc>
    <defs></defs>
    <g id="icons" stroke="none" stroke-width="1" fill="none" fill-rule="evenodd">
        <g transform="translate(-55.000000, -969.000000)" id="_energy">
            <g transform="translate(48.000000, 962.000000)">
                <g id="icon-yinyang">
                    <rect id="Rectangle" x="0" y="0" width="48" height="48"></rect>
                    <path d="M14.65625,24.5 C15.273125,24.5 15.75,24.976875 15.75,25.59375 C15.75,26.210625 15.273125,26.6875 14.65625,26.6875 C14.039375,26.6875 13.5625,26.210625 13.5625,25.59375 C13.5625,24.976875 14.039375,24.5 14.65625,24.5 L14.65625,24.5 Z M34.348125,22.3125 C34.965,22.3125 35.441875,22.789375 35.441875,23.40625 C35.441875,24.023125 34.965,24.5 34.348125,24.5 C33.73125,24.5 33.254375,24.023125 33.254375,23.40625 C33.254375,22.789375 33.73125,22.3125 34.348125,22.3125 L34.348125,22.3125 Z M14.65625,22.3125 C12.858125,22.3125 11.375,23.795625 11.375,25.59375 C11.375,27.391875 12.858125,28.875 14.65625,28.875 C16.454375,28.875 17.9375,27.391875 17.9375,25.59375 C17.9375,23.795625 16.454375,22.3125 14.65625,22.3125 L14.65625,22.3125 Z M34.348125,20.125 C32.55,20.125 31.066875,21.608125 31.066875,23.40625 C31.066875,25.204375 32.55,26.6875 34.348125,26.6875 C36.14625,26.6875 37.629375,25.204375 37.629375,23.40625 C37.629375,21.608125 36.14625,20.125 34.348125,20.125 L34.348125,20.125 Z M25.94375,9.2596875 C33.7334375,9.9859375 39.8125,16.5178125 39.8125,24.5 C39.8125,32.97 32.97,39.8125 24.5,39.8125 C24.4146875,39.8125 24.3315625,39.790625 24.2484375,39.790625 C26.088125,38.4475 28.875,35.665 28.875,31.0625 C28.875,27.5821875 26.971875,25.305 25.3159375,23.445625 C23.6621875,21.5840625 22.3125,20.1403125 22.3125,17.9375 C22.3125,13.08125 25.2896875,9.944375 25.2896875,9.944375 L25.94375,9.2596875 Z M23.05625,9.2596875 C22.0259375,10.6421875 20.125,13.7309375 20.125,17.9375 C20.125,21.0415625 22.0565625,23.069375 23.6840625,24.898125 C25.3115625,26.726875 26.6875,28.3565625 26.6875,31.0625 C26.6875,36.5925 21.748125,38.8215625 21.748125,38.8215625 L20.7571875,39.27875 L20.7878125,39.3421875 C14.1203125,37.6840625 9.1875,31.6859375 9.1875,24.5 C9.1875,16.5178125 15.2665625,9.9859375 23.05625,9.2596875 L23.05625,9.2596875 Z M24.5,7 C14.8465625,7 7,14.84875 7,24.5 C7,34.15125 14.8465625,42 24.5,42 C34.15125,42 42,34.15125 42,24.5 C42,14.84875 34.15125,7 24.5,7 L24.5,7 Z" id="Page-1" fill="#000000"></path>
                </g>
            </g>
        </g>
    </g>
</svg>