<?xml version="1.0" encoding="UTF-8"?>
<svg width="33px" height="40px" viewBox="0 0 33 40" version="1.1" xmlns="http://www.w3.org/2000/svg" xmlns:xlink="http://www.w3.org/1999/xlink">
    <!-- Generator: Sketch 46 (44423) - http://www.bohemiancoding.com/sketch -->
    <title>icon-jupitar</title>
    <desc>Created with Sketch.</desc>
    <defs></defs>
    <g id="icons" stroke="none" stroke-width="1" fill="none" fill-rule="evenodd">
        <g transform="translate(-776.000000, -806.000000)" id="_planets">
            <g transform="translate(48.000000, 802.000000)">
                <g id="icon-jupitar" transform="translate(720.000000, 0.000000)">
                    <rect id="Rectangle" x="0" y="0" width="48" height="48"></rect>
                    <path d="M39.500157,29.5555178 L32.2144427,29.5555178 L32.2144427,12.9721845 C32.2144427,12.3055178 31.6572998,11.7638511 30.9720141,11.7638511 C30.2858713,11.7638511 29.7287284,12.3055178 29.7287284,12.9721845 L29.7287284,29.5138511 L16.100157,29.5138511 C21.9287284,26.3055178 27.7144427,20.2638511 26.600157,12.6805178 C25.7858713,6.93051781 21.6715856,4.43051781 18.1144427,4.05551781 C13.700157,3.59718447 9.58587127,6.01385114 8.08587127,9.93051781 C7.82872841,10.5555178 8.17158555,11.2638511 8.8144427,11.4721845 C9.45729984,11.7221845 10.1858713,11.3888511 10.400157,10.7638511 C11.5144427,7.88885114 14.5572998,6.13885114 17.8572998,6.47218447 C21.2430141,6.84718447 23.600157,9.30551781 24.1572998,13.0555178 C25.4858713,22.3471845 14.2144427,28.8471845 9.07158555,29.5555178 L9.02872841,29.5555178 C8.98587127,29.5555178 8.94301413,29.5555178 8.90015698,29.5976011 C8.85729984,29.5976011 8.8144427,29.5976011 8.77158555,29.6388511 C8.72872841,29.6388511 8.68587127,29.6805178 8.64301413,29.6805178 C8.60015698,29.6805178 8.55729984,29.7221845 8.5144427,29.7221845 C8.47158555,29.7221845 8.47158555,29.7638511 8.42872841,29.8059345 C8.38587127,29.8471845 8.34301413,29.8471845 8.34301413,29.8888511 C8.30015698,29.9305178 8.30015698,29.9305178 8.25729984,29.9721845 C8.2144427,30.0142678 8.2144427,30.0142678 8.17158555,30.0555178 C8.12872841,30.0971845 8.12872841,30.1388511 8.12872841,30.1388511 C8.12872841,30.1805178 8.08587127,30.2226011 8.08587127,30.2226011 C8.08587127,30.2638511 8.04301413,30.3055178 8.04301413,30.3471845 C8.04301413,30.3888511 8.00015698,30.4309345 8.00015698,30.4721845 L8.00015698,30.5971845 L8.00015698,30.7221845 L8.00015698,30.7638511 L8.00015698,30.8476011 L8.00015698,30.9305178 L8.00015698,30.9721845 C8.00015698,31.0138511 8.00015698,31.0559345 8.04301413,31.0559345 C8.04301413,31.0971845 8.08587127,31.1388511 8.08587127,31.1805178 C8.08587127,31.2221845 8.12872841,31.2221845 8.12872841,31.2642678 C8.12872841,31.3055178 8.17158555,31.3471845 8.17158555,31.3888511 C8.17158555,31.4305178 8.2144427,31.4305178 8.2144427,31.4726011 C8.25729984,31.5138511 8.25729984,31.5555178 8.30015698,31.5555178 C8.34301413,31.5971845 8.34301413,31.5971845 8.38587127,31.6388511 C8.42872841,31.6809345 8.47158555,31.6809345 8.47158555,31.7221845 C8.5144427,31.7221845 8.5144427,31.7638511 8.55729984,31.7638511 C8.60015698,31.8055178 8.64301413,31.8055178 8.68587127,31.8055178 C8.72872841,31.8055178 8.72872841,31.8471845 8.77158555,31.8471845 C8.8144427,31.8471845 8.85729984,31.8892678 8.90015698,31.8892678 C8.94301413,31.8892678 8.94301413,31.8892678 8.98587127,31.9305178 C9.07158555,31.9305178 9.15729984,31.9721845 9.24301413,31.9721845 L29.6862998,31.9721845 L29.6862998,42.3888511 C29.6862998,43.0555178 30.2430141,43.5971845 30.9287284,43.5971845 C31.6148713,43.5971845 32.1715856,43.0555178 32.1715856,42.3888511 L32.1715856,31.9721845 L39.4572998,31.9721845 C40.1430141,31.9721845 40.700157,31.4305178 40.700157,30.7638511 C40.700157,30.0971845 40.1862998,29.5555178 39.500157,29.5555178" id="Fill-1" fill="#000000"></path>
                </g>
            </g>
        </g>
    </g>
</svg>