<?xml version="1.0" encoding="UTF-8"?>
<svg width="28px" height="40px" viewBox="0 0 28 40" version="1.1" xmlns="http://www.w3.org/2000/svg" xmlns:xlink="http://www.w3.org/1999/xlink">
    <!-- Generator: Sketch 46 (44423) - http://www.bohemiancoding.com/sketch -->
    <title>icon-uranus</title>
    <desc>Created with Sketch.</desc>
    <defs></defs>
    <g id="icons" stroke="none" stroke-width="1" fill="none" fill-rule="evenodd">
        <g transform="translate(-706.000000, -806.000000)" id="_planets">
            <g transform="translate(48.000000, 802.000000)">
                <g id="icon-uranus" transform="translate(648.000000, 0.000000)">
                    <rect id="Rectangle" x="0" y="0" width="48" height="48"></rect>
                    <path d="M23.575,29 C24.44475,29 25.15,29.6787368 25.15,30.5157895 C25.15,31.3528421 24.44475,32.0315789 23.575,32.0315789 C22.70525,32.0315789 22,31.3528421 22,30.5157895 C22,29.6787368 22.70525,29 23.575,29" id="Fill-4" fill="#000000"></path>
                    <path d="M24,42.0210526 C17.4375,42.0210526 12.1,36.8842105 12.1,30.5684211 C12.1,24.2526316 17.4375,19.0736842 24,19.0736842 C30.5625,19.0736842 35.9,24.2105263 35.9,30.5263158 C35.9,36.8421053 30.5625,42.0210526 24,42.0210526 M25.05,17.0947368 L25.05,7.41052632 L28.06875,10.3157895 C28.2875,10.5263158 28.55,10.6105263 28.8125,10.6105263 C29.075,10.6105263 29.3375,10.5263158 29.55625,10.3157895 C29.95,9.93684211 29.95,9.30526316 29.55625,8.92631579 L24.74375,4.29473684 C24.7,4.25263158 24.65625,4.21052632 24.56875,4.16842105 C24.525,4.16842105 24.525,4.12631579 24.48125,4.12631579 C24.4375,4.12631579 24.4375,4.08421053 24.39375,4.08421053 C24.35,4.08421053 24.30625,4.04210526 24.30625,4.04210526 C24.2625,4.04210526 24.2625,4.04210526 24.21875,4 L24,4 L23.78125,4 C23.7375,4 23.7375,4 23.69375,4.04210526 C23.65,4.04210526 23.60625,4.04210526 23.60625,4.08421053 C23.5625,4.08421053 23.5625,4.12631579 23.51875,4.12631579 C23.475,4.12631579 23.475,4.16842105 23.43125,4.16842105 C23.3875,4.21052632 23.3,4.25263158 23.25625,4.29473684 L18.44375,8.92631579 C18.05,9.30526316 18.05,9.93684211 18.44375,10.3157895 C18.6625,10.5263158 18.925,10.6105263 19.1875,10.6105263 C19.45,10.6105263 19.7125,10.5263158 19.93125,10.3157895 L22.95,7.41052632 L22.95,17.1368421 C15.73125,17.6421053 10,23.4526316 10,30.5263158 C10,37.9368421 16.25625,44 24,44 C31.74375,44 38,37.9789474 38,30.5263158 C38,23.4526316 32.26875,17.6421053 25.05,17.0947368" id="Fill-1" fill="#000000"></path>
                </g>
            </g>
        </g>
    </g>
</svg>