<?xml version="1.0" encoding="UTF-8"?>
<svg width="26px" height="40px" viewBox="0 0 26 40" version="1.1" xmlns="http://www.w3.org/2000/svg" xmlns:xlink="http://www.w3.org/1999/xlink">
    <!-- Generator: Sketch 46 (44423) - http://www.bohemiancoding.com/sketch -->
    <title>icon-venus</title>
    <desc>Created with Sketch.</desc>
    <defs></defs>
    <g id="icons" stroke="none" stroke-width="1" fill="none" fill-rule="evenodd">
        <g transform="translate(-59.000000, -806.000000)" id="_planets">
            <g transform="translate(48.000000, 802.000000)">
                <g id="icon-venus">
                    <rect id="Rectangle" x="0" y="0" width="48" height="48"></rect>
                    <path d="M12.95,17.3333333 C12.95,11.0833333 17.90625,5.95833333 24,5.95833333 C30.09375,5.95833333 35.05,11.0416667 35.05,17.2916667 C35.05,23.5416667 30.09375,28.6666667 24,28.6666667 C17.90625,28.6666667 12.95,23.5833333 12.95,17.3333333 M37,17.3333333 C37,10 31.190625,4 24,4 C16.809375,4 11,9.95833333 11,17.3333333 C11,24.3333333 16.321875,30.125 23.025,30.625 L23.025,35.1666667 L17.703125,35.1666667 C17.175,35.1666667 16.728125,35.625 16.728125,36.1666667 C16.728125,36.7083333 17.175,37.1666667 17.703125,37.1666667 L23.065625,37.1666667 L23.065625,42.6666667 C23.065625,43.2083333 23.5125,43.6666667 24.040625,43.6666667 C24.5691562,43.6666667 25.015625,43.2083333 25.015625,42.6666667 L25.015625,37.125 L30.378125,37.125 C30.90625,37.125 31.353125,36.6666667 31.353125,36.125 C31.353125,35.5833333 30.90625,35.125 30.378125,35.125 L24.9754062,35.125 L24.9754062,30.625 C31.6785312,30.0833333 37,24.3333333 37,17.3333333" id="Fill-1" fill="#000000"></path>
                </g>
            </g>
        </g>
    </g>
</svg>