<?xml version="1.0" encoding="UTF-8"?>
<svg width="34px" height="28px" viewBox="0 0 34 28" version="1.1" xmlns="http://www.w3.org/2000/svg" xmlns:xlink="http://www.w3.org/1999/xlink">
    <!-- Generator: Sketch 46 (44423) - http://www.bohemiancoding.com/sketch -->
    <title>icon-cancer</title>
    <desc>Created with Sketch.</desc>
    <defs></defs>
    <g id="icons" stroke="none" stroke-width="1" fill="none" fill-rule="evenodd">
        <g transform="translate(-559.000000, -732.000000)" id="_zodiac">
            <g transform="translate(48.000000, 722.000000)">
                <g id="icon-cancer" transform="translate(504.000000, 0.000000)">
                    <rect id="Rectangle" x="0" y="0" width="48" height="48"></rect>
                    <path d="M13.541,34.0188676 C9.935,34.0188676 7,31.0982549 7,27.5089363 C7,23.9206127 9.935,21 13.541,21 C17.149,21 20.084,23.9206127 20.084,27.5089363 C20.084,31.0982549 17.149,34.0188676 13.541,34.0188676 M13.541,23.9852941 C11.589,23.9852941 10,25.5665049 10,27.5089363 C10,29.4523627 11.589,31.0335735 13.541,31.0335735 C15.494,31.0335735 17.084,29.4523627 17.084,27.5089363 C17.084,25.5665049 15.494,23.9852941 13.541,23.9852941" id="Fill-1" fill="#000000"></path>
                    <path d="M8.77709961,31.9586182 C8.16409961,31.4053437 7.83310695,30.7208509 8.38910695,30.1108558 C8.94710695,29.5018558 9.99698535,29.1334081 10.6099854,29.6846924 C14.1459854,32.8799522 18.5691069,34.9669342 23.2461069,34.9669342 C28.7011069,34.9669342 33.7591069,32.6702479 37.4861069,28.4997921 C38.0381069,27.8858166 38.9841069,27.829096 39.6041069,28.3763999 C40.2251069,28.9246989 40.2781069,29.8680519 39.7281069,30.4840176 C35.4851069,35.2306352 29.4771069,37.9522283 23.2461069,37.9522283 C17.8211069,37.9522283 12.8670996,35.6554074 8.77709961,31.9586182 Z" id="Fill-3" fill="#000000"></path>
                    <path d="M33.543,27.0188676 C29.935,27.0188676 27,24.0982549 27,20.5099314 C27,16.9206127 29.935,14 33.543,14 C37.149,14 40.084,16.9206127 40.084,20.5099314 C40.084,24.0982549 37.149,27.0188676 33.543,27.0188676 M33.543,16.9852941 C31.59,16.9852941 30,18.5665049 30,20.5099314 C30,22.4523627 31.59,24.0335735 33.543,24.0335735 C35.495,24.0335735 37.084,22.4523627 37.084,20.5099314 C37.084,18.5665049 35.495,16.9852941 33.543,16.9852941" id="Fill-6" fill="#000000"></path>
                    <path d="M7.50294229,19.5758284 C6.88394229,19.0275294 6.82894229,18.0841765 7.37894229,17.4682108 C11.6219423,12.7215931 17.6299423,10 23.8609423,10 C29.2879423,10 33.811292,11.9677616 37.899292,15.6645508 C38.512292,16.2188204 39.1719423,17.5108545 38.6159423,18.1208496 C38.0579423,18.7328349 36.8478398,18.673129 36.2358398,18.1208496 C32.6998398,14.9235996 28.5399423,12.9852941 23.8609423,12.9852941 C18.4059423,12.9852941 13.3489423,15.2819804 9.62094229,19.4524363 C9.32394229,19.7838039 8.91294229,19.9529706 8.49894229,19.9529706 C8.14494229,19.9529706 7.78894229,19.8285833 7.50294229,19.5758284 Z" id="Fill-9" fill="#000000"></path>
                </g>
            </g>
        </g>
    </g>
</svg>