<?xml version="1.0" encoding="UTF-8"?>
<svg width="36px" height="36px" viewBox="0 0 36 36" version="1.1" xmlns="http://www.w3.org/2000/svg" xmlns:xlink="http://www.w3.org/1999/xlink">
    <!-- Generator: Sketch 46 (44423) - http://www.bohemiancoding.com/sketch -->
    <title>icon-pisces</title>
    <desc>Created with Sketch.</desc>
    <defs></defs>
    <g id="icons" stroke="none" stroke-width="1" fill="none" fill-rule="evenodd">
        <g transform="translate(-630.000000, -728.000000)" id="_zodiac">
            <g transform="translate(48.000000, 722.000000)">
                <g id="icon-pisces" transform="translate(576.000000, 0.000000)">
                    <rect id="Rectangle" x="0" y="0" width="48" height="48"></rect>
                    <path d="M10.5012685,41.9368496 C10.0642685,41.9368496 9.63026847,41.7458496 9.33326847,41.3788496 C8.81226847,40.7348496 8.91326847,39.7908496 9.55826847,39.2698496 C14.2132685,35.5108496 16.8832685,29.9338496 16.8832685,23.9688496 C16.8832685,18.0038496 14.2132685,12.4258496 9.55826847,8.66684959 C8.91326847,8.14684959 8.81226847,7.20284959 9.33326847,6.55784959 C9.85326847,5.91284959 10.7982685,5.81284959 11.4422685,6.33284959 C16.8072685,10.6638496 19.8832685,17.0928496 19.8832685,23.9688496 C19.8832685,30.8448496 16.8072685,37.2728496 11.4422685,41.6038496 C11.1652685,41.8278496 10.8322685,41.9368496 10.5012685,41.9368496" id="Fill-1" fill="#000000"></path>
                    <path d="M36.383,41.9356952 C36.052,41.9356952 35.719,41.8266952 35.442,41.6026952 C30.077,37.2706952 27,30.8426952 27,23.9666952 C27,17.0916952 30.077,10.6646952 35.442,6.33169522 C36.086,5.81369522 37.03,5.91269522 37.551,6.55669522 C38.071,7.20169522 37.971,8.14569522 37.326,8.66569522 C32.67,12.4256952 30,18.0026952 30,23.9666952 C30,29.9316952 32.67,35.5086952 37.326,39.2686952 C37.971,39.7896952 38.071,40.7336952 37.551,41.3776952 C37.255,41.7446952 36.82,41.9356952 36.383,41.9356952" id="Fill-3" fill="#000000"></path>
                    <path d="M40.167,26 L7.5,26 C6.672,26 6,25.328 6,24.5 C6,23.672 6.672,23 7.5,23 L40.167,23 C40.995,23 41.667,23.672 41.667,24.5 C41.667,25.328 40.995,26 40.167,26" id="Fill-5" fill="#000000"></path>
                </g>
            </g>
        </g>
    </g>
</svg>