<?xml version="1.0" encoding="UTF-8"?>
<svg width="36px" height="31px" viewBox="0 0 36 31" version="1.1" xmlns="http://www.w3.org/2000/svg" xmlns:xlink="http://www.w3.org/1999/xlink">
    <!-- Generator: Sketch 46 (44423) - http://www.bohemiancoding.com/sketch -->
    <title>icon-virgo</title>
    <desc>Created with Sketch.</desc>
    <defs></defs>
    <g id="icons" stroke="none" stroke-width="1" fill="none" fill-rule="evenodd">
        <g transform="translate(-270.000000, -731.000000)" id="_zodiac">
            <g transform="translate(48.000000, 722.000000)">
                <g id="icon-virgo" transform="translate(216.000000, 0.000000)">
                    <rect id="Rectangle" x="0" y="0" width="48" height="48"></rect>
                    <path d="M32.387852,18.6558365 C32.7929923,18.4013295 33.2388159,18.2010086 33.7209578,18.0602563 C35.6912435,17.4855591 37.91774,18.062516 39.3985239,19.5290107 C41.330337,21.4444171 41.6487588,24.3570701 40.2702955,27.5205411 C38.6525182,31.2334721 36.6740616,33.8512126 34.61593,35.689163 C35.7013061,36.6743753 37.2506585,37.1533104 39.3470362,37.1533104 C40.0248079,37.1533104 40.5748835,37.6594657 40.5748835,38.2831215 C40.5748835,38.9067772 40.0248079,39.4129325 39.3470362,39.4129325 C36.5393586,39.4129325 34.3284148,38.6649976 32.7747786,37.1894643 C32.7614101,37.1767726 32.7480982,37.1640364 32.7348427,37.151256 C29.3312462,39.4336092 25.941818,39.8844404 23.796677,39.8844404 C22.4239436,39.8844404 21.5611762,39.7006578 21.5292522,39.6931257 C20.8703075,39.5424842 20.4700292,38.9293734 20.6329237,38.3245479 C20.7966366,37.7204755 21.4588556,37.3514039 22.1153447,37.4990326 C22.3917744,37.5587645 26.7812274,38.4504227 31.3490744,35.3237389 C29.4939535,31.9556212 29.66328,26.9589207 29.841042,21.7215974 C29.8942487,20.1519132 29.9507297,18.5287513 29.9507297,16.9417434 C29.9507297,13.4242649 28.452756,11.5269355 27.0456429,11.5269355 C25.6729096,11.5269355 24.2829864,13.3436717 24.2829864,16.8159577 L24.2829864,33.7006077 C24.2829864,34.3242634 23.7329108,34.8304188 23.055139,34.8304188 C23.0519679,34.8304188 23.0487996,34.8304077 23.0456341,34.8303856 C23.0399167,34.8304579 23.0341898,34.8304941 23.0284538,34.8304941 C22.3506821,34.8304941 21.8006065,34.3243388 21.8006065,33.700683 L21.8006065,16.9418187 C21.8006065,14.5646962 21.1007335,13.2089229 20.5138225,12.4896098 C19.8663376,11.6964824 19.0125744,11.2596222 18.1096974,11.2596222 C16.2114454,11.2596222 14.289455,13.1682497 14.289455,16.8160331 L14.289455,17.2885999 C14.2896187,17.3195165 14.2897006,17.350522 14.2897006,17.3816165 C14.2897006,17.3892362 14.2896185,17.3968384 14.289455,17.4044224 L14.289455,33.700683 C14.289455,34.3243388 13.7393794,34.8304941 13.0616077,34.8304941 C12.3838359,34.8304941 11.8337603,34.3243388 11.8337603,33.700683 L11.8337603,17.2942885 C11.8200192,14.8593213 11.2298591,13.16575 10.1264795,12.393124 C9.0050456,11.6067754 7.57501273,11.9592765 7.56191569,11.9630425 C6.9087009,12.127995 6.23338486,11.7822728 6.0483892,11.1864857 C5.86257496,10.5906987 6.22765491,9.97005579 6.87350261,9.79380526 C6.97827892,9.7666898 9.45689342,9.11215258 11.5769765,10.5688557 C12.1457144,10.959864 12.6258694,11.4561436 13.016641,12.055699 C14.2175774,10.0377485 16.171388,9 18.1096974,9 C19.9035388,9 21.7806597,9.9129217 22.9812645,11.8467363 C24.0024324,10.095137 25.5574592,9.2673133 27.0456429,9.2673133 C29.6273966,9.2673133 32.4064244,11.6685385 32.4064244,16.9417434 C32.4064244,17.5117567 32.3993449,18.0841897 32.387852,18.6558365 Z M32.2464188,23.3120809 C32.1231055,27.3982448 32.1279356,31.2021989 33.2680506,33.7601902 C34.9622418,32.1380882 36.6045494,29.8619932 37.9905923,26.6799617 C39.0007013,24.3608361 38.8574525,22.3143717 37.5976811,21.066307 C36.7619264,20.2370257 35.5316233,19.9026016 34.4625776,20.2144295 C33.2838441,20.5586452 32.5078446,21.6063567 32.2786464,23.165496 C32.271298,23.2155694 32.2604692,23.2644949 32.2464188,23.3120809 Z" id="Combined-Shape" fill="#000000"></path>
                </g>
            </g>
        </g>
    </g>
</svg>