<?xml version="1.0" encoding="UTF-8"?>
<svg width="40px" height="23px" viewBox="0 0 40 23" version="1.1" xmlns="http://www.w3.org/2000/svg" xmlns:xlink="http://www.w3.org/1999/xlink">
    <!-- Generator: Sketch 46 (44423) - http://www.bohemiancoding.com/sketch -->
    <title>icon-aquarius</title>
    <desc>Created with Sketch.</desc>
    <defs></defs>
    <g id="icons" stroke="none" stroke-width="1" fill="none" fill-rule="evenodd">
        <g transform="translate(-196.000000, -735.000000)" id="_zodiac">
            <g transform="translate(48.000000, 722.000000)">
                <g id="icon-aquarius" transform="translate(144.000000, 0.000000)">
                    <rect id="Rectangle" x="0" y="0" width="48" height="48"></rect>
                    <path d="M35.4893617,22.4680851 C32.0119149,22.4680851 30.8,19.9114894 29.9148936,18.0451064 C29.0578723,16.2365957 28.6280851,15.5531915 27.5106383,15.5531915 C25.9744681,15.5531915 25.1310638,16.933617 24.0187234,19.0391489 C23.1285106,20.7242553 22.2068085,22.4680851 20.3829787,22.4680851 C16.9055319,22.4680851 15.693617,19.9114894 14.8085106,18.0451064 C13.9514894,16.2365957 13.5217021,15.5531915 12.4042553,15.5531915 C10.8680851,15.5531915 10.0246809,16.933617 8.91234043,19.0391489 C8.02212766,20.7242553 7.10042553,22.4680851 5.27659574,22.4680851 C4.57191489,22.4680851 4,21.8961702 4,21.1914894 C4,20.4868085 4.57191489,19.9148936 5.27659574,19.9148936 C5.61106383,19.8238298 6.2893617,18.5370213 6.65446809,17.8459574 C7.73531915,15.8008511 9.21446809,13 12.4042553,13 C15.2425532,13 16.2817021,15.1906383 17.1157447,16.9514894 C18.013617,18.8434043 18.6076596,19.9148936 20.3829787,19.9148936 C20.7174468,19.8238298 21.3957447,18.5370213 21.7608511,17.8459574 C22.8417021,15.8008511 24.3208511,13 27.5106383,13 C30.3489362,13 31.3880851,15.1906383 32.2221277,16.9514894 C33.12,18.8434043 33.7140426,19.9148936 35.4893617,19.9148936 C35.8238298,19.8238298 36.5021277,18.5370213 36.867234,17.8459574 C37.9480851,15.8008511 39.427234,13 42.6170213,13 C43.3217021,13 43.893617,13.5719149 43.893617,14.2765957 C43.893617,14.9812766 43.3217021,15.5531915 42.6170213,15.5531915 C41.0808511,15.5531915 40.2374468,16.933617 39.1251064,19.0391489 C38.2348936,20.7242553 37.3131915,22.4680851 35.4893617,22.4680851" id="Fill-1" fill="#000000"></path>
                    <path d="M35.4893617,35.4680851 C32.0119149,35.4680851 30.8,32.9114894 29.9148936,31.0451064 C29.0578723,29.2365957 28.6280851,28.5531915 27.5106383,28.5531915 C25.9744681,28.5531915 25.1310638,29.933617 24.0187234,32.0391489 C23.1285106,33.7242553 22.2068085,35.4680851 20.3829787,35.4680851 C16.9055319,35.4680851 15.693617,32.9114894 14.8085106,31.0451064 C13.9514894,29.2365957 13.5217021,28.5531915 12.4042553,28.5531915 C10.8680851,28.5531915 10.0246809,29.933617 8.91234043,32.0391489 C8.02212766,33.7242553 7.10042553,35.4680851 5.27659574,35.4680851 C4.57191489,35.4680851 4,34.8961702 4,34.1914894 C4,33.4868085 4.57191489,32.9148936 5.27659574,32.9148936 C5.61106383,32.8238298 6.2893617,31.5370213 6.65446809,30.8459574 C7.73531915,28.8008511 9.21446809,26 12.4042553,26 C15.2425532,26 16.2817021,28.1906383 17.1157447,29.9514894 C18.013617,31.8434043 18.6076596,32.9148936 20.3829787,32.9148936 C20.7174468,32.8238298 21.3957447,31.5370213 21.7608511,30.8459574 C22.8417021,28.8008511 24.3208511,26 27.5106383,26 C30.3489362,26 31.3880851,28.1906383 32.2221277,29.9514894 C33.12,31.8434043 33.7140426,32.9148936 35.4893617,32.9148936 C35.8238298,32.8238298 36.5021277,31.5370213 36.867234,30.8459574 C37.9480851,28.8008511 39.427234,26 42.6170213,26 C43.3217021,26 43.893617,26.5719149 43.893617,27.2765957 C43.893617,27.9812766 43.3217021,28.5531915 42.6170213,28.5531915 C41.0808511,28.5531915 40.2374468,29.933617 39.1251064,32.0391489 C38.2348936,33.7242553 37.3131915,35.4680851 35.4893617,35.4680851" id="Fill-4" fill="#000000"></path>
                </g>
            </g>
        </g>
    </g>
</svg>