<svg xmlns="http://www.w3.org/2000/svg" width="144" height="144" viewBox="0 0 144 144">
    <g fill="none" fill-rule="evenodd">
        <path d="M0 0h144v144H0z"/>
        <path fill="#3CDDFF" d="M72.28 127.254L18.452 54.828l28.382.228z"/>
        <path fill="#4EC2DB" d="M72.265 127.051l26.19-72.806-51.918 1.126z"/>
        <path fill="#25A8C4" d="M72.187 127.387l53.483-72.98-27.78-.135z"/>
        <path fill="#00FAFF" d="M18 55.323l28.877-34.698V56.27z"/>
        <path fill="#2DB9D7" d="M126.346 54.627l-27.49-34.053-.952 34.053z"/>
        <path fill="#25A8C4" d="M46.312 20.536h26.444L46.312 56.623z"/>
        <path fill="#25A8C4" d="M99.039 20.536H72.603l25.498 34.068z"/>
        <path fill="#5AD3EC" d="M46.438 55.926L72.72 20.329l25.53 34.307z"/>
        <path fill="#4CB4CB" d="M46.497 55.839l26.185 5.54 25.36-6.85z"/>
        <path fill="#4AC3DD" d="M46.695 55.893l24.72-5.996 27.027 4.533z"/>
        <path fill="#27ABC7" d="M97.83 54.414l14.039-3.765 14.134 3.725z"/>
        <path fill="#259BB4" d="M98.456 54.441l14.652 3.692 12.848-3.543z"/>
        <path fill="#22EBEF" d="M18.25 55.322l16.875-5.59 12.388 6.719z"/>
        <path fill="#3BD0EF" d="M18.797 55.43l14.883 5.61 13.644-4.962z"/>
    </g>
</svg>
