<svg xmlns="http://www.w3.org/2000/svg" width="144" height="144" viewBox="0 0 144 144">
    <g fill="none" fill-rule="evenodd">
        <path d="M0 0h144v144H0z"/>
        <path fill="#96AB6E" d="M68.996 129.81l38.017-15.404 19.546-28.082-.43-7.577-42.102 24.834-27.286 19.592z"/>
        <path fill="#BFD890" d="M25.634 57.078l31.859 66.638 40.844-28.164 27.658-16.457L97.84 19.728l-17.342-3.954-14.313 3.827z"/>
        <path fill="#B3CD83" d="M25.5 56.924l-3.382 19.833 14.535 33.09 14.98 17.52 5.99-3.803z"/>
        <path fill="#9CB272" d="M51.415 127.504l17.562 2.205-11.394-6.258z"/>
        <path fill="#758A4E" d="M98.646 95.273l8.501 19.028-38.165 15.54-11.386-6.394z"/>
        <path fill="#D2EBA3" d="M80.785 15.214L37.444 81.853l-12-24.792L66.257 19.44z"/>
        <path fill="#B0CA80" d="M57.984 123.89l18.494-41.48-29.28-15.014L36.926 81.5z"/>
        <path fill="#AAC379" d="M76.41 82.619l35.864-32.153-14.452-30.727-17.378-3.698-33.419 51.563z" opacity=".193"/>
        <path fill="#F6F6F6" d="M25.532 57.275l4.862 10.155 35.443-47.665z" opacity=".481"/>
    </g>
</svg>
