<svg xmlns="http://www.w3.org/2000/svg" width="144" height="144" viewBox="0 0 144 144">
    <g fill="none" fill-rule="evenodd">
        <path d="M0 0h144v144H0z"/>
        <path fill="#C7EBBF" d="M61.38 50.093l6.542-17.666-15.288-6.207-18.436 15.92z"/>
        <path fill="#C2E3BC" d="M67.928 32.743l18.936-9.962-24.698-4.765-10.148 8.619z"/>
        <path fill="#AADBA2" d="M87.042 22.276l12.986 22.884-39.097 4.786 6.67-17.57z"/>
        <path fill="#DDF4D8" d="M86.9 22.946l15.693-6.006-25.39-7.105-15.198 8.33z"/>
        <path fill="#B1CDAD" d="M99.788 44.842l6.335-9.4-3.618-18.706-16.241 6.124z"/>
        <path fill="#82BE88" d="M61.603 49.761l2.647 83.997-25.16-16.164-4.626-75.466z"/>
        <path fill="#82C593" d="M99.29 124.982V43.968l6.73-8.891 4.135 18.244-1.153 53.437z"/>
        <path fill="#91CB9B" d="M60.985 49.685l2.592 83.684 36.074-8.253.318-80.933z"/>
        <path fill="#6B9873" d="M39.193 117.067l23.232-14.672h28.991l17.862 3.892-9.173 18.22-36.05 8.29z" opacity=".161"/>
        <path fill="#B6E3BA" d="M61.27 49.54l-21.794 68.287-4.887-75.998z" opacity=".566"/>
    </g>
</svg>
