<svg xmlns="http://www.w3.org/2000/svg" width="144" height="144" viewBox="0 0 144 144">
    <g fill="none" fill-rule="evenodd">
        <path d="M0 0h144v144H0z"/>
        <path fill="#CD9DD7" d="M12.324 73.182l120.23-29.012L53.48 19.35z"/>
        <path fill="#AC7DB5" d="M12.45 73.125l34.14 32.21 2.469-19.348 15.396-9.339-23.123-11.267z"/>
        <path fill="#C695D0" d="M46.01 106.004l52.45-24.178-33.919-5.802-17.447 9.458z"/>
        <path fill="#B889C1" d="M41.527 65.73L54.16 19.65 12.27 73.084z"/>
        <path fill="#73487B" d="M12.39 72.758l21.117 53.148 13.246-20.9z"/>
        <path fill="#936D9A" d="M63.978 76.373l68.333-32.587-91.528 22.466z"/>
        <path fill="#D9ACE1" d="M97.24 82.694l34.188-38.721-68.11 32.293z"/>
        <path fill="#A375AB" d="M33.822 125.47l76.525-17.131-12.431-27.333-51.832 23.661z"/>
        <path fill="#C38CCE" d="M109.648 108.65l22.044-65.522-34.766 38.696z"/>
    </g>
</svg>
