<svg xmlns="http://www.w3.org/2000/svg" width="144" height="144" viewBox="0 0 144 144">
    <g fill="none" fill-rule="evenodd">
        <path d="M0 0h144v144H0z"/>
        <path fill="#BBE4E0" d="M35.834 33.26L69.03 9.496 79.574 34.7l-26.33 10.676z"/>
        <path fill="#DAF0EE" d="M55.214 44.912l-2.28 90.893-20.122-17.55 2.444-85.395z"/>
        <path fill="#C1E7E3" d="M68.915 9.536l42.609 24.887h-32.27z"/>
        <path fill="#9BD8D3" d="M54.656 45.133l28.413 11.9-3.598-23.48z"/>
        <path fill="#7EC6C0" d="M82.946 56.737l28.911-22.53-32.53-.637z"/>
        <path fill="#AAE0DB" d="M83.07 56.845l-.641 77.898-29.49.694 1.604-90.59z"/>
        <path fill="#94D9D2" d="M111.68 34.246v80.786l-29.816 19.797 1.038-78.146z"/>
        <path fill="#75B9B3" d="M32.925 117.475l29.385-9.755 49.69 6.73-29.9 20.193-29.199.726z" opacity=".186"/>
        <path fill="#91C4BE" d="M62.369 107.79V47.808l20.38 8.748 28.723-22.434.398 80.708z" opacity=".178"/>
    </g>
</svg>
