<?xml version="1.0" encoding="UTF-8"?>
<svg width="10px" height="9px" viewBox="0 0 10 9" version="1.1" xmlns="http://www.w3.org/2000/svg" xmlns:xlink="http://www.w3.org/1999/xlink">
    <!-- Generator: Sketch 46.2 (44496) - http://www.bohemiancoding.com/sketch -->
    <title>Shape</title>
    <desc>Created with Sketch.</desc>
    <defs></defs>
    <g id="О-компании" stroke="none" stroke-width="1" fill="none" fill-rule="evenodd">
        <g transform="translate(-1342.000000, -4927.000000)" id="Супер-экспедиция" fill-rule="nonzero" fill="#FFFFFF">
            <g transform="translate(100.000000, 4635.000000)">
                <g id="Галерея" transform="translate(128.000000, 272.000000)">
                    <g id="zoom" transform="translate(1096.000000, 16.000000)">
                        <path d="M18.937931,5.05263158 C18.937931,5.51578947 19.3103448,5.89473684 19.7655172,5.89473684 L24.8137931,5.85263158 L19.1862069,11.5789474 C18.8551724,11.9157895 18.8551724,12.4210526 19.1862069,12.7578947 C19.3517241,12.9263158 19.5586207,13.0105263 19.7655172,13.0105263 C19.9724138,13.0105263 20.1793103,12.9263158 20.3448276,12.7578947 L25.9724138,7.03157895 L25.9310345,12.1684211 C25.9310345,12.6315789 26.3034483,13.0105263 26.7586207,13.0105263 C27.2137931,13.0105263 27.5862069,12.6315789 27.5862069,12.1684211 L27.6275862,4.96842105 L27.6275862,4.12631579 L19.7241379,4.21052632 C19.3103448,4.21052632 18.937931,4.58947368 18.937931,5.05263158 Z" id="Shape"></path>
                    </g>
                </g>
            </g>
        </g>
    </g>
</svg>