<?xml version="1.0" encoding="UTF-8"?>
<svg width="10px" height="9px" viewBox="0 0 10 9" version="1.1" xmlns="http://www.w3.org/2000/svg" xmlns:xlink="http://www.w3.org/1999/xlink">
    <!-- Generator: Sketch 46.2 (44496) - http://www.bohemiancoding.com/sketch -->
    <title>Shape</title>
    <desc>Created with Sketch.</desc>
    <defs></defs>
    <g id="О-компании" stroke="none" stroke-width="1" fill="none" fill-rule="evenodd">
        <g transform="translate(-1328.000000, -4942.000000)" id="Супер-экспедиция" fill-rule="nonzero" fill="#FFFFFF">
            <g transform="translate(100.000000, 4635.000000)">
                <g id="Галерея" transform="translate(128.000000, 272.000000)">
                    <g id="zoom" transform="translate(1096.000000, 16.000000)">
                        <path d="M12.2344828,27.7894737 C12.6896552,27.7894737 13.062069,27.4105263 13.062069,26.9473684 C13.062069,26.4842105 12.6896552,26.1052632 12.2344828,26.1052632 L12.2344828,26.1052632 L7.1862069,26.1473684 L12.8137931,20.4210526 C13.1448276,20.0842105 13.1448276,19.5789474 12.8137931,19.2421053 C12.4827586,18.9052632 11.9862069,18.9052632 11.6551724,19.2421053 L6.02758621,24.9263158 L6.06896552,19.8315789 C6.06896552,19.3684211 5.69655172,18.9894737 5.24137931,18.9894737 C4.7862069,18.9473684 4.4137931,19.3684211 4.4137931,19.8315789 L4.37241379,27.0315789 L4.37241379,27.0315789 L4.37241379,27.8736842 L12.2344828,27.7894737 Z" id="Shape"></path>
                    </g>
                </g>
            </g>
        </g>
    </g>
</svg>