<svg width="125px" height="202px" viewBox="0 0 125 202" version="1.1" xmlns="http://www.w3.org/2000/svg" xmlns:xlink="http://www.w3.org/1999/xlink">
    <!-- Generator: Sketch 46.2 (44496) - http://www.bohemiancoding.com/sketch -->
   <desc>Created with Sketch.</desc>
   <defs></defs>
   <g id="Личный-кабинет" stroke="none" stroke-width="1" fill="none" fill-rule="evenodd">
       <g id="Мои-заказы---modal-Отмена-заказа" transform="translate(-792.000000, -1115.000000)" stroke="#E6E6E6">
           <g id="#2-если-«Платить-при-получении»" transform="translate(420.000000, 752.000000)">
               <g id="Выбор" transform="translate(48.000000, 236.000000)">
                   <g id="Обратите-внимание" transform="translate(0.000000, 128.000000)">
                       <g id="Заголовок">
                           <g>
                               <g id="bg">
                                   <path d="M-0.5,1.99194792 C-0.5,0.615240433 0.625247793,-0.5 2.00868784,-0.5 L421.991312,-0.5 C423.371947,-0.5 424.5,0.62361398 424.5,1.99194792 L424.5,206.008052 C424.5,207.383781 423.38247,208.5 422.007048,208.5 L1.99046874,208.5 C0.618835482,208.5 -0.5,207.375367 -0.5,206.008052 L-0.5,1.99194792 Z M423.5,101.36321 L423.5,74.3944295 L424.411594,75.7161153 C424.484663,75.8220553 424.650316,76.0252945 424.914103,76.2938623 C425.362967,76.7508629 425.921425,77.2100541 426.595253,77.6400248 C428.535303,78.8779739 431.010438,79.6230469 434.079102,79.6230469 C437.170775,79.6230469 440.316039,78.8650306 443.34479,77.6001424 C444.406986,77.1565411 445.378106,76.6813193 446.237116,76.206605 C446.536859,76.0409577 446.800829,75.8874457 447.026414,75.750095 C447.160076,75.6687127 447.250191,75.611517 447.294156,75.5825366 L448.016651,75.1062877 L448.06844,75.9700758 C448.069535,75.9889026 448.069535,75.9889026 448.071911,76.0535932 C448.084272,76.4541011 448.065046,77.0119633 447.989736,77.7040665 C447.877339,78.7370057 447.659762,79.8574669 447.312391,81.0421022 C446.358825,84.2940324 444.591188,87.5197496 441.8157,90.5274741 C441.412649,90.9642497 440.990021,91.3941231 440.547437,91.8167079 C440.094904,92.2487911 439.634439,92.6681418 439.166476,93.0749494 C435.879654,95.9322376 432.358342,98.0720843 428.835789,99.598278 C427.601329,100.133125 426.453966,100.553264 425.422651,100.871608 C425.06018,100.983494 424.737617,101.074747 424.458577,101.146975 C424.288803,101.190919 424.169809,101.219042 424.105209,101.232946 L423.5,101.36321 Z" id="Combined-Shape"></path>
                               </g>
                           </g>
                       </g>
                   </g>
               </g>
           </g>
       </g>
   </g>
</svg>