<?xml version="1.0" encoding="UTF-8"?>
<svg width="27px" height="21px" viewBox="0 0 41 32" version="1.1" xmlns="http://www.w3.org/2000/svg" xmlns:xlink="http://www.w3.org/1999/xlink">
    <defs>
        <path d="M37.5,38 C35.019,38 33,35.981 33,33.5 C33,31.019 35.019,29 37.5,29 C39.981,29 42,31.019 42,33.5 C42,35.981 39.981,38 37.5,38 M31.045,32.763 L14.859,29.166 L12.923,19 L41.656,19 L39.187,27.229 C38.647,27.085 38.084,27 37.5,27 C34.166,27 31.412,29.525 31.045,32.763 M28,10 C35.003,10 37.716,14.71 38.623,17 L16.533,17 C17.744,14.651 21.021,10 28,10 M41.029,28.05 L44.344,17 L40.738,17 C39.947,14.694 36.889,8 28,8 C19.053,8 15.307,14.813 14.333,17 L12.542,17 L10.827,8 L4,8 L4,10 L9.173,10 L12.954,29.855 L9.105,37.553 L10.895,38.447 L14.545,31.146 L31.139,34.833 C31.756,37.779 34.373,40 37.5,40 C41.084,40 44,37.084 44,33.5 C44,31.217 42.814,29.209 41.029,28.05" id="path-1"></path>
    </defs>
    <g id="Symbols" stroke="none" stroke-width="1" fill="none" fill-rule="evenodd">
        <g id="Icon/Cart-#575757" transform="translate(-4.000000, -8.000000)">
            <mask id="mask-2" fill="white">
                <use xlink:href="#path-1"></use>
            </mask>
            <use id="Page-1" fill="#575757" xlink:href="#path-1"></use>
        </g>
    </g>
</svg>