<?xml version="1.0" encoding="UTF-8"?>
<svg width="32px" height="26px" viewBox="0 0 32 26" version="1.1" xmlns="http://www.w3.org/2000/svg" xmlns:xlink="http://www.w3.org/1999/xlink">
    <!-- Generator: Sketch 44.1 (41455) - http://www.bohemiancoding.com/sketch -->
    <title>Icon/Functional/Cart</title>
    <desc>Created with Sketch.</desc>
    <defs>
        <path d="M27.2190753,7.38624481 L11.9596468,7.38624481 C14.4095169,5.24163279 16.8934649,4.13568743 19.3499844,4.09706448 C21.895439,4.06467104 24.5464519,5.1718623 27.2190753,7.38624481 M30.9921662,7.38624481 L29.6926338,7.38624481 C26.2391273,4.04681311 22.752374,2.38768743 19.323387,2.4358623 C16.0057766,2.48611366 12.7185039,4.15146885 9.55175065,7.38624481 L8.92671169,7.38624481 L7.46676364,1.84821202 C7.45138701,1.79380765 7.43060779,1.74147978 7.39611429,1.6766929 L7.30717922,1.54338142 L7.19788052,1.43249617 L6.97720519,1.2996 L6.89990649,1.28132678 C6.85751688,1.26886776 6.8142961,1.25973115 6.77232208,1.25433224 L0.953309091,0.423731148 C0.493672727,0.358944262 0.0722701299,0.679556284 0.00827012987,1.13638689 C-0.0228987013,1.35774208 0.0344519481,1.57785137 0.169101299,1.7560153 C0.303750649,1.93459454 0.499906494,2.05004809 0.720997403,2.08078033 L5.98728312,2.8216765 L9.91663377,17.7089552 L9.1236987,21.7402776 C9.03601039,22.1892175 9.32941299,22.6261137 9.81814026,22.719141 L9.93865974,22.719141 C10.3342961,22.7187257 10.6771532,22.4367366 10.7536208,22.0492612 L11.4405818,18.559906 L19.4472312,19.2140044 L19.488374,19.2140044 C19.9438545,19.2293705 20.3349195,18.8747038 20.3532052,18.4170426 C20.3714909,17.9589661 20.0136727,17.5714907 19.5640104,17.5536328 L11.4235429,16.8887366 L9.35227013,9.04744699 L29.6972052,9.04744699 L27.5498805,13.6315344 C27.4559584,13.8325399 27.4459844,14.0584634 27.5220364,14.2669443 C27.5976727,14.4758404 27.7501922,14.642376 27.9517506,14.7362339 C28.3669195,14.9297639 28.8631273,14.7499388 29.0567896,14.3346383 L31.7460364,8.56611366 L31.7464519,8.56528306 C31.7971532,8.45522842 31.8229195,8.33811366 31.8229195,8.2172612 C31.8229195,7.7596 31.4505558,7.38666011 30.9921662,7.38624481" id="path-1"></path>
        <path d="M8.31419567,5.52777923 C8.31502684,6.39534208 7.97798788,7.21140765 7.36500087,7.82522186 C6.75201385,8.43986667 5.93622165,8.77833661 5.06765022,8.77916721 L5.06390996,8.77916721 C3.27398788,8.77916721 1.81653333,7.3247847 1.81403983,5.53566995 L1.81403983,5.37660984 C1.89757229,3.65726557 3.32344242,2.28386667 5.06432554,2.28386667 C6.85383203,2.28386667 8.31170216,3.73907978 8.31419567,5.52777923 M5.06432554,0.622664481 C2.36011775,0.625156284 0.158351515,2.82541858 0.156273593,5.52736393 C0.15502684,6.83846776 0.664948918,8.07149508 1.59170216,8.9996918 C2.518871,9.92788852 3.75190996,10.4391235 5.06432554,10.4403694 L5.06848139,10.4403694 C6.37923463,10.4403694 7.61144242,9.93121093 8.53861126,9.00592131 C9.46702684,8.07980109 9.97944242,6.84760437 9.98068918,5.53608525 C9.97819567,2.82915628 7.77268918,0.625156284 5.06432554,0.622664481" id="path-3"></path>
    </defs>
    <g id="Symbols" stroke="none" stroke-width="1" fill="none" fill-rule="evenodd">
        <g id="Верхнее-меню/Внутренние" transform="translate(-941.000000, -108.000000)">
            <g id="Корзина" transform="translate(932.000000, 90.000000)">
                <g id="Icon/Cart" transform="translate(9.000000, 15.000000)">
                    <g id="cart">
                        <rect id="Rectangle" x="0" y="0" width="32" height="32"></rect>
                        <g id="mixin" transform="translate(0.000000, 3.333333)">
                            <mask id="mask-2" fill="white">
                                <use xlink:href="#path-1"></use>
                            </mask>
                            <use id="Fill-1" fill="#000000" xlink:href="#path-1"></use>
                            <g id="Mixin/Fill/dark-grey" mask="url(#mask-2)" fill="#575757">
                                <g transform="translate(-193.333333, -38.000000)" id="Mixin/Fill/Grey">
                                    <rect x="0" y="0" width="441" height="100"></rect>
                                </g>
                            </g>
                        </g>
                        <g id="mixin" transform="translate(20.666667, 18.000000)">
                            <mask id="mask-4" fill="white">
                                <use xlink:href="#path-3"></use>
                            </mask>
                            <use id="Fill-4" fill="#000000" xlink:href="#path-3"></use>
                            <g id="Mixin/Fill/dark-grey" mask="url(#mask-4)" fill="#575757">
                                <g transform="translate(-214.000000, -52.666667)" id="Mixin/Fill/Grey">
                                    <rect x="0" y="0" width="441" height="100"></rect>
                                </g>
                            </g>
                        </g>
                    </g>
                </g>
            </g>
        </g>
    </g>
</svg>