<?xml version="1.0" encoding="UTF-8"?>
<svg width="43px" height="40px" viewBox="0 0 33 30" version="1.1" xmlns="http://www.w3.org/2000/svg" xmlns:xlink="http://www.w3.org/1999/xlink">
    <!-- Generator: Sketch 46 (44423) - http://www.bohemiancoding.com/sketch -->
    <title>icon-checkcircle</title>
    <desc>Created with Sketch.</desc>
    <defs>
        <path d="M39.0513015,10.4415678 C38.766998,10.4587651 38.5002577,10.5860979 38.3081608,10.7961239 C34.408776,14.8758968 27.4504763,22.4708607 23.2945964,26.849939 L17.8745357,22.0702014 C17.4200892,21.666249 16.7237836,21.7072296 16.3194653,22.1616761 C15.9155129,22.6164885 15.9564935,23.3127941 16.41094,23.7171124 L22.6312216,29.2055962 C23.071398,29.5978398 23.7428225,29.5725928 24.1522634,29.1481501 C28.2397202,24.8718894 35.8420021,16.5473231 39.8859169,12.3167998 C40.3162141,11.8897958 40.3187754,11.1945878 39.8917713,10.7642907 C39.6704025,10.5414582 39.364511,10.4240047 39.0513015,10.4415678 M23.2258074,9.00065789 C23.0216358,8.9973648 22.8134393,9.00724408 22.6085359,9.01236666 C21.5163276,9.03980908 20.428876,9.18763224 19.3498401,9.45803154 C11.3278722,11.4708415 6.44019446,19.6285579 8.45263851,27.6501599 C10.4654485,35.6721278 18.6231649,40.5598055 26.6451328,38.5473615 C34.6667348,36.5341856 39.5547784,28.3768351 37.5419685,20.3552331 C37.435126,19.7580861 36.8646896,19.3607199 36.2682743,19.4671965 C35.6714932,19.574039 35.2737611,20.1444754 35.3806035,20.7412565 C35.3886533,20.7884575 35.4003621,20.8352925 35.414998,20.8810299 C37.1387478,27.7522457 32.9901859,34.6966413 26.1189701,36.4203911 C19.2477543,38.1441409 12.3037246,33.9955789 10.5796089,27.1243631 C8.85549322,20.2531473 13.004787,13.3091177 19.8756369,11.585002 C23.5617026,10.6600095 27.462185,11.4152249 30.5328088,13.6545262 C31.0059161,14.0335975 31.6963673,13.9574905 32.0758045,13.4843832 C32.4548758,13.0112759 32.3787688,12.3204588 31.9056615,11.9413875 C31.8793168,11.9205313 31.8526062,11.9007727 31.8247979,11.8824778 C29.2964363,10.0383472 26.2924062,9.04822475 23.2258074,9.00065789" id="path-1"></path>
    </defs>
    <g id="icons" stroke="none" stroke-width="1" fill="none" fill-rule="evenodd">
        <g transform="translate(-416.000000, -312.000000)" id="icon-checkcircle">
            <g transform="translate(408.000000, 303.000000)">
                <rect id="Rectangle-2" x="0" y="0" width="48" height="48"></rect>
                <mask id="mask-2" fill="white">
                    <use xlink:href="#path-1"></use>
                </mask>
                <use id="Fill-1" fill="#000000" xlink:href="#path-1"></use>
            </g>
        </g>
    </g>
</svg>