<?xml version="1.0" encoding="UTF-8"?>
<svg width="16px" height="16px" viewBox="0 0 16 16" version="1.1" xmlns="http://www.w3.org/2000/svg" xmlns:xlink="http://www.w3.org/1999/xlink">
    <!-- Generator: Sketch 45.1 (43504) - http://www.bohemiancoding.com/sketch -->
    <title>Shape</title>
    <desc>Created with Sketch.</desc>
    <defs></defs>
    <g id="Symbols" stroke="none" stroke-width="1" fill="none" fill-rule="evenodd" opacity="0.799999952">
        <g id="Icon/Comment-count-GREY" transform="translate(-4.000000, -4.000000)" fill-rule="nonzero" fill="#C7C7C7">
            <path d="M18.4197531,4 L5.58024691,4 C4.71111111,4 4,4.71820449 4,5.59600998 L4,15.3715711 C4,16.2493766 4.71111111,16.967581 5.58024691,16.967581 L10.4790123,16.967581 L13.0074074,19.6209476 C13.1851852,19.8603491 13.4814815,20 13.7777778,20 L13.7777778,20 C14.1135802,20 14.4296296,19.8204489 14.6074074,19.5411471 C14.6469136,19.4812968 14.6864198,19.4014963 14.7061728,19.3216958 L15.3580247,16.967581 L18.4197531,16.967581 C19.2888889,16.967581 20,16.2493766 20,15.3715711 L20,5.59600998 C20,4.71820449 19.2888889,4 18.4197531,4 Z M7.99012346,12.0598504 C7.12098765,12.0598504 6.40987654,11.3416459 6.40987654,10.4638404 C6.40987654,9.58603491 7.12098765,8.86783042 7.99012346,8.86783042 C8.85925926,8.86783042 9.57037037,9.58603491 9.57037037,10.4638404 C9.57037037,11.3416459 8.85925926,12.0598504 7.99012346,12.0598504 Z M11.9407407,12.0598504 C11.0716049,12.0598504 10.3604938,11.3416459 10.3604938,10.4638404 C10.3604938,9.58603491 11.0716049,8.86783042 11.9407407,8.86783042 C12.8098765,8.86783042 13.5209877,9.58603491 13.5209877,10.4638404 C13.5209877,11.3416459 12.8098765,12.0598504 11.9407407,12.0598504 Z M15.891358,12.0598504 C15.0222222,12.0598504 14.3111111,11.3416459 14.3111111,10.4638404 C14.3111111,9.58603491 15.0222222,8.86783042 15.891358,8.86783042 C16.7604938,8.86783042 17.4716049,9.58603491 17.4716049,10.4638404 C17.4716049,11.3416459 16.7604938,12.0598504 15.891358,12.0598504 Z" id="Shape"></path>
        </g>
    </g>
</svg>