<?xml version="1.0" encoding="UTF-8"?>
<svg width="134px" height="115px" viewBox="0 0 134 115" version="1.1" xmlns="http://www.w3.org/2000/svg" xmlns:xlink="http://www.w3.org/1999/xlink">
    <!-- Generator: sketchtool 46.2 (44496) - http://www.bohemiancoding.com/sketch -->
    <title>1E8BBE23-20E3-4BE3-89C6-9B4B8C8D41E8</title>
    <desc>Created with sketchtool.</desc>
    <defs></defs>
    <g id="Поп-апы-и-Модальные-окна" stroke="none" stroke-width="1" fill="none" fill-rule="evenodd">
        <g id="modal-Подробнее-(Подписка)" transform="translate(-536.000000, -351.000000)">
            <g id="2" transform="translate(512.000000, 325.000000)">
                <g id="icon" transform="translate(18.000000, 5.000000)">
                    <ellipse id="Oval-3" fill="#F4F4F4" cx="76.6791045" cy="132.328358" rx="28.5447761" ry="3.35820896"></ellipse>
                    <ellipse id="Oval-3" fill="#F4F4F4" cx="121.243164" cy="125.358209" rx="18.2431645" ry="3.35820896"></ellipse>
                    <ellipse id="Oval-3" fill="#F4F4F4" cx="33.0223881" cy="130.410448" rx="17.3507463" ry="3.91791045"></ellipse>
                    <ellipse id="Oval-3" fill="#F4F4F4" cx="17.9104478" cy="105.223881" rx="11.1940299" ry="2.23880597"></ellipse>
                    <ellipse id="Oval-3" fill="#F4F4F4" cx="48.1343284" cy="104.104478" rx="10.0746269" ry="2.23880597"></ellipse>
                    <g id="Icon/%/8%" transform="translate(34.946154, 74.232939)">
                        <g id="icon-8percent">
                            <rect id="Rectangle-3" x="0" y="0" width="35" height="35"></rect>
                            <g id="Group-6" transform="translate(2.916667, 4.618056)">
                                <polygon id="Path-30" fill="#CD9DD7" points="0.078650742 13.1692428 29.3014683 6.11759068 10.0817748 0.085394179"></polygon>
                                <polygon id="Path-31" fill="#AC7DB5" points="0.109496021 13.1554959 8.40739022 20.9842982 9.0073309 16.2815694 12.7493774 14.0116587 7.12936749 11.2730682"></polygon>
                                <polygon id="Path-32" fill="#C695CF" points="8.26653011 21.1466916 21.0143699 15.2702078 12.770455 13.8600572 8.52974316 16.1587465"></polygon>
                                <polygon id="Path-33" fill="#B889C1" points="7.17666358 11.3578622 10.2473111 0.157854539 0.0655414983 13.1456032"></polygon>
                                <polygon id="Path-34" fill="#73487B" points="0.0945874696 13.0660767 5.22749898 25.984063 8.446975 20.9041293"></polygon>
                                <polygon id="Path-35" fill="#936D9A" points="12.6334505 13.9448513 29.2423482 6.02431724 6.99596165 11.4847964"></polygon>
                                <polygon id="Path-36" fill="#D9ACE1" points="20.7179982 15.4811651 29.0277164 6.06979767 12.4733121 13.9188992"></polygon>
                                <polygon id="Path-37" fill="#A275AB" points="5.30384104 25.877942 23.9038015 21.7142978 20.8822493 15.0708133 8.28426615 20.8219047"></polygon>
                                <polygon id="Path-38" fill="#C38CCE" points="23.7338954 21.7900985 29.0917204 5.86449332 20.6416561 15.2696939"></polygon>
                            </g>
                        </g>
                    </g>
                    <g id="Icon/%/7%" transform="translate(97.000000, 81.000000)">
                        <g id="icon-7percent">
                            <rect id="Rectangle-3" x="0" y="0" width="49" height="49"></rect>
                            <g id="Group-5" transform="translate(11.569444, 3.062500)">
                                <polygon id="Path-5" fill="#C7EABE" points="9.3164842 13.9828926 11.5430303 7.97179893 6.34083244 5.85954086 0.0674300449 11.2769147"></polygon>
                                <polygon id="Path-6" fill="#C2E3BC" points="11.5448365 8.07925545 17.9884696 4.68925808 9.58409719 3.06777831 6.13101663 6.00070923"></polygon>
                                <polygon id="Path-7" fill="#AADBA2" points="18.048976 4.51738784 22.4677512 12.3045241 9.16386352 13.9329268 11.433908 7.95449151"></polygon>
                                <polygon id="Path-8" fill="#DDF3D7" points="18.0005107 4.74554483 23.3407294 2.70191444 14.7012549 0.284142732 9.52961131 3.11894808"></polygon>
                                <polygon id="Path-9" fill="#B0CDAC" points="22.3863234 12.1961646 24.5419776 8.99790335 23.3106267 2.63223326 17.7842228 4.71619746"></polygon>
                                <polygon id="Path-10" fill="#82BE88" points="9.39279454 13.8701686 10.2933168 42.4522486 1.73210928 36.9521001 0.157738141 11.2727007"></polygon>
                                <polygon id="Path-11" fill="#82C593" points="22.2165442 39.4661914 22.2165442 11.8987779 24.506607 8.87344041 25.9139081 15.0815377 25.52167 33.2648666"></polygon>
                                <polygon id="Path-12" fill="#91CB9B" points="9.18252719 13.8441322 10.0642352 42.3201102 22.3395137 39.5117927 22.4478834 11.9719206"></polygon>
                                <polygon id="Path-58" fill="#6B9873" opacity="0.161175272" points="1.76702841 36.7727049 9.6722981 31.7803412 19.5375545 31.7803412 25.6152893 33.1047353 22.4939405 39.3047056 10.2270908 42.125665"></polygon>
                                <polygon id="Path-59" fill="#B5E3BA" opacity="0.565613678" points="9.27915685 13.7950695 1.86335705 37.0315638 0.200483973 11.1709632"></polygon>
                            </g>
                        </g>
                    </g>
                    <g id="Icon/%/4%" transform="translate(12.313433, 101.865672)">
                        <g id="icon-4percent">
                            <rect id="Rectangle-3" x="0" y="0" width="39" height="39"></rect>
                            <g id="Group-2" transform="translate(2.166667, 9.208333)">
                                <polygon id="Path-17" fill="#A29790" points="0.563975193 6.40256755 0.252438584 2.29189046 2.19484586 1.07114156 5.50629215 0.142166138 25.4074542 1.07114156 30.1345135 7.49720764 31.0965197 8.98975627 28.4590258 12.9954732"></polygon>
                                <polygon id="Path-14" fill="#716765" points="27.9396676 12.5901235 28.8561273 11.9473896 32.4851276 13.7074788 31.0640354 15.5403646 26.4070328 14.7053833"></polygon>
                                <polygon id="Path-15" fill="#948885" points="28.8672327 11.9674123 30.8514195 8.61622747 33.5499195 12.6284555 32.3798471 13.8081309"></polygon>
                                <polygon id="Path-16" fill="#655954" points="33.5528059 12.5842489 34.6596219 15.6122309 27.7952493 18.1424357 22.6075385 17.3987071 26.553408 14.368571 30.7935934 15.3715668 32.979829 12.5842489"></polygon>
                                <polygon id="Path-18" fill="#584D4B" points="30.7886523 15.3906593 27.6989215 18.1425826 23.0735715 17.3962593 26.6352548 14.1646722"></polygon>
                                <polygon id="Path-4" fill="#443532" points="21.7116751 18.2908681 28.4586344 19.5084839 27.7165824 18.0852559 22.8126204 17.3113708"></polygon>
                                <polygon id="Path-13" fill="#71605D" points="28.4077553 19.5148481 34.1089535 16.5609843 34.6554146 15.5950966 27.6759769 18.1238327"></polygon>
                                <polygon id="Path-3" fill="#2E2220" points="0.515444364 6.36810303 9.7061657 18.7032674 18.540342 20.592158 25.2542299 16.0994339 28.8882203 11.946949 8.25767702 7.81796265 1.38351999 5.28129578"></polygon>
                                <polygon id="Path-19" fill="#453937" points="5.90999819 13.5845032 14.1117082 14.1224238 21.8799675 18.3789876 18.5458213 20.7768173 9.5065631 18.9151459"></polygon>
                                <polygon id="Path-20" fill="#C4BBB5" points="1.42774566 5.24839783 2.65667148 2.63340251 0.179055275 2.22433217 0.520532274 6.33559672"></polygon>
                                <polygon id="Path-21" fill="#D8D8D8" points="2.61812079 2.6666921 5.47576469 0.0912526449 2.21265354 1.06193797 0.244023964 2.30481466"></polygon>
                                <polygon id="Path-22" fill="#B7ADA6" points="8.42244701 7.89002482 18.375572 6.43566132 20.7872411 4.62588247 5.5123585 0.115730286 2.6791757 2.67863719 1.40387163 5.31987254"></polygon>
                                <polygon id="Path-23" fill="#C7BDB6" points="2.57506924 2.64397685 18.3953366 6.45348104 25.4178257 1.04333496 5.54934369 0.040339152"></polygon>
                            </g>
                        </g>
                    </g>
                    <g id="Icon/%/6%" transform="translate(5.597015, 81.716418)">
                        <g id="icon-6percent">
                            <rect id="Rectangle-3" x="0" y="0" width="27" height="27"></rect>
                            <g id="Group-4" transform="translate(4.125000, 2.812500)">
                                <polygon id="Path-27" fill="#96AB6E" points="8.81174723 21.5267744 15.9399414 18.6386257 19.6048991 13.3733212 19.5241292 11.9524761 11.6300456 16.6089638 6.51397705 20.2823594"></polygon>
                                <polygon id="Path-24" fill="#BED790" points="0.681355794 7.88967688 6.6549174 20.3841696 14.313151 15.1034813 19.4991048 12.0178963 14.2199707 0.886443796 10.9684245 0.145151083 8.28470866 0.862728971"></polygon>
                                <polygon id="Path-25" fill="#B3CD83" points="0.656280518 7.86079999 0.0221761068 11.5793765 2.74739583 17.7838698 5.55603027 21.0687819 6.67948405 20.3557016"></polygon>
                                <polygon id="Path-26" fill="#9BB272" points="5.51534017 21.0944389 8.80818685 21.507915 6.67190552 20.3345934"></polygon>
                                <polygon id="Path-28" fill="#758A4E" points="14.3711853 15.0512473 15.9650675 18.6188463 8.8092041 21.5327031 6.6742452 20.3337756"></polygon>
                                <polygon id="Path-29" fill="#D1EAA2" points="11.0221354 0.0400698764 2.8956604 12.5349204 0.645650228 7.88645698 8.29833984 0.832267687"></polygon>
                                <polygon id="Path-53" fill="#B0CA80" points="6.7470107 20.4169026 10.2145599 12.6393549 4.72454692 9.82427069 2.79866063 12.4688071"></polygon>
                                <polygon id="Path-54" fill="#A9C37A" opacity="0.192934783" points="10.2020406 12.6784824 16.9263228 6.64987118 14.2165641 0.888506301 10.9581916 0.195263802 4.69220538 9.86332346"></polygon>
                                <polygon id="Path-55" fill="#F6F6F6" opacity="0.480638587" points="0.662181766 7.92659029 1.57385538 9.83054303 8.21937029 0.893509236"></polygon>
                            </g>
                        </g>
                    </g>
                    <g id="Icon/%/10%" opacity="0.969999969">
                        <g id="icon-10percent">
                            <rect id="Rectangle-3" x="0" y="0" width="150" height="150"></rect>
                            <g id="Group-8" transform="translate(18.750000, 20.833333)">
                                <polygon id="Path-60" fill="#3DDDFF" points="56.5415122 111.722547 0.470882267 36.2794051 30.0356646 36.5167405"></polygon>
                                <polygon id="Path-61" fill="#4EC2DB" points="56.5260322 111.511822 83.8076835 35.6720425 29.7264231 36.8446947"></polygon>
                                <polygon id="Path-62" fill="#25A8C4" points="56.4443118 111.860993 112.15638 35.8406944 83.2194407 35.6997316"></polygon>
                                <polygon id="Path-63" fill="#00F9FF" points="0 36.79507 30.0803048 0.651059711 30.0803048 37.7810904"></polygon>
                                <polygon id="Path-63" fill="#2DB9D7" transform="translate(98.047192, 18.333979) scale(-1, 1) translate(-98.047192, -18.333979) " points="83.2338407 36.0701185 111.869819 0.597839065 112.860543 36.0701185"></polygon>
                                <polygon id="Path-64" fill="#25A8C4" points="29.491342 0.55828318 57.0379546 0.55828318 29.491342 38.1484613"></polygon>
                                <polygon id="Path-64" fill="#25A8C4" transform="translate(70.646920, 18.301974) scale(-1, 1) translate(-70.646920, -18.301974) " points="56.8784739 0.55828318 84.4153664 0.55828318 57.8551586 36.0456658"></polygon>
                                <polygon id="Path-65" fill="#5AD2EC" points="29.6225394 37.4227384 56.9997944 0.342523806 83.5945334 36.0793695"></polygon>
                                <polygon id="Path-68" fill="#4CB4CA" points="29.684239 37.3320789 56.9608504 43.1025807 83.3776905 35.968613"></polygon>
                                <polygon id="Path-69" fill="#4AC3DD" points="29.8907988 37.3887969 55.6414614 31.143114 83.7934925 35.8641089"></polygon>
                                <polygon id="Path-70" fill="#27AAC7" points="83.1568236 35.8475848 97.7800882 31.925555 112.503503 35.8060511"></polygon>
                                <polygon id="Path-71" fill="#259BB4" points="83.8086938 35.8761671 99.0708628 39.721382 112.454322 36.0315835"></polygon>
                                <polygon id="Path-66" fill="#22EAEF" points="0.261105773 36.7934808 17.838353 30.9716201 30.7425222 37.9698218"></polygon>
                                <polygon id="Path-67" fill="#3BCFEF" points="0.829815608 36.9060237 16.333418 42.7493212 30.5457987 37.581281"></polygon>
                            </g>
                        </g>
                    </g>
                </g>
            </g>
        </g>
    </g>
</svg>