<?xml version="1.0" encoding="UTF-8"?>
<svg width="143px" height="143px" viewBox="0 0 143 143" version="1.1" xmlns="http://www.w3.org/2000/svg" xmlns:xlink="http://www.w3.org/1999/xlink">
    <!-- Generator: sketchtool 46.2 (44496) - http://www.bohemiancoding.com/sketch -->
    <title>B85474A7-70CB-4E3C-B50F-BEEF40CB6A81</title>
    <desc>Created with sketchtool.</desc>
    <defs>
        <ellipse id="path-1" cx="114.503112" cy="67.8855698" rx="16.0123086" ry="15.9908231"></ellipse>
        <filter x="-15.6%" y="-6.3%" width="121.9%" height="125.0%" filterUnits="objectBoundingBox" id="filter-2">
            <feOffset dx="-3" dy="4" in="SourceAlpha" result="shadowOffsetOuter1"></feOffset>
            <feColorMatrix values="0 0 0 0 0   0 0 0 0 0   0 0 0 0 0  0 0 0 0.0535835598 0" type="matrix" in="shadowOffsetOuter1"></feColorMatrix>
        </filter>
    </defs>
    <g id="Поп-апы-и-Модальные-окна" stroke="none" stroke-width="1" fill="none" fill-rule="evenodd">
        <g id="modal-Подробнее-(Подписка)" transform="translate(-340.000000, -333.000000)">
            <g id="1" transform="translate(320.000000, 325.000000)">
                <g id="icon" transform="translate(20.000000, 8.000000)">
                    <ellipse id="тень" fill="#F3F3F3" cx="60.1216868" cy="130.642008" rx="60.1216868" ry="11.7668321"></ellipse>
                    <g id="Group" transform="translate(12.084761, 0.000000)">
                        <polygon id="Path-3" fill="#CEEAC3" points="24.5610436 22.6732195 48.8781665 0.378169811 90.7000271 34.6841048 75.7486756 52.9348338"></polygon>
                        <polygon id="Path-4" fill="#ABD09D" points="75.6725558 52.2571566 82.5545612 121.525839 93.9442662 131.634363 105.715697 132.472914 103.148023 111.842066 108.286069 97.1730075 130.531292 72.0074107 130.62349 61.2925994 90.297005 34.8909436"></polygon>
                        <polygon id="Path-5" fill="#9ECB8D" points="24.9565229 22.3132309 4.33700988 77.5381442 1.45340792 91.0552908 16.3427512 101.242606 23.2466431 105.927417 46.4950565 139.013972 53.2691316 135.415801 57.4238583 129.137946 65.8684392 126.317838 83.2436171 121.173122 76.0891496 52.6755486"></polygon>
                        <polygon id="Path-7" fill="#87A67B" points="4.53111013 78.0678244 46.083426 110.358617 46.8496923 139.025758 31.4215592 125.769804 23.4355021 106.66638 0.0213119615 90.5874269"></polygon>
                        <polygon id="Path-8" fill="#D7EFCE" points="49.2069238 0.242416546 111.770289 36.0170383 130.750868 61.6877384 99.5917113 42.6241012"></polygon>
                        <polygon id="Path-9" fill="#98C787" points="75.8784924 52.3302279 4.95934383 78.9477964 48.364418 36.377119"></polygon>
                        <path d="M49.2239076,0.375745646 L75.5746031,52.5989416 L90.3377203,35.1066217 L77.40856,30.7494524 C77.40856,30.7494524 78.0455339,43.1361936 77.40856,42.3683741 C76.7715862,41.6005546 72.4365777,27.3416204 72.4365777,27.3416204 L49.2239076,0.375745646 Z" id="Path-10" fill="#F2FFEE" opacity="0.251302083"></path>
                        <polygon id="Path-11" fill="#718769" opacity="0.400815217" points="83.5778335 121.237969 46.6266035 110.152866 23.3988828 106.359952 31.4451622 125.808697 46.6266035 138.915561 53.2360873 135.880747 57.684672 128.835851"></polygon>
                        <polygon id="Path-2" fill="#9DC58D" points="94.0734929 131.566595 93.1399923 113.462598 82.7605514 121.128599"></polygon>
                    </g>
                    <path d="M68.1267431,64.0712089 C68.1267431,59.9054128 64.7451606,56.5283678 60.5737673,56.5283678 C56.402374,56.5283678 53.0207916,59.9054128 53.0207916,64.0712089" id="Oval" stroke="#6A8D5C" stroke-width="4" stroke-linecap="round" transform="translate(60.573767, 60.299788) rotate(-8.000000) translate(-60.573767, -60.299788) "></path>
                    <path d="M110.423407,54.4163723 C110.423407,50.2505762 107.041825,46.8735312 102.870431,46.8735312 C98.6990381,46.8735312 95.3174557,50.2505762 95.3174557,54.4163723" id="Oval" stroke="#80A672" stroke-width="4" stroke-linecap="round" transform="translate(102.870431, 50.644952) rotate(-8.000000) translate(-102.870431, -50.644952) "></path>
                    <g id="Group-2" transform="translate(74.321281, 67.583856)">
                        <path d="M1.20847612,3.93258646 C1.20847612,3.93258646 1.56266881,17.3738489 15.3761838,14.5441094 C29.1896987,11.71437 28.835506,4.99373875 28.1271206,1.81028186 L1.20847612,3.93258646 Z" id="Fill-1" fill="#658459" transform="translate(14.803832, 8.372903) rotate(-7.000000) translate(-14.803832, -8.372903) "></path>
                        <path d="M0.595927641,3.97813565 C0.595927641,3.97813565 2.23121116,8.49260669 5.55373722,5.17453882 C5.55373722,5.17453882 7.03041548,8.12393248 10.3529415,5.17453882 C10.3529415,5.17453882 12.9371285,9.22995511 17.3671632,4.06851619 C17.3671632,4.06851619 20.6896893,7.01790986 22.9047067,3.33116778 C22.9047067,3.33116778 26.0643968,6.47570231 27.9102446,3.15763444 L27.6170569,1.87340879 L0.595927641,3.97813565 Z" id="Fill-1" fill="#FFFFFF" transform="translate(14.253086, 4.281235) rotate(-7.000000) translate(-14.253086, -4.281235) "></path>
                        <path d="M8.77826902,15.1015929 C8.77826902,15.1015929 11.7086609,16.0521027 16.5758314,14.5986386 C21.4430018,13.1451745 23.7626648,10.6268613 23.7626648,10.6268613 C23.7626648,10.6268613 19.3054815,7.41633581 14.6934882,8.79359736 C10.0814948,10.1708589 8.77826902,15.1015929 8.77826902,15.1015929 Z" id="Path-13" fill="#CC7676"></path>
                    </g>
                    <polygon id="Path-6" fill="#93BB84" points="105.12031 113.664722 115.375245 111.718316 117.733779 132.382754 106.242635 131.378024"></polygon>
                    <polygon id="Path-12" fill="#86AF76" points="120.256945 96.8807224 105.062483 113.527419 115.384686 111.713012"></polygon>
                    <polygon id="Path-14" fill="#F4E1BA" points="58.6535772 110.037087 67.6923649 97.8188632 81.3785929 99.9379302 91.4175598 91.7079834 104.139013 95.498261 120.039207 91.7079834 124.148498 93.368587 115.218284 112.409546 108.088983 124.625413 104.139013 124.625413 100.928999 127.5353 99.2620332 125.664322 97.2380717 127.5353 92.5935817 128.366191 69.4519722 117.146215"></polygon>
                    <polygon id="Path-15" fill="#E9D7B0" points="81.6299654 100.171287 83.9626221 106.147724 81.6299654 108.125448 87.266628 114.61283 78.677814 111.540352 90.0378904 121.713007 92.4649451 127.931299 69.8260805 118.275284 58.1136574 110.073623 67.9508182 97.8165061"></polygon>
                    <polygon id="Path-16" fill="#FFEFCD" points="104.225164 95.3114579 104.719936 99.6584276 101.938029 108.398287 105.493286 106.452925 109.234321 114.30881 105.970685 110.647264 107.955626 124.851109 116.572509 111.03946 124.231699 93.0061771 119.310463 91.5406266"></polygon>
                    <polygon id="Path-17" fill="#93B984" opacity="0.283797554" points="58.1396208 109.868552 58.1396208 107.210879 65.0712462 97.5866852 81.5290623 96.9101866 91.4364422 91.8753402 81.5290623 99.6279401 67.4899687 98.259648"></polygon>
                    <path d="M22.696102,94.4964775 C22.696102,94.4964775 29.0695154,105.989076 45.7769337,102.293889 C50.0058638,101.358575 55.3662625,99.7670377 55.3662625,99.7670377 L57.2185118,94.4964775 L38.0156611,98.0310057 L24.9785169,94.4964775 L22.696102,94.4964775 Z" id="Path-21" fill="#7C9A71" opacity="0.155400815"></path>
                    <path d="M13.8974753,85.2671042 C13.8974753,85.2671042 24.561333,100.636822 35.6996119,100.636822 C46.8378908,100.636822 57.986791,94.2595851 57.986791,94.2595851 L52.5309462,92.8559095 L52.5309462,88.9524893 C52.5309462,88.9524893 49.227546,89.4858737 48.3272432,88.9524893 C47.7581619,88.6153371 48.3756294,88.9524893 46.3103626,88.9524893 C44.2450958,88.9524893 46.3103626,85.2671042 46.3103626,85.2671042 C46.3103626,85.2671042 47.6156112,82.0661111 46.3103626,82.0661111 C45.005114,82.0661111 32.7869956,96.1559025 20.6621092,82.0661111 L13.8974753,85.2671042 Z" id="Path-20" fill="#87A67B"></path>
                    <g id="Oval-2">
                        <use fill="black" fill-opacity="1" filter="url(#filter-2)" xlink:href="#path-1"></use>
                        <use fill="#51B37B" fill-rule="evenodd" xlink:href="#path-1"></use>
                    </g>
                    <path d="M107.882476,72.2857616 C108.456908,72.2857616 108.894674,72.133096 109.195787,71.8277603 C109.496901,71.5224245 109.647455,71.1523262 109.647455,70.7174541 C109.647455,70.190056 109.489952,69.8014527 109.174941,69.5516325 C108.85993,69.3018124 108.364258,69.1769042 107.687911,69.1769042 L106.687293,69.1769042 L106.687293,68.2192651 L108.368887,65.9292585 L109.161043,65.3047113 L108.063143,65.4296208 L105.728367,65.4296208 L105.728367,63.9029497 L111.037203,63.9029497 L111.037203,64.8883465 L109.077659,67.5114449 L108.46617,67.8861732 L108.46617,67.9555674 L109.049864,67.8722944 C109.37414,67.9000522 109.682197,67.9740719 109.974046,68.0943557 C110.265894,68.2146394 110.520679,68.388123 110.738407,68.6148117 C110.956135,68.8415003 111.129852,69.1213872 111.259562,69.4544808 C111.389273,69.7875743 111.454127,70.1715513 111.454127,70.6064234 C111.454127,71.1523267 111.363794,71.6242021 111.183126,72.0220639 C111.002458,72.4199256 110.752306,72.7530141 110.432662,73.0213395 C110.113019,73.2896648 109.740107,73.4885927 109.313916,73.618129 C108.887724,73.7476654 108.429112,73.8124326 107.938066,73.8124326 C107.530404,73.8124326 107.108852,73.7754228 106.673395,73.701402 C106.237939,73.6273812 105.885873,73.5209779 105.617187,73.382189 L106.103599,71.8832756 C106.34449,72.0035594 106.610855,72.1007102 106.902704,72.174731 C107.194552,72.2487518 107.52114,72.2857616 107.882476,72.2857616 Z M113.121824,66.0958045 C113.121824,65.6794376 113.182046,65.3232179 113.302491,65.0271348 C113.422936,64.7310516 113.589705,64.4858614 113.8028,64.2915569 C114.015896,64.0972523 114.272997,63.9561523 114.57411,63.8682526 C114.875224,63.780353 115.201811,63.7364038 115.553882,63.7364038 C115.905953,63.7364038 116.230224,63.7780398 116.526705,63.8613132 C116.823186,63.9445866 117.080287,64.0787473 117.298015,64.2637992 C117.515743,64.4488512 117.684828,64.6917282 117.805273,64.9924377 C117.925718,65.2931471 117.990573,65.6609324 117.999838,66.0958045 C117.990573,66.5306766 117.925718,66.8984618 117.805273,67.1991713 C117.684828,67.4998807 117.515743,67.7427578 117.298015,67.9278097 C117.080287,68.1128617 116.823186,68.2470223 116.526705,68.3302957 C116.230224,68.4135691 115.905953,68.4552052 115.553882,68.4552052 C115.201811,68.4552052 114.875224,68.4135691 114.57411,68.3302957 C114.272997,68.2470223 114.015896,68.1128617 113.8028,67.9278097 C113.589705,67.7427578 113.422936,67.4998807 113.302491,67.1991713 C113.182046,66.8984618 113.121824,66.5306766 113.121824,66.0958045 Z M114.733931,66.0958045 C114.733931,66.8915279 115.007245,67.2893837 115.553882,67.2893837 C115.841098,67.2893837 116.047242,67.2037984 116.17232,67.0326253 C116.297398,66.8614523 116.364568,66.5491818 116.373833,66.0958045 C116.364568,65.6516798 116.297398,65.3417224 116.17232,65.165923 C116.047242,64.9901237 115.841098,64.9022253 115.553882,64.9022253 C115.266666,64.9022253 115.058206,64.9901237 114.928496,65.165923 C114.798785,65.3417224 114.733931,65.6516798 114.733931,66.0958045 Z M118.764199,71.2309707 C118.764199,70.8146038 118.824421,70.4583841 118.944866,70.162301 C119.065311,69.8662178 119.232079,69.6210277 119.445175,69.4267231 C119.658271,69.2324185 119.915372,69.0913185 120.216485,69.0034189 C120.517599,68.9155192 120.844186,68.87157 121.196257,68.87157 C121.548328,68.87157 121.872599,68.9132061 122.16908,68.9964794 C122.465561,69.0797528 122.722662,69.2139135 122.94039,69.3989654 C123.158118,69.5840174 123.327203,69.8268945 123.447648,70.1276039 C123.568093,70.4283133 123.632948,70.7960986 123.642213,71.2309707 C123.632948,71.6658428 123.568093,72.033628 123.447648,72.3343375 C123.327203,72.6350469 123.158118,72.877924 122.94039,73.0629759 C122.722662,73.2480279 122.465561,73.3821886 122.16908,73.4654619 C121.872599,73.5487353 121.548328,73.5903714 121.196257,73.5903714 C120.844186,73.5903714 120.517599,73.5487353 120.216485,73.4654619 C119.915372,73.3821886 119.658271,73.2480279 119.445175,73.0629759 C119.232079,72.877924 119.065311,72.6350469 118.944866,72.3343375 C118.824421,72.033628 118.764199,71.6658428 118.764199,71.2309707 Z M120.376306,71.2309707 C120.376306,72.0266941 120.64962,72.4245499 121.196257,72.4245499 C121.483473,72.4245499 121.689617,72.3389646 121.814695,72.1677916 C121.939773,71.9966185 122.006943,71.684348 122.016208,71.2309707 C122.006943,70.786846 121.939773,70.4768886 121.814695,70.3010892 C121.689617,70.1252899 121.483473,70.0373915 121.196257,70.0373915 C120.909041,70.0373915 120.700581,70.1252899 120.570871,70.3010892 C120.44116,70.4768886 120.376306,70.786846 120.376306,71.2309707 Z M121.821643,63.7086461 L122.836159,64.6246487 L114.831213,73.8124326 L113.816698,72.8547935 L121.821643,63.7086461 Z" id="3%" fill="#FFFFFF"></path>
                    <path d="M119.502238,70.6068854 C119.502238,70.6068854 129.996154,72.5515242 134.230541,69.6652089 C138.464928,66.7788936 142.748881,61.497137 142.748881,61.497137 L142.748881,71.6569904 C142.748881,71.6569904 132.627303,90.6484499 114.691346,84.7992124 C114.061768,84.5938957 118.562837,81.3392287 118.562837,81.3392287 L115.771776,77.8559682 L119.502238,75.9917668 C119.502238,75.9917668 117.838813,74.9946975 116.294584,72.3299532 C114.750354,69.6652089 116.385854,69.8233931 116.947798,69.6652089 C117.509742,69.5070246 119.502238,70.6068854 119.502238,70.6068854 Z" id="Path-22" fill="#8FBC7E"></path>
                </g>
            </g>
        </g>
    </g>
</svg>