<?xml version="1.0" encoding="UTF-8"?>
<svg width="34px" height="34px" viewBox="0 0 34 34" version="1.1" xmlns="http://www.w3.org/2000/svg" xmlns:xlink="http://www.w3.org/1999/xlink">
    <!-- Generator: Sketch 44.1 (41455) - http://www.bohemiancoding.com/sketch -->
    <title>FB</title>
    <desc>Created with Sketch.</desc>
    <defs>
        <path d="M1.97916667,3.95833333 L1.97916667,6.33333333 L0,6.33333333 L0,9.5 L1.97916667,9.5 L1.97916667,19 L5.9375,19 L5.9375,9.5 L8.3125,9.5 C8.34290522,9.49472222 8.58600562,7.961 8.70833333,6.33333333 L5.9375,6.33333333 L5.9375,3.95833333 C5.9375,3.16666667 6.72916667,3.16666667 6.72916667,3.16666667 L8.70833333,3.16666667 L8.70833333,0 L5.9375,0 C1.78696939,0 1.97916667,2.8032074 1.97916667,3.55665334" id="path-1"></path>
    </defs>
    <g id="Symbols" stroke="none" stroke-width="1" fill="none" fill-rule="evenodd">
        <g id="Социалки-Hover" transform="translate(-39.000000, 1.000000)">
            <g id="Социалки">
                <g id="FB" transform="translate(40.000000, 0.000000)">
                    <circle id="Oval-5" stroke="#3B5998" stroke-width="2" cx="16" cy="16" r="16"></circle>
                    <g id="Icon/Facebook" transform="translate(7.000000, 7.000000)">
                        <g id="facebook" transform="translate(4.750000, 0.000000)">
                            <mask id="mask-2" fill="white">
                                <use xlink:href="#path-1"></use>
                            </mask>
                            <use id="Mask" fill="#1D1C1B" xlink:href="#path-1"></use>
                            <g id="Mixin/Fill/fb" mask="url(#mask-2)" fill="#3B5998">
                                <g transform="translate(-125.479167, -21.770833)" id="Mixin/Fill/Grey">
                                    <rect x="0" y="0" width="262" height="59"></rect>
                                </g>
                            </g>
                        </g>
                    </g>
                </g>
            </g>
        </g>
    </g>
</svg>