<?xml version="1.0" encoding="UTF-8"?>
<svg width="36px" height="36px" viewBox="0 0 36 36" version="1.1" xmlns="http://www.w3.org/2000/svg" xmlns:xlink="http://www.w3.org/1999/xlink">
    <!-- Generator: Sketch 46 (44423) - http://www.bohemiancoding.com/sketch -->
    <title>icon-search</title>
    <desc>Created with Sketch.</desc>
    <defs></defs>
    <g id="icons" stroke="none" stroke-width="1" fill="none" fill-rule="evenodd">
        <g transform="translate(-198.000000, -309.000000)" id="icon-search">
            <g transform="translate(192.000000, 303.000000)">
                <rect id="Rectangle-2" x="0" y="0" width="24" height="24"></rect>
                <path d="M27.874,31.667 C21.349,31.667 16.04,26.358 16.04,19.834 C16.04,13.309 21.349,8 27.874,8 C34.398,8 39.707,13.309 39.707,19.834 C39.707,26.358 34.398,31.667 27.874,31.667 M14.04,19.834 C14.04,23.288 15.321,26.443 17.423,28.87 L6,40.293 L7.414,41.707 L18.837,30.284 C21.264,32.386 24.419,33.667 27.874,33.667 C35.502,33.667 41.707,27.461 41.707,19.834 C41.707,12.206 35.502,6 27.874,6 C20.246,6 14.04,12.206 14.04,19.834 Z" id="Page-1" fill="#c7c7c7"></path>
            </g>
        </g>
    </g>
</svg>