<?xml version="1.0" encoding="UTF-8"?>
<svg width="40px" height="40px" viewBox="0 0 48 48" version="1.1" xmlns="http://www.w3.org/2000/svg" xmlns:xlink="http://www.w3.org/1999/xlink">
    <!-- Generator: Sketch 46 (44423) - http://www.bohemiancoding.com/sketch -->
    <title>icon-telegram</title>
    <desc>Created with Sketch.</desc>
    <defs></defs>
    <g id="icons" stroke="none" stroke-width="1" fill="none" fill-rule="evenodd">
        <g transform="translate(-480.000000, -223.000000)" id="_social">
            <g transform="translate(48.000000, 223.000000)">
                <g id="icon-telegram" transform="translate(432.000000, 0.000000)">
                    <rect id="Rectangle-2" x="0" y="0" width="40" height="40"></rect>
                    <path d="M30.5436309,18.0123347 C30.3539775,18.066053 30.1743321,18.1848845 30.0051953,18.3004604 C26.4037822,20.7601095 22.8053716,23.2240996 19.2014565,25.6788652 C18.9977918,25.8177733 18.959761,25.9360622 19.0373237,26.178066 C19.3030387,27.0055456 19.5447342,27.8406217 19.7954369,28.67407 C20.1292069,29.783164 20.4624765,30.8917153 20.7967469,32.0002667 C20.8147614,31.9953832 20.832776,31.9894145 20.8507906,31.984531 C20.8607987,31.9346109 20.8753104,31.885776 20.8793137,31.8369412 C20.982397,30.6301775 21.0914853,29.4244991 21.1810577,28.2161076 C21.2010739,27.9475158 21.2861427,27.7559746 21.4727937,27.574743 C22.952991,26.1400834 24.424181,24.6951141 25.8983734,23.2539431 C27.5301934,21.6581283 29.1625137,20.0639414 30.7883288,18.4616154 C30.8889101,18.3628605 30.9309441,18.1946515 31,18.0579139 C30.8468761,18.0400078 30.6827434,17.9732668 30.5436309,18.0123347" fill="#179cde"></path>
                    <path d="M35.6661333,17.2048 C34.5584,22.4357333 33.4496,27.6661333 32.336,32.896 C32.0714667,34.1370667 31.1994667,34.4613333 30.1776,33.7077333 C28.4661333,32.4464 26.7562667,31.1808 25.0458667,29.9178667 C24.9642667,29.8586667 24.8794667,29.8010667 24.7861333,29.7354667 C23.8618667,30.6362667 22.9456,31.5216 22.0378667,32.4138667 C21.7205333,32.7264 21.3637333,32.8992 20.9082667,32.8752 C20.5973333,32.8586667 20.4234667,32.7221333 20.328,32.4266667 C19.6325333,30.2682667 18.9269333,28.1152 18.2352,25.9546667 C18.168,25.7456 18.0688,25.6432 17.8565333,25.5776 C16.2181333,25.0778667 14.5829333,24.5658667 12.9504,24.0464 C12.6992,23.9669333 12.4458667,23.8618667 12.2288,23.7141333 C11.8933333,23.4869333 11.8442667,23.1168 12.1445333,22.8501333 C12.4229333,22.6037333 12.7546667,22.3898667 13.0992,22.2533333 C15.1018667,21.4597333 17.1152,20.6912 19.1253333,19.9168 C24.2266667,17.9472 29.328,15.9786667 34.4298667,14.0096 C35.4,13.6346667 36.1456,14.1626667 36.0448,15.2117333 C35.9802667,15.8826667 35.8064,16.5429333 35.6661333,17.2048 M24,0 C10.7450667,0 0,10.7456 0,24 C0,37.2554667 10.7450667,48 24,48 C37.2549333,48 48,37.2554667 48,24 C48,10.7456 37.2549333,0 24,0" fill="#179cde"></path>
                </g>
            </g>
        </g>
    </g>
</svg>