<?xml version="1.0" encoding="UTF-8"?>
<svg width="41px" height="24px" viewBox="0 0 48 28" version="1.1" xmlns="http://www.w3.org/2000/svg" xmlns:xlink="http://www.w3.org/1999/xlink">
    <g transform="translate(-552.000000, -233.000000)" id="_social">
        <g transform="translate(48.000000, 223.000000)">
            <g id="icon-vk" transform="translate(504.000000, 0.000000)">
                <path d="M42.5597713,21.7054223 C43.2412905,20.8048824 43.7827809,20.0799372 44.1842427,19.5348179 C47.0675932,15.617434 48.3154355,13.1139753 47.9325983,12.0230315 L47.7815328,11.7663389 C47.6822021,11.6154262 47.4235283,11.4743862 47.0082707,11.3453347 C46.5909436,11.2183988 46.0570409,11.1993584 45.4079421,11.2818667 L38.2106026,11.3340515 C38.0436718,11.3178319 37.8767409,11.3206527 37.7125693,11.3453347 C37.5449487,11.3728375 37.4373404,11.3975195 37.3862954,11.4222015 C37.3352505,11.4497043 37.2945525,11.4694498 37.262132,11.4856694 L37.1628013,11.5625362 C37.0793359,11.6154262 36.9875929,11.7035761 36.8875724,11.8326276 C36.7882416,11.9595636 36.702017,12.1083607 36.6371761,12.279019 C35.8528772,14.3396123 34.9637292,16.25705 33.9614544,18.0278063 C33.3475353,19.0827849 32.778453,20.0002496 32.2638646,20.7745588 C31.746517,21.5481628 31.3126348,22.12149 30.9649773,22.485373 C30.6152503,22.8513717 30.297254,23.1461451 30.0144373,23.3668726 C29.7309308,23.5897156 29.5157142,23.6835072 29.3646487,23.647542 C29.2135832,23.6143976 29.0735545,23.5812533 28.9390441,23.5459933 C28.7072724,23.3943754 28.5189579,23.1849311 28.3782393,22.9204812 C28.2354514,22.6560314 28.1416391,22.3252927 28.0899043,21.923329 C28.0416185,21.5234808 28.0091981,21.1793434 28.0036797,20.8873907 C27.9933327,20.5982589 27.9988511,20.1906535 28.0147164,19.6617538 C28.0312716,19.1356749 28.0416185,18.7774335 28.0416185,18.5898504 C28.0416185,17.9424771 28.0526553,17.2400983 28.0767982,16.4827139 C28.1037002,15.7225087 28.1223247,15.1216787 28.1416391,14.6809289 C28.1575044,14.2373583 28.1657819,13.7691058 28.1657819,13.2733505 C28.1657819,12.7804159 28.1361207,12.3946717 28.0767982,12.1111815 C28.0202348,11.8326276 27.931251,11.5597154 27.8153652,11.2952655 C27.6994793,11.0308157 27.5270301,10.827013 27.303536,10.6810367 C27.0772826,10.5378811 26.7992945,10.4222284 26.4654329,10.3368993 C25.5818032,10.1330966 24.4581243,10.0230854 23.0923267,10.0033398 C19.9930697,9.97090066 18.0023162,10.1747033 17.1179968,10.6175687 C16.7682698,10.8051518 16.4530327,11.0611393 16.1695262,11.3834155 C15.868085,11.7614025 15.827387,11.9652052 16.0432934,11.9983496 C17.0428089,12.1492623 17.7512302,12.5187869 18.1692471,13.0970506 L18.3175534,13.4031072 C18.4361984,13.6259503 18.5520843,14.0173361 18.6672803,14.5793802 C18.7831662,15.1414242 18.8590438,15.7605895 18.8942235,16.4439279 C18.9776889,17.6864897 18.9776889,18.7499307 18.8942235,19.6370718 C18.8107581,20.5235077 18.7321212,21.2124877 18.6569334,21.7054223 C18.5817455,22.2011776 18.4679291,22.6010258 18.3203126,22.9063772 C18.1692471,23.2152547 18.0692265,23.4021326 18.0181816,23.4684213 C17.9671366,23.5375309 17.9264386,23.5812533 17.8940182,23.598178 C17.6760424,23.6806864 17.4525482,23.7244088 17.2180173,23.7244088 C16.9862456,23.7244088 16.7034289,23.6059352 16.3688775,23.3668726 C16.0350158,23.1299255 15.6901175,22.8020077 15.3321129,22.3831191 C14.9734186,21.9670513 14.5691977,21.383146 14.1194502,20.6314033 C13.6690129,19.8845969 13.2034001,18.9974557 12.7205423,17.9756215 L12.3218398,17.2344567 C12.0714436,16.758447 11.7293044,16.0638253 11.2954222,15.1520022 C10.86154,14.2401791 10.4787028,13.3615004 10.1476004,12.5075037 C10.01309,12.1492623 9.81373873,11.879876 9.54678737,11.6894721 L9.42262395,11.6154262 C9.33915854,11.5463166 9.20464817,11.4743862 9.02116223,11.3975195 C8.83767629,11.3206527 8.64660258,11.264942 8.44725131,11.229682 L1.60032852,11.2818667 C0.900184792,11.2818667 0.42560461,11.4440627 0.175208381,11.7663389 L0.0751878485,11.9207776 C0.0241428871,12.0061067 0,12.1443259 0,12.328383 C0,12.5187869 0.0510449614,12.7472715 0.151065494,13.0201838 C1.15058102,15.4220937 2.23632115,17.7386744 3.41104505,19.9671052 C4.58576896,22.2011776 5.60735799,23.997321 6.47236314,25.3611771 C7.34012749,26.7243279 8.22375716,28.0084964 9.12394195,29.2172086 C10.0234369,30.4266259 10.6194214,31.2037559 10.9098258,31.5422517 C11.20092,31.8842735 11.4299326,32.1395558 11.5968634,32.3080985 L12.2225091,32.9223274 C12.6212116,33.3327535 13.2082287,33.8207517 13.9821806,34.3933738 C14.758202,34.9638803 15.6149296,35.5259244 16.5578818,36.0759801 C17.4980748,36.6323826 18.5948517,37.0822999 19.842694,37.4320789 C21.0926058,37.7811527 22.3080277,37.9221927 23.4937884,37.8537883 L26.3654124,37.8537883 C26.95036,37.8037191 27.3897606,37.6168412 27.6912018,37.2917442 L27.7912223,37.1641031 C27.8560632,37.0625543 27.9202143,36.906 27.9767776,36.6909141 C28.0361001,36.478649 28.0657614,36.2445228 28.0657614,35.9913561 C28.0498961,35.2586537 28.1037002,34.5971765 28.2278636,34.0104504 C28.3513373,33.4209035 28.4941252,32.9801537 28.6534683,32.6804439 C28.8121215,32.3828497 28.9900891,32.1317986 29.1894404,31.9279959 C29.3887916,31.7213724 29.5308898,31.6000781 29.615045,31.5563557 C29.6985104,31.5147489 29.7661105,31.4844254 29.8143962,31.4682058 C30.2137886,31.3306918 30.6849198,31.461859 31.2264102,31.8617071 C31.7679007,32.2643761 32.2776605,32.7566055 32.7515509,33.3433315 C33.2261311,33.9328784 33.7972828,34.5922401 34.4629367,35.3249425 C35.13066,36.0576449 35.7128485,36.6027642 36.2143307,36.9610056 L36.712364,37.2670622 C37.0469154,37.4708649 37.4780384,37.6577428 38.0112513,37.8284011 C38.545154,37.9997646 39.013526,38.0427818 39.4129184,37.9574526 L45.8094039,37.8537883 C46.4426373,37.8537883 46.935842,37.7487135 47.2834996,37.5336277 C47.6332265,37.3248886 47.8436146,37.0879415 47.9084555,36.8312488 C47.9760555,36.577377 47.9808841,36.2889503 47.9215616,35.9638533 C47.8622391,35.6415771 47.8056757,35.4159132 47.747043,35.2889773 C47.6877205,35.1592206 47.6332265,35.054851 47.5849408,34.9695219 C46.7495969,33.4350075 45.1603051,31.5528297 42.8094777,29.3222833 L42.7108367,29.2200294 L42.6866939,29.2200294 C41.6195782,28.1819756 40.9456468,27.4824175 40.6628301,27.1241761 C40.1454825,26.4436585 40.0295967,25.7546785 40.3124134,25.0551205 C40.5117646,24.5262207 41.2608839,23.4105949 42.5597713,21.7054223" fill="#507299"></path>
            </g>
        </g>
    </g>
</svg>