<?xml version="1.0" encoding="UTF-8"?>
<svg width="40px" height="40px" viewBox="0 0 48 48" version="1.1" xmlns="http://www.w3.org/2000/svg" xmlns:xlink="http://www.w3.org/1999/xlink">
    <!-- Generator: Sketch 46 (44423) - http://www.bohemiancoding.com/sketch -->
    <title>icon-whatsapp</title>
    <desc>Created with Sketch.</desc>
    <defs></defs>
    <g id="icons" stroke="none" stroke-width="1" fill="none" fill-rule="evenodd">
        <g transform="translate(-408.000000, -223.000000)" id="_social">
            <g transform="translate(48.000000, 223.000000)">
                <g id="icon-whatsapp" transform="translate(360.000000, 0.000000)">
                    <rect id="Rectangle-2" x="0" y="0" width="40" height="40"></rect>
                    <path d="M36.32,28.7466667 C36.16,28.5333333 35.7866667,28.3733333 35.2,28.0528 C34.6138667,27.7861333 31.7866667,26.4 31.2533333,26.1861333 C30.72,25.9733333 30.3472,25.9194667 29.9738667,26.4528 C29.6,27.04 28.4805333,28.3194667 28.16,28.6928 C27.8405333,29.0666667 27.4666667,29.1194667 26.9333333,28.8528 C26.3472,28.5861333 24.4805333,27.9466667 22.2933333,26.0261333 C20.5866667,24.5333333 19.4138667,22.6133333 19.0933333,22.08 C18.7738667,21.4928 19.0405333,21.1733333 19.36,20.9066667 C19.6266667,20.64 19.9472,20.2133333 20.2138667,19.8928 C20.4805333,19.5733333 20.5866667,19.3066667 20.8,18.9333333 C21.0138667,18.5594667 20.9072,18.24 20.7472,17.9194667 C20.5866667,17.6528 19.4666667,14.8261333 18.9866667,13.6528 C18.5072,12.5333333 18.0266667,12.6928 17.7072,12.6928 C17.3866667,12.6928 16.96,12.64 16.5866667,12.64 C16.2138667,12.64 15.5738667,12.8 15.0405333,13.3333333 C14.5072,13.9194667 13.0138667,15.3066667 13.0138667,18.1333333 C13.0138667,20.9594667 15.0933333,23.68 15.36,24.0528 C15.6266667,24.4261333 19.36,30.4 25.2266667,32.6928 C31.0933333,34.9861333 31.0933333,34.24 32.16,34.1333333 C33.2266667,34.0261333 35.5738667,32.7466667 36.0533333,31.4133333 C36.4805333,30.1333333 36.4805333,29.0133333 36.32,28.7466667 M24.4266667,3.73333333 C13.4933333,3.73333333 4.64053333,12.5333333 4.64053333,23.3594667 C4.64053333,27.68 6.02666667,31.6261333 8.42666667,34.88 L5.97386667,42.1861333 L13.6,39.7861333 C16.7472,41.8666667 20.4805333,43.04 24.4805333,43.04 C35.36,43.04 44.2666667,34.24 44.2666667,23.3594667 C44.2666667,12.48 35.36,3.73333333 24.4266667,3.73333333 M48,23.3594667 C48,36.2666667 37.4405333,46.7194667 24.4266667,46.7194667 C20.32,46.7194667 16.4266667,45.6528 13.0138667,43.7861333 L0,48 L4.26666667,35.4666667 C2.13333333,31.9466667 0.9072,27.7861333 0.9072,23.4133333 C0.853333333,10.4528 11.4138667,0 24.4266667,0 C37.4405333,0 48,10.4528 48,23.3594667" fill="#00c464"></path>
                </g>
            </g>
        </g>
    </g>
</svg>