<?xml version="1.0" encoding="UTF-8"?>
<svg width="34px" height="34px" viewBox="0 0 34 34" version="1.1" xmlns="http://www.w3.org/2000/svg" xmlns:xlink="http://www.w3.org/1999/xlink">
    <!-- Generator: Sketch 44.1 (41455) - http://www.bohemiancoding.com/sketch -->
    <title>INST</title>
    <desc>Created with Sketch.</desc>
    <defs>
        <path d="M9.49700298,0.00599781746 C6.91779067,0.00599781746 6.59433829,0.0169303571 5.58141964,0.0631486111 C4.57053671,0.10925377 3.88020337,0.26981131 3.27608631,0.504597024 C2.6516121,0.747261706 2.1219494,1.07199583 1.59398313,1.5999621 C1.06601687,2.12796607 0.741282738,2.65759107 0.498580357,3.28210298 C0.263794643,3.88618234 0.103274802,4.57655337 0.0571319444,5.58739861 C0.0109136905,6.60035496 1.88492063e-05,6.92373194 1.88492063e-05,9.50298194 C1.88492063e-05,12.0822319 0.0109136905,12.4056466 0.0571319444,13.418603 C0.103274802,14.4294482 0.263794643,15.1198192 0.498580357,15.7238986 C0.741282738,16.3483728 1.06601687,16.8780355 1.59398313,17.4060395 C2.1219494,17.9340058 2.6516121,18.2587022 3.27608631,18.5014423 C3.88020337,18.7361903 4.57053671,18.8967478 5.58141964,18.9428907 C6.59433829,18.9890712 6.91779067,19.0000038 9.49700298,19.0000038 C12.076253,19.0000038 12.39963,18.9890712 13.4125863,18.9428907 C14.4234692,18.8967478 15.1138026,18.7361903 15.7179196,18.5014423 C16.3424315,18.2587022 16.8720565,17.9340058 17.4000228,17.4060395 C17.9280268,16.8780355 18.2527232,16.3484105 18.4954256,15.7238986 C18.7302113,15.1198192 18.8907688,14.4294482 18.9368363,13.418603 C18.9830923,12.4056466 18.9940248,12.0822319 18.9940248,9.50298194 C18.9940248,6.92376964 18.9830923,6.60035496 18.9368363,5.58739861 C18.8907688,4.57655337 18.7302113,3.88618234 18.4954256,3.28210298 C18.2527232,2.65759107 17.9280268,2.12796607 17.4000228,1.5999621 C16.8720565,1.07199583 16.3424315,0.747261706 15.7179196,0.504597024 C15.1138026,0.26981131 14.4234692,0.10925377 13.4125863,0.0631486111 C12.39963,0.0169303571 12.076253,0.00599781746 9.49700298,0.00599781746 M9.49700298,1.71716647 C12.0328244,1.71716647 12.3331677,1.72681726 13.3345883,1.77250774 C14.2605367,1.81476766 14.7633958,1.96948194 15.0980446,2.09954147 C15.5413403,2.27182321 15.8577431,2.47761885 16.1900546,2.80993036 C16.5223661,3.14227956 16.7281617,3.45864464 16.9004812,3.90194028 C17.030503,4.23658909 17.1852173,4.73948591 17.2274772,5.66539663 C17.27313,6.66681726 17.2828185,6.96719821 17.2828185,9.50298194 C17.2828185,12.0388034 17.27313,12.3391843 17.2274772,13.3405673 C17.1852173,14.2665534 17.030503,14.7694125 16.9004812,15.1040613 C16.7281617,15.5473192 16.5223661,15.863722 16.1900546,16.1960335 C15.8577431,16.5283827 15.5413403,16.7341784 15.0980446,16.9064601 C14.7633958,17.0364819 14.2605367,17.1912339 13.3345883,17.2334562 C12.3333185,17.2791466 12.0330129,17.2888351 9.49700298,17.2888351 C6.96099306,17.2888351 6.6606875,17.2791466 5.65941766,17.2334562 C4.73346925,17.1912339 4.23057242,17.0364819 3.89592361,16.9064601 C3.45266567,16.7341784 3.1362629,16.5283827 2.80398909,16.1960335 C2.47163988,15.863722 2.26580655,15.5473192 2.0935248,15.1040613 C1.96350298,14.7694125 1.80878869,14.2665534 1.76652877,13.340605 C1.72083829,12.3391843 1.7111875,12.0388034 1.7111875,9.50298194 C1.7111875,6.96719821 1.72083829,6.66681726 1.76652877,5.66539663 C1.80878869,4.73948591 1.96350298,4.23658909 2.0935248,3.90194028 C2.26580655,3.45864464 2.47163988,3.14227956 2.80395139,2.80996806 C3.1362629,2.47761885 3.45266567,2.27182321 3.89592361,2.09954147 C4.23057242,1.96948194 4.73346925,1.81476766 5.65937996,1.77250774 C6.66083829,1.72681726 6.96118155,1.71716647 9.49700298,1.71716647" id="path-1"></path>
        <path d="M4.75001836,7.83333527 C3.04714972,7.83333527 1.66666473,6.45285028 1.66666473,4.74998164 C1.66666473,3.047113 3.04714972,1.66666473 4.75001836,1.66666473 C6.452887,1.66666473 7.83337198,3.047113 7.83337198,4.74998164 C7.83337198,6.45285028 6.452887,7.83333527 4.75001836,7.83333527 M4.75001836,0 C2.12666729,0 0,2.12663057 0,4.74998164 C0,7.37336943 2.12666729,9.5 4.75001836,9.5 C7.37336943,9.5 9.5,7.37336943 9.5,4.74998164 C9.5,2.12663057 7.37336943,0 4.75001836,0" id="path-3"></path>
        <path d="M2.375,1.18751964 C2.375,1.8433639 1.8433639,2.375 1.18751964,2.375 C0.531675378,2.375 0,1.8433639 0,1.18751964 C0,0.531675378 0.531675378,0 1.18751964,0 C1.8433639,0 2.375,0.531675378 2.375,1.18751964" id="path-5"></path>
    </defs>
    <g id="Symbols" stroke="none" stroke-width="1" fill="none" fill-rule="evenodd">
        <g id="Социалки" transform="translate(-119.000000, 1.000000)">
            <g id="INST">
                <g transform="translate(120.000000, 0.000000)">
                    <circle id="Oval-5" stroke="#DCDCDC" stroke-width="2" cx="16" cy="16" r="16"></circle>
                    <g id="Icon/Instagram" transform="translate(7.000000, 7.000000)">
                        <g id="instagram">
                            <g id="Mixin/Fill/Black">
                                <mask id="mask-2" fill="white">
                                    <use xlink:href="#path-1"></use>
                                </mask>
                                <use id="Mask" fill="#000000" xlink:href="#path-1"></use>
                                <g id="Mixin/Fill/Medium-Grey" mask="url(#mask-2)" fill="#C7C7C7">
                                    <g transform="translate(-121.125000, -20.187500)" id="Mixin/Fill/Grey">
                                        <rect x="0" y="0" width="262" height="59"></rect>
                                    </g>
                                </g>
                            </g>
                            <g id="Mixin/Fill/Black" transform="translate(4.750000, 4.750000)">
                                <mask id="mask-4" fill="white">
                                    <use xlink:href="#path-3"></use>
                                </mask>
                                <use id="Mask" fill="#000000" xlink:href="#path-3"></use>
                                <g id="Mixin/Fill/Medium-Grey" mask="url(#mask-4)" fill="#C7C7C7">
                                    <g transform="translate(-125.875000, -24.937500)" id="Mixin/Fill/Grey">
                                        <rect x="0" y="0" width="262" height="59"></rect>
                                    </g>
                                </g>
                            </g>
                            <g id="Mixin/Fill/Black" transform="translate(13.458333, 3.562500)">
                                <mask id="mask-6" fill="white">
                                    <use xlink:href="#path-5"></use>
                                </mask>
                                <use id="Mask" fill="#000000" xlink:href="#path-5"></use>
                                <g id="Mixin/Fill/Medium-Grey" mask="url(#mask-6)" fill="#C7C7C7">
                                    <g transform="translate(-134.583333, -23.750000)" id="Mixin/Fill/Grey">
                                        <rect x="0" y="0" width="262" height="59"></rect>
                                    </g>
                                </g>
                            </g>
                        </g>
                    </g>
                </g>
            </g>
        </g>
    </g>
</svg>