<?xml version="1.0" encoding="UTF-8"?>
<svg width="98px" height="98px" viewBox="0 0 98 98" version="1.1" xmlns="http://www.w3.org/2000/svg" xmlns:xlink="http://www.w3.org/1999/xlink">
    <!-- Generator: sketchtool 46.2 (44496) - http://www.bohemiancoding.com/sketch -->
    <title>BC0AB516-7249-4F96-88CA-9677AC582AC8</title>
    <desc>Created with sketchtool.</desc>
    <defs></defs>
    <g id="Symbols" stroke="none" stroke-width="1" fill="none" fill-rule="evenodd">
        <g id="Mixin/Logo/Orange-Symbol">
            <g id="icon-logo-symbol">
                <rect id="Rectangle-4" fill="#F4B619" x="0" y="0" width="98" height="98" rx="5"></rect>
                <path d="M40.4990573,76.4994077 C38.9845987,76.7764961 36.0662919,77 34.0092161,77 C31.9507489,77 29.4769708,76.7764961 28.5183471,76.4994077 C27.5534623,76.2237293 26.8828431,73.1503744 27.0171061,69.6673798 C27.151369,66.1907307 27.3816335,61.1756416 27.5124182,58.5344882 C27.6432029,55.8912196 27.8706847,51.4556894 28.0077303,48.6742292 C28.144776,45.893474 28.3715622,42.0255168 28.5127818,40.0739118 C28.6463491,38.1272421 29.8825424,36.7580163 31.2634337,37.0358098 C32.6311074,37.3079628 35.6641986,37.996101 37.9960614,38.5552133 C40.3286198,39.1122104 42.1512572,42.4577184 42.0392554,45.9900671 L41.9390799,49.3383954 C41.8312521,52.8714492 41.9682978,58.4935947 42.246563,61.831347 C42.515089,65.1690993 42.8545726,69.7223745 42.9881399,71.9489528 C43.1286639,74.1776463 42.0037766,76.2237293 40.4990573,76.4994077" id="Fill-32" fill="#FFFFFF"></path>
                <path d="M67.4888445,76.4994077 C66.5274164,76.7764961 64.0525906,77 61.9962606,77 C59.9399307,77 57.0236683,76.7764961 55.5109658,76.4994077 C54.0059102,76.2237293 52.8790302,74.1776463 53.0104185,71.9489528 C53.1543199,69.7223745 53.4886994,65.1690993 53.7674649,61.831347 C54.04484,58.4935947 54.1824848,52.8714492 54.0698664,49.3383954 L53.9711514,45.9900671 C53.8620088,42.4577184 55.6764176,39.1122104 58.007342,38.5552133 C60.3389616,37.996101 63.3650618,37.3079628 64.742205,37.0358098 C66.1151772,36.7580163 67.3477238,38.1272421 67.4846735,40.0739118 C67.6223183,42.0255168 67.8489456,45.893474 67.9900663,48.6742292 C68.1172834,51.4556894 68.3473866,55.8912196 68.4843362,58.5344882 C68.6185052,61.1756416 68.8479132,66.1907307 68.9799966,69.6673798 C69.1266787,73.1503744 68.4502726,76.2237293 67.4888445,76.4994077" id="Fill-34" fill="#FFFFFF"></path>
                <path d="M71.7889277,29.9551952 C71.5103192,30.9408725 68.5457845,32.0883349 65.2088314,32.5088335 C61.8683516,32.9293321 56.6326292,33.508765 53.5707579,33.7888598 C50.5081812,34.0703801 45.4967562,34.0703801 42.4348848,33.7888598 C39.3659601,33.508765 34.124595,32.9293321 30.7834099,32.5088335 C27.4408141,32.0883349 24.4854487,30.9408725 24.2068403,29.9551952 C23.9310532,28.9745069 23.9310532,26.5548581 24.2068403,24.5863544 C24.4854487,22.6100108 26.3031042,21 28.2568899,21 C30.2078542,21 34.6853385,21.1831663 38.2127328,21.4041063 L41.5891848,21.6186319 C45.1179898,21.8459862 50.8911796,21.8524006 54.4164579,21.6414386 L58.7902575,21.382725 C62.3183572,21.1681994 66.5701334,21 68.2453106,21 C69.9162558,21 71.5103192,22.6100108 71.7889277,24.5863544 C72.0703574,26.5548581 72.0703574,28.9745069 71.7889277,29.9551952" id="Fill-36" fill="#FFFFFF"></path>
            </g>
        </g>
    </g>
</svg>