<?xml version="1.0" encoding="UTF-8"?>
<svg width="128px" height="24px" viewBox="0 0 128 24" version="1.1" xmlns="http://www.w3.org/2000/svg" xmlns:xlink="http://www.w3.org/1999/xlink">
    <!-- Generator: Sketch 44.1 (41455) - http://www.bohemiancoding.com/sketch -->
    <title>Logo</title>
    <desc>Created with Sketch.</desc>
    <defs></defs>
    <g id="Symbols" stroke="none" stroke-width="1" fill="none" fill-rule="evenodd">
        <g id="Верхнее-меню/Мобильная-версия" transform="translate(-48.000000, -12.000000)">
            <g id="Шапка">
                <g id="Mixin/Logo/Orange---Horizontal-wo-descr" transform="translate(48.000000, 12.000000)">
                    <g id="Mixin/Logo/Orange---Horizontal">
                        <g id="Group" transform="translate(32.000000, 7.000000)" fill="#575757">
                            <path d="M0.771312288,9.20408163 C0.484695299,9.20408163 0.244274809,8.94729991 0.244274809,8.62974735 L0.244274809,1.2072364 C0.244274809,0.889683841 0.484695299,0.632653061 0.771312288,0.632653061 L1.82588398,0.632653061 C2.11324608,0.632653061 2.3534182,0.889683841 2.3534182,1.2072364 L2.3534182,4.06844725 L3.55750759,4.06844725 C4.20997105,4.06844725 4.68062893,3.71378463 5.12818856,2.85776254 L5.99871936,1.2072364 C6.2051134,0.815961834 6.51532538,0.632653061 6.80194236,0.632653061 L8.09693455,0.632653061 C8.38280643,0.632653061 8.44042787,0.876981739 8.26880539,1.2072364 L7.05329106,3.55538194 C6.7664257,4.10530826 6.38890592,4.6798916 5.60902954,4.87565341 C6.15916527,4.99819134 6.73264762,5.74363042 7.05329106,6.26939784 L8.45160444,8.64220039 C8.63539697,8.95950389 8.55517401,9.20408163 8.25738045,9.20408163 L6.97356484,9.20408163 C6.68694785,9.20408163 6.29700966,8.95950389 6.11321714,8.64220039 L5.12818856,6.97897215 C4.70397555,6.25719386 4.2792658,5.7558344 3.55750759,5.7558344 L2.3534182,5.7558344 L2.3534182,8.65415531 C2.3534182,8.95950389 2.11324608,9.20408163 1.82588398,9.20408163 L0.771312288,9.20408163 Z" id="Fill-27"></path>
                            <path d="M13.0341769,5.44488442 L16.6627219,5.44488442 L16.6627219,2.32244613 L15.0398113,2.32244613 C14.3057096,2.32244613 13.7227763,2.78760688 13.5354591,3.52238627 L13.0341769,5.44488442 Z M11.4701662,2.95870622 C11.9492029,1.0616485 13.5941063,0.632653061 15.250638,0.632653061 L18.3190008,0.632653061 C18.5995975,0.632653061 18.8091603,0.889302075 18.8091603,1.1836129 L18.8091603,8.65337121 C18.8091603,8.95890575 18.5647125,9.20408163 18.2729931,9.20408163 L17.1988891,9.20408163 C16.8957942,9.20408163 16.6627219,8.95890575 16.6627219,8.64139925 L16.6627219,7.13467749 L12.6137874,7.13467749 L12.2290413,8.64139925 C12.1473902,8.95890575 11.8554179,9.20408163 11.5523229,9.20408163 L10.432464,9.20408163 C10.1286107,9.20408163 9.95317452,8.95890575 10.035584,8.65337121 L11.4701662,2.95870622 Z" id="Fill-29"></path>
                            <path d="M25.736208,9.20408163 C25.4485201,9.20408163 25.150389,8.95915517 25.0471993,8.66534318 L23.073168,2.78760688 L23.073168,8.62892845 C23.073168,8.94693379 22.8444101,9.20408163 22.5450357,9.20408163 L21.5357659,9.20408163 C21.2371374,9.20408163 21.0076336,8.94693379 21.0076336,8.62892845 L21.0076336,1.20780624 C21.0076336,0.889551491 21.2371374,0.632653061 21.524328,0.632653061 L23.807431,0.632653061 C24.1055622,0.632653061 24.3930015,0.889551491 24.4847533,1.19583428 L26.1372803,6.30212704 L27.7900559,1.19583428 C27.8813104,0.889551491 28.168501,0.632653061 28.4673781,0.632653061 L30.7504812,0.632653061 C31.0374231,0.632653061 31.2671756,0.889551491 31.2671756,1.20780624 L31.2671756,8.62892845 C31.2671756,8.94693379 31.0374231,9.20408163 30.7395406,9.20408163 L29.7290275,9.20408163 C29.4308963,9.20408163 29.2016412,8.94693379 29.2016412,8.62892845 L29.2016412,2.78760688 L27.2281072,8.66534318 C27.1244202,8.95915517 26.8257917,9.20408163 26.5386011,9.20408163 L25.736208,9.20408163 Z" id="Fill-31"></path>
                            <path d="M39.9087014,5.57956903 L36.0610123,5.57956903 L36.0610123,8.65337121 C36.0610123,8.95915517 35.8203612,9.20408163 35.5340608,9.20408163 L34.4930585,9.20408163 C34.1943534,9.20408163 33.9541985,8.94693379 33.9541985,8.64139925 L33.9541985,1.19583428 C33.9541985,0.877828941 34.1943534,0.632653061 34.4930585,0.632653061 L35.5340608,0.632653061 C35.8203612,0.632653061 36.0610123,0.877828941 36.0610123,1.19583428 L36.0610123,3.88952655 L39.9087014,3.88952655 L39.9087014,1.19583428 C39.9087014,0.877828941 40.1491045,0.632653061 40.4349087,0.632653061 L41.4771514,0.632653061 C41.774616,0.632653061 42.0152672,0.877828941 42.0152672,1.19583428 L42.0152672,8.64139925 C42.0152672,8.94693379 41.774616,9.20408163 41.4771514,9.20408163 L40.4349087,9.20408163 C40.1491045,9.20408163 39.9087014,8.95915517 39.9087014,8.65337121 L39.9087014,5.57956903 Z" id="Fill-33"></path>
                            <path d="M52.0305344,1.19583428 L52.0305344,1.7590155 C52.0305344,2.07776908 51.7883119,2.32244613 51.4992482,2.32244613 L46.585164,2.32244613 L46.585164,4.06112472 L50.8161659,4.06112472 C51.1054802,4.06112472 51.3482036,4.31827257 51.3482036,4.62430594 L51.3482036,5.18773657 C51.3482036,5.49426878 51.1054802,5.75091779 50.8161659,5.75091779 L46.585164,5.75091779 L46.585164,7.51428856 L51.4874752,7.51428856 C51.776539,7.51428856 52.0069884,7.75921503 52.0069884,8.06549782 L52.0069884,8.64139925 C52.0069884,8.94693379 51.776539,9.20408163 51.4757022,9.20408163 L44.989552,9.20408163 C44.6889657,9.20408163 44.4580153,8.94693379 44.4580153,8.62892845 L44.4580153,1.1836129 C44.4580153,0.877828941 44.7007387,0.632653061 44.989552,0.632653061 L51.4992482,0.632653061 C51.7883119,0.632653061 52.0305344,0.877828941 52.0305344,1.19583428" id="Fill-35"></path>
                            <path d="M56.092407,5.53054099 L56.092407,7.5879133 L59.2895386,7.5879133 C59.8852774,7.5879133 60.1828986,7.17165019 60.1828986,6.55910244 C60.1828986,5.9470535 59.8852774,5.53054099 59.2895386,5.53054099 L56.092407,5.53054099 Z M56.092407,2.2490708 L56.092407,3.96300735 L59.0830158,3.96300735 C59.5526566,3.96300735 59.8624407,3.65723229 59.8624407,3.10603908 C59.8624407,2.55534468 59.5526566,2.2490708 59.0830158,2.2490708 L56.092407,2.2490708 Z M53.9847328,1.1960673 C53.9847328,0.889544016 54.213844,0.632653061 54.5117134,0.632653061 L59.0604274,0.632653061 C60.4921863,0.632653061 61.9698667,1.29383551 61.9698667,3.06912659 C61.9698667,3.68142493 61.7757552,4.15904258 61.2142714,4.64913066 C61.9698667,5.07736539 62.2900763,5.82434443 62.2900763,6.63217918 C62.2900763,8.33439352 60.8940618,9.20408163 59.3237936,9.20408163 L54.5117134,9.20408163 C54.213844,9.20408163 53.9847328,8.94669186 53.9847328,8.64141562 L53.9847328,1.1960673 Z" id="Fill-37"></path>
                            <path d="M72.0610687,1.19583428 L72.0610687,1.7590155 C72.0610687,2.07776908 71.8190968,2.32244613 71.529031,2.32244613 L66.6159488,2.32244613 L66.6159488,4.06112472 L70.8474517,4.06112472 C71.1365155,4.06112472 71.3787379,4.31827257 71.3787379,4.62430594 L71.3787379,5.18773657 C71.3787379,5.49426878 71.1365155,5.75091779 70.8474517,5.75091779 L66.6159488,5.75091779 L66.6159488,7.51428856 L71.5172581,7.51428856 C71.8065723,7.51428856 72.0385247,7.75921503 72.0385247,8.06549782 L72.0385247,8.64139925 C72.0385247,8.94693379 71.8065723,9.20408163 71.5062366,9.20408163 L65.0205873,9.20408163 C64.7195001,9.20408163 64.4885496,8.94693379 64.4885496,8.62892845 L64.4885496,1.1836129 C64.4885496,0.877828941 64.7320245,0.632653061 65.0205873,0.632653061 L71.529031,0.632653061 C71.8190968,0.632653061 72.0610687,0.877828941 72.0610687,1.19583428" id="Fill-39"></path>
                            <path d="M76.6759476,7.51453798 L80.6797502,7.51453798 L80.6797502,2.32269555 L78.9899133,2.32269555 C78.2717514,2.32269555 77.7865408,2.77588433 77.6250547,3.49819292 L76.6759476,7.51453798 Z M75.5523152,2.98389723 C75.9916377,1.07386988 77.5774113,0.632653061 79.2216108,0.632653061 L82.2770585,0.632653061 C82.5666804,0.632653061 82.8091603,0.877828941 82.8091603,1.1836129 L82.8091603,8.65337121 C82.8091603,8.95915517 82.5666804,9.20408163 82.2770585,9.20408163 L74.0588193,9.20408163 C73.7702005,9.20408163 73.5267176,8.94693379 73.5267176,8.64164866 L73.5267176,8.06574723 C73.5267176,7.75921503 73.7702005,7.51453798 74.0588193,7.51453798 L74.4996463,7.51453798 L75.5523152,2.98389723 Z" id="Fill-41"></path>
                            <path d="M93.8615397,1.19583428 C93.8615397,0.877828941 94.1038786,0.632653061 94.3907999,0.632653061 L95.4592829,0.632653061 C95.7584083,0.632653061 96,0.877828941 96,1.19583428 L96,8.64139925 C96,8.94693379 95.7584083,9.20408163 95.4592829,9.20408163 L94.3907999,9.20408163 C94.1038786,9.20408163 93.8615397,8.95890575 93.8615397,8.65337121 L93.8615397,1.19583428 Z M87.3669567,5.23712093 L87.3669567,7.51428856 L89.6770218,7.51428856 C90.3328063,7.51428856 90.6197276,7.08579196 90.6197276,6.37520592 C90.6197276,5.66536812 90.3328063,5.23712093 89.6770218,5.23712093 L87.3669567,5.23712093 Z M89.6770218,3.54732786 C91.3557106,3.54732786 92.7355231,4.52653489 92.7355231,6.37520592 C92.7355231,8.22437578 91.3557106,9.20408163 89.6770218,9.20408163 L85.7575076,9.20408163 C85.4693409,9.20408163 85.2519084,8.93471241 85.2519084,8.62892845 L85.2519084,1.19583428 C85.2519084,0.877828941 85.4815451,0.632653061 85.7801723,0.632653061 L86.8371984,0.632653061 C87.125614,0.632653061 87.3669567,0.877828941 87.3669567,1.19583428 L87.3669567,3.54732786 L89.6770218,3.54732786 Z" id="Fill-43"></path>
                        </g>
                        <path d="M21.6919135,0 L2.2422799,0 C1.00817812,0 0,1.013 0,2.2485 L0,21.752 C0,22.98675 1.00817812,24 2.2422799,24 L21.6919135,24 C22.9285089,24 23.9389313,22.98675 23.9389313,21.752 L23.9389313,2.2485 C23.9389313,1.013 22.9285089,0 21.6919135,0" id="Fill-45" fill="#F4B619"></path>
                        <path d="M10.1375593,18.7347247 C9.76800651,18.8026247 9.05524534,18.8571429 8.5522633,18.8571429 C8.05050091,18.8571429 7.44555645,18.8026247 7.21089655,18.7347247 C6.97550486,18.6675682 6.8113405,17.9139781 6.84378308,17.0615119 C6.87695745,16.2100368 6.93354903,14.9816429 6.96525983,14.3348589 C6.99721456,13.6875792 7.05283042,12.601676 7.08576086,11.9199508 C7.11893524,11.2387212 7.17528288,10.2913437 7.20918905,9.81356611 C7.24211949,9.33702755 7.54434779,9.00149286 7.88194582,9.07013622 C8.21539706,9.13654929 8.95669794,9.30506007 9.52676052,9.44185117 C10.0965792,9.57789884 10.5412621,10.3976542 10.514186,11.2630066 L10.4895491,12.0827619 C10.4634487,12.9478665 10.4973549,14.3249465 10.5646793,15.1419759 C10.6298084,15.959501 10.7127444,17.0753892 10.7451869,17.6200755 C10.779581,18.1662487 10.5044288,18.6675682 10.1375593,18.7347247" id="Fill-47" fill="#FFFFFF"></path>
                        <path d="M16.7310368,18.7347247 C16.4952964,18.8026247 15.8907088,18.8571429 15.3887549,18.8571429 C14.8858258,18.8571429 14.1737289,18.8026247 13.8039065,18.7347247 C13.4365221,18.6675682 13.1608009,18.1662487 13.1934681,17.6200755 C13.2280856,17.0753892 13.3099975,15.959501 13.3780136,15.1419759 C13.4457859,14.3249465 13.4796721,12.9478665 13.4526119,12.0827619 L13.4279896,11.2630066 C13.401417,10.3976542 13.8441311,9.57789884 14.414345,9.44185117 C14.9833399,9.30506007 15.7232283,9.13654929 16.0598958,9.07013622 C16.3948568,9.00149286 16.6961755,9.33702755 16.7285989,9.81356611 C16.7629726,10.2913437 16.8187995,11.2387212 16.8524419,11.9199508 C16.8838902,12.601676 16.9404484,13.6875792 16.9740907,14.3348589 C17.0065142,14.9816429 17.0630724,16.2100368 17.0942769,17.0615119 C17.1303571,17.9139781 16.9655582,18.6675682 16.7310368,18.7347247" id="Fill-49" fill="#FFFFFF"></path>
                        <path d="M17.7808661,7.33626591 C17.7123589,7.57719526 16.9887045,7.85794557 16.1735423,7.96137989 C15.3571435,8.06456377 14.0782589,8.20606594 13.33012,8.27468823 C12.5822285,8.34381141 11.3582486,8.34381141 10.6101097,8.27468823 C9.86073425,8.20606594 8.57937642,8.06456377 7.76371957,7.96137989 C6.94682613,7.85794557 6.22539768,7.57719526 6.1578797,7.33626591 C6.08986707,7.0960879 6.08986707,6.50403283 6.1578797,6.02142279 C6.22539768,5.53806142 6.66958195,5.14285714 7.1469069,5.14285714 C7.62274795,5.14285714 8.71614362,5.18793748 9.57879101,5.24203388 L10.403846,5.29462761 C11.2655041,5.35047713 12.6759622,5.35172936 13.5368784,5.30013742 L14.6055422,5.23702495 C15.4681896,5.18393034 16.5054439,5.14285714 16.9142616,5.14285714 C17.3230793,5.14285714 17.7123589,5.53806142 17.7808661,6.02142279 C17.8491261,6.50403283 17.8491261,7.0960879 17.7808661,7.33626591" id="Fill-51" fill="#FFFFFF"></path>
                    </g>
                </g>
            </g>
        </g>
    </g>
</svg>