<?xml version="1.0" encoding="UTF-8"?>
<svg width="212px" height="40px" viewBox="0 0 212 40" version="1.1" xmlns="http://www.w3.org/2000/svg" xmlns:xlink="http://www.w3.org/1999/xlink">
    <!-- Generator: Sketch 44.1 (41455) - http://www.bohemiancoding.com/sketch -->
    <title>Mixin/Logo/Orange - Horizontal</title>
    <desc>Created with Sketch.</desc>
    <defs></defs>
    <g id="Symbols" stroke="none" stroke-width="1" fill="none" fill-rule="evenodd">
        <g id="Верхнее-меню/Сокращенное" transform="translate(-128.000000, -24.000000)">
            <g id="Верхнее-меню/Каталог-скрыт-Black">
                <g id="Верхнее-меню" transform="translate(128.000000, 24.000000)">
                    <g id="Mixin/Logo/Orange---Horizontal">
                        <g>
                            <path d="M58.6801052,33.5116364 C58.6451373,32.8794187 58.5992155,32.1163528 58.6076415,31.4556336 L58.5815209,31.4556336 C58.3830884,32.0507127 58.131572,32.7122956 57.8615183,33.3298306 L56.9784724,35.4514735 L56.1232324,35.4514735 L55.3126502,33.3587641 C55.079671,32.7338878 54.8635438,32.0653954 54.7017644,31.4556336 L54.6828059,31.4556336 C54.6558427,32.0947607 54.6204534,32.8720774 54.5745317,33.5405698 L54.4397155,35.5102041 L53.4045802,35.5102041 L53.8098712,30.6122449 L55.2679923,30.6122449 L56.0608799,32.5818792 C56.2761645,33.1562299 56.4653284,33.7370582 56.6182605,34.2820436 L56.6452237,34.2820436 C56.8074244,33.751309 57.0151256,33.1484567 57.2493687,32.574106 L58.0856502,30.6122449 L59.526498,30.6122449 L59.8778626,35.5102041 L58.7963842,35.5102041 L58.6801052,33.5116364 Z" id="Fill-1" fill="#231F1F"></path>
                            <path d="M64.4495448,33.4462461 L63.9797572,32.2400033 C63.8637654,31.9424375 63.766482,31.6081618 63.6783448,31.3239843 L63.6596365,31.3239843 C63.5714993,31.6081618 63.4808678,31.9489157 63.3748538,32.2400033 L62.9129653,33.4462461 L64.4495448,33.4462461 Z M62.7354438,34.1217076 L62.2207562,35.5102041 L61.0916031,35.5102041 L63.0114959,30.6122449 L64.4063077,30.6122449 L66.351145,35.5102041 L65.1787548,35.5102041 L64.6362126,34.1217076 L62.7354438,34.1217076 Z" id="Fill-3" fill="#231F1F"></path>
                            <polygon id="Fill-5" fill="#231F1F" points="71.2061069 30.6122449 71.2061069 31.3455137 69.0036168 31.3455137 69.0036168 35.5102041 67.9694656 35.5102041 67.9694656 30.6122449"></polygon>
                            <path d="M74.9694252,33.4462461 L74.4982787,32.2400033 C74.3822594,31.9424375 74.2849529,31.6081618 74.1967948,31.3239843 L74.1784979,31.3239843 C74.0903398,31.6081618 74.0005184,31.9489157 73.8940634,32.2400033 L73.4324813,33.4462461 L74.9694252,33.4462461 Z M73.2549177,34.1217076 L72.7388604,35.5102041 L71.610687,35.5102041 L73.5297878,30.6122449 L74.9253462,30.6122449 L76.870229,35.5102041 L75.6988082,35.5102041 L75.1561373,34.1217076 L73.2549177,34.1217076 Z" id="Fill-7" fill="#231F1F"></path>
                            <path d="M78.6323725,30.9852794 C79.0509181,30.7803613 79.6199567,30.6122449 80.3786747,30.6122449 C81.5717797,30.6122449 82.3204927,31.0906658 82.3204927,31.8016059 C82.3204927,32.3916862 81.8039808,32.807377 81.0986231,32.9416193 L81.0986231,32.9554199 C81.8927758,33.0256775 82.5343511,33.4480596 82.5343511,34.1029609 C82.5343511,35.1300602 81.304144,35.5102041 80.1914965,35.5102041 C79.6032815,35.5102041 78.9800488,35.4115089 78.4885496,35.1869354 L78.7486815,34.5178153 C79.0413299,34.6445299 79.6199567,34.8067916 80.1460568,34.8067916 C80.9302044,34.8067916 81.3762639,34.5111241 81.3762639,34.0607226 C81.3762639,33.455169 80.6087914,33.3000167 79.9509578,33.3000167 L79.4778012,33.3000167 L79.4778012,32.652643 L79.9509578,32.652643 C80.644226,32.652643 81.1807481,32.3645032 81.1807481,31.9350117 C81.1807481,31.5481766 80.7959697,31.3156574 80.1914965,31.3156574 C79.7287618,31.3156574 79.2372626,31.463282 78.8979239,31.6037973 L78.6323725,30.9852794 Z" id="Fill-9" fill="#231F1F"></path>
                            <path d="M85.1880962,30.6122449 L85.1880962,32.3417747 C85.1880962,33.1190914 85.1608594,33.8385412 85.1165996,34.4927828 L85.1336226,34.5009878 C85.452804,33.9473656 85.8515679,33.3583322 86.2524598,32.8064373 L87.8717734,30.6122449 L89.0076336,30.6122449 L89.0076336,35.5102041 L87.9705068,35.5102041 L87.9705068,33.773333 C87.9705068,33.0033576 87.9807206,32.3780494 88.0530684,31.7462637 L88.0343431,31.7462637 C87.7432497,32.3059317 87.3342719,32.9156935 86.9435939,33.4390868 L85.3970536,35.5102041 L84.1526718,35.5102041 L84.1526718,30.6122449 L85.1880962,30.6122449 Z" id="Fill-11" fill="#231F1F"></path>
                            <polygon id="Fill-13" fill="#231F1F" points="92.1544315 30.6122449 92.1544315 32.574106 94.7603156 32.574106 94.7603156 30.6122449 95.8854962 30.6122449 95.8854962 35.5102041 94.7603156 35.5102041 94.7603156 33.3509909 92.1544315 33.3509909 92.1544315 35.5102041 91.0305344 35.5102041 91.0305344 30.6122449"></polygon>
                            <path d="M101.417667,30.6122449 L101.417667,32.7122956 L101.597476,32.7122956 L103.442511,30.6122449 L104.777458,30.6122449 L102.592085,32.82112 C103.469336,32.9519683 103.837337,33.4170628 104.106422,34.0354615 C104.329402,34.5510816 104.517594,35.0446777 104.78626,35.5102041 L103.604716,35.5102041 C103.398921,35.1759579 103.2539,34.7687303 103.103011,34.3986411 C102.86117,33.8031301 102.538435,33.3738786 101.678369,33.3738786 L101.417667,33.3738786 L101.417667,35.5102041 L100.335878,35.5102041 L100.335878,30.6122449 L101.417667,30.6122449 Z" id="Fill-15" fill="#231F1F"></path>
                            <path d="M109.358773,33.4462461 L108.887323,32.2400033 C108.772162,31.9424375 108.674463,31.6081618 108.585495,31.3239843 L108.567202,31.3239843 C108.479065,31.6081618 108.38968,31.9489157 108.284082,32.2400033 L107.822609,33.4462461 L109.358773,33.4462461 Z M107.644256,34.1217076 L107.127906,35.5102041 L106,35.5102041 L107.918646,30.6122449 L109.313873,30.6122449 L111.259542,35.5102041 L110.087152,35.5102041 L109.544194,34.1217076 L107.644256,34.1217076 Z" id="Fill-17" fill="#231F1F"></path>
                            <path d="M118.15331,33.5116364 C118.117076,32.8794187 118.071993,32.1163528 118.080841,31.4556336 L118.053876,31.4556336 C117.856695,32.0507127 117.603898,32.7122956 117.33467,33.3298306 L116.451987,35.4514735 L115.596692,35.4514735 L114.786057,33.3587641 C114.55222,32.7338878 114.334393,32.0653954 114.17471,31.4556336 L114.15575,31.4556336 C114.129207,32.0947607 114.091287,32.8720774 114.04789,33.5405698 L113.913065,35.5102041 L112.877863,35.5102041 L113.281495,30.6122449 L114.740975,30.6122449 L115.533071,32.5818792 C115.74837,33.1562299 115.93881,33.7370582 116.090909,34.2820436 L116.118296,34.2820436 C116.280928,33.751309 116.487379,33.1484567 116.72248,32.574106 L117.559237,30.6122449 L118.998915,30.6122449 L119.351145,35.5102041 L118.269596,35.5102041 L118.15331,33.5116364 Z" id="Fill-19" fill="#231F1F"></path>
                            <polygon id="Fill-21" fill="#231F1F" points="122.092804 30.6122449 122.092804 32.574106 124.699805 32.574106 124.699805 30.6122449 125.824427 30.6122449 125.824427 35.5102041 124.699805 35.5102041 124.699805 33.3509909 122.092804 33.3509909 122.092804 35.5102041 120.969466 35.5102041 120.969466 30.6122449"></polygon>
                            <polygon id="Fill-23" fill="#231F1F" points="131.220597 33.3376038 128.948864 33.3376038 128.948864 34.7765034 131.48855 34.7765034 131.48855 35.5102041 127.847328 35.5102041 127.847328 30.6122449 131.354992 30.6122449 131.354992 31.3459455 128.948864 31.3459455 128.948864 32.6108126 131.220597 32.6108126"></polygon>
                            <path d="M135.052343,29.7959184 C135.079571,30.0387982 135.180397,30.2209581 135.525417,30.2209581 C135.870012,30.2209581 135.980198,30.0458203 136.007425,29.7959184 L136.798717,29.7959184 C136.742136,30.3320715 136.29714,30.6026265 135.505422,30.6026265 C134.73455,30.6026265 134.324865,30.3180275 134.262327,29.7959184 L135.052343,29.7959184 Z M134.142357,30.8252664 L134.142357,32.4795756 C134.142357,33.2230854 134.115981,33.911245 134.070035,34.5374455 L134.088328,34.5448806 C134.408248,34.0153364 134.806873,33.4523342 135.206773,32.9240292 L136.825945,30.8252664 L137.961832,30.8252664 L137.961832,35.5102041 L136.924643,35.5102041 L136.924643,33.8492858 C136.924643,33.112385 136.934428,32.5142727 137.008027,31.9099645 L136.988032,31.9099645 C136.698317,32.4452915 136.288631,33.0285337 135.89724,33.5291636 L134.353368,35.5102041 L133.10687,35.5102041 L133.10687,30.8252664 L134.142357,30.8252664 Z" id="Fill-25" fill="#231F1F"></path>
                            <path d="M54.277486,23.6734694 C53.8027766,23.6734694 53.4045802,23.2454999 53.4045802,22.7162456 L53.4045802,10.345394 C53.4045802,9.81613973 53.8027766,9.3877551 54.277486,9.3877551 L56.0241203,9.3877551 C56.5000638,9.3877551 56.8978489,9.81613973 56.8978489,10.345394 L56.8978489,15.1140788 L58.892122,15.1140788 C59.9727646,15.1140788 60.7522917,14.5229744 61.4935623,13.0962709 L62.9353789,10.345394 C63.2772191,9.69326972 63.7910077,9.3877551 64.265717,9.3877551 L66.4105478,9.3877551 C66.8840232,9.3877551 66.9794587,9.79496956 66.6952089,10.345394 L64.6820133,14.2589699 C64.2068926,15.1755138 63.5816254,16.1331527 62.2899552,16.4594224 C63.2011175,16.6636522 64.1509476,17.9060507 64.6820133,18.7823297 L66.9979699,22.7370007 C67.3023762,23.2658398 67.169507,23.6734694 66.6762864,23.6734694 L64.5499668,23.6734694 C64.0752574,23.6734694 63.4294223,23.2658398 63.1250159,22.7370007 L61.4935623,19.9649536 C60.7909595,18.7619898 60.087534,17.9263907 58.892122,17.9263907 L56.8978489,17.9263907 L56.8978489,22.7569255 C56.8978489,23.2658398 56.5000638,23.6734694 56.0241203,23.6734694 L54.277486,23.6734694 Z" id="Fill-27" fill="#231F1F"></path>
                            <path d="M74.5878554,17.4081407 L80.5976332,17.4081407 L80.5976332,12.2040769 L77.9096874,12.2040769 C76.6938316,12.2040769 75.7283483,12.9793448 75.4181041,14.2039771 L74.5878554,17.4081407 Z M71.9974628,13.2645104 C72.7908674,10.1027475 75.5152386,9.3877551 78.2588692,9.3877551 L83.3408451,9.3877551 C83.8055834,9.3877551 84.1526718,9.81550346 84.1526718,10.3060215 L84.1526718,22.7556187 C84.1526718,23.2648429 83.7478052,23.6734694 83.2646448,23.6734694 L81.4856602,23.6734694 C80.9836591,23.6734694 80.5976332,23.2648429 80.5976332,22.7356654 L80.5976332,20.2244625 L73.8915853,20.2244625 L73.2543496,22.7356654 C73.119115,23.2648429 72.6355359,23.6734694 72.1335348,23.6734694 L70.2787685,23.6734694 C69.7755114,23.6734694 69.4849453,23.2648429 69.621436,22.7556187 L71.9974628,13.2645104 Z" id="Fill-29" fill="#231F1F"></path>
                            <path d="M95.6255945,23.6734694 C95.1491115,23.6734694 94.6553317,23.2652586 94.4844238,22.775572 L91.2149345,12.9793448 L91.2149345,22.7148807 C91.2149345,23.2448896 90.8360543,23.6734694 90.3402154,23.6734694 L88.6686123,23.6734694 C88.1740088,23.6734694 87.7938931,23.2448896 87.7938931,22.7148807 L87.7938931,10.3463437 C87.7938931,9.81591915 88.1740088,9.3877551 88.6496683,9.3877551 L92.4310577,9.3877551 C92.9248374,9.3877551 93.4009087,9.81591915 93.5528726,10.3263905 L96.2898704,18.8368784 L99.0272801,10.3263905 C99.1784203,9.81591915 99.6540798,9.3877551 100.149095,9.3877551 L103.930484,9.3877551 C104.405732,9.3877551 104.78626,9.81591915 104.78626,10.3463437 L104.78626,22.7148807 C104.78626,23.2448896 104.405732,23.6734694 103.912364,23.6734694 L102.238702,23.6734694 C101.744922,23.6734694 101.365218,23.2448896 101.365218,22.7148807 L101.365218,12.9793448 L98.0965526,22.775572 C97.924821,23.2652586 97.4302175,23.6734694 96.9545581,23.6734694 L95.6255945,23.6734694 Z" id="Fill-31" fill="#231F1F"></path>
                            <path d="M119.098787,17.6326151 L112.726052,17.6326151 L112.726052,22.7556187 C112.726052,23.2652586 112.327473,23.6734694 111.853288,23.6734694 L110.129128,23.6734694 C109.634398,23.6734694 109.236641,23.2448896 109.236641,22.7356654 L109.236641,10.3263905 C109.236641,9.79638157 109.634398,9.3877551 110.129128,9.3877551 L111.853288,9.3877551 C112.327473,9.3877551 112.726052,9.79638157 112.726052,10.3263905 L112.726052,14.8158776 L119.098787,14.8158776 L119.098787,10.3263905 C119.098787,9.79638157 119.496954,9.3877551 119.970318,9.3877551 L121.696532,9.3877551 C122.189208,9.3877551 122.587786,9.79638157 122.587786,10.3263905 L122.587786,22.7356654 C122.587786,23.2448896 122.189208,23.6734694 121.696532,23.6734694 L119.970318,23.6734694 C119.496954,23.6734694 119.098787,23.2652586 119.098787,22.7556187 L119.098787,17.6326151 Z" id="Fill-33" fill="#231F1F"></path>
                            <path d="M139.175573,10.3263905 L139.175573,11.2650258 C139.175573,11.7962818 138.774392,12.2040769 138.29563,12.2040769 L130.156678,12.2040769 L130.156678,15.1018745 L137.164275,15.1018745 C137.643452,15.1018745 138.045462,15.5304543 138.045462,16.0405099 L138.045462,16.979561 C138.045462,17.490448 137.643452,17.9181963 137.164275,17.9181963 L130.156678,17.9181963 L130.156678,20.8571476 L138.276131,20.8571476 C138.754893,20.8571476 139.136575,21.2653584 139.136575,21.7758297 L139.136575,22.7356654 C139.136575,23.2448896 138.754893,23.6734694 138.256632,23.6734694 L127.513945,23.6734694 C127.016099,23.6734694 126.633588,23.2448896 126.633588,22.7148807 L126.633588,10.3060215 C126.633588,9.79638157 127.035598,9.3877551 127.513945,9.3877551 L138.29563,9.3877551 C138.774392,9.3877551 139.175573,9.79638157 139.175573,10.3263905" id="Fill-35" fill="#231F1F"></path>
                            <path d="M145.903049,17.5509016 L145.903049,20.9798555 L151.198298,20.9798555 C152.184991,20.9798555 152.677926,20.2860836 152.677926,19.2651707 C152.677926,18.2450892 152.184991,17.5509016 151.198298,17.5509016 L145.903049,17.5509016 Z M145.903049,12.0817847 L145.903049,14.9383456 L150.856245,14.9383456 C151.634087,14.9383456 152.147167,14.4287205 152.147167,13.5100651 C152.147167,12.5922411 151.634087,12.0817847 150.856245,12.0817847 L145.903049,12.0817847 Z M142.412214,10.3267788 C142.412214,9.81590669 142.791679,9.3877551 143.285025,9.3877551 L150.818833,9.3877551 C153.190184,9.3877551 155.637592,10.4897258 155.637592,13.4485443 C155.637592,14.4690416 155.316095,15.265071 154.386137,16.0818844 C155.637592,16.795609 156.167939,18.040574 156.167939,19.3869653 C156.167939,22.2239892 153.85579,23.6734694 151.255033,23.6734694 L143.285025,23.6734694 C142.791679,23.6734694 142.412214,23.2444864 142.412214,22.7356927 L142.412214,10.3267788 Z" id="Fill-37" fill="#231F1F"></path>
                            <path d="M172.351145,10.3263905 L172.351145,11.2650258 C172.351145,11.7962818 171.950379,12.2040769 171.469958,12.2040769 L163.332665,12.2040769 L163.332665,15.1018745 L170.341092,15.1018745 C170.819854,15.1018745 171.221035,15.5304543 171.221035,16.0405099 L171.221035,16.979561 C171.221035,17.490448 170.819854,17.9181963 170.341092,17.9181963 L163.332665,17.9181963 L163.332665,20.8571476 L171.450459,20.8571476 C171.929635,20.8571476 172.313807,21.2653584 172.313807,21.7758297 L172.313807,22.7356654 C172.313807,23.2448896 171.929635,23.6734694 171.432204,23.6734694 L160.690348,23.6734694 C160.191672,23.6734694 159.80916,23.2448896 159.80916,22.7148807 L159.80916,10.3060215 C159.80916,9.79638157 160.212416,9.3877551 160.690348,9.3877551 L171.469958,9.3877551 C171.950379,9.3877551 172.351145,9.79638157 172.351145,10.3263905" id="Fill-39" fill="#231F1F"></path>
                            <path d="M179.994538,20.8575633 L186.625836,20.8575633 L186.625836,12.2044926 L183.827044,12.2044926 C182.637588,12.2044926 181.833958,12.9598072 181.566497,14.1636549 L179.994538,20.8575633 Z M178.133522,13.3064954 C178.86115,10.1231165 181.487587,9.3877551 184.210793,9.3877551 L189.271378,9.3877551 C189.751064,9.3877551 190.152672,9.79638157 190.152672,10.3060215 L190.152672,22.7556187 C190.152672,23.2652586 189.751064,23.6734694 189.271378,23.6734694 L175.65992,23.6734694 C175.181895,23.6734694 174.778626,23.2448896 174.778626,22.7360811 L174.778626,21.7762454 C174.778626,21.2653584 175.181895,20.8575633 175.65992,20.8575633 L176.390039,20.8575633 L178.133522,13.3064954 Z" id="Fill-41" fill="#231F1F"></path>
                            <path d="M208.458175,10.3263905 C208.458175,9.79638157 208.859549,9.3877551 209.334762,9.3877551 L211.104437,9.3877551 C211.599864,9.3877551 212,9.79638157 212,10.3263905 L212,22.7356654 C212,23.2448896 211.599864,23.6734694 211.104437,23.6734694 L209.334762,23.6734694 C208.859549,23.6734694 208.458175,23.2648429 208.458175,22.7556187 L208.458175,10.3263905 Z M197.701522,17.0618682 L197.701522,20.8571476 L201.527567,20.8571476 C202.61371,20.8571476 203.088924,20.1429866 203.088924,18.9586765 C203.088924,17.7756135 202.61371,17.0618682 201.527567,17.0618682 L197.701522,17.0618682 Z M201.527567,14.2455464 C204.307896,14.2455464 206.59321,15.8775581 206.59321,18.9586765 C206.59321,22.0406263 204.307896,23.6734694 201.527567,23.6734694 L195.035872,23.6734694 C194.558596,23.6734694 194.198473,23.2245207 194.198473,22.7148807 L194.198473,10.3263905 C194.198473,9.79638157 194.578809,9.3877551 195.07341,9.3877551 L196.82411,9.3877551 C197.301798,9.3877551 197.701522,9.79638157 197.701522,10.3263905 L197.701522,14.2455464 L201.527567,14.2455464 Z" id="Fill-43" fill="#231F1F"></path>
                            <path d="M35.9272317,0 L3.71377608,0 C1.66979501,0 0,1.68833333 0,3.7475 L0,36.2533333 C0,38.31125 1.66979501,40 3.71377608,40 L35.9272317,40 C37.9753429,40 39.648855,38.31125 39.648855,36.2533333 L39.648855,3.7475 C39.648855,1.68833333 37.9753429,0 35.9272317,0" id="Fill-45" fill="#F4B619"></path>
                            <path d="M16.7903325,31.2245412 C16.1782608,31.3377078 14.9977501,31.4285714 14.1646861,31.4285714 C13.3336421,31.4285714 12.3317029,31.3377078 11.9430474,31.2245412 C11.5531799,31.1126137 11.2812827,29.8566302 11.3350157,28.4358531 C11.3899608,27.0167281 11.4836906,24.9694048 11.5362116,23.8914314 C11.5891366,22.8126321 11.6812504,21.0027933 11.7357914,19.8665846 C11.7907365,18.731202 11.8840623,17.1522395 11.9402194,16.3559435 C11.9947604,15.5617126 12.495326,15.0024881 13.0544728,15.1168937 C13.6067514,15.2275822 14.834531,15.5084334 15.7786971,15.7364186 C16.7224592,15.9631647 17.4589654,17.3294236 17.4141205,18.7716776 L17.3733157,20.1379365 C17.3300869,21.5797775 17.386244,23.8749108 17.4977501,25.2366265 C17.6056202,26.5991683 17.7429828,28.4589821 17.7967159,29.3667925 C17.853681,30.2770811 17.3979602,31.1126137 16.7903325,31.2245412" id="Fill-47" fill="#FFFFFF"></path>
                            <path d="M27.7107797,31.2245412 C27.3203346,31.3377078 26.3189865,31.4285714 25.4876252,31.4285714 C24.6546489,31.4285714 23.4752384,31.3377078 22.8627202,31.2245412 C22.2542397,31.1126137 21.7975765,30.2770811 21.8516816,29.3667925 C21.9090168,28.4589821 22.0446834,26.5991683 22.157335,25.2366265 C22.2695829,23.8749108 22.3257069,21.5797775 22.2808885,20.1379365 L22.2401078,18.7716776 C22.1960969,17.3294236 22.9293422,15.9631647 23.8737588,15.7364186 C24.8161567,15.5084334 26.0415969,15.2275822 26.5992024,15.1168937 C27.1539816,15.0024881 27.6530406,15.5617126 27.706742,16.3559435 C27.7636734,17.1522395 27.8561366,18.731202 27.9118568,19.8665846 C27.9639431,21.0027933 28.0576176,22.8126321 28.1133378,23.8914314 C28.1670391,24.9694048 28.2607136,27.0167281 28.3123961,28.4358531 C28.372154,29.8566302 28.0992058,31.1126137 27.7107797,31.2245412" id="Fill-49" fill="#FFFFFF"></path>
                            <path d="M29.4495595,12.2271098 C29.3360943,12.6286588 28.1375419,13.0965759 26.7874295,13.2689665 C25.435269,13.4409396 23.3171163,13.6767766 22.0780113,13.791147 C20.8393159,13.9063523 18.8120992,13.9063523 17.5729942,13.791147 C16.3318411,13.6767766 14.2095922,13.4409396 12.8586605,13.2689665 C11.5056808,13.0965759 10.3108149,12.6286588 10.1989882,12.2271098 C10.0863423,11.8268132 10.0863423,10.8400547 10.1989882,10.0357047 C10.3108149,9.23010236 11.0464951,8.57142857 11.8370646,8.57142857 C12.6251763,8.57142857 14.4361129,8.64656246 15.8648726,8.73672313 L17.2313699,8.82437934 C18.6584911,8.91746189 20.9945625,8.91954894 22.4204548,8.83356237 L24.1904293,8.72837492 C25.619189,8.6398839 27.3371415,8.57142857 28.0142458,8.57142857 C28.6913501,8.57142857 29.3360943,9.23010236 29.4495595,10.0357047 C29.562615,10.8400547 29.562615,11.8268132 29.4495595,12.2271098" id="Fill-51" fill="#FFFFFF"></path>
                        </g>
                    </g>
                </g>
            </g>
        </g>
    </g>
</svg>