<?xml version="1.0" encoding="UTF-8"?>
<svg width="127px" height="136px" viewBox="0 0 127 136" version="1.1" xmlns="http://www.w3.org/2000/svg" xmlns:xlink="http://www.w3.org/1999/xlink">
    <!-- Generator: sketchtool 46.2 (44496) - http://www.bohemiancoding.com/sketch -->
    <title>7CB95F7B-A267-4917-9E37-34CB1F9493C9</title>
    <desc>Created with sketchtool.</desc>
    <defs></defs>
    <g id="Поп-апы-и-Модальные-окна" stroke="none" stroke-width="1" fill="none" fill-rule="evenodd">
        <g id="modal-Подробнее-(Подписка)" transform="translate(-732.000000, -344.000000)">
            <g id="3" transform="translate(704.000000, 325.000000)">
                <g id="Page-1" transform="translate(28.000000, 19.000000)">
                    <ellipse id="Oval-3" fill="#F4F4F4" cx="55.5447761" cy="130" rx="55.5447761" ry="6"></ellipse>
                    <path d="M32.9681866,-0.000193357934 L19.9484237,26.1031277 L5.96423399,52.2064487 L4.99980711,90.8780354 L8.58168854,105.958021 L91.4741787,130.99739 L102.018258,121.126951 L126.999807,38.0212273 L117.131309,27.4638841 L106.460408,12.5018472 L32.9681866,-0.000193357934 Z M52.5002419,35.3234007 L54.7478387,40.5116775 L69.4071273,39.7986701 L74.4385423,43.0219469 L84.389981,42.8092531 L83.6005976,49.7894745 L85.5299336,55.1068177 L80.2251036,54.140028 L64.616819,56.5903565 L54.1855779,50.2728694 L40.298313,49.0929026 L36.8683289,42.5955926 L34.1684158,36.2065631 L40.8711826,36.368017 L52.5002419,35.3234007 Z M35.5890166,83.6425815 L34.9823921,70.6972679 L42.1948585,61.5553048 L40.9493012,51.24691 L45.505736,53.6571166 L54.6677913,53.6571166 L53.9367557,61.2643011 L57.0417281,65.9619321 L49.9223289,78.4422199 L52.2437043,90.1500428 L46.1287557,96.0769469 L39.6550403,90.6692089 L32.3017676,92.5858694 L35.5890166,83.6425815 Z M56.6087004,91.0167697 L56.0527083,79.1068878 L63.7748743,67.0084819 L60.3911826,62.51291 L68.7633723,58.2590354 L73.4745976,59.9407661 L76.5082024,59.9238472 L78.9674909,70.0045631 L72.7180047,79.8266627 L74.4857992,92.6627292 L69.0570403,100.280548 L63.446487,96.1016 L55.2011194,97.8418214 L56.6087004,91.0167697 Z" id="Fill-1" fill="#FF9000"></path>
                    <path d="M88.0716324,57.2176096 L80.7853874,55.4566022 L70.3208735,57.4245026 L61.804502,51.8524103 L51.1625336,51.5179011 L48.4616561,46.3997166 L46.3370237,41.3666096 L51.6158142,41.4937424 L60.7778696,40.6719712 L62.5485573,44.7595579 L74.0975692,44.1978531 L77.1967549,48.199879 L85.9026364,46.5689048 L86.0579091,51.7489638 L88.0716324,57.2176096 Z M73.4412767,96.0317978 L69.0213083,91.9780487 L62.5258933,93.3513734 L63.6349842,87.9745727 L63.1971344,78.591879 L69.2788103,69.060783 L66.6131344,65.5189491 L73.2088498,62.1666059 L79.3459802,58.9558974 L79.3098142,63.4780561 L81.2468656,71.418783 L76.3234664,79.1574509 L77.7156166,89.2691041 L73.4412767,96.0317978 Z M50.8196798,90.4355358 L45.7207549,86.1748937 L39.9269605,87.6845358 L42.5169289,80.6405063 L42.0390553,70.4403919 L47.7209763,63.2382923 L46.7396719,55.117259 L50.589664,55.1897683 L57.4674743,54.8712111 L56.9712767,63.0077129 L59.4170632,66.7090672 L53.8089209,76.5403513 L55.6374743,85.7640081 L50.8196798,90.4355358 Z M105.615522,36.0023771 L40.3161067,16.2750339 L32.0220356,24.0552738 L12.3419407,89.5248199 L20.1022016,97.8392111 L85.4016166,117.566554 L93.7072609,109.790665 L113.388802,44.3196686 L105.615522,36.0023771 Z" id="Fill-2" fill="#FFC000"></path>
                </g>
            </g>
        </g>
    </g>
</svg>