<svg xmlns="http://www.w3.org/2000/svg" width="48" height="48" viewBox="0 0 48 48">
    <g fill="none" fill-rule="evenodd">
        <path fill="#FBB231" d="M33.221 38.754l.727-.019.719-.052.704-.09.699-.124.68-.157.672-.19.656-.224.642-.252.627-.286.61-.309.59-.343.575-.366.552-.395.532-.419.514-.443.49-.47.47-.49.443-.515.42-.532.394-.553.367-.575.341-.59.31-.61.285-.627.252-.643.223-.657.192-.67.156-.68.123-.7.091-.704.053-.719.018-.728-.018-.723-.053-.714-.09-.704-.124-.69-.156-.68-.192-.667-.223-.656-.252-.638-.286-.623-.309-.61-.341-.585-.367-.575-.394-.552-.42-.528-.442-.513-.47-.491-.49-.467-.515-.442-.532-.419-.552-.395-.576-.367-.59-.337-.609-.309-.627-.286-.642-.252-.656-.223-.672-.191-.68-.157-.699-.123-.704-.091-.719-.053-.727-.019-.724.02-.718.052-.703.09-.696.124-.68.157-.67.19-.652.224-.642.252-.624.286-.603.31-.59.336-.57.367-.552.395-.534.419-.509.442-.49.467-.466.49-.442.514-.419.528-.389.552-.367.575-.338.585-.313.61-.282.623-.252.638-.218.656-.19.666-.158.68-.124.691-.09.704-.053.714-.018.723.018.728.054.719.09.704.123.7.157.68.19.67.219.657.252.643.282.627.313.61.338.59.367.575.39.553.418.532.442.515.466.49.49.47.51.443.533.42.551.394.571.366.59.343.603.31.624.285.642.252.652.223.67.19.68.158.696.124.703.09.718.052z"/>
        <path fill="#EC1C2E" d="M14.355 38.754l.722-.019.719-.052.704-.09.694-.124.681-.157.67-.19.652-.224.642-.252.624-.286.604-.309.59-.343.57-.366.552-.395.533-.419.508-.443.491-.47.466-.49.443-.515.418-.532.39-.553.367-.575.337-.59.314-.61.28-.627.253-.643.218-.657.19-.67.158-.68.123-.7.091-.704.052-.719.02-.728-.02-.723-.052-.714-.09-.704-.124-.69-.157-.68-.19-.667-.219-.656-.252-.638-.281-.623-.314-.61-.337-.585-.368-.575-.39-.552-.417-.528-.443-.513-.466-.491-.49-.467-.509-.442-.533-.419-.552-.395-.57-.367-.59-.337-.604-.309-.624-.286-.642-.252-.652-.223-.67-.191-.68-.157-.695-.123-.704-.091-.72-.053-.721-.019-.729.02-.717.052-.705.09-.7.124-.68.157-.67.19-.656.224-.642.252-.628.286-.61.31-.589.336-.576.367-.552.395-.533.419-.513.442-.49.467-.47.49-.443.514-.419.528-.395.552-.366.575-.343.585-.309.61-.285.623-.252.638-.223.656-.191.666-.157.68-.124.691-.09.704-.053.714-.018.723.018.728.052.719.091.704.124.7.157.68.19.67.224.657.252.643.285.627.31.61.342.59.366.575.395.553.42.532.442.515.47.49.49.47.513.443.533.42.552.394.576.366.59.343.609.31.628.285.642.252.656.223.67.19.68.158.7.124.705.09.717.052z"/>
        <path fill="#FBB231" d="M22.137 15.97h7.492v-.784h-6.845zM21.014 17.673h8.615v-.784h-8.163zM20.177 19.372h9.453v-.784h-9.12zM19.602 21.076h10.027v-.784h-9.79zM19.935 29.308h9.718v-.784h-9.956zM20.653 31.011h9v-.784h-9.357zM21.66 32.71h7.993v-.784H21.18zM23.05 34.408h6.603v-.783H22.38zM19.264 22.774h10.365v-.783H19.411zM25.58 27.609h3.954v-.784h-3.81zM25.895 25.906h3.639v-.784h-3.496zM19.002 25.122h1.028v.783h-.98z"/>
        <path fill="#FFF" d="M17.084 24.193l-.065-.004-.067-.01-.062-.009-.061-.01-.058-.009-.062-.01-.06-.008-.068-.01-.067-.01-.076-.005-.086-.005-.09-.004h-.1l-.11.004-.123.01-.137.01-.096.014-.09.014-.081.029-.072.028-.066.034-.062.037-.048.048-.043.043-.028.052-.024.053-.01.057v.057l.015.062.019.061.037.062.048.062.096.09.114.072.133.062.143.052.152.048.156.052.158.058.152.061.143.08.133.1.119.12.1.148.076.18.048.215.018.257-.018.3-.034.223-.057.195-.076.18-.095.157-.109.14-.124.118-.133.104-.147.091-.154.071-.156.062-.162.047-.166.039-.162.029-.156.014-.157.01-.148.004h-.205l-.19-.005h-.167l-.157-.004-.143-.005-.127-.01-.114-.01-.11-.014-.1-.01-.09-.018-.09-.015-.082-.024-.081-.018-.075-.03-.077-.027-.08-.03.213-1.05.043.009.052.014.067.019.081.02.085.018.096.02.104.022.114.02.12.019.123.02.128.013.134.014.137.005.14.005h.136l.138-.005.138-.028.11-.039.085-.051.067-.067.048-.067.038-.077.024-.075.019-.071.01-.139-.044-.118-.081-.096-.119-.08-.142-.071-.167-.073-.186-.067-.184-.075-.191-.086-.18-.1-.167-.123-.153-.148-.118-.181-.086-.214-.044-.256.005-.305.024-.186.035-.176.047-.162.056-.151.077-.143.085-.125.1-.119.12-.104.138-.09.151-.076.171-.071.19-.053.215-.043.233-.033.257-.02.281-.005h.175L16.2 23l.148.005.133.004.119.01.109.009.095.01.086.01.081.009.067.014.06.01.06.01.046.008.043.005.042.01.039.005z"/>
        <path stroke="#FFF" stroke-width=".216" d="M17.084 24.193l-.065-.004-.067-.01-.062-.009-.061-.01-.058-.009-.062-.01-.06-.008-.068-.01-.067-.01-.076-.005-.086-.005-.09-.004h-.1l-.11.004-.123.01-.137.01-.096.014-.09.014-.081.029-.072.028-.066.034-.062.037-.048.048-.043.043-.028.052-.024.053-.01.057v.057l.015.062.019.061.037.062.048.062.096.09.114.072.133.062.143.052.152.048.156.052.158.058.152.061.143.08.133.1.119.12.1.148.076.18.048.215.018.257-.018.3-.034.223-.057.195-.076.18-.095.157-.109.14-.124.118-.133.104-.147.091-.154.071-.156.062-.162.047-.166.039-.162.029-.156.014-.157.01-.148.004h-.205l-.19-.005h-.167l-.157-.004-.143-.005-.127-.01-.114-.01-.11-.014-.1-.01-.09-.018-.09-.015-.082-.024-.081-.018-.075-.03-.077-.027-.08-.03.213-1.05.043.009.052.014.067.019.081.02.085.018.096.02.104.022.114.02.12.019.123.02.128.013.134.014.137.005.14.005h.136l.138-.005.138-.028.11-.039.085-.051.067-.067.048-.067.038-.077.024-.075.019-.071.01-.139-.044-.118-.081-.096-.119-.08-.142-.071-.167-.073-.186-.067-.184-.075-.191-.086-.18-.1-.167-.123-.153-.148-.118-.181-.086-.214-.044-.256.005-.305.024-.186.035-.176.047-.162.056-.151.077-.143.085-.125.1-.119.12-.104.138-.09.151-.076.171-.071.19-.053.215-.043.233-.033.257-.02.281-.005h.175L16.2 23l.148.005.133.004.119.01.109.009.095.01.086.01.081.009.067.014.06.01.06.01.046.008.043.005.042.01.039.005-.244 1.074"/>
        <path fill="#FFF" d="M18.212 21.944h1.319l-.196 1.151h.795l-.172 1.075-.838-.024-.455 2.655-.005.095.023.082.048.061.062.052.085.034.096.028.104.02.114.01.104-.005.096-.01.086-.015.076-.018.062-.02.043-.014.028-.01.01-.004-.166.885-.034.024-.033.019-.034.018-.033.02-.034.014-.038.015-.042.014-.043.014-.048.014-.048.01-.056.01-.057.01-.062.009-.072.009-.076.01-.081.009h-.362l-.19-.015-.166-.018-.152-.029-.128-.033-.11-.044-.09-.046-.081-.058-.062-.062-.048-.066-.034-.081-.023-.082-.014-.09-.005-.1v-.104l.014-.11.015-.118z"/>
        <path stroke="#FFF" stroke-width=".216" d="M18.212 21.944h1.319l-.196 1.151h.795l-.172 1.075-.838-.024-.455 2.655-.005.095.023.082.048.061.062.052.085.034.096.028.104.02.114.01.104-.005.096-.01.086-.015.076-.018.062-.02.043-.014.028-.01.01-.004-.166.885-.034.024-.033.019-.034.018-.033.02-.034.014-.038.015-.042.014-.043.014-.048.014-.048.01-.056.01-.057.01-.062.009-.072.009-.076.01-.081.009h-.362l-.19-.015-.166-.018-.152-.029-.128-.033-.11-.044-.09-.046-.081-.058-.062-.062-.048-.066-.034-.081-.023-.082-.014-.09-.005-.1v-.104l.014-.11.015-.118.908-5.191"/>
        <path stroke="#FFF" stroke-width=".216" d="M21.181 25.964l-.014.08-.005.086.009.09.02.091.033.09.039.087.05.09.058.08.066.082.071.072.077.07.085.057.086.053.096.043.094.033.096.02.123.017.12.016.123.013.124.01.124.005h.128l.124-.005.128-.01.128-.018.129-.025.133-.028.128-.043.134-.052.138-.057.133-.076.137-.081-.19 1.17-.076.038-.076.04-.076.027-.07.03-.073.022-.076.025-.076.017-.08.016-.087.014-.094.01-.1.009-.11.01-.124.005h-.127l-.148.004h-.158l-.233-.004-.237-.024-.238-.034-.238-.058-.233-.07-.223-.091-.215-.119-.2-.138-.185-.161-.161-.196-.138-.219-.115-.252-.08-.28-.052-.32-.015-.352.024-.39.019-.152.028-.176.038-.185.052-.2.072-.205.086-.204.109-.21.133-.2.152-.19.185-.18.21-.163.238-.142.276-.12.31-.085.34-.057.387-.02.185.006.196.018.195.034.195.047.19.072.185.086.172.114.157.133.142.162.12.19.094.22.067.252.038.284.005.323-.033.363-.072.4-.024.29h-3.467l.218-.938h2.084l.01-.118-.006-.115-.01-.105-.018-.094-.033-.09-.033-.082-.048-.072-.047-.066-.057-.057-.063-.048-.071-.042-.071-.039-.076-.027-.077-.02-.08-.014-.086-.01-.09.005-.086.014-.08.02-.082.028-.081.038-.07.043-.073.052-.06.057-.063.066-.057.072-.052.076-.044.082-.042.085-.033.095-.03.096-.018.1-.19.984"/>
        <path fill="#FFF" d="M32.525 23.38l-.06-.033-.062-.029-.068-.033-.07-.034-.073-.027-.08-.03-.081-.028-.085-.028-.09-.024-.092-.019-.099-.02-.1-.014-.11-.01-.108-.009h-.352l-.125.01-.128.015-.133.023-.133.038-.133.052-.133.067-.134.085-.128.105-.125.124-.118.152-.114.176-.105.21-.1.237-.09.268-.075.304-.03.17-.018.167-.01.167.005.162.014.161.033.153.043.143.052.143.071.128.086.123.1.11.115.1.128.086.147.07.162.063.18.042.063.014.072.015.085.01.095.01.104.009H30.946l.12-.01.123-.014.124-.024.119-.033.119-.038.118-.053.11-.061.1-.076.095-.086-.213 1.27-.03.024-.028.029-.038.034-.042.027-.053.038-.067.034-.076.033-.085.028-.11.034-.123.024-.143.02-.167.018-.185.01-.215.004-.241-.005-.268-.014-.218-.024-.22-.047-.217-.071-.22-.096-.209-.114-.2-.143-.19-.166-.176-.19-.158-.215-.132-.237-.114-.267-.085-.29-.057-.319-.02-.338.01-.37.051-.396.039-.195.042-.19.048-.186.049-.176.05-.167.062-.166.063-.157.066-.148.072-.147.071-.138.081-.133.085-.124.086-.12.095-.113.095-.105.1-.1.11-.095.11-.09.114-.081.119-.077.128-.071.128-.061.134-.058.138-.052.147-.048.146-.038.153-.034.163-.027.16-.025.172-.018.171-.01.182-.005.152.006.147.009.143.014.142.019.134.019.128.029.124.023.114.029.11.028.095.029.09.028.076.029.067.023.057.02.042.019.03.01z"/>
        <path stroke="#FFF" stroke-width=".216" d="M32.525 23.38l-.06-.033-.062-.029-.068-.033-.07-.034-.073-.027-.08-.03-.081-.028-.085-.028-.09-.024-.092-.019-.099-.02-.1-.014-.11-.01-.108-.009h-.352l-.125.01-.128.015-.133.023-.133.038-.133.052-.133.067-.134.085-.128.105-.125.124-.118.152-.114.176-.105.21-.1.237-.09.268-.075.304-.03.17-.018.167-.01.167.005.162.014.161.033.153.043.143.052.143.071.128.086.123.1.11.115.1.128.086.147.07.162.063.18.042.063.014.072.015.085.01.095.01.104.009H30.946l.12-.01.123-.014.124-.024.119-.033.119-.038.118-.053.11-.061.1-.076.095-.086-.213 1.27-.03.024-.028.029-.038.034-.042.027-.053.038-.067.034-.076.033-.085.028-.11.034-.123.024-.143.02-.167.018-.185.01-.215.004-.241-.005-.268-.014-.218-.024-.22-.047-.217-.071-.22-.096-.209-.114-.2-.143-.19-.166-.176-.19-.158-.215-.132-.237-.114-.267-.085-.29-.057-.319-.02-.338.01-.37.051-.396.039-.195.042-.19.048-.186.049-.176.05-.167.062-.166.063-.157.066-.148.072-.147.071-.138.081-.133.085-.124.086-.12.095-.113.095-.105.1-.1.11-.095.11-.09.114-.081.119-.077.128-.071.128-.061.134-.058.138-.052.147-.048.146-.038.153-.034.163-.027.16-.025.172-.018.171-.01.182-.005.152.006.147.009.143.014.142.019.134.019.128.029.124.023.114.029.11.028.095.029.09.028.076.029.067.023.057.02.042.019.03.01-.24 1.317"/>
        <path fill="#FFF" d="M44.237 28.19H42.92l.095-.527v-.048l-.076.096-.082.085-.08.076-.085.067-.086.062-.086.051-.085.043-.09.044-.091.033-.09.024-.091.023-.095.014-.094.015-.091.01-.095.004h-.095l-.248-.02-.228-.051-.21-.081-.19-.11-.171-.138-.153-.16-.133-.178-.114-.199-.094-.215-.077-.222-.052-.234-.038-.243-.014-.242.004-.247.023-.243.044-.243.071-.281.086-.267.1-.242.119-.228.123-.215.143-.19.147-.17.157-.158.167-.139.176-.118.18-.105.182-.08.19-.068.19-.042.19-.029.195-.009.139.004.132.015.124.024.115.034.109.038.095.042.095.052.086.053.076.056.07.063.063.062.057.061.047.062.044.062.038.057.028.057.333-1.87h1.294z"/>
        <path stroke="#FFF" stroke-width=".216" d="M44.237 28.19H42.92l.095-.527v-.048l-.076.096-.082.085-.08.076-.085.067-.086.062-.086.051-.085.043-.09.044-.091.033-.09.024-.091.023-.095.014-.094.015-.091.01-.095.004h-.095l-.248-.02-.228-.051-.21-.081-.19-.11-.171-.138-.153-.16-.133-.178-.114-.199-.094-.215-.077-.222-.052-.234-.038-.243-.014-.242.004-.247.023-.243.044-.243.071-.281.086-.267.1-.242.119-.228.123-.215.143-.19.147-.17.157-.158.167-.139.176-.118.18-.105.182-.08.19-.068.19-.042.19-.029.195-.009.139.004.132.015.124.024.115.034.109.038.095.042.095.052.086.053.076.056.07.063.063.062.057.061.047.062.044.062.038.057.028.057.333-1.87h1.294l-1.076 6.224"/>
        <path fill="#FBB231" d="M42.083 27.04l.132-.01.125-.029.114-.033.11-.052.1-.057.094-.072.091-.08.08-.087.072-.095.067-.105.061-.109.053-.113.047-.12.039-.124.032-.128.025-.129.023-.132.014-.138v-.13l-.003-.132-.016-.124-.018-.119-.034-.115-.038-.109-.047-.094-.057-.091-.062-.077-.072-.066-.08-.057-.086-.039-.09-.023-.1-.01-.13.01-.118.02-.11.037-.109.047-.095.062-.095.077-.081.08-.08.091-.072.104-.067.11-.062.114-.052.124-.047.128-.038.13-.038.136-.029.139-.025.21.011.228.033.233.062.223.095.196.123.157.157.104z"/>
        <path fill="#FFF" d="M12.87 27.134l-.19 1.057h-1.2l.034-.195.025-.176.018-.133.02-.072-.067.076-.076.077-.09.071-.1.066-.115.067-.119.057-.124.057-.128.048-.139.042-.136.034-.139.029-.142.019-.138.01-.138.004-.133-.014-.13-.019-.165-.043-.153-.048-.133-.062-.119-.071-.104-.076-.095-.086-.076-.091-.067-.094-.057-.1-.048-.106-.038-.104-.029-.104-.018-.11-.015-.11-.01-.105v-.104l.015-.186.028-.175.049-.167.061-.162.076-.152.085-.138.1-.133.115-.119.12-.11.132-.1.139-.09.141-.077.152-.065.158-.053.161-.043.167-.029h.01l.023-.005.034-.004.052-.004.057-.01.067-.005.07-.01.082-.009.08-.01.082-.008.086-.006.075-.01.077-.004.07-.006.068-.003h.162l.114.003.104.006h.105l.085.004.067.005.047.005h.014l.01-.033.029-.086.023-.1.01-.09-.02-.104-.042-.097-.057-.084-.077-.072-.09-.061-.1-.044-.114-.028-.123-.01-.133-.004-.144-.005h-.147l-.151.005-.158.01-.153.013-.151.014-.148.02-.143.019-.138.024-.123.023-.114.024-.104.029-.087.028-.066.033-.053.029.338-1.147.105-.042.104-.039.115-.032.114-.025.115-.024.123-.018.123-.02.129-.01.133-.009.138-.005.142-.005H11.438l.167.005.167.005.133.01.143.024.147.033.152.043.147.058.143.066.142.081.135.09.117.105.106.114.095.128.07.143.049.153.028.16v.181l-.028.191z"/>
        <path stroke="#FFF" stroke-width=".216" d="M12.87 27.134l-.19 1.057h-1.2l.034-.195.025-.176.018-.133.02-.072-.067.076-.076.077-.09.071-.1.066-.115.067-.119.057-.124.057-.128.048-.139.042-.136.034-.139.029-.142.019-.138.01-.138.004-.133-.014-.13-.019-.165-.043-.153-.048-.133-.062-.119-.071-.104-.076-.095-.086-.076-.091-.067-.094-.057-.1-.048-.106-.038-.104-.029-.104-.018-.11-.015-.11-.01-.105v-.104l.015-.186.028-.175.049-.167.061-.162.076-.152.085-.138.1-.133.115-.119.12-.11.132-.1.139-.09.141-.077.152-.065.158-.053.161-.043.167-.029h.01l.023-.005.034-.004.052-.004.057-.01.067-.005.07-.01.082-.009.08-.01.082-.008.086-.006.075-.01.077-.004.07-.006.068-.003h.162l.114.003.104.006h.105l.085.004.067.005.047.005h.014l.01-.033.029-.086.023-.1.01-.09-.02-.104-.042-.097-.057-.084-.077-.072-.09-.061-.1-.044-.114-.028-.123-.01-.133-.004-.144-.005h-.147l-.151.005-.158.01-.153.013-.151.014-.148.02-.143.019-.138.024-.123.023-.114.024-.104.029-.087.028-.066.033-.053.029.338-1.147.105-.042.104-.039.115-.032.114-.025.115-.024.123-.018.123-.02.129-.01.133-.009.138-.005.142-.005H11.438l.167.005.167.005.133.01.143.024.147.033.152.043.147.058.143.066.142.081.135.09.117.105.106.114.095.128.07.143.049.153.028.16v.181l-.028.191-.48 2.512"/>
        <path fill="#EC1C2E" d="M11.724 25.892l-.005-.023-.02-.024-.028-.015-.047-.008-.052-.01-.062-.006h-.143l-.075.006-.081.01-.077.008-.076.01-.072.01-.066.014-.057.015-.053.013-.032.01-.038.015-.053.019-.053.023-.061.029-.062.033-.067.033-.062.038-.066.048-.062.048-.058.057-.051.057-.048.061-.033.068-.028.075-.015.076-.005.162.024.129.048.095.061.071.072.048.081.028.077.015.075.004.143-.004.128-.015.124-.02.11-.027.094-.034.09-.042.082-.043.071-.052.062-.048.056-.057.048-.052.038-.057.033-.058.03-.056.023-.053.013-.053.04-.137.032-.158.029-.152z"/>
        <path fill="#FFF" d="M2.861 28.19H1.568l1.08-6.246h2.25l.214 3.706 1.556-3.706h2.35L7.914 28.19H6.62l.818-4.668h-.052L5.45 28.191H3.99l-.01-.195-.032-.52-.043-.736-.048-.848-.048-.85-.042-.747-.034-.543-.01-.229h-.07z"/>
        <path stroke="#FFF" stroke-width=".216" d="M2.861 28.19H1.568l1.08-6.246h2.25l.214 3.706 1.556-3.706h2.35L7.914 28.19H6.62l.818-4.668h-.052L5.45 28.191H3.99l-.01-.195-.032-.52-.043-.736-.048-.848-.048-.85-.042-.747-.034-.543-.01-.229h-.07l-.79 4.668"/>
        <path fill="#FFF" d="M36.48 27.134l-.195 1.057H35.09l.01-.195.005-.171v-.129l.008-.056-.06.07-.072.072-.086.066-.095.067-.099.062-.115.057-.12.057-.118.048-.128.037-.134.039-.133.024-.132.019-.139.01-.133.004-.128-.014-.13-.019-.17-.043-.152-.048-.134-.062-.124-.071-.104-.076-.09-.086-.076-.091-.067-.094-.057-.1-.043-.106-.038-.104-.023-.104-.02-.11-.014-.11-.01-.105v-.104l.01-.186.029-.175.042-.167.062-.162.071-.152.09-.138.1-.133.11-.119.124-.11.128-.1.138-.09.148-.077.147-.065.157-.053.157-.043.162-.029h.01l.022-.005.034-.004.048-.004.062-.01.066-.005.072-.01.076-.009.081-.01.086-.008.08-.006.08-.01.077-.004.067-.006.066-.003h.167l.115.003.109.006h.104l.091.004.076.005.042.005h.02l.01-.033.014-.086.014-.1.008-.09-.018-.104-.037-.097-.062-.084-.072-.072-.086-.061-.1-.044-.104-.028-.115-.01-.133-.004-.142-.005h-.148l-.153.005-.156.01-.153.013-.152.014-.147.02-.143.019-.137.024-.124.023-.114.024-.106.029-.084.028-.068.033-.052.029.333-1.147.104-.042.11-.039.11-.032.113-.025.12-.024.119-.018.123-.02.129-.01.133-.009.138-.005.138-.005H35.053l.16.005.162.005.134.01.143.024.147.033.152.043.148.058.147.066.143.081.133.09.12.105.108.114.095.128.072.143.052.153.034.16v.181l-.024.191z"/>
        <path fill="#FFF" d="M36.292 28.224l.035-.028.246-1.057-.072-.01-.245 1.058.036-.03v.067l.03-.005.005-.023z"/>
        <path fill="#FFF" d="M35.062 28.2l.028.041h1.195v-.083H35.09l.029.041h-.057l-.004.042h.032z"/>
        <path fill="#FFF" d="M35.158 27.667l-.055-.047-.023.095-.007.16v.215l-.011.243h.072l.011-.243.013-.214-.006-.16v-.05l-.054-.046z"/>
        <path fill="#FFF" d="M33.287 28.366l.133.021.13.016.132-.004.139-.012.137-.021.133-.028.134-.043.132-.045.12-.055.123-.065.115-.065.099-.077.1-.078.085-.076.077-.088.062-.083-.048-.043-.062.082-.066.077-.086.077-.09.076-.1.066-.114.067-.115.065-.119.054-.123.044-.133.045-.134.027-.127.02-.14.013-.132.005-.129-.017-.123-.021zM32.136 26.825l.005.105.009.104.015.115.019.11.024.104.038.11.043.109.062.1.065.1.077.09.095.09.11.077.123.076.139.061.156.048.171.043.01-.057-.171-.043-.147-.048-.13-.061-.124-.067-.1-.075-.085-.082-.076-.09-.066-.091-.052-.1-.043-.1-.039-.099-.023-.105-.019-.11-.014-.105-.01-.104.005-.105z"/>
        <path fill="#FFF" d="M33.844 24.998l-.166.028-.162.043-.157.052-.153.068-.148.075-.141.096-.13.1-.123.114-.114.119-.1.133-.095.143-.072.157-.06.161-.044.172-.029.18-.014.186h.066l.005-.186.03-.17.042-.162.062-.162.07-.148.086-.133.1-.133.105-.119.123-.105.13-.1.132-.085.149-.077.141-.066.158-.052.152-.043.157-.029z"/>
        <path fill="#FFF" d="M34.824 24.898h-.053l-.067.012-.066.007-.076.005-.08.011-.082.007-.085.012-.082.01-.075.014-.072.012-.066.005-.062.013-.048.006-.038.005-.019.006h-.009v.072h.01l.028-.007.028-.005.048-.006.062-.012.066-.006.072-.012.075-.013.082-.01.085-.012.081-.006.081-.013.076-.005.066-.007h.12z"/>
        <path fill="#FFF" d="M35.549 24.963l.033-.03h-.022l-.049-.005-.085-.006-.103-.011h-.241l-.13-.013h-.128v.083h.258l.123.012H35.426l.085.006.049.007h.022l.031-.03-.031.03.026.005.005-.035z"/>
        <path fill="#FFF" d="M35.526 24.646h-.006l-.006.113-.019.119-.018.107-.01.041.071.013.012-.043.017-.107.018-.13.019-.113h-.006z"/>
        <path fill="#FFF" d="M34.947 24.19v.006l.14.006.124.036.12.053.102.072.083.083.072.1.05.108.023.125h.072l-.025-.136-.047-.131-.085-.113-.094-.097-.115-.082-.132-.054-.138-.034-.15-.018v.005zM32.907 24.479l.047.035.047-.03.062-.041.082-.036.104-.035.115-.03.122-.03.139-.03.138-.023.148-.025.151-.018.153-.017.156-.012H34.814l.133.006v-.072l-.133-.005-.143-.013h-.147l-.153.013-.156.01-.153.02-.151.018-.148.023-.147.023-.139.03-.123.03-.114.03-.105.035-.09.037-.072.04-.056.042.047.036z"/>
        <path fill="#FFF" d="M33.35 23.233l-.024.024-.419 1.147.072.009.42-1.147-.025.024-.023-.057-.018.005-.007.019z"/>
        <path fill="#FFF" d="M35.376 23.018l-.162-.012-.162-.006H34.605l-.138.012-.138.006-.133.012-.129.01-.128.025-.118.023-.12.031-.115.03-.113.041-.11.047-.104.054.018.072.106-.054.109-.047.104-.043.115-.029.12-.03.117-.024.119-.023.13-.012.132-.013.138-.005H35.052l.162.005h.162zM37.007 24.627l.024-.196v-.18l-.033-.167-.053-.157-.075-.147-.097-.133-.113-.119-.119-.105-.138-.09-.143-.086-.152-.067-.147-.057-.157-.042-.148-.034-.147-.023-.133-.01v.057l.133.01.138.023.147.034.147.042.148.057.143.067.142.076.129.09.119.105.105.11.094.123.067.14.052.146.034.157v.18l-.024.187zM36.523 27.139l.629-2.512-.072-.01-.63 2.513z"/>
        <path fill="#FBB231" d="M35.328 25.892l-.01-.028-.018-.024-.034-.014-.047-.014-.052-.006-.062-.005h-.072l-.071.005-.077.01-.075.01-.076.01-.072.01-.07.014-.063.009-.062.014-.048.01-.032.004-.039.015-.047.014-.053.019-.062.028-.056.029-.067.034-.062.042-.063.043-.062.052-.051.052-.053.062-.043.067-.033.071-.028.077-.014.08-.005.162.022.129.04.095.056.071.072.048.081.028.081.015.081.004.143-.004.132-.015.124-.023.11-.034.104-.038.09-.043.086-.048.076-.056.067-.053.056-.061.053-.057.044-.063.032-.057.025-.057.019-.057.013-.052.02-.133.024-.138.018-.134z"/>
        <path fill="#FFF" d="M45.127 27.68l.01-.134.037-.157.067-.139.081-.121.1-.099.115-.07.124-.047.132-.016.134.016.123.048.114.07.1.098.081.121.067.14.038.156.01.134h-.143l-.005-.105-.03-.128-.046-.115-.062-.1-.076-.08-.09-.058-.105-.04-.11-.012-.109.011-.104.04-.09.059-.078.08-.061.1-.047.115-.029.128-.01.105z"/>
        <path fill="#FFF" d="M45.555 27.611v-.357h.33l.072.005.067.012.047.018.042.024.03.036.023.036.013.04.006.043-.006.053-.013.042-.017.036-.013.012h-.251l.023-.007.043-.005.035-.012.031-.012.024-.018.013-.019.01-.028v-.042l-.006-.03-.012-.024-.016-.012-.02-.012-.03-.005-.03-.006h-.245v.232z"/>
        <path fill="#FFF" d="M45.127 27.54l-.004.03.015.156.036.143.067.129.081.107.1.09.115.07.124.042.132.016.134-.016.123-.042.114-.07.1-.09.081-.107.067-.129.038-.143.013-.155-.003-.031h-.143l.005.03-.01.13-.03.117-.046.101-.062.09-.076.075-.09.058-.105.038-.11.01-.109-.01-.104-.038-.09-.058-.078-.075-.061-.09-.047-.101-.029-.118-.01-.128v-.031z"/>
        <path fill="#FFF" d="M45.555 27.54v.362h.15v-.297h.15l.179.297h.121l-.18-.297h.042l.041-.013.037-.012.03-.023.011-.017h-.251l-.03.005h-.15v-.005z"/>
        <path stroke="#FFF" stroke-width=".216" d="M45.793 28.12l.11-.01.104-.034.091-.051.075-.068.063-.08.047-.09.03-.105.008-.114-.008-.114-.03-.106-.047-.094-.063-.082-.075-.066-.09-.047-.105-.034-.11-.01-.109.01-.104.034-.09.047-.077.066-.062.082-.047.094-.03.106-.009.114.01.114.029.105.047.09.062.08.076.068.091.051.104.034.11.01m0-.576l.042-.01.034-.004.028-.01.024-.01.019-.014.01-.015.009-.022v-.034l-.005-.024-.01-.02-.013-.008-.015-.01-.024-.005-.023-.004h-.195v.19h.118m-.118.286h-.12v-.576h.262l.058.004.052.01.037.014.034.019.024.029.019.028.009.033.005.034-.005.042-.01.034-.013.029-.02.023-.023.02-.03.009-.032.01h-.034l.143.238h-.096l-.142-.238h-.118v.238m-.552-.262l.015-.139.036-.128.067-.114.08-.1.101-.08.115-.058.124-.039.132-.014.134.014.123.04.115.057.1.08.08.1.067.114.038.128.014.139-.014.138-.038.128-.066.114-.081.096-.1.08-.115.062-.123.038-.134.015-.132-.015-.124-.038-.115-.062-.1-.08-.081-.096-.067-.114-.036-.128-.015-.138"/>
        <path fill="#FFF" d="M36.837 28.19h1.341l.48-2.707.02-.104.028-.105.028-.105.038-.104.048-.104.056-.1.063-.096.076-.09.086-.081.094-.077.11-.072.124-.056.137-.047.153-.038.166-.03.185-.01H40.19l.215-1.222-.134.01-.128.015-.12.023-.113.033-.105.038-.1.049-.095.051-.09.057-.085.067-.082.067-.076.076-.076.076-.072.08-.07.091-.072.085-.066.096.143-.86h-1.338z"/>
        <path stroke="#FFF" stroke-width=".216" d="M36.837 28.19h1.341l.48-2.707.02-.104.028-.105.028-.105.038-.104.048-.104.056-.1.063-.096.076-.09.086-.081.094-.077.11-.072.124-.056.137-.047.153-.038.166-.03.185-.01H40.19l.215-1.222-.134.01-.128.015-.12.023-.113.033-.105.038-.1.049-.095.051-.09.057-.085.067-.082.067-.076.076-.076.076-.072.08-.07.091-.072.085-.066.096.143-.86h-1.338l-.888 5.095"/>
        <path fill="#FFF" d="M24.24 28.19h1.365l.457-2.707.019-.104.023-.1.024-.1.033-.096.038-.094.048-.091.056-.085.067-.081.076-.072.086-.071.105-.057.114-.052.133-.044.148-.037.162-.025.185-.013h.015l.019.004.023.005h.024l.023.004.02.005.014.006h.005l.005-.02.014-.057.019-.085.024-.106.033-.123.033-.134.043-.132.042-.134.04-.09.047-.091.047-.09.047-.08.043-.071.033-.058.024-.033.01-.014h-.004l-.02-.006-.023-.004-.034-.005h-.033l-.038-.005-.033-.005h-.034l-.147.01-.133.015-.124.023-.114.029-.11.038-.1.048-.09.047-.086.056-.08.063-.077.071-.071.072-.071.08-.072.082-.066.09-.071.094-.072.096.17-.86H25.13z"/>
        <path stroke="#FFF" stroke-width=".216" d="M24.24 28.19h1.365l.457-2.707.019-.104.023-.1.024-.1.033-.096.038-.094.048-.091.056-.085.067-.081.076-.072.086-.071.105-.057.114-.052.133-.044.148-.037.162-.025.185-.013h.015l.019.004.023.005h.024l.023.004.02.005.014.006h.005l.005-.02.014-.057.019-.085.024-.106.033-.123.033-.134.043-.132.042-.134.04-.09.047-.091.047-.09.047-.08.043-.071.033-.058.024-.033.01-.014h-.004l-.02-.006-.023-.004-.034-.005h-.033l-.038-.005-.033-.005h-.034l-.147.01-.133.015-.124.023-.114.029-.11.038-.1.048-.09.047-.086.056-.08.063-.077.071-.071.072-.071.08-.072.082-.066.09-.071.094-.072.096.17-.86H25.13l-.89 5.095"/>
        <path fill="#FBB231" d="M45.138 33.329v-.025l.036-.154.067-.136.08-.12.101-.094.115-.072.123-.041.133-.019.134.019.123.04.115.073.1.095.08.119.067.136.038.154v.025h-.137l-.03-.124-.047-.114-.062-.102-.076-.083-.09-.065-.105-.041-.11-.013-.109.013-.104.04-.09.066-.078.083-.061.102-.047.114-.03.124z"/>
        <path fill="#FBB231" d="M45.555 33.238v-.207h.402l.067.011.047.011.042.024.03.03.023.036.013.042.006.053h-.12v-.03l-.007-.03-.012-.023-.016-.012-.02-.012-.03-.006-.03-.005h-.245v.118zM45.123 33.327l.018-.13h.174v.005l-.013.125z"/>
        <path fill="#FBB231" d="M45.555 33.327v-.13h.15v.118h.15l.053-.01.043-.007.035-.012.031-.012.024-.017.013-.02.01-.027v-.014h.12l-.005.042-.013.036-.017.03-.024.023zM46.324 33.327l-.012-.125v-.006h.174l.017.131z"/>
        <path fill="#FBB231" d="M45.123 33.301v.017l.014.157.037.147.067.13.08.115.102.093.114.064.124.045.132.016.134-.016.123-.045.115-.064.1-.093.08-.114.067-.13.038-.148.013-.157V33.3h-.141v.017l-.01.13-.03.12-.047.103-.061.092-.076.077-.09.06-.105.038-.11.011-.109-.01-.104-.04-.091-.059-.077-.077-.06-.092-.048-.103-.029-.12-.01-.13V33.3z"/>
        <path fill="#FBB231" d="M45.555 33.301v.346h.15v-.298h.15l.179.298h.121l-.18-.298h.042l.041-.012.037-.012.03-.024z"/>
        <path fill="#FFF" d="M23.098 25.05H21.36l.001-.004h-.002l.012-.067.02-.1.027-.095.034-.095.043-.085.043-.082.051-.076.058-.072.062-.066.06-.057.074-.052.07-.043.081-.038.081-.028.08-.02.086-.014.091-.005.086.01.08.014.077.02.075.027.072.039.071.042.063.048.056.057.048.066.048.072.033.081.033.091.018.094.01.105.006.115-.01.118zm1.29-.438l-.039-.284-.067-.253-.094-.218-.12-.191-.142-.162-.157-.133-.171-.114-.186-.086-.19-.072-.195-.047-.196-.034-.194-.018-.186-.005-.386.019-.342.057-.31.085-.275.12-.238.142-.21.162-.185.18-.152.192-.134.2-.109.209-.085.204-.072.204-.052.2-.038.186-.028.176-.02.152-.023.39.014.352.053.32.08.28.115.252.138.219.161.196.185.16.2.14.215.118.223.091.233.07.238.058.238.034.238.024.232.004h.157l.149-.004h.127l.124-.006.11-.01.1-.008.094-.01.086-.014.08-.016.077-.017.077-.025.071-.023.071-.03.077-.027.075-.039.077-.037.19-1.171-.138.081-.134.076-.137.057-.133.052-.129.043-.133.028-.129.025-.128.018-.129.01-.123.005h-.129l-.123-.005-.124-.01-.124-.013-.119-.016-.123-.018-.095-.02-.096-.032-.094-.043-.087-.053-.085-.057-.076-.07-.071-.072-.067-.081-.057-.08-.052-.091-.039-.086-.033-.09-.019-.092-.009-.09.004-.08.012-.062h3.085l.024-.29.072-.4.033-.363-.005-.323z"/>
    </g>
</svg>
