<?xml version="1.0" encoding="UTF-8"?>
<svg width="49px" height="29px" viewBox="0 0 49 29" version="1.1" xmlns="http://www.w3.org/2000/svg" xmlns:xlink="http://www.w3.org/1999/xlink">
    <!-- Generator: Sketch 44.1 (41455) - http://www.bohemiancoding.com/sketch -->
    <title>MC</title>
    <desc>Created with Sketch.</desc>
    <defs></defs>
    <g id="Symbols" stroke="none" stroke-width="1" fill="none" fill-rule="evenodd">
        <g id="Футер" transform="translate(-778.000000, -836.000000)" fill="#C9C9C9">
            <g id="Копирайт">
                <g transform="translate(0.000000, 797.000000)">
                    <g transform="translate(228.000000, 16.000000)" id="Payment">
                        <g transform="translate(481.000000, 0.000000)">
                            <g id="MC" transform="translate(69.000000, 23.000000)">
                                <path d="M9.95773907,16.006234 C9.95773907,16.3819035 10.1549182,16.5711506 10.5492765,16.5711506 C11.2394034,16.5711506 11.6337617,16.006234 11.7323513,15.1588592 L11.337993,15.1588592 C10.4506869,15.1588592 9.95773907,15.4403759 9.95773907,16.006234" id="Fill-1"></path>
                                <path d="M35.1967665,16.006234 C35.1967665,16.3819035 35.3939456,16.5711506 35.7883039,16.5711506 C36.4784308,16.5711506 36.8727891,16.006234 36.9713786,15.1588592 L36.5760345,15.1588592 C35.5901388,15.1588592 35.1967665,15.4403759 35.1967665,16.006234" id="Fill-3"></path>
                                <path d="M23.1686423,13.1811805 C22.6756944,13.1811805 22.2813362,13.5577915 22.1827466,14.2168608 L23.9573588,14.2168608 C23.9573588,14.0285553 24.1545379,13.1811805 23.1686423,13.1811805" id="Fill-5"></path>
                                <path d="M44.5627752,13.3696743 C43.8726482,13.3696743 43.2811108,14.2170491 43.2811108,15.3468823 C43.2811108,16.1001043 43.5768795,16.4767154 44.0698274,16.4767154 C44.8585439,16.4767154 45.3514917,15.6293405 45.3514917,14.4995074 C45.4490954,13.7462853 45.1543126,13.3696743 44.5627752,13.3696743" id="Fill-7"></path>
                                <path d="M44.9565419,17.7945715 L45.0561174,17.229655 C44.6607732,17.7004188 44.1678254,17.8896658 43.5772739,17.8896658 C42.3932132,17.8896658 41.6054826,16.9481382 41.6054826,15.4407526 C41.6054826,13.5576974 42.7885574,11.8629477 44.1678254,11.8629477 C44.7603487,11.8629477 45.2532965,12.145406 45.6466689,12.6161698 L46.042013,10.5448091 L47.6184602,10.5448091 L46.4353854,17.7004188 L44.9565419,17.7004188 L44.9565419,17.7945715 Z M40.2242428,17.7945715 L38.6477956,17.7945715 L38.7453993,17.418902 C39.041168,15.6290581 39.3379226,13.8401556 39.5341158,12.0512532 L41.0129593,12.0512532 C41.0129593,12.3337115 40.9143697,12.6161698 40.9143697,12.898628 C41.4073176,12.2395587 41.8026617,11.8629477 42.4918028,11.9571005 C42.2956095,12.2395587 41.9988549,12.898628 41.9002654,13.6518501 C40.9143697,13.5576974 40.7171906,14.2167667 40.2242428,17.7945715 L40.2242428,17.7945715 Z M38.0552723,17.7945715 L36.773608,17.7945715 L36.773608,17.229655 C36.3802356,17.7004188 35.7877123,17.8896658 35.0975854,17.8896658 C34.2112652,17.8896658 33.6187419,17.229655 33.6187419,16.2881274 C33.6187419,14.875836 34.6046375,14.0284612 36.3802356,14.0284612 L37.0693767,14.0284612 C37.1689521,13.8401556 37.1689521,13.7460029 37.1689521,13.6518501 C37.1689521,13.2752391 36.8731834,13.0869336 36.1830565,13.0869336 C35.3943399,13.0869336 34.8018167,13.2752391 34.506048,13.3693918 C34.506048,13.2752391 34.704213,12.0512532 34.704213,12.0512532 C35.4919436,11.8629477 35.9848914,11.7687949 36.5764288,11.7687949 C37.9566828,11.7687949 38.6477956,12.3337115 38.6477956,13.4635446 C38.6477956,13.7460029 38.6477956,14.1226139 38.5482202,14.5933777 C38.3520269,15.5358468 38.0552723,17.3238077 38.0552723,17.7945715 L38.0552723,17.7945715 Z M33.125794,17.7004188 C32.5342566,17.8896658 32.1398984,17.8896658 31.746526,17.8896658 C30.0695175,17.8896658 28.9860182,16.6647384 28.9860182,14.7816832 C28.9860182,12.2395587 30.4648617,10.4506563 32.6328462,10.4506563 C33.3229732,10.4506563 34.1116897,10.7331146 34.4084443,10.8272673 L34.1116897,12.3337115 C33.5201523,12.0512532 33.125794,11.9571005 32.7324217,11.9571005 C31.548361,11.9571005 30.6610549,13.0869336 30.6610549,14.5933777 C30.6610549,15.6290581 31.2535782,16.2881274 32.1398984,16.2881274 C32.5342566,16.2881274 32.9296008,16.1939746 33.5201523,15.9115164 L33.125794,17.7004188 Z M27.0142269,17.7945715 L25.4358079,17.7945715 L25.5353834,17.418902 C25.8311521,15.6290581 26.1259349,13.8401556 26.3240999,12.0512532 L27.8029434,12.0512532 C27.8029434,12.3337115 27.7033679,12.6161698 27.7033679,12.898628 C28.1963158,12.2395587 28.590674,11.8629477 29.2817869,11.9571005 C29.0836219,12.2395587 28.7888391,12.898628 28.6892636,13.6518501 C27.7033679,13.5576974 27.6047784,14.2167667 27.0142269,17.7945715 L27.0142269,17.7945715 Z M23.4640166,16.5705857 C24.055554,16.5705857 24.5485018,16.4773744 25.1400392,16.1939746 L24.8452564,17.606266 C24.2527331,17.7945715 23.7597853,17.7945715 23.1682479,17.7945715 C21.3946216,17.7945715 20.5063296,16.9481382 20.5063296,15.252447 C20.5063296,13.2752391 21.6894044,11.7687949 23.2668375,11.7687949 C24.5485018,11.7687949 25.4358079,12.6161698 25.4358079,13.8401556 C25.4358079,14.3109194 25.3382043,14.6875305 25.2386288,15.252447 L22.0837627,15.252447 C21.9851731,16.1939746 22.5767105,16.5705857 23.4640166,16.5705857 L23.4640166,16.5705857 Z M19.7176131,16.4773744 C19.9157781,16.4773744 20.0133818,16.4773744 20.1119714,16.3822801 L19.9157781,17.7004188 C19.520434,17.7945715 19.1260757,17.8896658 18.7317175,17.8896658 C17.9439868,17.8896658 17.451039,17.418902 17.451039,16.5705857 C17.451039,16.2881274 17.5486427,15.6290581 17.6472322,15.065083 C17.7458218,14.499225 18.3373592,11.1097256 18.3373592,11.1097256 L19.9157781,11.1097256 L19.7176131,11.9571005 L20.5063296,11.9571005 L20.3091505,13.3693918 L19.520434,13.3693918 C19.3232549,14.499225 19.0274862,15.8173636 19.0274862,16.0066106 C19.2246653,16.2881274 19.4228303,16.4773744 19.7176131,16.4773744 L19.7176131,16.4773744 Z M16.2669783,14.3109194 C17.0556948,14.6875305 17.3514635,15.1582943 17.3514635,15.9115164 C17.3514635,17.229655 16.562747,17.8896658 14.8867244,17.8896658 C13.9008287,17.8896658 13.6050601,17.7945715 13.2107018,17.7004188 C13.2107018,17.606266 13.4078809,16.3822801 13.4078809,16.3822801 C13.9008287,16.5705857 14.3937766,16.5705857 14.8867244,16.5705857 C15.4792477,16.5705857 15.7740305,16.3822801 15.7740305,16.0066106 C15.7740305,15.7232108 15.6754409,15.6290581 14.9862999,15.3465998 C14.0980079,14.9699888 13.8022392,14.499225 13.8022392,13.7460029 C13.8022392,12.7103225 14.3937766,11.7687949 16.1683888,11.7687949 C16.562747,11.7687949 17.1542844,11.8629477 17.5486427,11.8629477 L17.3514635,13.1810863 C16.9580912,13.0869336 16.562747,13.0869336 16.1683888,13.0869336 C15.6754409,13.0869336 15.3796722,13.2752391 15.3796722,13.5576974 C15.4792477,13.9343084 15.5768514,14.0284612 16.2669783,14.3109194 L16.2669783,14.3109194 Z M11.5356651,17.7945715 L11.5356651,17.229655 C11.1403209,17.7004188 10.5497694,17.8896658 9.85865656,17.8896658 C8.97135047,17.8896658 8.37981308,17.229655 8.37981308,16.2881274 C8.37981308,14.875836 9.36570873,14.0284612 11.1403209,14.0284612 L11.8304479,14.0284612 C11.9290374,13.8401556 11.9290374,13.7460029 11.9290374,13.6518501 C11.9290374,13.2752391 11.6332687,13.0869336 10.9431418,13.0869336 C10.1544253,13.0869336 9.56387376,13.2752391 9.26711917,13.3693918 C9.26711917,13.2752391 9.4642983,12.0512532 9.4642983,12.0512532 C10.2530148,11.8629477 10.7459627,11.7687949 11.3375,11.7687949 C12.717754,11.7687949 13.4078809,12.3337115 13.4078809,13.4635446 C13.4078809,13.7460029 13.4078809,14.1226139 13.3092914,14.5933777 C13.2107018,15.4407526 12.9149331,17.229655 12.8163435,17.7004188 C12.6191644,17.7945715 11.5356651,17.7945715 11.5356651,17.7945715 L11.5356651,17.7945715 Z M6.21084263,17.7945715 L7.09913462,12.3337115 L5.02776785,17.7945715 L3.94328262,17.7945715 L3.84469306,12.3337115 L2.8587974,17.7945715 L1.37995392,17.7945715 L2.66260417,10.6389618 L4.92917828,10.6389618 L5.02776785,15.065083 L6.60618679,10.6389618 L9.07092593,10.6389618 L7.78827568,17.7945715 L6.21084263,17.7945715 Z M34.3088688,-0.0003 C30.5624653,-0.0003 27.1118305,1.31783863 24.4499123,3.57750486 C21.8875695,1.31783863 18.4369347,-0.0003 14.6895453,-0.0003 C6.60618679,-0.0003 -0.0003,6.30793489 -0.0003,14.0284612 C-0.0003,21.7489874 6.60618679,28.0572223 14.6895453,28.0572223 C18.4369347,28.0572223 21.8875695,26.7390837 24.4499123,24.480359 C27.0142269,26.7390837 30.4648617,28.0572223 34.3088688,28.0572223 C42.3932132,28.0572223 48.9997,21.7489874 48.9997,14.0284612 C48.9997,6.30793489 42.3932132,-0.0003 34.3088688,-0.0003 L34.3088688,-0.0003 Z" id="Fill-9"></path>
                            </g>
                        </g>
                    </g>
                </g>
            </g>
        </g>
    </g>
</svg>