<?xml version="1.0" encoding="UTF-8"?>
<svg width="24px" height="24px" viewBox="0 0 24 24" version="1.1" xmlns="http://www.w3.org/2000/svg" xmlns:xlink="http://www.w3.org/1999/xlink">
    <!-- Generator: Sketch 44.1 (41455) - http://www.bohemiancoding.com/sketch -->
    <title>Icon/App/Telegram Copy 3</title>
    <desc>Created with Sketch.</desc>
    <defs>
        <path d="M18.16,14.3733333 C18.08,14.2666667 17.8933333,14.1866667 17.6,14.0264 C17.3069333,13.8930667 15.8933333,13.2 15.6266667,13.0930667 C15.36,12.9866667 15.1736,12.9597333 14.9869333,13.2264 C14.8,13.52 14.2402667,14.1597333 14.08,14.3464 C13.9202667,14.5333333 13.7333333,14.5597333 13.4666667,14.4264 C13.1736,14.2930667 12.2402667,13.9733333 11.1466667,13.0130667 C10.2933333,12.2666667 9.70693333,11.3066667 9.54666667,11.04 C9.38693333,10.7464 9.52026667,10.5866667 9.68,10.4533333 C9.81333333,10.32 9.9736,10.1066667 10.1069333,9.9464 C10.2402667,9.78666667 10.2933333,9.65333333 10.4,9.46666667 C10.5069333,9.27973333 10.4536,9.12 10.3736,8.95973333 C10.2933333,8.8264 9.73333333,7.41306667 9.49333333,6.8264 C9.2536,6.26666667 9.01333333,6.3464 8.8536,6.3464 C8.69333333,6.3464 8.48,6.32 8.29333333,6.32 C8.10693333,6.32 7.78693333,6.4 7.52026667,6.66666667 C7.2536,6.95973333 6.50693333,7.65333333 6.50693333,9.06666667 C6.50693333,10.4797333 7.54666667,11.84 7.68,12.0264 C7.81333333,12.2130667 9.68,15.2 12.6133333,16.3464 C15.5466667,17.4930667 15.5466667,17.12 16.08,17.0666667 C16.6133333,17.0130667 17.7869333,16.3733333 18.0266667,15.7066667 C18.2402667,15.0666667 18.2402667,14.5066667 18.16,14.3733333 M12.2133333,1.86666667 C6.74666667,1.86666667 2.32026667,6.26666667 2.32026667,11.6797333 C2.32026667,13.84 3.01333333,15.8130667 4.21333333,17.44 L2.98693333,21.0930667 L6.8,19.8930667 C8.3736,20.9333333 10.2402667,21.52 12.2402667,21.52 C17.68,21.52 22.1333333,17.12 22.1333333,11.6797333 C22.1333333,6.24 17.68,1.86666667 12.2133333,1.86666667 M24,11.6797333 C24,18.1333333 18.7202667,23.3597333 12.2133333,23.3597333 C10.16,23.3597333 8.21333333,22.8264 6.50693333,21.8930667 L0,24 L2.13333333,17.7333333 C1.06666667,15.9733333 0.4536,13.8930667 0.4536,11.7066667 C0.426666667,5.2264 5.70693333,0 12.2133333,0 C18.7202667,0 24,5.2264 24,11.6797333" id="path-1"></path>
    </defs>
    <g id="Symbols" stroke="none" stroke-width="1" fill="none" fill-rule="evenodd" opacity="0.199999988">
        <g id="Верхнее-меню/Сокращенное" transform="translate(-816.000000, -34.000000)">
            <g id="Верхнее-меню/Каталог-скрыт-Black">
                <g id="Верхнее-меню" transform="translate(128.000000, 24.000000)">
                    <g id="Месенджеры" transform="translate(568.000000, 10.000000)">
                        <g id="Icon/WhatsApp" transform="translate(120.000000, 0.000000)">
                            <g id="whatsapp">
                                <mask id="mask-2" fill="white">
                                    <use xlink:href="#path-1"></use>
                                </mask>
                                <use id="Mask" fill="#000000" xlink:href="#path-1"></use>
                                <g id="Mixin/Fill/Black" mask="url(#mask-2)" fill="#000000">
                                    <g transform="translate(-153.000000, -25.500000)">
                                        <rect x="0" y="0" width="331" height="75"></rect>
                                    </g>
                                </g>
                            </g>
                        </g>
                    </g>
                </g>
            </g>
        </g>
    </g>
</svg>