<?xml version="1.0" encoding="UTF-8"?>
<svg width="237px" height="236px" viewBox="0 0 237 236" version="1.1" xmlns="http://www.w3.org/2000/svg" xmlns:xlink="http://www.w3.org/1999/xlink">
    <!-- Generator: Sketch 46.2 (44496) - http://www.bohemiancoding.com/sketch -->
    <title>Персонаж</title>
    <desc>Created with Sketch.</desc>
    <defs>
        <circle id="path-1" cx="189.5" cy="112.5" r="26.5"></circle>
        <filter x="-9.4%" y="-3.8%" width="113.2%" height="115.1%" filterUnits="objectBoundingBox" id="filter-2">
            <feOffset dx="-3" dy="4" in="SourceAlpha" result="shadowOffsetOuter1"></feOffset>
            <feColorMatrix values="0 0 0 0 0   0 0 0 0 0   0 0 0 0 0  0 0 0 0.0535835598 0" type="matrix" in="shadowOffsetOuter1"></feColorMatrix>
        </filter>
    </defs>
    <g id="Поп-апы-и-Модальные-окна" stroke="none" stroke-width="1" fill="none" fill-rule="evenodd">
        <g id="modal-Сразу-после-регистрации" transform="translate(-365.000000, -252.000000)">
            <g id="Форма-ответа" transform="translate(320.000000, 76.000000)">
                <g id="bg" transform="translate(0.000000, 24.000000)">
                    <g id="pic">
                        <g id="Персонаж" transform="translate(45.000000, 152.000000)">
                            <ellipse id="тень" fill="#ECE9DD" cx="99.5" cy="216.5" rx="99.5" ry="19.5"></ellipse>
                            <g id="Group" transform="translate(20.000000, 0.000000)">
                                <polygon id="Path-3" fill="#CEEAC3" points="40.6479586 37.5740706 80.8922341 0.626703199 150.106445 57.4785156 125.362305 87.7236328"></polygon>
                                <polygon id="Path-4" fill="#ABD09D" points="125.236328 86.6005859 136.625888 201.39268 155.475586 218.144531 174.957031 219.53418 170.70759 185.344727 179.210938 161.035156 216.026267 119.330717 216.178852 101.574126 149.439453 57.8212891"></polygon>
                                <polygon id="Path-5" fill="#9ECB8D" points="41.3024676 36.9774974 7.17765095 128.496251 2.40535647 150.896873 27.046875 167.779297 38.4726563 175.542969 76.9482422 230.374023 88.1591797 224.411133 95.0351563 214.007468 109.010742 209.333984 137.766259 200.808159 125.925781 87.2939453"></polygon>
                                <polygon id="Path-7" fill="#87A67B" points="7.49888238 129.374037 76.2670034 182.886355 77.5351562 230.393555 52.0019531 208.425781 38.7852135 176.767578 0.035270803 150.121529"></polygon>
                                <polygon id="Path-8" fill="#D7EFCE" points="81.4363198 0.40173282 184.977242 59.6874537 216.38966 102.228951 164.821977 70.6366817"></polygon>
                                <polygon id="Path-9" fill="#98C787" points="125.577148 86.7216797 8.20759923 130.832327 80.0419922 60.2841797"></polygon>
                                <path d="M81.4644276,0.622685871 L125.074219,87.1669922 L149.506836,58.1787109 L128.109375,50.9580078 C128.109375,50.9580078 129.163552,71.4853215 128.109375,70.2128906 C127.055198,68.9404598 119.880859,45.3105469 119.880859,45.3105469 L81.4644276,0.622685871 Z" id="Path-10" fill="#F2FFEE" opacity="0.251302083"></path>
                                <polygon id="Path-11" fill="#718769" opacity="0.400815217" points="138.31938 200.915622 77.1659494 182.545385 38.7246094 176.259766 52.0410156 208.490234 77.1659494 230.210938 88.1044922 225.181641 95.4667969 213.506836"></polygon>
                                <polygon id="Path-2" fill="#9DC58D" points="155.689453 218.032227 154.144531 188.030273 136.966797 200.734375"></polygon>
                            </g>
                            <path d="M112.748183,106.178839 C112.748183,99.2752798 107.151742,93.6788392 100.248183,93.6788392 C93.3446234,93.6788392 87.7481827,99.2752798 87.7481827,106.178839" id="Oval" stroke="#6A8D5C" stroke-width="4" stroke-linecap="round" transform="translate(100.248183, 99.928839) rotate(-8.000000) translate(-100.248183, -99.928839) "></path>
                            <path d="M182.748183,90.1788392 C182.748183,83.2752798 177.151742,77.6788392 170.248183,77.6788392 C163.344623,77.6788392 157.748183,83.2752798 157.748183,90.1788392" id="Oval" stroke="#80A672" stroke-width="4" stroke-linecap="round" transform="translate(170.248183, 83.928839) rotate(-8.000000) translate(-170.248183, -83.928839) "></path>
                            <g id="Group-2" transform="translate(123.000000, 112.000000)">
                                <path d="M2,6.51708423 C2,6.51708423 2.5861807,28.791951 25.4472282,24.1025054 C48.3082757,19.4130597 47.722095,8.27562634 46.5497336,3 L2,6.51708423 Z" id="Fill-1" fill="#658459" transform="translate(24.500000, 13.875579) rotate(-7.000000) translate(-24.500000, -13.875579) "></path>
                                <path d="M0.986246451,6.59256838 C0.986246451,6.59256838 3.69260282,14.073952 9.19130655,8.5752483 C9.19130655,8.5752483 11.6351749,13.4629849 17.1338786,8.5752483 C17.1338786,8.5752483 21.4106482,15.2958862 28.7422531,6.74234706 C28.7422531,6.74234706 34.2409569,11.6300837 37.9067594,5.52041289 C37.9067594,5.52041289 43.1359733,10.7315371 46.1908087,5.23283336 L45.7055899,3.10461398 L0.986246451,6.59256838 Z" id="Fill-1" fill="#FFFFFF" transform="translate(23.588528, 7.094865) rotate(-7.000000) translate(-23.588528, -7.094865) "></path>
                                <path d="M14.527832,25.0263672 C14.527832,25.0263672 19.3775627,26.6015525 27.4326172,24.1928711 C35.4876717,21.7841897 39.3266602,17.6108398 39.3266602,17.6108398 C39.3266602,17.6108398 31.950125,12.2903554 24.3173828,14.5727539 C16.6846406,16.8551524 14.527832,25.0263672 14.527832,25.0263672 Z" id="Path-13" fill="#CC7676"></path>
                            </g>
                            <polygon id="Path-6" fill="#93BB84" points="173.97168 188.365234 190.943359 185.139648 194.84668 219.384766 175.829102 217.719727"></polygon>
                            <polygon id="Path-12" fill="#86AF76" points="199.022461 160.550781 173.875977 188.137695 190.958984 185.130859"></polygon>
                            <polygon id="Path-14" fill="#F4E1BA" points="97.0703125 182.353516 112.029297 162.105469 134.679688 165.617188 151.293945 151.978516 172.347656 158.259766 198.662109 151.978516 205.462891 154.730469 190.683594 186.285156 178.884766 206.529297 172.347656 206.529297 167.035156 211.351562 164.276367 208.250977 160.926758 211.351562 153.240234 212.728516 114.941406 194.134766"></polygon>
                            <polygon id="Path-15" fill="#E9D7B0" points="135.095703 166.003906 138.956196 175.908061 135.095703 179.185547 144.424249 189.936438 130.209961 184.844727 149.010624 201.702856 153.027344 212.007812 115.560547 196.005859 96.1767578 182.414062 112.457031 162.101562"></polygon>
                            <polygon id="Path-16" fill="#FFEFCD" points="172.490234 157.950195 173.30907 165.153996 168.705078 179.637695 174.588946 176.41384 180.780273 189.432617 175.379031 183.364701 178.664062 206.90332 192.924805 184.014648 205.600586 154.129883 197.456055 151.701172"></polygon>
                            <polygon id="Path-17" fill="#93B984" opacity="0.283797554" points="96.2197266 182.074219 96.2197266 177.669922 107.691406 161.720703 134.928711 160.599609 151.325195 152.255859 134.928711 165.103472 111.694336 162.835938"></polygon>
                            <path d="M37.5615234,156.599609 C37.5615234,156.599609 48.109375,175.645149 75.7597656,169.521484 C82.758547,167.971481 91.6298828,165.333984 91.6298828,165.333984 L94.6953125,156.599609 L62.9150391,162.457031 L41.3388672,156.599609 L37.5615234,156.599609 Z" id="Path-21" fill="#7C9A71" opacity="0.155400815"></path>
                            <path d="M23,141.304688 C23,141.304688 40.6484375,166.775391 59.0820312,166.775391 C77.515625,166.775391 95.9667969,156.207031 95.9667969,156.207031 L86.9375,153.880859 L86.9375,147.412109 C86.9375,147.412109 81.470449,148.296034 79.9804688,147.412109 C79.0386525,146.853381 80.0605469,147.412109 76.6425781,147.412109 C73.2246094,147.412109 76.6425781,141.304688 76.6425781,141.304688 C76.6425781,141.304688 78.8027344,136 76.6425781,136 C74.4824219,136 54.2617188,159.349609 34.1953125,136 L23,141.304688 Z" id="Path-20" fill="#87A67B"></path>
                            <g id="Oval-2">
                                <use fill="black" fill-opacity="1" filter="url(#filter-2)" xlink:href="#path-1"></use>
                                <use fill="#51B37B" fill-rule="evenodd" xlink:href="#path-1"></use>
                            </g>
                            <path d="M178.543,119.792 C179.493671,119.792 180.218164,119.539003 180.7165,119.033 C181.214836,118.526997 181.464,117.91367 181.464,117.193 C181.464,116.318996 181.203336,115.675002 180.682,115.261 C180.160664,114.846998 179.340339,114.64 178.221,114.64 L176.565,114.64 L176.565,113.053 L179.348,109.258 L180.659,108.223 L178.842,108.43 L174.978,108.43 L174.978,105.9 L183.764,105.9 L183.764,107.533 L180.521,111.88 L179.509,112.501 L179.509,112.616 L180.475,112.478 C181.011669,112.524 181.521498,112.646666 182.0045,112.846 C182.487502,113.045334 182.909165,113.332831 183.2695,113.7085 C183.629835,114.084169 183.917332,114.547997 184.132,115.1 C184.346668,115.652003 184.454,116.28833 184.454,117.009 C184.454,117.913671 184.304501,118.695663 184.0055,119.355 C183.706499,120.014337 183.292503,120.566331 182.7635,121.011 C182.234497,121.455669 181.617337,121.785332 180.912,122 C180.206663,122.214668 179.447671,122.322 178.635,122.322 C177.96033,122.322 177.26267,122.260667 176.542,122.138 C175.82133,122.015333 175.238669,121.839001 174.794,121.609 L175.599,119.125 C175.997669,119.324334 176.438498,119.485333 176.9215,119.608 C177.404502,119.730667 177.944997,119.792 178.543,119.792 Z M187.214,109.534 C187.214,108.843997 187.313666,108.253669 187.513,107.763 C187.712334,107.272331 187.988332,106.866002 188.341,106.544 C188.693668,106.221998 189.119164,105.988167 189.6175,105.8425 C190.115836,105.696833 190.65633,105.624 191.239,105.624 C191.82167,105.624 192.358331,105.692999 192.849,105.831 C193.339669,105.969001 193.765165,106.191332 194.1255,106.498 C194.485835,106.804668 194.765666,107.207164 194.965,107.7055 C195.164334,108.203836 195.271667,108.81333 195.287,109.534 C195.271667,110.25467 195.164334,110.864164 194.965,111.3625 C194.765666,111.860836 194.485835,112.263332 194.1255,112.57 C193.765165,112.876668 193.339669,113.098999 192.849,113.237 C192.358331,113.375001 191.82167,113.444 191.239,113.444 C190.65633,113.444 190.115836,113.375001 189.6175,113.237 C189.119164,113.098999 188.693668,112.876668 188.341,112.57 C187.988332,112.263332 187.712334,111.860836 187.513,111.3625 C187.313666,110.864164 187.214,110.25467 187.214,109.534 Z M189.882,109.534 C189.882,110.852673 190.334329,111.512 191.239,111.512 C191.714336,111.512 192.055499,111.370168 192.2625,111.0865 C192.469501,110.802832 192.580667,110.285337 192.596,109.534 C192.580667,108.797996 192.469501,108.284335 192.2625,107.993 C192.055499,107.701665 191.714336,107.556 191.239,107.556 C190.763664,107.556 190.418668,107.701665 190.204,107.993 C189.989332,108.284335 189.882,108.797996 189.882,109.534 Z M196.552,118.044 C196.552,117.353997 196.651666,116.763669 196.851,116.273 C197.050334,115.782331 197.326332,115.376002 197.679,115.054 C198.031668,114.731998 198.457164,114.498167 198.9555,114.3525 C199.453836,114.206833 199.99433,114.134 200.577,114.134 C201.15967,114.134 201.696331,114.202999 202.187,114.341 C202.677669,114.479001 203.103165,114.701332 203.4635,115.008 C203.823835,115.314668 204.103666,115.717164 204.303,116.2155 C204.502334,116.713836 204.609667,117.32333 204.625,118.044 C204.609667,118.76467 204.502334,119.374164 204.303,119.8725 C204.103666,120.370836 203.823835,120.773332 203.4635,121.08 C203.103165,121.386668 202.677669,121.608999 202.187,121.747 C201.696331,121.885001 201.15967,121.954 200.577,121.954 C199.99433,121.954 199.453836,121.885001 198.9555,121.747 C198.457164,121.608999 198.031668,121.386668 197.679,121.08 C197.326332,120.773332 197.050334,120.370836 196.851,119.8725 C196.651666,119.374164 196.552,118.76467 196.552,118.044 Z M199.22,118.044 C199.22,119.362673 199.672329,120.022 200.577,120.022 C201.052336,120.022 201.393499,119.880168 201.6005,119.5965 C201.807501,119.312832 201.918667,118.795337 201.934,118.044 C201.918667,117.307996 201.807501,116.794335 201.6005,116.503 C201.393499,116.211665 201.052336,116.066 200.577,116.066 C200.101664,116.066 199.756668,116.211665 199.542,116.503 C199.327332,116.794335 199.22,117.307996 199.22,118.044 Z M201.612,105.578 L203.291,107.096 L190.043,122.322 L188.364,120.735 L201.612,105.578 Z" id="3%" fill="#FFFFFF"></path>
                            <path d="M197.773438,117.009766 C197.773438,117.009766 215.140625,120.232422 222.148438,115.449219 C229.15625,110.666016 236.246094,101.913086 236.246094,101.913086 L236.246094,118.75 C236.246094,118.75 219.495117,150.222656 189.811523,140.529297 C188.769586,140.189046 196.21875,134.79541 196.21875,134.79541 L191.599609,129.022949 L197.773438,125.933594 C197.773438,125.933594 195.020508,124.28125 192.464844,119.865234 C189.90918,115.449219 192.615894,115.711362 193.545898,115.449219 C194.475903,115.187076 197.773438,117.009766 197.773438,117.009766 Z" id="Path-22" fill="#8FBC7E"></path>
                        </g>
                    </g>
                </g>
            </g>
        </g>
    </g>
</svg>