<?xml version="1.0" encoding="UTF-8"?>
<svg width="208px" height="208px" viewBox="0 0 208 208" version="1.1" xmlns="http://www.w3.org/2000/svg" xmlns:xlink="http://www.w3.org/1999/xlink">
    <!-- Generator: sketchtool 46.2 (44496) - http://www.bohemiancoding.com/sketch -->
    <title>EED64DD7-C053-490E-B739-3D73E200C3A7</title>
    <desc>Created with sketchtool.</desc>
    <defs>
        <ellipse id="path-1" cx="9.10614215" cy="7.82501827" rx="9.10614215" ry="7.82501827"></ellipse>
        <ellipse id="path-3" cx="9.10614215" cy="7.82501827" rx="9.10614215" ry="7.82501827"></ellipse>
        <path d="M1.13075912,11.7642675 C0.274140485,15.2848727 6.13606044,11.6209662 15.660891,11.1856169 C25.1857215,10.7502676 32.292965,18.4206777 31.1605989,13.3380647 C31.1605989,13.3380647 27.0059359,0.928316573 16.1486366,1.87887472 C5.29133738,2.82943287 1.98737775,8.24366224 1.13075912,11.7642675 Z" id="path-5"></path>
        <linearGradient x1="56.900169%" y1="59.0029955%" x2="-5.4990054%" y2="59.0029956%" id="linearGradient-7">
            <stop stop-color="#D9AB84" offset="0%"></stop>
            <stop stop-color="#BA885D" offset="100%"></stop>
        </linearGradient>
        <path d="M7.44238281,18.5703125 C7.44238281,18.5703125 7.44238281,23.625 12.3662109,37.9326172 C15.2098136,46.1955332 -1.4086654,64.425347 5.99707031,73.90625 C5.99707031,73.90625 3.77327193,74.5241526 1.84423828,75.5039062 C-0.440544242,76.6643443 -0.109419141,78.8745099 3.95849609,80.0693359 C11.4609375,82.2729492 57.0527344,77.2353516 75.2900391,79.1992187 C93.5273438,81.1630859 82.2905273,73.90625 82.2905273,73.2382812 C80.7441406,72.6982422 81.2773438,47.4980469 75.2900391,37.9326172 C69.3027344,28.3671875 77.0644531,28.4819336 79.9775391,21.921875 C82.890625,15.3618164 7.44238281,18.5703125 7.44238281,18.5703125 Z" id="path-8"></path>
        <path d="M8.68164063,24.8485793 C18.2158203,38.2294239 46.46875,40.8809853 72.9160156,29.5261888 C99.3632813,18.1713922 50.1191406,16.3342232 44.1806641,16.1724534 C38.2421875,16.0106837 -0.852539063,11.4677346 8.68164063,24.8485793 Z" id="path-10"></path>
        <path d="M8.68164063,23.3499121 C18.2158203,36.0318554 46.46875,38.5449219 72.9160156,27.7832031 C99.3632813,17.0214844 50.1191406,15.2802734 44.1806641,15.1269531 C38.2421875,14.9736328 -0.852539063,10.6679687 8.68164063,23.3499121 Z" id="path-12"></path>
        <path d="M8.68164063,22.8485793 C18.2158203,36.2294239 46.963501,38.7402344 73.3973389,27.5239258 C99.8311768,16.3076172 51.8608398,0.583644788 45.9223633,0.421875 C39.9838867,0.260105212 -0.852539062,9.46773465 8.68164063,22.8485793 Z" id="path-14"></path>
        <polygon id="path-16" points="56.4998779 16.2393799 52.2243652 12.9637451 56.0178223 10.2634277 61.392334 11.1461182 64.0554199 13.791626 59.755249 16.0789795"></polygon>
        <path d="M8.68164063,22.8485793 C18.2158203,36.2294239 46.963501,38.7402344 73.3973389,27.5239258 C99.8311768,16.3076172 51.8608398,0.583644788 45.9223633,0.421875 C39.9838867,0.260105212 -0.852539062,9.46773465 8.68164063,22.8485793 Z" id="path-18"></path>
        <polygon id="path-20" points="11.1379395 27.7192383 11.8251953 13.5734863 20.9260254 9.63769531 29.8840332 13.9794922 24.8071289 32.9348145 19.3325195 31.3574219 13.1999512 28.9370117"></polygon>
        <linearGradient x1="50%" y1="78.5842701%" x2="50%" y2="-22.6671522%" id="linearGradient-22">
            <stop stop-color="#FFFFFF" stop-opacity="0" offset="0%"></stop>
            <stop stop-color="#FFF170" offset="100%"></stop>
        </linearGradient>
        <linearGradient x1="50%" y1="72.8331972%" x2="50%" y2="-27.1074867%" id="linearGradient-23">
            <stop stop-color="#FBFF75" stop-opacity="0" offset="0%"></stop>
            <stop stop-color="#FFFFFF" offset="100%"></stop>
        </linearGradient>
        <linearGradient x1="50%" y1="84.6759032%" x2="50%" y2="-27.1074867%" id="linearGradient-24">
            <stop stop-color="#FFFFFF" stop-opacity="0" offset="0%"></stop>
            <stop stop-color="#F4FF8E" offset="100%"></stop>
        </linearGradient>
    </defs>
    <g id="Поп-апы-и-Модальные-окна" stroke="none" stroke-width="1" fill="none" fill-rule="evenodd">
        <g id="modal-Особые-предложения" transform="translate(-319.000000, -724.000000)">
            <g id="#2" transform="translate(272.000000, 668.000000)">
                <g id="pic" transform="translate(47.000000, 56.000000)">
                    <g id="Персонаж">
                        <ellipse id="тень" fill="#000000" opacity="0.06" cx="77.7752114" cy="168.79661" rx="77.7752114" ry="15.2033898"></ellipse>
                        <path d="M99.0366517,207.896484 C115.373654,207.896484 155.674933,202.853683 164.236847,201.176758 C172.263611,199.604646 165.636261,199.042755 165.636261,196.048828 C165.636261,189.861366 150.143636,187 118.490753,187 C102.83941,187 84.5639955,187.276823 81.3296205,191.645508 C78.0952455,196.014193 72.4930709,194.862937 70.6089173,197.96582 C66.8179017,204.208984 67.383769,207.896484 99.0366517,207.896484 Z" id="тень" fill="#000000" opacity="0.06"></path>
                        <g id="Group" transform="translate(15.633208, 0.000000)">
                            <polygon id="Path-3" fill="#CEEAC3" points="31.7729002 29.2950381 63.2302574 0.488616053 117.332267 44.8137579 97.9907513 68.3946968"></polygon>
                            <polygon id="Path-4" fill="#ABD09D" points="97.8922804 67.5191009 106.795048 157.018022 121.529111 170.078787 136.756986 171.162242 133.435366 144.506058 140.082096 125.552834 168.859182 93.037508 168.978452 79.1933865 116.810905 45.081005"></polygon>
                            <polygon id="Path-5" fill="#9ECB8D" points="32.2845041 28.8299132 5.61048563 100.183518 1.88017194 117.64841 21.1414716 130.810977 30.0725525 136.86401 60.147395 179.613645 68.9105411 174.964612 74.2852198 166.85328 85.2093821 163.209547 107.686432 156.562293 101.348417 95.9554068 98.4311986 68.0596862"></polygon>
                            <polygon id="Path-7" fill="#87A67B" points="5.86157953 100.867894 59.6148976 142.589362 60.6061625 179.628873 40.6478683 162.501457 30.3168662 137.81879 0.0275697906 117.043904"></polygon>
                            <polygon id="Path-8" fill="#D7EFCE" points="63.6555477 0.313215419 144.589388 46.5359809 169.143232 79.7039276 128.834815 55.0726671"></polygon>
                            <polygon id="Path-9" fill="#98C787" points="98.1586861 67.613513 6.41555543 102.004865 62.5656569 47.0012248"></polygon>
                            <path d="M63.6775184,0.485483899 L97.7655659,67.9607058 L116.863576,45.3596729 L100.138027,39.7299722 C100.138027,39.7299722 100.962036,55.7343184 100.138027,54.7422537 C99.314019,53.750189 93.7061225,35.3268671 93.7061225,35.3268671 L63.6775184,0.485483899 Z" id="Path-10" fill="#F2FFEE" opacity="0.251302083"></path>
                            <polygon id="Path-11" fill="#718769" opacity="0.400815217" points="108.118784 156.646078 60.3175682 142.32352 30.2694943 137.422868 40.6784019 162.551708 60.3175682 179.486494 68.8677941 175.565347 74.6226162 166.462957"></polygon>
                            <polygon id="Path-2" fill="#9DC58D" points="121.696283 169.991227 120.488678 146.599874 107.061523 156.504767"></polygon>
                        </g>
                        <g id="Oval-4" transform="translate(70.069364, 72.631579)">
                            <mask id="mask-2" fill="white">
                                <use xlink:href="#path-1"></use>
                            </mask>
                            <use id="Mask" fill="#FFFFFF" xlink:href="#path-1"></use>
                            <ellipse fill="#616161" mask="url(#mask-2)" cx="8.26827404" cy="8.24692061" rx="4.82552182" ry="4.80136031"></ellipse>
                        </g>
                        <g id="Oval-4" transform="translate(125.139973, 60.682819)">
                            <mask id="mask-4" fill="white">
                                <use xlink:href="#path-3"></use>
                            </mask>
                            <use id="Mask" fill="#FFFFFF" xlink:href="#path-3"></use>
                            <ellipse fill="#616161" mask="url(#mask-4)" cx="8.26827404" cy="8.24692061" rx="4.82552182" ry="4.80136031"></ellipse>
                        </g>
                        <g id="Group-2" transform="translate(115.914113, 94.483351) rotate(-14.000000) translate(-115.914113, -94.483351) translate(99.914113, 85.983351)">
                            <mask id="mask-6" fill="white">
                                <use xlink:href="#path-5"></use>
                            </mask>
                            <use id="Fill-1" fill="#658459" transform="translate(16.163655, 8.455844) scale(1, -1) rotate(-7.000000) translate(-16.163655, -8.455844) " xlink:href="#path-5"></use>
                            <path d="M9.05030617,13.3491392 C9.05030617,13.3491392 17.2824139,4.04983738 27.7653259,15.2086923 C38.248238,26.3675471 9.36556606,14.0904404 9.36556606,14.0904404" id="Path-18" fill="#CC7676" mask="url(#mask-6)"></path>
                        </g>
                        <polygon id="Path-6" fill="#93BB84" points="135.986776 146.86103 149.252866 144.346167 152.303937 171.045749 137.438649 169.747583"></polygon>
                        <polygon id="Path-12" fill="#86AF76" points="155.56798 125.175185 135.911968 146.683627 149.265079 144.339314"></polygon>
                        <polygon id="Path-14" fill="#F4E1BA" points="75.8760209 142.173927 87.5688668 126.387315 105.273781 129.125265 118.260488 118.491724 134.717341 123.38897 155.286307 118.491724 160.602209 120.637315 149.049817 145.239274 139.82714 161.022842 134.717341 161.022842 130.56477 164.782574 128.408334 162.365168 125.790077 164.782574 119.781825 165.856131 89.8451475 151.359309"></polygon>
                        <polygon id="Path-15" fill="#E9D7B0" points="105.598964 129.426774 108.616558 137.148658 105.598964 139.703986 112.890719 148.086036 101.779972 144.116227 116.475707 157.259854 119.615417 165.294227 90.3291052 152.818128 75.1775646 142.221133 87.9032099 126.384269"></polygon>
                        <polygon id="Path-16" fill="#FFEFCD" points="134.828788 123.14761 135.46884 128.764132 131.870082 140.056508 136.469268 137.542994 141.308784 147.693227 137.086846 142.962309 139.654625 161.314453 150.801683 143.469048 160.70984 120.169061 154.343582 118.27549"></polygon>
                        <polygon id="Path-17" fill="#93B984" opacity="0.283797554" points="75.2111515 141.956171 75.2111515 138.522312 84.1781095 126.087328 105.468432 125.213255 118.284915 118.707958 105.468432 128.724741 87.3070411 126.956833"></polygon>
                        <path d="M17.4497099,113.247221 C17.4497099,113.247221 22.7419479,122.585907 44.3551637,117.811524 C49.8258341,116.603047 56.7602061,114.546694 56.7602061,114.546694 L55.5657656,109.834575 L34.3149494,112.303646 L19.2138615,107.736842 L17.4497099,113.247221 Z" id="Path-21" fill="#7C9A71" opacity="0.155400815"></path>
                        <path d="M4.05749497,93.696607 C4.05749497,93.696607 16.7707359,111.997768 30.0495725,111.997768 C43.3284091,111.997768 56.6199083,104.404211 56.6199083,104.404211 L49.1733389,101.913254 L49.7355122,96.8339155 C49.7355122,96.8339155 45.9567098,97.0902523 43.4945394,97.0902523 C41.032369,97.0902523 41.6197929,94.0516244 41.6197929,94.0516244 L42.6995004,89.8850929 C42.6995004,89.8850929 35.1056158,97.0542684 26.6347274,97.3332318 C22.1471668,97.4810162 17.1279976,95.6950729 12.1221582,89.8850929 L4.05749497,93.696607 Z" id="Path-20" fill="#87A67B" transform="translate(30.338702, 100.941431) scale(-1, 1) rotate(-37.000000) translate(-30.338702, -100.941431) "></path>
                        <path d="M167.821944,83.8645717 C167.821944,83.8645717 181.397187,86.3771512 186.874917,82.6478742 C192.352646,78.9185972 197.546822,73.7371206 197.546822,73.7371206 L203.759538,82.6276738 C203.759538,82.6276738 184.800921,109.759368 161.598431,102.201833 C160.78399,101.936553 166.606706,97.7313454 166.606706,97.7313454 L162.996107,93.2307827 L167.821944,90.8221326 C167.821944,90.8221326 165.670088,89.5338646 163.672426,86.0908694 C161.674765,82.6478742 163.790496,82.8522569 164.517444,82.6478742 C165.244392,82.4434915 167.821944,83.8645717 167.821944,83.8645717 Z" id="Path-22" fill="#8FBC7E" transform="translate(182.639927, 88.634165) scale(-1, 1) rotate(45.000000) translate(-182.639927, -88.634165) "></path>
                    </g>
                    <g id="Мешок" transform="translate(82.000000, 121.000000)">
                        <mask id="mask-9" fill="white">
                            <use xlink:href="#path-8"></use>
                        </mask>
                        <g id="Path-19">
                            <use fill="#D3A67F" xlink:href="#path-8"></use>
                            <use fill="url(#linearGradient-7)" xlink:href="#path-8"></use>
                        </g>
                        <path d="M48.3925781,19.3886719 C48.3925781,19.3886719 42.7597656,42.1513672 46.3251953,59.5185547 C49.890625,76.8857422 45.9628906,77.1142578 44.0283203,81.3037109 C42.09375,85.4931641 70.578125,88.7216797 76.9003906,88.0283203 C83.2226562,87.3349609 91.9414063,84.2939453 93.0078125,82.7988281 C94.0742188,81.3037109 97.9980469,73.0732422 97.6542969,68.7851562 C97.3105469,64.4970703 89.4521484,46.8466797 87.3701172,43.0722656 C85.2880859,39.2978516 85.9785156,33.6777344 84.4355469,29.2060547 C82.8925781,24.734375 81.6582031,22.5253906 79.8847656,20.9570313 C78.1113281,19.3886719 48.3925781,19.3886719 48.3925781,19.3886719 Z" id="Path-25" fill="#E2BA98" mask="url(#mask-9)"></path>
                        <path d="M10.4248047,32.203125 C10.4248047,32.203125 10.3334961,45.0820312 32.2709961,45.6875 C54.2084961,46.2929687 75.90625,33.5996094 75.90625,33.5996094 L75.8232422,26.3476562 L7.71972656,22.1318359 L10.4248047,32.203125 Z" id="Path-33" fill="#936E50" opacity="0.126302083" mask="url(#mask-9)"></path>
                        <mask id="mask-11" fill="white">
                            <use xlink:href="#path-10"></use>
                        </mask>
                        <use id="Path-44" fill="#A37853" xlink:href="#path-10"></use>
                        <mask id="mask-13" fill="white">
                            <use xlink:href="#path-12"></use>
                        </mask>
                        <use id="Path-44" fill="#9E7B5D" xlink:href="#path-12"></use>
                        <polygon id="Path-38" fill="#91DDCC" mask="url(#mask-13)" points="41.5172119 21.5092773 52.1005859 17.5102539 61.1777344 22.8662109 57.2370605 33.5074463 51.1815186 33.6733398"></polygon>
                        <polygon id="Path-39" fill="#AEFCEA" mask="url(#mask-13)" points="52.0345459 17.5180664 51.6706543 33.6834717 57.7186279 32.5106201 61.2225342 22.8122559"></polygon>
                        <path d="M7.8841944,31.2837317 L21.8861798,19.4254717 L39.3506867,20.5760103 C39.3506867,20.5760103 53.3487772,27.3810921 52.549554,28.0494483 C51.7503308,28.7178046 50.7283222,37.6533692 50.7283222,37.6533692 L29.3557229,46.8015926 L10.7212031,38.3038091 L7.8841944,31.2837317 Z" id="Path-13" fill="#9965A7" mask="url(#mask-13)"></path>
                        <path d="M39.549324,20.27377 L31.3389805,30.3785685 L35.2244827,38.9456804 L50.5678544,37.8083842 C50.5678544,37.8083842 52.4193321,34.7955728 52.7937012,33.3280029 C53.1680702,31.8604331 53.1430664,27.7132568 53.1430664,27.7132568 L39.549324,20.27377 Z" id="Path-24" fill="#BD81CD" mask="url(#mask-13)"></path>
                        <polygon id="Path-26" fill="#7C4D89" mask="url(#mask-13)" points="31.5469655 30.0763282 7.26335532 31.1380643 17.0986303 43.0679895 35.9535986 37.6253263"></polygon>
                        <polygon id="Path-27" fill="#D69BE6" mask="url(#mask-13)" points="39.3444549 20.3376455 36.4794034 37.9859894 43.3545924 39.190277"></polygon>
                        <polygon id="Path-28" fill="#CF8EE1" mask="url(#mask-13)" points="39.3444549 20.5039556 36.357884 39.4598006 31.0320663 30.0654226"></polygon>
                        <mask id="mask-15" fill="white">
                            <use xlink:href="#path-14"></use>
                        </mask>
                        <g id="Path-44"></g>
                        <path d="M58.5,37 C53.8055796,37 50,31.8512746 50,25.5 C50,19.1487254 53.8055796,14 58.5,14 C63.1944204,14 67,19.1487254 67,25.5 C67,31.8512746 63.1944204,37 58.5,37 Z M59,33 C62.3137085,33 65,29.418278 65,25 C65,20.581722 62.3137085,17 59,17 C55.6862915,17 53,20.581722 53,25 C53,29.418278 55.6862915,33 59,33 Z" id="Combined-Shape" fill="#FFD97A" mask="url(#mask-15)"></path>
                        <mask id="mask-17" fill="white">
                            <use xlink:href="#path-16"></use>
                        </mask>
                        <use id="Path-29" fill="#66A2E8" transform="translate(58.139893, 13.251404) rotate(-6.000000) translate(-58.139893, -13.251404) " xlink:href="#path-16"></use>
                        <polygon id="Path-30" fill="#AAD1FF" mask="url(#mask-17)" points="55.729126 10.144165 57.6431885 13.1896973 62.3352051 10.7792969 56.0428467 10.2636719"></polygon>
                        <polygon id="Path-31" fill="#B3D8F3" mask="url(#mask-17)" points="57.5536499 13.0842285 59.7796631 16.1047363 64.8581543 13.0842285 61.4508667 11.0405273"></polygon>
                        <polygon id="Path-32" fill="#5A8ECA" mask="url(#mask-17)" points="57.579834 13.1188965 56.394165 16.4052734 59.9344482 16.1940918"></polygon>
                        <mask id="mask-19" fill="white">
                            <use xlink:href="#path-18"></use>
                        </mask>
                        <g id="Path-44"></g>
                        <mask id="mask-21" fill="white">
                            <use xlink:href="#path-20"></use>
                        </mask>
                        <use id="Path-34" fill="#83BC48" xlink:href="#path-20"></use>
                        <polygon id="Path-35" fill="#AEEB70" mask="url(#mask-21)" points="20.7504883 9.95117188 20.5673828 15.6472168 34.527832 13.8789062 28.4650879 8.39916992 21.232666 8.55493164"></polygon>
                        <path d="M20.6252441,15.5080566 L19.2307129,32.3874512 L25.5422363,34.208252 C25.5422363,34.208252 30.0949707,19.2138672 30.2282715,18.6740723 C30.3615723,18.1342773 30.0705566,14.0307617 30.0705566,14.0307617 L20.6252441,15.5080566 Z" id="Path-36" fill="#A1DC65" mask="url(#mask-21)"></path>
                        <polygon id="Path-37" fill="#96D15A" mask="url(#mask-21)" points="11.809082 13.4785156 20.6630859 15.5761719 21.173584 8.4753418"></polygon>
                    </g>
                    <g id="fx" transform="translate(76.000000, 95.000000)">
                        <polygon id="Path-40" fill="#FFFFFF" transform="translate(30.551890, 37.423290) rotate(-26.000000) translate(-30.551890, -37.423290) " points="30.4222602 34.8815096 29.9284323 36.9059837 27.5975203 37.4308963 29.9804606 38.0578814 30.683504 39.9650713 31.1383107 37.9972552 33.5062597 37.4562491 31.0432929 36.8817332"></polygon>
                        <polygon id="Path-40" fill="#FFFFFF" transform="translate(47.021647, 49.816197) rotate(51.000000) translate(-47.021647, -49.816197) " points="46.5132124 45.6239258 46.4302482 49.7198831 44.219194 50.2178042 46.4796011 50.8125491 46.7739564 54.0084672 47.5779134 50.7550404 49.8241001 50.2418533 47.4877816 49.6968796"></polygon>
                        <polygon id="Path-40" fill="#FFFFFF" transform="translate(67.414861, 37.294062) rotate(127.000000) translate(-67.414861, -37.294062) " points="67.5942388 32.9464715 66.6622241 36.1830174 63.8483536 36.8166905 66.7250325 37.5735852 67.098975 41.6416519 68.122786 37.5003974 70.9813676 36.8472963 68.0080808 36.1537423"></polygon>
                        <path d="M85.1425781,47 C85.1425781,28.4730801 69.1848523,13.4540441 49.5,13.4540441 C29.8151477,13.4540441 13.8574219,28.4730801 13.8574219,47 C13.8574219,65.5269199 85.1425781,65.5269199 85.1425781,47 Z" id="Oval-6" fill="url(#linearGradient-22)" opacity="0.293591486"></path>
                        <path d="M98.6650391,47 C98.6650391,21.44414 76.6531013,0.727022059 49.5,0.727022059 C22.3468987,0.727022059 0.334960938,21.44414 0.334960938,47 C0.334960938,72.55586 98.6650391,72.55586 98.6650391,47 Z" id="Oval-6" fill="url(#linearGradient-23)" opacity="0.534759964"></path>
                        <path d="M75.9174403,46.5806756 C75.9174403,32.9170722 64.0899494,21.8405331 49.5,21.8405331 C34.9100506,21.8405331 23.0825597,32.9170722 23.0825597,46.5806756 C23.0825597,60.2442789 75.9174403,60.2442789 75.9174403,46.5806756 Z" id="Oval-6" fill="url(#linearGradient-24)"></path>
                    </g>
                </g>
            </g>
        </g>
    </g>
</svg>