<?xml version="1.0" encoding="UTF-8"?>
<svg width="24px" height="24px" viewBox="0 0 36 36" version="1.1" xmlns="http://www.w3.org/2000/svg" xmlns:xlink="http://www.w3.org/1999/xlink">
    <g id="Symbols" stroke="none" stroke-width="1" fill="none" fill-rule="evenodd">
        <g id="Icon/Search-#575757" transform="translate(-7.000000, -5.000000)" fill="#575757">
            <path d="M28.874,30.667 C22.349,30.667 17.04,25.358 17.04,18.834 C17.04,12.309 22.349,7 28.874,7 C35.398,7 40.707,12.309 40.707,18.834 C40.707,25.358 35.398,30.667 28.874,30.667 M15.04,18.834 C15.04,22.288 16.321,25.443 18.423,27.87 L7,39.293 L8.414,40.707 L19.837,29.284 C22.264,31.386 25.419,32.667 28.874,32.667 C36.502,32.667 42.707,26.461 42.707,18.834 C42.707,11.206 36.502,5 28.874,5 C21.246,5 15.04,11.206 15.04,18.834 Z" id="Page-1"></path>
        </g>
    </g>
</svg>