<svg xmlns="http://www.w3.org/2000/svg" xmlns:xlink="http://www.w3.org/1999/xlink" width="0" height="0" style="position:absolute">
	<symbol id="delivery" viewBox="0 0 38 22">
		<defs>
			<path d="M36.9694989,31.15 C36.9694989,30.23865 36.2292397,29.5 35.3159041,29.5 C34.4025686,29.5 33.6623094,30.23865 33.6623094,31.15 C33.6623094,32.06135 34.4025686,32.8 35.3159041,32.8 C36.2292397,32.8 36.9694989,32.06135 36.9694989,31.15 M31.4575163,31.15 C31.4575163,29.0237 33.1849717,27.3 35.3159041,27.3 C37.4468366,27.3 39.1742919,29.0237 39.1742919,31.15 C39.1742919,33.2763 37.4468366,35 35.3159041,35 C33.1849717,35 31.4575163,33.2763 31.4575163,31.15 M13.8191721,31.15 C13.8191721,30.23865 13.0789129,29.5 12.1655773,29.5 C11.2522418,29.5 10.5119826,30.23865 10.5119826,31.15 C10.5119826,32.06135 11.2522418,32.8 12.1655773,32.8 C13.0789129,32.8 13.8191721,32.06135 13.8191721,31.15 M9.37443822,20.8682112 L10.8432527,19.89095 L14.3703704,15.2 C15.3085098,13.95205 17.216207,13 18.7799564,13 L22.6383442,13 L39.7254902,13 L40.8278867,13 C41.4364096,13 41.9302832,13.4928 41.9302832,14.1 C41.9302832,14.6445 41.5334205,15.0966 41.0130893,15.1846 L42.4682527,24.3784 C42.4770719,24.43505 42.4814815,24.4928 42.4814815,24.55 L42.4814815,30.05 C42.4814815,30.6572 41.9876078,31.15 41.379085,31.15 L40.2766885,31.15 C40.2766885,28.41595 38.0559107,26.2 35.3159041,26.2 C32.5758976,26.2 30.3551198,28.41595 30.3551198,31.15 L17.1263617,31.15 C17.1263617,28.41595 14.9055839,26.2 12.1655773,26.2 C9.42557081,26.2 7.20479303,28.41595 7.20479303,31.15 L6.10239651,31.15 C5.49387364,31.15 5,30.6572 5,30.05 L5,26.7511 C5,25.177 5.98333769,23.2905 7.27479521,22.38795 C7.32550545,22.35 7.45558824,22.25485 7.62260131,22.13165 C7.90205882,21.9265 8.18206754,21.7219 8.4460915,21.5305 C8.82421351,21.25605 9.11304139,21.04925 9.32855991,20.89855 C9.34362127,20.8880389 9.35891957,20.8779243 9.37443822,20.8682112 Z M12.9923747,20.7 L19.3311547,20.7 C19.9997582,20.7 20.6617473,20.12745 20.7560022,19.46855 L21.3671844,15.2 L18.7799564,15.2 C17.9101656,15.2 16.6556383,15.8259 16.1342048,16.52 L12.9923747,20.7 Z M8.30718954,31.15 C8.30718954,29.0237 10.0346449,27.3 12.1655773,27.3 C14.2965098,27.3 16.0239651,29.0237 16.0239651,31.15 C16.0239651,33.2763 14.2965098,35 12.1655773,35 C10.0346449,35 8.30718954,33.2763 8.30718954,31.15 Z" id="path-1"></path>
		</defs>
		<g id="icons" stroke="none" stroke-width="1" fill="none" fill-rule="evenodd">
				<g transform="translate(-773.000000, -316.000000)" id="icon-deliveryfill">
						<g transform="translate(768.000000, 303.000000)">
								<rect id="Rectangle-2" x="0" y="0" width="48" height="48"></rect>
								<mask id="mask-2" fill="white">
										<use xlink:href="#path-1"></use>
								</mask>
								<use id="Combined-Shape" fill="#000000" transform="translate(23.740741, 24.000000) scale(-1, 1) translate(-23.740741, -24.000000) " xlink:href="#path-1"></use>
						</g>
				</g>
		</g>
	</symbol>
</svg>