<svg xmlns="http://www.w3.org/2000/svg" xmlns:xlink="http://www.w3.org/1999/xlink" width="0" height="0" style="position:absolute">
	<symbol id="delivery" viewBox="0 0 38 22">
		<g transform="translate(-773.000000, -316.000000)">
		    <g transform="translate(768.000000, 303.000000)">
		        <path fill-rule="evenodd" d="M36.9694989,31.15 C36.9694989,30.23865 36.2292397,29.5 35.3159041,29.5 C34.4025686,29.5 33.6623094,30.23865 33.6623094,31.15 C33.6623094,32.06135 34.4025686,32.8 35.3159041,32.8 C36.2292397,32.8 36.9694989,32.06135 36.9694989,31.15 M31.4575163,31.15 C31.4575163,29.0237 33.1849717,27.3 35.3159041,27.3 C37.4468366,27.3 39.1742919,29.0237 39.1742919,31.15 C39.1742919,33.2763 37.4468366,35 35.3159041,35 C33.1849717,35 31.4575163,33.2763 31.4575163,31.15 M13.8191721,31.15 C13.8191721,30.23865 13.0789129,29.5 12.1655773,29.5 C11.2522418,29.5 10.5119826,30.23865 10.5119826,31.15 C10.5119826,32.06135 11.2522418,32.8 12.1655773,32.8 C13.0789129,32.8 13.8191721,32.06135 13.8191721,31.15 M9.37443822,20.8682112 L10.8432527,19.89095 L14.3703704,15.2 C15.3085098,13.95205 17.216207,13 18.7799564,13 L22.6383442,13 L39.7254902,13 L40.8278867,13 C41.4364096,13 41.9302832,13.4928 41.9302832,14.1 C41.9302832,14.6445 41.5334205,15.0966 41.0130893,15.1846 L42.4682527,24.3784 C42.4770719,24.43505 42.4814815,24.4928 42.4814815,24.55 L42.4814815,30.05 C42.4814815,30.6572 41.9876078,31.15 41.379085,31.15 L40.2766885,31.15 C40.2766885,28.41595 38.0559107,26.2 35.3159041,26.2 C32.5758976,26.2 30.3551198,28.41595 30.3551198,31.15 L17.1263617,31.15 C17.1263617,28.41595 14.9055839,26.2 12.1655773,26.2 C9.42557081,26.2 7.20479303,28.41595 7.20479303,31.15 L6.10239651,31.15 C5.49387364,31.15 5,30.6572 5,30.05 L5,26.7511 C5,25.177 5.98333769,23.2905 7.27479521,22.38795 C7.32550545,22.35 7.45558824,22.25485 7.62260131,22.13165 C7.90205882,21.9265 8.18206754,21.7219 8.4460915,21.5305 C8.82421351,21.25605 9.11304139,21.04925 9.32855991,20.89855 C9.34362127,20.8880389 9.35891957,20.8779243 9.37443822,20.8682112 Z M12.9923747,20.7 L19.3311547,20.7 C19.9997582,20.7 20.6617473,20.12745 20.7560022,19.46855 L21.3671844,15.2 L18.7799564,15.2 C17.9101656,15.2 16.6556383,15.8259 16.1342048,16.52 L12.9923747,20.7 Z M8.30718954,31.15 C8.30718954,29.0237 10.0346449,27.3 12.1655773,27.3 C14.2965098,27.3 16.0239651,29.0237 16.0239651,31.15 C16.0239651,33.2763 14.2965098,35 12.1655773,35 C10.0346449,35 8.30718954,33.2763 8.30718954,31.15 Z"></path>
		    </g>
		</g>
	</symbol>
	<symbol id="phone" viewBox="0 0 32 32">
		<g transform="translate(-704.000000, -311.000000)">
		    <g transform="translate(696.000000, 303.000000)">
		        <path fill-rule="evenodd" d="M14.5654548,28.970313 C17.8074909,32.8298798 21.6670577,35.8660723 26.1956161,38.0788906 C28.2540517,39.0571622 30.3639482,39.8290755 32.6282274,39.9829436 C34.223515,40.08638 35.6124445,39.6741782 36.6936378,38.4391169 C37.4655511,37.6157426 38.2889254,36.8438292 39.1122996,36.020455 C40.2959001,34.8368545 40.2959001,33.3964642 39.1122996,32.2123491 C37.7228556,30.8234196 36.2819506,29.3820001 34.8925066,27.992556 C33.760367,26.8604164 32.2674866,26.8604164 31.1358616,27.992556 C30.2610264,28.8673912 29.3861913,29.7422263 28.5113561,30.6170615 C28.2540517,30.8743659 28.099669,30.9258268 27.7909037,30.7714441 C27.2248339,30.4626788 26.6067886,30.2053743 26.0921797,29.8451481 C23.5196497,28.2498605 21.4097532,26.1914249 19.5057003,23.8756848 C18.5794042,22.7435452 17.7045691,21.5084838 17.1384993,20.1190398 C17.0355775,19.8617353 17.0355775,19.6558917 17.292882,19.4500482 C18.1677171,18.575213 19.0425523,17.7518388 19.9173874,16.8770036 C21.1009879,15.6419423 21.1009879,14.2524982 19.9173874,13.0174368 C19.2483958,12.3484453 18.5279434,11.6279928 17.8589518,10.9590012 C17.1384993,10.2385487 16.4695077,9.51809628 15.7490553,8.8491047 C14.5654548,7.7169651 13.1245498,7.7169651 11.9924102,8.8491047 C11.1175751,9.72393984 10.2427399,10.598775 9.3679048,11.4736101 C8.54453055,12.2455235 8.08138254,13.2232804 8.02992165,14.35542 C7.87553897,16.2080121 8.33868699,17.9062215 8.95621768,19.6044309 C10.1912791,23.0008496 12.1982538,26.139964 14.5654548,28.970313"></path>
		    </g>
		</g>
	</symbol>
	<symbol width="24" width="14" id="vk" viewBox="0 0 32 32">
		<g transform="translate(-552.000000, -233.000000)">
		    <g transform="translate(48.000000, 223.000000)">
		        <g transform="translate(504.000000, 0.000000)">
		            <path d="M42.5597713,21.7054223 C43.2412905,20.8048824 43.7827809,20.0799372 44.1842427,19.5348179 C47.0675932,15.617434 48.3154355,13.1139753 47.9325983,12.0230315 L47.7815328,11.7663389 C47.6822021,11.6154262 47.4235283,11.4743862 47.0082707,11.3453347 C46.5909436,11.2183988 46.0570409,11.1993584 45.4079421,11.2818667 L38.2106026,11.3340515 C38.0436718,11.3178319 37.8767409,11.3206527 37.7125693,11.3453347 C37.5449487,11.3728375 37.4373404,11.3975195 37.3862954,11.4222015 C37.3352505,11.4497043 37.2945525,11.4694498 37.262132,11.4856694 L37.1628013,11.5625362 C37.0793359,11.6154262 36.9875929,11.7035761 36.8875724,11.8326276 C36.7882416,11.9595636 36.702017,12.1083607 36.6371761,12.279019 C35.8528772,14.3396123 34.9637292,16.25705 33.9614544,18.0278063 C33.3475353,19.0827849 32.778453,20.0002496 32.2638646,20.7745588 C31.746517,21.5481628 31.3126348,22.12149 30.9649773,22.485373 C30.6152503,22.8513717 30.297254,23.1461451 30.0144373,23.3668726 C29.7309308,23.5897156 29.5157142,23.6835072 29.3646487,23.647542 C29.2135832,23.6143976 29.0735545,23.5812533 28.9390441,23.5459933 C28.7072724,23.3943754 28.5189579,23.1849311 28.3782393,22.9204812 C28.2354514,22.6560314 28.1416391,22.3252927 28.0899043,21.923329 C28.0416185,21.5234808 28.0091981,21.1793434 28.0036797,20.8873907 C27.9933327,20.5982589 27.9988511,20.1906535 28.0147164,19.6617538 C28.0312716,19.1356749 28.0416185,18.7774335 28.0416185,18.5898504 C28.0416185,17.9424771 28.0526553,17.2400983 28.0767982,16.4827139 C28.1037002,15.7225087 28.1223247,15.1216787 28.1416391,14.6809289 C28.1575044,14.2373583 28.1657819,13.7691058 28.1657819,13.2733505 C28.1657819,12.7804159 28.1361207,12.3946717 28.0767982,12.1111815 C28.0202348,11.8326276 27.931251,11.5597154 27.8153652,11.2952655 C27.6994793,11.0308157 27.5270301,10.827013 27.303536,10.6810367 C27.0772826,10.5378811 26.7992945,10.4222284 26.4654329,10.3368993 C25.5818032,10.1330966 24.4581243,10.0230854 23.0923267,10.0033398 C19.9930697,9.97090066 18.0023162,10.1747033 17.1179968,10.6175687 C16.7682698,10.8051518 16.4530327,11.0611393 16.1695262,11.3834155 C15.868085,11.7614025 15.827387,11.9652052 16.0432934,11.9983496 C17.0428089,12.1492623 17.7512302,12.5187869 18.1692471,13.0970506 L18.3175534,13.4031072 C18.4361984,13.6259503 18.5520843,14.0173361 18.6672803,14.5793802 C18.7831662,15.1414242 18.8590438,15.7605895 18.8942235,16.4439279 C18.9776889,17.6864897 18.9776889,18.7499307 18.8942235,19.6370718 C18.8107581,20.5235077 18.7321212,21.2124877 18.6569334,21.7054223 C18.5817455,22.2011776 18.4679291,22.6010258 18.3203126,22.9063772 C18.1692471,23.2152547 18.0692265,23.4021326 18.0181816,23.4684213 C17.9671366,23.5375309 17.9264386,23.5812533 17.8940182,23.598178 C17.6760424,23.6806864 17.4525482,23.7244088 17.2180173,23.7244088 C16.9862456,23.7244088 16.7034289,23.6059352 16.3688775,23.3668726 C16.0350158,23.1299255 15.6901175,22.8020077 15.3321129,22.3831191 C14.9734186,21.9670513 14.5691977,21.383146 14.1194502,20.6314033 C13.6690129,19.8845969 13.2034001,18.9974557 12.7205423,17.9756215 L12.3218398,17.2344567 C12.0714436,16.758447 11.7293044,16.0638253 11.2954222,15.1520022 C10.86154,14.2401791 10.4787028,13.3615004 10.1476004,12.5075037 C10.01309,12.1492623 9.81373873,11.879876 9.54678737,11.6894721 L9.42262395,11.6154262 C9.33915854,11.5463166 9.20464817,11.4743862 9.02116223,11.3975195 C8.83767629,11.3206527 8.64660258,11.264942 8.44725131,11.229682 L1.60032852,11.2818667 C0.900184792,11.2818667 0.42560461,11.4440627 0.175208381,11.7663389 L0.0751878485,11.9207776 C0.0241428871,12.0061067 0,12.1443259 0,12.328383 C0,12.5187869 0.0510449614,12.7472715 0.151065494,13.0201838 C1.15058102,15.4220937 2.23632115,17.7386744 3.41104505,19.9671052 C4.58576896,22.2011776 5.60735799,23.997321 6.47236314,25.3611771 C7.34012749,26.7243279 8.22375716,28.0084964 9.12394195,29.2172086 C10.0234369,30.4266259 10.6194214,31.2037559 10.9098258,31.5422517 C11.20092,31.8842735 11.4299326,32.1395558 11.5968634,32.3080985 L12.2225091,32.9223274 C12.6212116,33.3327535 13.2082287,33.8207517 13.9821806,34.3933738 C14.758202,34.9638803 15.6149296,35.5259244 16.5578818,36.0759801 C17.4980748,36.6323826 18.5948517,37.0822999 19.842694,37.4320789 C21.0926058,37.7811527 22.3080277,37.9221927 23.4937884,37.8537883 L26.3654124,37.8537883 C26.95036,37.8037191 27.3897606,37.6168412 27.6912018,37.2917442 L27.7912223,37.1641031 C27.8560632,37.0625543 27.9202143,36.906 27.9767776,36.6909141 C28.0361001,36.478649 28.0657614,36.2445228 28.0657614,35.9913561 C28.0498961,35.2586537 28.1037002,34.5971765 28.2278636,34.0104504 C28.3513373,33.4209035 28.4941252,32.9801537 28.6534683,32.6804439 C28.8121215,32.3828497 28.9900891,32.1317986 29.1894404,31.9279959 C29.3887916,31.7213724 29.5308898,31.6000781 29.615045,31.5563557 C29.6985104,31.5147489 29.7661105,31.4844254 29.8143962,31.4682058 C30.2137886,31.3306918 30.6849198,31.461859 31.2264102,31.8617071 C31.7679007,32.2643761 32.2776605,32.7566055 32.7515509,33.3433315 C33.2261311,33.9328784 33.7972828,34.5922401 34.4629367,35.3249425 C35.13066,36.0576449 35.7128485,36.6027642 36.2143307,36.9610056 L36.712364,37.2670622 C37.0469154,37.4708649 37.4780384,37.6577428 38.0112513,37.8284011 C38.545154,37.9997646 39.013526,38.0427818 39.4129184,37.9574526 L45.8094039,37.8537883 C46.4426373,37.8537883 46.935842,37.7487135 47.2834996,37.5336277 C47.6332265,37.3248886 47.8436146,37.0879415 47.9084555,36.8312488 C47.9760555,36.577377 47.9808841,36.2889503 47.9215616,35.9638533 C47.8622391,35.6415771 47.8056757,35.4159132 47.747043,35.2889773 C47.6877205,35.1592206 47.6332265,35.054851 47.5849408,34.9695219 C46.7495969,33.4350075 45.1603051,31.5528297 42.8094777,29.3222833 L42.7108367,29.2200294 L42.6866939,29.2200294 C41.6195782,28.1819756 40.9456468,27.4824175 40.6628301,27.1241761 C40.1454825,26.4436585 40.0295967,25.7546785 40.3124134,25.0551205 C40.5117646,24.5262207 41.2608839,23.4105949 42.5597713,21.7054223"></path>
		        </g>
		    </g>
		</g>
	</symbol>
	<symbol width="49" width="16" id="visa" viewBox="0 0 49 16">
		<polygon points="20.2005 0.3 16.9005 15.5 20.8995 15.5 24.1005 0.3"></polygon>
		<path d="M14.3998,0.3002 L10.2998,10.6002 L8.5998,1.8002 C8.3998,0.8002 7.5998,0.3002 6.7998,0.3002 L0.0998,0.3002 L-0.0002,0.7002 C1.3998,1.0002 2.8998,1.5002 3.8998,2.0002 C4.4998,2.3002 4.5998,2.6002 4.7998,3.3002 L7.8998,15.4002 L12.0998,15.4002 L18.4998,0.2002 L14.3998,0.2002 L14.3998,0.3002 Z"></path>
		<path d="M40.7001,10.1 L42.8001,4.4 L44.0001,10.1 L40.7001,10.1 Z M45.5001,0.3 L42.0991,0.3 C41.3001,0.3 40.7001,0.7 40.4001,1.4 L34.5001,15.5 L38.5991,15.5 L39.4001,13.2 L44.4001,13.2 L44.9001,15.5 L48.5001,15.5 L45.5001,0.3 Z"></path>
		<path d="M29.2997,4.4999 C29.2997,3.9999 29.7997,3.3999 30.9997,3.1999 C31.5997,3.0999 33.0997,3.0999 34.9007,3.8999 L35.5997,0.6999 C34.6997,0.3999 33.4007,-9.99999993e-05 31.9007,-9.99999993e-05 C27.9997,-9.99999993e-05 25.2997,2.0999 25.2997,4.9999 C25.2997,7.1999 27.2997,8.3999 28.6997,9.0999 C30.1997,9.7999 30.6997,10.2999 30.6997,10.9999 C30.6997,11.9999 29.4997,12.4999 28.2997,12.4999 C26.2997,12.4999 25.1997,11.9999 24.2997,11.4999 L23.5997,14.7999 C24.4997,15.1999 26.1997,15.5999 27.9997,15.5999 C32.0997,15.5999 34.7997,13.5999 34.7997,10.3999 C34.7997,6.5999 29.1997,6.2999 29.2997,4.4999"></path>
	</symbol>
	<symbol width="49" width="29" id="masterc" viewBox="0 0 49 29">
		<path d="M9.95773907,16.006234 C9.95773907,16.3819035 10.1549182,16.5711506 10.5492765,16.5711506 C11.2394034,16.5711506 11.6337617,16.006234 11.7323513,15.1588592 L11.337993,15.1588592 C10.4506869,15.1588592 9.95773907,15.4403759 9.95773907,16.006234" ></path>
		<path d="M35.1967665,16.006234 C35.1967665,16.3819035 35.3939456,16.5711506 35.7883039,16.5711506 C36.4784308,16.5711506 36.8727891,16.006234 36.9713786,15.1588592 L36.5760345,15.1588592 C35.5901388,15.1588592 35.1967665,15.4403759 35.1967665,16.006234" ></path>
		<path d="M23.1686423,13.1811805 C22.6756944,13.1811805 22.2813362,13.5577915 22.1827466,14.2168608 L23.9573588,14.2168608 C23.9573588,14.0285553 24.1545379,13.1811805 23.1686423,13.1811805" ></path>
		<path d="M44.5627752,13.3696743 C43.8726482,13.3696743 43.2811108,14.2170491 43.2811108,15.3468823 C43.2811108,16.1001043 43.5768795,16.4767154 44.0698274,16.4767154 C44.8585439,16.4767154 45.3514917,15.6293405 45.3514917,14.4995074 C45.4490954,13.7462853 45.1543126,13.3696743 44.5627752,13.3696743" ></path>
		<path d="M44.9565419,17.7945715 L45.0561174,17.229655 C44.6607732,17.7004188 44.1678254,17.8896658 43.5772739,17.8896658 C42.3932132,17.8896658 41.6054826,16.9481382 41.6054826,15.4407526 C41.6054826,13.5576974 42.7885574,11.8629477 44.1678254,11.8629477 C44.7603487,11.8629477 45.2532965,12.145406 45.6466689,12.6161698 L46.042013,10.5448091 L47.6184602,10.5448091 L46.4353854,17.7004188 L44.9565419,17.7004188 L44.9565419,17.7945715 Z M40.2242428,17.7945715 L38.6477956,17.7945715 L38.7453993,17.418902 C39.041168,15.6290581 39.3379226,13.8401556 39.5341158,12.0512532 L41.0129593,12.0512532 C41.0129593,12.3337115 40.9143697,12.6161698 40.9143697,12.898628 C41.4073176,12.2395587 41.8026617,11.8629477 42.4918028,11.9571005 C42.2956095,12.2395587 41.9988549,12.898628 41.9002654,13.6518501 C40.9143697,13.5576974 40.7171906,14.2167667 40.2242428,17.7945715 L40.2242428,17.7945715 Z M38.0552723,17.7945715 L36.773608,17.7945715 L36.773608,17.229655 C36.3802356,17.7004188 35.7877123,17.8896658 35.0975854,17.8896658 C34.2112652,17.8896658 33.6187419,17.229655 33.6187419,16.2881274 C33.6187419,14.875836 34.6046375,14.0284612 36.3802356,14.0284612 L37.0693767,14.0284612 C37.1689521,13.8401556 37.1689521,13.7460029 37.1689521,13.6518501 C37.1689521,13.2752391 36.8731834,13.0869336 36.1830565,13.0869336 C35.3943399,13.0869336 34.8018167,13.2752391 34.506048,13.3693918 C34.506048,13.2752391 34.704213,12.0512532 34.704213,12.0512532 C35.4919436,11.8629477 35.9848914,11.7687949 36.5764288,11.7687949 C37.9566828,11.7687949 38.6477956,12.3337115 38.6477956,13.4635446 C38.6477956,13.7460029 38.6477956,14.1226139 38.5482202,14.5933777 C38.3520269,15.5358468 38.0552723,17.3238077 38.0552723,17.7945715 L38.0552723,17.7945715 Z M33.125794,17.7004188 C32.5342566,17.8896658 32.1398984,17.8896658 31.746526,17.8896658 C30.0695175,17.8896658 28.9860182,16.6647384 28.9860182,14.7816832 C28.9860182,12.2395587 30.4648617,10.4506563 32.6328462,10.4506563 C33.3229732,10.4506563 34.1116897,10.7331146 34.4084443,10.8272673 L34.1116897,12.3337115 C33.5201523,12.0512532 33.125794,11.9571005 32.7324217,11.9571005 C31.548361,11.9571005 30.6610549,13.0869336 30.6610549,14.5933777 C30.6610549,15.6290581 31.2535782,16.2881274 32.1398984,16.2881274 C32.5342566,16.2881274 32.9296008,16.1939746 33.5201523,15.9115164 L33.125794,17.7004188 Z M27.0142269,17.7945715 L25.4358079,17.7945715 L25.5353834,17.418902 C25.8311521,15.6290581 26.1259349,13.8401556 26.3240999,12.0512532 L27.8029434,12.0512532 C27.8029434,12.3337115 27.7033679,12.6161698 27.7033679,12.898628 C28.1963158,12.2395587 28.590674,11.8629477 29.2817869,11.9571005 C29.0836219,12.2395587 28.7888391,12.898628 28.6892636,13.6518501 C27.7033679,13.5576974 27.6047784,14.2167667 27.0142269,17.7945715 L27.0142269,17.7945715 Z M23.4640166,16.5705857 C24.055554,16.5705857 24.5485018,16.4773744 25.1400392,16.1939746 L24.8452564,17.606266 C24.2527331,17.7945715 23.7597853,17.7945715 23.1682479,17.7945715 C21.3946216,17.7945715 20.5063296,16.9481382 20.5063296,15.252447 C20.5063296,13.2752391 21.6894044,11.7687949 23.2668375,11.7687949 C24.5485018,11.7687949 25.4358079,12.6161698 25.4358079,13.8401556 C25.4358079,14.3109194 25.3382043,14.6875305 25.2386288,15.252447 L22.0837627,15.252447 C21.9851731,16.1939746 22.5767105,16.5705857 23.4640166,16.5705857 L23.4640166,16.5705857 Z M19.7176131,16.4773744 C19.9157781,16.4773744 20.0133818,16.4773744 20.1119714,16.3822801 L19.9157781,17.7004188 C19.520434,17.7945715 19.1260757,17.8896658 18.7317175,17.8896658 C17.9439868,17.8896658 17.451039,17.418902 17.451039,16.5705857 C17.451039,16.2881274 17.5486427,15.6290581 17.6472322,15.065083 C17.7458218,14.499225 18.3373592,11.1097256 18.3373592,11.1097256 L19.9157781,11.1097256 L19.7176131,11.9571005 L20.5063296,11.9571005 L20.3091505,13.3693918 L19.520434,13.3693918 C19.3232549,14.499225 19.0274862,15.8173636 19.0274862,16.0066106 C19.2246653,16.2881274 19.4228303,16.4773744 19.7176131,16.4773744 L19.7176131,16.4773744 Z M16.2669783,14.3109194 C17.0556948,14.6875305 17.3514635,15.1582943 17.3514635,15.9115164 C17.3514635,17.229655 16.562747,17.8896658 14.8867244,17.8896658 C13.9008287,17.8896658 13.6050601,17.7945715 13.2107018,17.7004188 C13.2107018,17.606266 13.4078809,16.3822801 13.4078809,16.3822801 C13.9008287,16.5705857 14.3937766,16.5705857 14.8867244,16.5705857 C15.4792477,16.5705857 15.7740305,16.3822801 15.7740305,16.0066106 C15.7740305,15.7232108 15.6754409,15.6290581 14.9862999,15.3465998 C14.0980079,14.9699888 13.8022392,14.499225 13.8022392,13.7460029 C13.8022392,12.7103225 14.3937766,11.7687949 16.1683888,11.7687949 C16.562747,11.7687949 17.1542844,11.8629477 17.5486427,11.8629477 L17.3514635,13.1810863 C16.9580912,13.0869336 16.562747,13.0869336 16.1683888,13.0869336 C15.6754409,13.0869336 15.3796722,13.2752391 15.3796722,13.5576974 C15.4792477,13.9343084 15.5768514,14.0284612 16.2669783,14.3109194 L16.2669783,14.3109194 Z M11.5356651,17.7945715 L11.5356651,17.229655 C11.1403209,17.7004188 10.5497694,17.8896658 9.85865656,17.8896658 C8.97135047,17.8896658 8.37981308,17.229655 8.37981308,16.2881274 C8.37981308,14.875836 9.36570873,14.0284612 11.1403209,14.0284612 L11.8304479,14.0284612 C11.9290374,13.8401556 11.9290374,13.7460029 11.9290374,13.6518501 C11.9290374,13.2752391 11.6332687,13.0869336 10.9431418,13.0869336 C10.1544253,13.0869336 9.56387376,13.2752391 9.26711917,13.3693918 C9.26711917,13.2752391 9.4642983,12.0512532 9.4642983,12.0512532 C10.2530148,11.8629477 10.7459627,11.7687949 11.3375,11.7687949 C12.717754,11.7687949 13.4078809,12.3337115 13.4078809,13.4635446 C13.4078809,13.7460029 13.4078809,14.1226139 13.3092914,14.5933777 C13.2107018,15.4407526 12.9149331,17.229655 12.8163435,17.7004188 C12.6191644,17.7945715 11.5356651,17.7945715 11.5356651,17.7945715 L11.5356651,17.7945715 Z M6.21084263,17.7945715 L7.09913462,12.3337115 L5.02776785,17.7945715 L3.94328262,17.7945715 L3.84469306,12.3337115 L2.8587974,17.7945715 L1.37995392,17.7945715 L2.66260417,10.6389618 L4.92917828,10.6389618 L5.02776785,15.065083 L6.60618679,10.6389618 L9.07092593,10.6389618 L7.78827568,17.7945715 L6.21084263,17.7945715 Z M34.3088688,-0.0003 C30.5624653,-0.0003 27.1118305,1.31783863 24.4499123,3.57750486 C21.8875695,1.31783863 18.4369347,-0.0003 14.6895453,-0.0003 C6.60618679,-0.0003 -0.0003,6.30793489 -0.0003,14.0284612 C-0.0003,21.7489874 6.60618679,28.0572223 14.6895453,28.0572223 C18.4369347,28.0572223 21.8875695,26.7390837 24.4499123,24.480359 C27.0142269,26.7390837 30.4648617,28.0572223 34.3088688,28.0572223 C42.3932132,28.0572223 48.9997,21.7489874 48.9997,14.0284612 C48.9997,6.30793489 42.3932132,-0.0003 34.3088688,-0.0003 L34.3088688,-0.0003 Z"></path>
	</symbol>
	<symbol width="77" width="20" id="webm" viewBox="0 0 77 20">
		<path d="M10.0398921,1.73913049e-05 C11.6160349,1.73913049e-05 13.1088921,0.365234783 14.4384952,1.0148 C14.647146,1.1134087 14.8557968,1.22210435 15.064273,1.34106087 L14.1406222,2.1654087 L12.7518286,0.735321739 L10.4081302,2.8174087 L9.01584444,1.30384348 L4.65041587,5.2241913 L7.44965397,8.2961913 L6.34965397,9.26001739 L9.10646349,12.3372348 L8.01309841,13.2979304 L11.9523206,17.6654087 L14.2906063,15.5210609 L16.3121619,17.8188 C15.9105746,18.1301043 15.472146,18.4234957 14.9897175,18.6944522 C13.5274159,19.524713 11.837781,20.0000174 10.0398921,20.0000174 C4.51003492,20.0000174 3.49206346e-05,15.5078435 3.49206346e-05,10.0000174 C3.49206346e-05,4.49201739 4.51003492,1.73913049e-05 10.0398921,1.73913049e-05"></path>
		<polygon points="8.21005079 9.36813913 10.5975746 7.22674783 12.7474635 9.60483478 10.3597651 11.7460522"></polygon>
		<polygon points="9.90799683 13.4773391 12.2956952 11.3361217 14.4450603 13.7140348 12.0575365 15.8557739"></polygon>
		<polygon points="6.50169841 5.30733913 8.88887302 3.16629565 11.0384127 5.5442087 8.6512381 7.68525217"></polygon>
		<polygon points="10.8828063 4.15516522 12.6731873 2.54925217 14.2852984 4.33290435 12.4949175 5.93881739"></polygon>
		<polygon points="14.0646349 11.5099478 15.8548413 9.9042087 17.467127 11.6878609 15.676746 13.2936"></polygon>
		<polygon points="15.6390492 15.1121913 17.4297794 13.5066261 19.0418905 15.2897565 17.2513349 16.8954957"></polygon>
		<polygon points="16.3608238 6.85582609 17.5544111 5.78504348 18.6296175 6.97443478 17.4358556 8.04486957"></polygon>
		<polygon points="14.8355079 3.32313043 16.0289206 2.25269565 17.1037778 3.44191304 15.9100159 4.51234783"></polygon>
		<polygon points="17.8865413 10.3885043 19.0804778 9.31806957 20.1551603 10.507287 18.9613984 11.5775478"></polygon>
		<polygon points="12.5335222 7.7410087 14.323554 6.13526957 15.9358397 7.91892174 14.1456333 9.52483478"></polygon>
		<path d="M47.7351635,6.15897391 L47.6792905,6.1961913 L47.6232429,6.15897391 C47.2118778,5.78610435 46.7621,5.63688696 46.2011,5.63688696 C44.9095603,5.63688696 44.0672746,6.53184348 44.0672746,7.92993043 L44.0672746,14.4725391 L45.3586397,14.4725391 L45.3586397,7.92975652 C45.3586397,6.99758261 45.9950683,6.92297391 46.2011,6.92297391 C46.3505603,6.92297391 46.5754492,6.9601913 46.7622746,7.1094087 C46.9496238,7.29584348 47.0426873,7.55688696 47.0426873,7.92975652 L47.0426873,14.4725391 L48.3344016,14.4725391 L48.3344016,7.92975652 C48.3344016,6.99758261 48.9710048,6.92297391 49.1761635,6.92297391 C49.325973,6.92297391 49.5506873,6.9601913 49.7378619,7.1094087 C49.9248619,7.29584348 50.0184492,7.55688696 50.0184492,7.92975652 L50.0184492,14.4725391 L51.3094651,14.4725391 L51.3094651,7.92975652 C51.3094651,7.2028 51.0854492,6.60610435 50.6735603,6.19601739 C50.2992111,5.84193043 49.7750524,5.63671304 49.1761635,5.63671304 C48.5963063,5.63688696 48.128719,5.80488696 47.7351635,6.15897391"></path>
		<path d="M56.643854,11.4902435 C56.643854,12.1052 56.643854,12.795113 56.1755683,13.2985913 C55.988219,13.4846783 55.6332508,13.727287 55.0340127,13.727287 C54.4723143,13.727287 54.1169968,13.4846783 53.9299968,13.2985913 C53.4617111,12.7949391 53.4617111,12.1052 53.4617111,11.4902435 L53.4617111,10.9125043 C53.4617111,10.2973739 53.4617111,9.60763478 53.9299968,9.12311304 C54.1169968,8.91806957 54.4723143,8.67528696 55.0340127,8.67528696 C55.6332508,8.67528696 55.988219,8.91806957 56.1755683,9.12311304 C56.643854,9.60763478 56.643854,10.2973739 56.643854,10.9125043 L56.643854,11.4902435 Z M57.1493302,8.65685217 C56.7191079,8.20937391 56.0072508,7.81806957 55.0341873,7.81806957 C54.0984889,7.81806957 53.3871556,8.20937391 52.9571079,8.65685217 C52.2834889,9.38398261 52.1521873,10.4092 52.1521873,11.2104174 C52.1521873,11.9938957 52.2834889,13.019113 52.9571079,13.7460696 C53.3875048,14.1930261 54.0984889,14.5845043 55.0341873,14.5845043 C56.0072508,14.5845043 56.7191079,14.1930261 57.1493302,13.7460696 C57.8226,13.019113 57.9535524,11.9938957 57.9535524,11.2104174 C57.953727,10.4092 57.8227746,9.38398261 57.1493302,8.65685217 L57.1493302,8.65685217 Z"></path>
		<path d="M59.0202556,7.92986087 L60.1061127,7.94846957 L60.1061127,8.5262087 C60.4240651,8.30255652 60.7050016,8.13473043 61.0234778,8.02290435 C61.4165095,7.85507826 61.6969222,7.81786087 62.0897794,7.81786087 C62.6514778,7.81786087 63.2313349,7.92968696 63.699446,8.45177391 C64.1483508,8.97351304 64.2419381,9.5889913 64.2419381,10.1109043 L64.2419381,14.4540348 L63.0439857,14.4540348 L63.0439857,10.0173391 C63.0439857,8.95525217 62.3708905,8.67525217 61.8093667,8.67525217 C61.2474937,8.67525217 60.6678111,8.91803478 60.2000492,9.34638261 L60.2000492,14.4540348 L59.0202556,14.4540348 L59.0202556,8.88046957 L59.0202556,7.92986087 Z"></path>
		<path d="M66.3757635,10.4839652 C66.3757635,9.73787826 66.6189857,9.30918261 66.8066841,9.10396522 C66.9929857,8.89926957 67.2926048,8.67526957 67.798081,8.67526957 C68.1354143,8.67526957 68.4715254,8.74987826 68.7156206,8.99248696 C69.1460175,9.40257391 69.1460175,9.90553043 69.1460175,10.3533565 L69.1460175,10.632487 L66.3761127,10.632487 L66.3757635,10.4839652 Z M70.0998746,13.1867478 C69.8749857,13.2989217 69.6315889,13.3917913 69.3326683,13.4848348 C68.9766524,13.5971826 68.6960651,13.6526609 68.3215413,13.6526609 C67.7044937,13.6526609 67.1427952,13.4477913 66.8431762,13.1121391 C66.6186365,12.8886609 66.3754143,12.4415304 66.3754143,11.6584 L66.3754143,11.4905739 L70.4176524,11.4905739 L70.4176524,11.192487 C70.4176524,10.148487 70.3801127,9.29057391 69.7250016,8.6010087 C69.2947794,8.13509565 68.6394937,7.8184 67.8157159,7.8184 C66.8987,7.8184 66.2254302,8.20970435 65.8137159,8.67561739 C65.1399222,9.44013913 65.0646683,10.4464 65.0646683,11.0989217 C65.0646683,11.8260522 65.1774619,12.9076174 65.8509063,13.6533565 C66.2813032,14.156313 67.0485095,14.5848348 68.1343667,14.5848348 C68.6208111,14.5848348 69.1449698,14.5288348 69.6684302,14.3237913 C69.9491921,14.2119652 70.2676683,14.0630957 70.4733508,13.9507478 L70.0998746,13.1867478 Z"></path>
		<path d="M76.8933873,7.94855652 L74.3293397,15.6287304 C74.2357524,15.9643826 73.9927048,16.523687 73.7115937,16.8398609 C73.3747841,17.2132522 72.9257048,17.3809043 72.4204032,17.3809043 C72.0645619,17.3809043 71.7281016,17.3061217 71.3907683,17.1200348 C71.1852603,16.9890783 70.9792286,16.8589913 70.847927,16.7096 L71.4098,16.0012522 C71.5033873,16.0948174 71.6341651,16.1882087 71.7469587,16.2621217 C71.9339587,16.3744696 72.158673,16.4304696 72.364181,16.4304696 C72.7200222,16.4304696 72.9445619,16.2443826 73.0568317,16.0948174 C73.1876095,15.9269913 73.3185619,15.535687 73.4124984,15.2934261 L73.5623079,14.7713391 L70.8110857,7.94890435 L72.1021016,7.94890435 L73.7489587,12.0311652 C73.9179746,12.4221217 74.0862921,13.019513 74.1238317,13.1869913 L74.1795302,13.1869913 C74.3855619,12.4038609 74.479673,12.1424696 74.6479905,11.6582957 L75.8267365,7.94855652 L76.8933873,7.94855652 Z"></path>
		<path d="M26.5311095,14.0812696 L26.5686492,14.0254435 L26.6248714,14.0812696 C27.0550937,14.4355304 27.4856651,14.6033565 28.0658714,14.6033565 C29.3568873,14.6033565 30.1995222,13.6892696 30.1995222,12.3099652 L30.1995222,5.76718261 L28.8893,5.76718261 L28.8893,12.3099652 C28.8893,13.2419652 28.2528714,13.2986609 28.0658714,13.2986609 C27.8973794,13.2986609 27.6728397,13.2797043 27.504173,13.1118783 C27.3169984,12.9444 27.2235857,12.6645739 27.2235857,12.310487 L27.2235857,5.76753043 L25.9133635,5.76753043 L25.9133635,12.310487 C25.9133635,13.242313 25.2772841,13.2988348 25.071427,13.2988348 C24.9216175,13.2988348 24.6969032,13.2800522 24.5285857,13.1122261 C24.3412365,12.9447478 24.2478238,12.6649217 24.2478238,12.3106609 L24.2478238,5.76787826 L22.9377762,5.76787826 L22.9377762,12.3106609 C22.9377762,13.0195304 23.1623159,13.6157043 23.5742048,14.0257913 C23.9483794,14.3986609 24.4912206,14.6035304 25.071427,14.6035304 C25.6516333,14.6033565 26.1193952,14.4170957 26.5311095,14.0812696"></path>
		<path d="M32.5200508,10.4839652 C32.5200508,9.73787826 32.7445905,9.32813913 32.9507968,9.10396522 C33.1191143,8.91787826 33.4183841,8.67526957 33.9236857,8.67526957 C34.2608444,8.67526957 34.5973048,8.76866087 34.8410508,9.01092174 C35.2710984,9.4024 35.2710984,9.90570435 35.2710984,10.3716174 L35.2710984,10.632487 L32.5200508,10.632487 L32.5200508,10.4839652 Z M36.2069714,13.1867478 C36.0014635,13.2796174 35.7580667,13.3917913 35.4584476,13.4848348 C35.1031302,13.5971826 34.8218444,13.6526609 34.448019,13.6526609 C33.830273,13.6526609 33.2685746,13.4477913 32.968781,13.1121391 C32.7630984,12.8886609 32.5198762,12.4415304 32.5198762,11.6584 L32.5198762,11.4905739 L36.5249238,11.4905739 L36.5249238,11.192487 C36.5249238,10.148487 36.4873841,9.29057391 35.8511302,8.6010087 C35.4209079,8.15370435 34.7656222,7.83683478 33.9235111,7.83683478 C33.0440349,7.83683478 32.3702413,8.22831304 31.958527,8.67561739 C31.2658762,9.45874783 31.2100032,10.4655304 31.2100032,11.0989217 C31.2100032,11.8260522 31.3037651,12.9076174 31.9775587,13.6533565 C32.4266381,14.1378783 33.1751619,14.5848348 34.2606698,14.5848348 C34.7472889,14.5848348 35.2524159,14.5102261 35.7950825,14.3055304 C36.0754952,14.2121391 36.3752889,14.0446609 36.5813206,13.932487 L36.2069714,13.1867478 Z"></path>
		<path d="M40.062,8.67528696 C40.5302857,8.67528696 41.0170794,8.82450435 41.3163492,9.14172174 C41.7278889,9.58902609 41.7278889,10.2599826 41.7278889,10.8378957 L41.7278889,11.3970261 C41.7278889,12.4970261 41.5408889,12.9443304 41.3723968,13.1867652 C41.1852222,13.4295478 40.7925397,13.727287 40.1183968,13.727287 C39.8748254,13.727287 39.5755556,13.6525043 39.3508413,13.5970261 C39.182873,13.5406783 38.9766667,13.4290261 38.8086984,13.335287 L38.8086984,9.0665913 M42.083381,8.48902609 C41.6152698,8.07876522 40.9601587,7.83650435 40.2868889,7.83650435 C39.9870952,7.83650435 39.6694921,7.89233043 39.4446032,7.92989565 C39.2577778,7.98554783 39.0140317,8.07876522 38.8085238,8.15354783 L38.8085238,5.59963478 L37.6290794,5.59963478 L37.6290794,13.8945913 C38.3215556,14.3046783 39.1453333,14.5845043 40.0808571,14.5845043 C40.7729841,14.5845043 41.709381,14.4361565 42.3826508,13.559287 C42.9254921,12.8318087 43.0379365,11.9187652 43.0379365,11.1732 C43.0379365,10.4648522 42.9818889,9.25354783 42.083381,8.48902609"></path>
	</symbol>
	<symbol width="9" width="19" id="fb" viewBox="0 0 9 19">
		<path d="M1.97916667,3.95833333 L1.97916667,6.33333333 L0,6.33333333 L0,9.5 L1.97916667,9.5 L1.97916667,19 L5.9375,19 L5.9375,9.5 L8.3125,9.5 C8.34290522,9.49472222 8.58600562,7.961 8.70833333,6.33333333 L5.9375,6.33333333 L5.9375,3.95833333 C5.9375,3.16666667 6.72916667,3.16666667 6.72916667,3.16666667 L8.70833333,3.16666667 L8.70833333,0 L5.9375,0 C1.78696939,0 1.97916667,2.8032074 1.97916667,3.55665334"></path>
	</symbol>
	<symbol width="19" width="13" id="yt" viewBox="0 0 19 13">
		<path d="M7.3872,9.49105291 L7.3872,3.87836243 L12.8953,6.68518519 L7.3872,9.49105291 Z M18.8176,2.67884921 C18.70265,1.38669841 17.68045,0.363865079 16.3951,0.254037037 C14.90645,0.128928571 12.69865,0 9.975,0 C6.6956,0 4.2199,0.13465873 2.6182,0.260722222 C1.32715,0.364820106 0.2983,1.39051852 0.18335,2.68744444 C0.08455,3.72460317 0,5.09315608 0,6.7252963 C0,8.3173254 0.08455,9.66104762 0.1824,10.684836 C0.2983,11.9808069 1.32715,13.0055503 2.61725,13.1086931 C4.218,13.2347566 6.69465,13.3703704 9.975,13.3703704 C12.69865,13.3703704 14.90645,13.2404868 16.3951,13.1163333 C17.68045,13.0055503 18.70265,11.9827169 18.8176,10.6915212 C18.9145,9.66009259 19,8.30013492 19,6.68518519 C19,5.06928042 18.9145,3.70932275 18.8176,2.67884921 L18.8176,2.67884921 Z"></path>
	</symbol>
	<symbol width="19" width="11" id="vkm" viewBox="0 0 19 11">
		<path d="M16.8465761,4.63339632 C17.1163441,4.2769326 17.3306841,3.98997513 17.4895961,3.77419873 C18.6309223,2.22356762 19.1248599,1.23261524 18.9733202,0.800783318 L18.9135234,0.699175807 C18.874205,0.639439523 18.7718133,0.58361122 18.6074405,0.532528322 C18.4422485,0.48228285 18.230912,0.474746029 17.9739771,0.507405586 L15.1250302,0.528062058 C15.0589534,0.521641803 14.9928766,0.522758369 14.927892,0.532528322 C14.8615422,0.543414842 14.8189472,0.553184795 14.7987419,0.562954748 C14.7785366,0.573841267 14.762427,0.581657229 14.7495939,0.588077484 L14.7102755,0.618503909 C14.6772371,0.639439523 14.6409222,0.674332212 14.6013307,0.725415109 C14.5620123,0.775660582 14.5278817,0.834559441 14.5022156,0.902111688 C14.1917639,1.71776319 13.8398095,2.47674897 13.4430757,3.17767332 C13.2000661,3.59526902 12.9748043,3.95843213 12.7711131,4.26492952 C12.5663296,4.57114776 12.3945846,4.79808981 12.2569702,4.94212683 C12.1185366,5.08700128 11.992663,5.20368243 11.8807148,5.29105373 C11.7684935,5.37926244 11.6833035,5.41638827 11.6235068,5.40215205 C11.56371,5.3890324 11.508282,5.37591275 11.4550383,5.36195567 C11.3632953,5.30194024 11.2887542,5.21903521 11.2330531,5.11435715 C11.1765329,5.00967908 11.1393988,4.87876171 11.1189204,4.71965104 C11.0998073,4.56137781 11.0869742,4.42515675 11.0847899,4.30959216 C11.0806942,4.19514414 11.0828786,4.03380034 11.0891586,3.82444421 C11.0957117,3.61620464 11.0998073,3.47440075 11.0998073,3.4001491 C11.0998073,3.14389719 11.104176,2.86587224 11.1137326,2.56607426 C11.1243813,2.2651597 11.1317535,2.02733113 11.1393988,1.85286769 C11.1456788,1.67728767 11.1489554,1.49193771 11.1489554,1.29570122 C11.1489554,1.10058131 11.1372144,0.947890896 11.1137326,0.835676008 C11.0913429,0.725415109 11.0561202,0.617387343 11.0102487,0.512709275 C10.9643772,0.408031207 10.8961161,0.327359309 10.8076497,0.269577015 C10.718091,0.212911288 10.6080541,0.16713208 10.4759005,0.133355956 C10.1261304,0.0526840584 9.68134086,0.00913798213 9.14071263,0.00132201972 C7.91392344,-0.01151849 7.12591685,0.0691534078 6.77587373,0.244454279 C6.63744014,0.318705922 6.51265877,0.420034292 6.40043746,0.547601964 C6.28111699,0.697221816 6.26500736,0.777893714 6.35047031,0.791013365 C6.74611187,0.850749649 7.02652863,0.997019803 7.19199363,1.22591585 L7.25069821,1.34706326 C7.29766187,1.43527198 7.34353336,1.59019552 7.3891318,1.81267131 C7.43500329,2.0351471 7.46503819,2.28023335 7.47896346,2.55072147 C7.51200185,3.04256882 7.51200185,3.46351423 7.47896346,3.81467425 C7.44592507,4.16555514 7.41479799,4.4382764 7.38503613,4.63339632 C7.35527428,4.8296328 7.31022192,4.98790604 7.25179039,5.10877432 C7.19199363,5.2310383 7.15240217,5.3050108 7.13219687,5.3312501 C7.11199158,5.35860597 7.09588195,5.37591275 7.08304885,5.38261214 C6.99676677,5.4152717 6.90830034,5.43257847 6.81546519,5.43257847 C6.72372222,5.43257847 6.61177395,5.3856827 6.47934734,5.29105373 C6.34719377,5.19726218 6.21067149,5.06746137 6.06896137,4.90165131 C5.9269782,4.73695782 5.76697409,4.50582864 5.58894904,4.20826379 C5.41065094,3.91265293 5.22634587,3.5614929 5.03521468,3.15701684 L4.87739492,2.86363911 C4.77827975,2.67521859 4.64284965,2.4002642 4.47110462,2.03933422 C4.29935959,1.67840424 4.14781987,1.33059391 4.01675848,0.992553539 C3.96351479,0.850749649 3.88460491,0.744117591 3.77893667,0.668749382 L3.72978865,0.639439523 C3.69675026,0.612083654 3.64350657,0.58361122 3.57087672,0.553184795 C3.49824686,0.522758369 3.42261352,0.50070619 3.34370364,0.486749114 L0.633463372,0.507405586 C0.356323147,0.507405586 0.168468492,0.571608135 0.0693533175,0.699175807 L0.0297618567,0.760307799 C0.00955655949,0.794083922 0,0.848795659 0,0.921651594 C0,0.997019803 0.0202052972,1.08746165 0.059796758,1.19548942 C0.455438321,2.14624542 0.885210454,3.0632253 1.35020533,3.94531248 C1.81520021,4.8296328 2.2195792,5.54060624 2.56197708,6.08046593 C2.90546713,6.62004648 3.25523721,7.12836318 3.61156036,7.60681173 C3.96761046,8.08553943 4.20352095,8.39315338 4.31847271,8.52714131 C4.43369752,8.66252494 4.52434831,8.76357417 4.59042509,8.83028899 L4.83807651,9.07342125 C4.99589626,9.23588161 5.22825718,9.42904754 5.53461317,9.65571045 C5.8417883,9.88153594 6.18090964,10.1040117 6.55416155,10.3217421 C6.92632128,10.5419848 7.36046212,10.720077 7.85439973,10.8585312 C8.34915646,10.9967063 8.83026097,11.0525346 9.29962457,11.0254579 L10.4363091,11.0254579 C10.6678508,11.0056388 10.8417802,10.9316663 10.9611007,10.8029821 L11.0006922,10.7524575 C11.0263583,10.7122611 11.0517515,10.6502917 11.0741411,10.5651535 C11.097623,10.4811319 11.1093639,10.3884569 11.1093639,10.2882451 C11.1030839,9.99821709 11.1243813,9.73638235 11.1735294,9.50413661 C11.2224043,9.2707743 11.2789246,9.09631086 11.3419979,8.97767571 C11.4047981,8.85987799 11.4752436,8.76050361 11.5541535,8.67983172 C11.6330634,8.59804325 11.6893105,8.55003091 11.722622,8.53272414 C11.7556604,8.51625479 11.7824187,8.5042517 11.8015318,8.49783145 C11.9596246,8.44339885 12.1461141,8.49531917 12.360454,8.65359241 C12.574794,8.81298222 12.776574,9.007823 12.9641556,9.24006874 C13.1520102,9.47343104 13.3780911,9.73442836 13.6415791,10.0244564 C13.9058862,10.3144844 14.1363358,10.5302608 14.3348392,10.6720647 L14.5319774,10.7932121 C14.664404,10.873884 14.8350569,10.9478565 15.0461203,11.0154088 C15.2574568,11.0832402 15.4428541,11.1002678 15.6009469,11.0664917 L18.132889,11.0254579 C18.3835439,11.0254579 18.5787708,10.9838658 18.7163852,10.8987276 C18.8548188,10.8161017 18.9380974,10.7223102 18.9637636,10.6207027 C18.990522,10.5202117 18.9924333,10.4060428 18.9689515,10.2773586 C18.9454696,10.1497909 18.92308,10.0604656 18.8998712,10.0102202 C18.8763894,9.95885814 18.8548188,9.91754519 18.8357057,9.88376907 C18.5050488,9.27635713 17.8759541,8.53132843 16.9454183,7.64840382 L16.9063729,7.6079283 L16.8968163,7.6079283 C16.4744164,7.19703199 16.2076519,6.92012361 16.0957036,6.77831972 C15.8909202,6.50894815 15.8450487,6.23622689 15.956997,5.95931851 C16.0359068,5.74996238 16.3324332,5.3083605 16.8465761,4.63339632"></path>
	</symbol>
	<symbol width="19" width="19" id="insta" viewBox="0 0 48 48">
		<path d="M23.992381,0 C17.4764762,0 16.6593333,0.0276190476 14.100381,0.144380952 C11.5465714,0.260857143 9.80257143,0.66647619 8.27638095,1.25961905 C6.6987619,1.87266667 5.36066667,2.69304762 4.02685714,4.02685714 C2.69304762,5.3607619 1.87266667,6.6987619 1.25952381,8.27647619 C0.666380952,9.80257143 0.260857143,11.5466667 0.144285714,14.100381 C0.0275238095,16.6594286 0,17.476381 0,23.992381 C0,30.508381 0.0275238095,31.3254286 0.144285714,33.8844762 C0.260857143,36.4381905 0.666380952,38.1822857 1.25952381,39.708381 C1.87266667,41.286 2.69304762,42.6240952 4.02685714,43.958 C5.36066667,45.2918095 6.6987619,46.1120952 8.27638095,46.7253333 C9.80257143,47.318381 11.5465714,47.724 14.100381,47.8405714 C16.6593333,47.9572381 17.4764762,47.9848571 23.992381,47.9848571 C30.508381,47.9848571 31.3253333,47.9572381 33.884381,47.8405714 C36.4381905,47.724 38.1821905,47.318381 39.708381,46.7253333 C41.2860952,46.1120952 42.6240952,45.2918095 43.9579048,43.958 C45.2918095,42.6240952 46.1120952,41.2860952 46.7252381,39.708381 C47.318381,38.1822857 47.724,36.4381905 47.840381,33.8844762 C47.9572381,31.3254286 47.9848571,30.508381 47.9848571,23.992381 C47.9848571,17.4764762 47.9572381,16.6594286 47.840381,14.100381 C47.724,11.5466667 47.318381,9.80257143 46.7252381,8.27647619 C46.1120952,6.6987619 45.2918095,5.3607619 43.9579048,4.02685714 C42.6240952,2.69304762 41.2860952,1.87266667 39.708381,1.25961905 C38.1821905,0.66647619 36.4381905,0.260857143 33.884381,0.144380952 C31.3253333,0.0276190476 30.508381,0 23.992381,0 M23.992381,4.32295238 C30.3986667,4.32295238 31.1574286,4.34733333 33.6873333,4.4627619 C36.0265714,4.56952381 37.2969524,4.96038095 38.142381,5.28895238 C39.2622857,5.72419048 40.061619,6.24409524 40.9011429,7.08361905 C41.7406667,7.9232381 42.2605714,8.72247619 42.6959048,9.84238095 C43.024381,10.6878095 43.4152381,11.9582857 43.522,14.2974286 C43.6373333,16.8273333 43.6618095,17.5861905 43.6618095,23.992381 C43.6618095,30.3986667 43.6373333,31.1575238 43.522,33.6873333 C43.4152381,36.0266667 43.024381,37.2970476 42.6959048,38.1424762 C42.2605714,39.2622857 41.7406667,40.061619 40.9011429,40.9011429 C40.061619,41.7407619 39.2622857,42.2606667 38.142381,42.6959048 C37.2969524,43.024381 36.0265714,43.4153333 33.6873333,43.522 C31.1578095,43.6374286 30.3991429,43.6619048 23.992381,43.6619048 C17.585619,43.6619048 16.8269524,43.6374286 14.2974286,43.522 C11.9581905,43.4153333 10.6877143,43.024381 9.84228571,42.6959048 C8.72247619,42.2606667 7.92314286,41.7407619 7.08371429,40.9011429 C6.24409524,40.061619 5.72409524,39.2622857 5.28885714,38.1424762 C4.96038095,37.2970476 4.56952381,36.0266667 4.4627619,33.6874286 C4.34733333,31.1575238 4.32295238,30.3986667 4.32295238,23.992381 C4.32295238,17.5861905 4.34733333,16.8273333 4.4627619,14.2974286 C4.56952381,11.9582857 4.96038095,10.6878095 5.28885714,9.84238095 C5.72409524,8.72247619 6.24409524,7.9232381 7.08361905,7.08371429 C7.92314286,6.24409524 8.72247619,5.72419048 9.84228571,5.28895238 C10.6877143,4.96038095 11.9581905,4.56952381 14.2973333,4.4627619 C16.8273333,4.34733333 17.5860952,4.32295238 23.992381,4.32295238"></path>
		<path d="M24.0000464,31.7894786 C19.6980625,31.7894786 16.2105214,28.3019375 16.2105214,23.9999536 C16.2105214,19.6979697 19.6980625,16.2105214 24.0000464,16.2105214 C28.3020303,16.2105214 31.7895713,19.6979697 31.7895713,23.9999536 C31.7895713,28.3019375 28.3020303,31.7894786 24.0000464,31.7894786 M24.0000464,12 C17.3726331,12 12,17.3725404 12,23.9999536 C12,30.6274596 17.3726331,36 24.0000464,36 C30.6274596,36 36,30.6274596 36,23.9999536 C36,17.3725404 30.6274596,12 24.0000464,12"></path>
		<path d="M40,12.0000496 C40,13.6569193 38.6569193,15 37.0000496,15 C35.3431799,15 34,13.6569193 34,12.0000496 C34,10.3431799 35.3431799,9 37.0000496,9 C38.6569193,9 40,10.3431799 40,12.0000496"></path>
	</symbol>
	<symbol width="20" width="20" id="star" viewBox="0 0 20 20">
		<g transform="translate(-1073.000000, -2362.000000)">
		    <g transform="translate(104.000000, 2302.000000)">
		        <g transform="translate(959.000000, 50.000000)">
		            <g>
		                <g id="Icon/Favorite" transform="translate(8.000000, 8.000000)">
		                    <path d="M11.9745,2.5002 L8.8925,8.7452 L2,9.7467 L6.9875,14.6077 L5.8105,21.4717 L11.9745,18.2307 L18.1385,21.4717 L16.9615,14.6077 L21.9485,9.7467 L15.0565,8.7452 L11.9745,2.5002 Z M8.0615,14.2582 L4.1495,10.4447 L9.556,9.6592 L11.9745,4.7597 L14.3925,9.6592 L19.799,10.4447 L15.887,14.2582 L16.81,19.6437 L11.9745,17.1012 L7.1385,19.6437 L8.0615,14.2582 Z"></path>
		                </g>
		            </g>
		        </g>
		    </g>
		</g>
	</symbol>
</svg>