<?xml version="1.0" encoding="UTF-8"?>
<svg width="172px" height="118px" viewBox="0 0 172 118" version="1.1" xmlns="http://www.w3.org/2000/svg" xmlns:xlink="http://www.w3.org/1999/xlink">
    <!-- Generator: sketchtool 46.2 (44496) - http://www.bohemiancoding.com/sketch -->
    <title>820F4170-4D81-4D5B-8C05-6BD82580761A</title>
    <desc>Created with sketchtool.</desc>
    <defs>
        <filter x="-125.0%" y="-125.0%" width="350.1%" height="350.1%" filterUnits="objectBoundingBox" id="filter-1">
            <feGaussianBlur stdDeviation="15.0055804" in="SourceGraphic"></feGaussianBlur>
        </filter>
        <filter x="-125.0%" y="-125.0%" width="350.1%" height="350.1%" filterUnits="objectBoundingBox" id="filter-2">
            <feGaussianBlur stdDeviation="15.0055804" in="SourceGraphic"></feGaussianBlur>
        </filter>
    </defs>
    <g id="Поп-апы-и-Модальные-окна" stroke="none" stroke-width="1" fill="none" fill-rule="evenodd">
        <g id="modal-Подробнее-(Подписка)" transform="translate(-903.000000, -357.000000)">
            <g id="4" transform="translate(896.000000, 325.000000)">
                <g id="StoneBox" transform="translate(10.000000, 33.000000)">
                    <polygon id="Path-29" fill="#000000" points="16.9536199 55.73059 70.6597647 42.8850212 74.7948871 68.2525561 32.4079712 58.9662332"></polygon>
                    <path d="M32.0334407,17.0017925 L26.0550931,34.4027206 C26.0550931,34.4027206 20.7994366,61.1904264 53.6530226,56.0499751 C86.5066087,50.9095238 68.4049382,37.6076906 68.4049382,37.6076906 L53.0690608,19.306503 L44.168611,14.5417988 L32.6449191,15.6138285 L32.0334407,17.0017925 Z" id="Path-31" fill="#DBD9CE"></path>
                    <polygon id="Path-33" fill="#CBC8B9" points="70.7694486 42.8719851 50.9567852 18.6888207 86.9292931 21.0104014 103.747623 45.4972309 98.7789795 47.8115267"></polygon>
                    <path d="M98.9111328,47.4550781 L70.6204008,42.7469917 L70.6204008,67.660105 L93.7197604,76.5473666 L107.667582,70.5277436 C107.667582,70.5277436 109.524565,57.6557191 109.011306,57.2013718 C108.498046,56.7470244 98.9111328,47.4550781 98.9111328,47.4550781 Z" id="Path-32" fill="#A7A597"></path>
                    <polygon id="Path-24" fill="#575757" points="19.6834886 96.3423409 17.00354 55.6759033 95.5098633 71.2800047 97.6630315 116.996166"></polygon>
                    <path d="M2.3660391,12.3011188 L34.3903076,17.0888279 C34.3903076,17.0888279 39.3571957,15.0616493 42.0586285,15.3320181 C44.7600612,15.602387 44.8756329,18.138236 44.8756329,18.138236 L82.6466515,23.2004706 L110.692489,10.1470906 L33.251047,0.346224177 L2.3660391,12.3011188 Z" id="Path-25" fill="#6E6E6E"></path>
                    <path d="M105.069181,67.0363622 C105.069181,67.0363622 92.5361676,57.1929366 100.213278,43.142293 C107.890389,29.0916494 120.376778,26.9525745 120.376778,26.9525745 L143.142117,54.099924 L105.069181,67.0363622 Z" id="Path-27" fill="#000000"></path>
                    <path d="M82.643212,23.1571446 C82.643212,23.1571446 100.694053,54.3280562 122.280768,51.1315213 C143.867483,47.9349865 110.582614,10.2021108 110.582614,10.2021108 L82.643212,23.1571446 Z" id="Path-26" fill="#212121"></path>
                    <path d="M93,70.8178282 L142.872558,54.0146448 C142.872558,54.0146448 147.355076,53.623561 147.498774,56.8833594 C147.642471,60.1431578 148.527344,96.5200195 148.527344,96.5200195 L97.1505049,117.054668 L94.8313777,71.8810393 L93,70.8178282 Z" id="Path-28" fill="#131313"></path>
                    <path d="M2.80783222,12.3463618 C2.80783222,12.3463618 -4.71640907,28.4708997 7.14436035,29.4302053 C19.0051298,30.3895108 26.0936927,15.6402842 26.0936927,15.6402842 L2.80783222,12.3463618 Z" id="Path-30" fill="#DBD9CE"></path>
                    <g id="Page-1" transform="translate(38.351923, 69.100671)">
                        <path d="M7.49294827,28.3099168 L7.16656558,28.2368899 L6.98967712,28.7472926 C6.94193288,28.8972725 6.89888481,29.0558899 6.86601173,29.1956617 L6.85975019,29.1940913 C6.82374635,29.0315477 6.77600212,28.8603664 6.71730019,28.6860443 L6.51849635,28.0924067 L6.18585212,28.0178094 L6.13732519,29.3746953 L6.37291558,29.427306 L6.38778673,28.8807826 C6.39326558,28.6946819 6.39170019,28.4795275 6.39717904,28.2997087 C6.43944442,28.4763866 6.49345019,28.6766215 6.55215212,28.8642926 L6.75878288,29.5003329 L6.95132519,29.5435208 L7.13604058,28.9875745 C7.1947425,28.8266013 7.24326942,28.6562054 7.28553481,28.4983732 L7.29101365,28.4991584 C7.29727519,28.6884 7.31371173,28.9004134 7.32545212,29.0833732 L7.36928288,29.6503128 L7.61504827,29.7052792 L7.49294827,28.3099168" id="Fill-1" fill="#FFFFFF"></path>
                        <path d="M8.69297212,28.5779174 L8.37128558,28.5064611 L7.96898173,29.7840383 L8.23118365,29.8429309 L8.33762981,29.4777966 L8.7759375,29.575951 L8.91682212,29.9960517 L9.18528558,30.0557295 L8.69297212,28.5779174 M8.37441635,29.2979779 L8.47147019,28.9846691 C8.49025481,28.9085013 8.50903942,28.8119174 8.52782404,28.7420315 L8.53330288,28.743602 C8.55678365,28.8229107 8.58104712,28.9218503 8.61078942,29.0160785 L8.72819327,29.3772866 L8.37441635,29.2979779" id="Fill-3" fill="#FFFFFF"></path>
                        <polygon id="Fill-5" fill="#FFFFFF" points="10.3050052 28.9383403 9.51213788 28.7608772 9.55440327 30.1381792 9.81190904 30.1962866 9.77590519 29.027857 10.3120494 29.147998"></polygon>
                        <path d="M11.1893692,29.1357483 L10.8676827,29.0642919 L10.4653788,30.3418691 L10.7275808,30.4007617 L10.8340269,30.0356275 L11.2723346,30.1337819 L11.4132192,30.5538826 L11.6871615,30.6151309 L11.1893692,29.1357483 M10.8708135,29.8558087 L10.9678673,29.5425 C10.9858692,29.4663322 11.0046538,29.3697483 11.0234385,29.2998624 L11.0289173,29.3014329 C11.0523981,29.3807416 11.0766615,29.4796812 11.1071865,29.5739094 L11.2245904,29.9351174 L10.8708135,29.8558087" id="Fill-7" fill="#FFFFFF"></path>
                        <path d="M12.3993333,29.3861597 C12.2216621,29.346898 12.0893871,29.3641732 11.9946813,29.4034349 L12.064341,29.5934617 C12.1441756,29.5706899 12.2545352,29.5549852 12.3625467,29.5793275 C12.501866,29.6107369 12.5895275,29.6971128 12.5926583,29.811757 C12.5965717,29.9334685 12.4760371,29.9868644 12.3155852,29.9507436 L12.2083563,29.9271866 L12.2138352,30.1164282 L12.321064,30.1399852 C12.4768198,30.1745356 12.654491,30.2616966 12.6599698,30.436804 C12.6638833,30.5647973 12.5597852,30.6291866 12.3828967,30.5899248 C12.2592313,30.5624416 12.1238256,30.4847034 12.054166,30.4352336 L12.0001602,30.6119114 C12.115216,30.7037839 12.260014,30.7634617 12.3993333,30.7940859 C12.656839,30.8521933 12.9370429,30.8074349 12.9284333,30.5106161 C12.9221717,30.3213745 12.768764,30.1596161 12.585614,30.0983678 C12.7452833,30.0936564 12.8595563,29.998643 12.8540775,29.8298174 C12.847816,29.620945 12.6724929,29.4474081 12.3993333,29.3861597" id="Fill-9" fill="#FFFFFF"></path>
                        <path d="M14.3973119,29.8531389 L14.13511,29.7942463 L13.7899427,30.3274208 C13.7030638,30.4624812 13.6177504,30.6108906 13.5527869,30.7506624 L13.5473081,30.7490919 C13.5520042,30.5629913 13.5512215,30.3611859 13.54496,30.1452463 L13.5300888,29.6591859 L13.2944985,29.6065752 L13.3367638,30.9838772 L13.6200985,31.0474812 L13.9511773,30.5441456 C14.0372735,30.4161523 14.1225869,30.2614611 14.1828542,30.1201188 L14.1875504,30.120904 C14.1773754,30.2936557 14.1828542,30.475045 14.1891158,30.6917698 L14.2039869,31.1778302 L14.44036,31.2304409 L14.3973119,29.8531389" id="Fill-11" fill="#FFFFFF"></path>
                        <polygon id="Fill-13" fill="#FFFFFF" points="15.9565915 30.2013121 15.7045646 30.1455604 15.7217838 30.699151 15.1324165 30.5672315 15.1151973 30.0136409 14.8639531 29.957104 14.9054358 31.334406 15.1574627 31.390943 15.1386781 30.7831711 15.7280454 30.9150906 15.74683 31.5228624 15.9988569 31.5786141"></polygon>
                        <path d="M18.1043775,30.6817188 L17.7983448,30.6134034 L17.3936929,31.1065309 L17.3506448,31.0963228 L17.3334256,30.5089671 L17.0860948,30.4540007 L17.1291429,31.8313027 L17.3749083,31.8862691 L17.3569063,31.2855644 L17.4156083,31.2989134 C17.6136294,31.3428866 17.6926813,31.4818732 17.7513833,31.6624772 C17.7920833,31.7716248 17.8273044,31.8933362 17.8789621,31.999343 L18.1521217,32.059806 C18.0840275,31.9176785 18.0362833,31.7661282 17.978364,31.6122221 C17.9141833,31.4237658 17.8249563,31.2698597 17.619891,31.1897658 L18.1043775,30.6817188" id="Fill-15" fill="#FFFFFF"></path>
                        <path d="M19.1805794,30.9220792 L18.8596756,30.8506228 L18.4573717,32.1282 L18.7140948,32.1855221 L18.8252371,31.8219584 L19.2643275,31.9201128 L19.3997333,32.3394282 L19.6728929,32.3998913 L19.1805794,30.9220792 M18.8573275,31.6413544 L18.9543813,31.3272604 C18.9778621,31.2518779 18.9966467,31.1560792 19.0154313,31.0861933 C19.0389121,31.165502 19.0686544,31.2660121 19.0991794,31.359455 L19.2158006,31.7214483 L18.8573275,31.6413544" id="Fill-17" fill="#FFFFFF"></path>
                        <path d="M21.3826842,31.4144215 L21.0555188,31.3413946 L20.8794131,31.8517973 C20.8316688,32.0017772 20.7878381,32.1596094 20.754965,32.3001664 L20.7494862,32.298596 C20.7134823,32.1360523 20.6649554,31.9648711 20.6070362,31.790549 L20.4129285,31.1976966 L20.0755881,31.1223141 L20.0270612,32.4792 L20.2618688,32.5318107 L20.2775227,31.9852872 C20.2830015,31.7984013 20.2814362,31.5840322 20.286915,31.4042134 C20.3283977,31.5808913 20.3831862,31.7811262 20.4418881,31.9687973 L20.6477362,32.6048376 L20.8457573,32.6488107 L21.0257765,32.0920792 C21.0844785,31.931106 21.1330054,31.7607101 21.1752708,31.6028779 L21.1807496,31.6036631 C21.1870112,31.7929047 21.2034477,32.0041329 21.2144054,32.1878779 L21.2590188,32.7548174 L21.5047842,32.8097839 L21.3826842,31.4144215" id="Fill-19" fill="#FFFFFF"></path>
                        <polygon id="Fill-21" fill="#FFFFFF" points="22.9947173 31.7744517 22.7434731 31.7187 22.7599096 32.2722906 22.1705423 32.1403711 22.1541058 31.5867805 21.9020788 31.5302436 21.9443442 32.9075456 22.1955885 32.9640826 22.1775865 32.3563107 22.7669538 32.4882302 22.7849558 33.096002 23.0369827 33.1517537"></polygon>
                        <polygon id="Fill-23" fill="#FFFFFF" points="24.2696448 32.0597275 23.4611237 31.8791235 23.503389 33.2564255 24.3440006 33.4440966 24.337739 33.2352242 23.7538506 33.1040899 23.7413275 32.6989087 24.2610352 32.8151235 24.2547737 32.6125329 23.735066 32.4971034 23.724891 32.1453181 24.2759063 32.2693852"></polygon>
                        <path d="M25.5300142,32.0393899 L25.3476469,31.9985577 C25.3445162,32.0723698 25.31947,32.1202691 25.2443315,32.102994 C25.1637142,32.0849336 25.1410162,32.0260409 25.1331892,31.9506584 L24.9516046,31.9098262 C24.9719546,32.0692289 25.0658777,32.1705242 25.2427662,32.2097859 C25.4243508,32.2506181 25.5182738,32.1909403 25.5300142,32.0393899 M25.8016085,32.4021685 L25.5448854,32.3448463 L25.1934565,32.8764503 C25.1128392,33.012296 25.0220469,33.1599201 24.9570835,33.2989067 L24.9516046,33.2981215 C24.9563008,33.1112356 24.9555181,32.9102154 24.9492565,32.6942758 L24.9336027,32.2082154 L24.7034912,32.1563899 L24.7457565,33.5336919 L25.024395,33.5957255 L25.36017,33.0947456 C25.44157,32.9651819 25.5268835,32.8097054 25.5918469,32.6699336 C25.5808892,32.8419 25.5863681,33.0240745 25.5934123,33.2407993 L25.6082835,33.7268597 L25.8438738,33.7794705 L25.8016085,32.4021685" id="Fill-25" fill="#FFFFFF"></path>
                        <path d="M30.9752829,27.6438805 L30.6332463,27.5669275 C30.5361925,27.5457262 30.4649675,27.6305315 30.468881,27.7585248 L30.5612387,30.7832497 C30.5651521,30.9049611 30.6426387,31.0227463 30.7389098,31.0447329 L31.0825117,31.1209007 C31.1787829,31.1428872 31.2507906,31.0510148 31.2468771,30.9300886 L31.1545194,27.9116456 C31.150606,27.7836523 31.071554,27.6650819 30.9752829,27.6438805 M28.2115963,27.0259007 L27.874256,26.9505181 C27.7717233,26.9277463 27.7051944,27.0133369 27.7098906,27.1421154 L27.8014656,30.1534913 C27.8061617,30.2814846 27.8789521,30.4055517 27.9697444,30.4251826 L29.2337925,30.7078671 C29.7699367,30.8280081 30.2027656,30.5288336 30.1785021,29.7797195 C30.155804,29.0298201 29.6994944,28.5319812 29.1641329,28.4126255 L28.4190098,28.2461557 L28.3900502,27.294451 C28.385354,27.1656725 28.3023887,27.0463168 28.2115963,27.0259007 M28.4683194,29.8527463 L28.4401425,28.9348067 L29.1852656,29.1012765 C29.3934617,29.1483906 29.4905156,29.3439141 29.4983425,29.6273839 C29.5077348,29.9179208 29.4224213,30.0663302 29.2126598,30.0192161 L28.4683194,29.8527463 M26.7330906,26.6953168 L25.757856,26.4778067 C25.2334521,26.3608067 24.730181,26.4291221 24.6143425,27.1680282 L24.333356,28.9285248 L24.1940367,28.8979007 C24.0977656,28.8759141 24.0257579,28.9607195 24.0296713,29.0824309 L24.0367156,29.3187866 C24.040629,29.440498 24.1181156,29.5645651 24.2151694,29.5865517 L26.8403194,30.1731221 C26.9311117,30.1935383 27.0085983,30.1103034 27.0046848,29.9885919 L26.9115444,26.9568 C26.907631,26.8350886 26.8238829,26.7157329 26.7330906,26.6953168 M25.0291694,29.0840013 L25.2843271,27.5253101 C25.3297233,27.2473369 25.4745213,27.0981423 25.7046329,27.1499678 L26.2454733,27.270894 L26.309654,29.3706121 L25.0291694,29.0840013 M23.2892444,25.9257866 L21.2057175,25.4601423 C21.1086637,25.4389409 21.036656,25.5229611 21.0405694,25.6446725 L21.1337098,28.6631154 C21.1376233,28.7911087 21.2151098,28.9159611 21.311381,28.9371624 L23.3847329,29.400451 C23.4817867,29.4224376 23.5530117,29.3305651 23.5490983,29.2096389 L23.542054,28.9732832 C23.5381406,28.8515718 23.4598713,28.7337866 23.369079,28.7133705 L21.7989983,28.3623705 L21.7778656,27.6470215 L23.132706,27.9501221 C23.224281,27.9705383 23.295506,27.8857329 23.2923752,27.7640215 L23.285331,27.5347329 C23.2814175,27.4130215 23.2023656,27.2881691 23.1115733,27.267753 L21.7567329,26.9646523 L21.7348175,26.2626523 L23.3095944,26.6144376 C23.4011694,26.6348537 23.4731771,26.5500483 23.468481,26.422055 L23.4614367,26.1927664 C23.458306,26.0639879 23.3800367,25.9462027 23.2892444,25.9257866 M19.3303867,25.0416121 L17.8628387,24.7133839 C17.7657848,24.6913973 17.6945598,24.7824846 17.6984733,24.904196 L17.790831,27.9226389 C17.7947444,28.0443503 17.8730137,28.1684174 17.9692848,28.190404 L19.522929,28.5374779 C20.031679,28.6513369 20.4707694,28.400847 20.4496367,27.7051289 C20.4394617,27.3816121 20.3283194,27.0549544 20.0762925,26.8240953 C20.253181,26.6686188 20.3111002,26.4872295 20.3032733,26.2445919 C20.2813579,25.5221758 19.7968713,25.1452631 19.3303867,25.0416121 M18.4185502,26.1786322 L18.3974175,25.4829141 L19.3609117,25.6980685 C19.5111887,25.7318336 19.6168521,25.8833839 19.6238963,26.1063906 C19.6309406,26.3286121 19.5323213,26.4275517 19.3820444,26.3937866 L18.4185502,26.1786322 M18.4639463,27.6501624 L18.4373348,26.8201691 L19.4665752,27.0494577 C19.6591175,27.0926456 19.7608675,27.2834577 19.7686944,27.5260953 C19.7757387,27.7758 19.6849463,27.9234242 19.4916213,27.8802362 L18.4639463,27.6501624 M16.8766463,24.4927329 L14.7931194,24.0270886 C14.7023271,24.0066725 14.6248406,24.0899074 14.628754,24.2116188 L14.7211117,27.2300617 C14.7250252,27.358055 14.8040771,27.4829074 14.9003483,27.5041087 L16.9729175,27.9681826 C17.0691887,27.9893839 17.1466752,27.8990819 17.1427617,27.7773705 L17.1349348,27.5418 C17.131804,27.4200886 17.048056,27.3007329 16.9572637,27.2803168 L15.3879656,26.9293168 L15.3660502,26.2139678 L16.7208906,26.5162832 C16.8116829,26.5366993 16.8891694,26.4534644 16.885256,26.3325383 L16.8782117,26.1024644 C16.8742983,25.980753 16.7913329,25.8551154 16.7005406,25.8346993 L15.3449175,25.5315987 L15.3230021,24.8295987 L16.8985617,25.1813839 C16.989354,25.2018 17.0660579,25.1185651 17.0629271,24.9905718 L17.0558829,24.760498 C17.0511867,24.6325047 16.9682213,24.513149 16.8766463,24.4927329 M13.651954,23.7718872 L13.3153963,23.6965047 C13.2238213,23.6760886 13.1471175,23.7593235 13.151031,23.888102 L13.1846867,24.9819342 L11.9464675,24.7055315 L11.9135944,23.6116993 C11.909681,23.4829208 11.8259329,23.3635651 11.7343579,23.343149 L11.3970175,23.2677664 C11.3007463,23.2465651 11.2240425,23.3298 11.227956,23.4577933 L11.3203137,26.4762362 C11.3242271,26.5979477 11.4071925,26.7235852 11.5042463,26.7447866 L11.8415867,26.8209544 C11.932379,26.8413705 12.0098656,26.7581356 12.0059521,26.6364242 L11.9676002,25.3871154 L13.2050367,25.6635181 L13.2433887,26.9128268 C13.2473021,27.0345383 13.3302675,27.1531087 13.4210598,27.1735248 L13.7591829,27.2496926 C13.855454,27.270894 13.9329406,27.1805919 13.9290271,27.0588805 L13.8366694,24.0412228 C13.832756,23.9132295 13.7482252,23.7938738 13.651954,23.7718872 M10.2558521,23.0133503 L9.52246942,22.8492362 C9.42619827,22.8272497 9.33775404,22.915196 9.30957712,23.0298403 L8.84387519,24.9835047 L8.24355019,22.7911289 C8.21380788,22.6639208 8.11362327,22.534357 8.01735212,22.5123705 L7.28318673,22.3482564 C7.18691558,22.327055 7.12038673,22.4197128 7.12430019,22.547706 L7.21744058,25.5520148 C7.22057135,25.6807933 7.29336173,25.8040752 7.39511173,25.826847 L7.71679827,25.8990886 C7.81306942,25.9202899 7.88507712,25.8292027 7.88116365,25.7004242 L7.80837327,23.3376523 L8.51905788,25.863753 C8.55427904,25.9854644 8.65368096,26.1079611 8.74525596,26.1283772 L9.00824058,26.1872698 C9.09903288,26.2076859 9.19217327,26.1283772 9.22113288,26.0208 L9.78545404,23.7797396 L9.85824442,26.1425114 C9.86137519,26.2705047 9.93964442,26.3961423 10.0359156,26.4173436 L10.3576021,26.4888 C10.4538733,26.5107866 10.5313598,26.4204846 10.5274463,26.2924913 L10.4350887,23.2881826 C10.4311752,23.159404 10.3474271,23.0329812 10.2558521,23.0133503 M6.16393673,22.0985517 L5.18948481,21.8802564 C4.66429827,21.7632564 4.15006942,21.822149 4.02327327,22.5586993 L3.63897135,24.7659946 C3.61627327,24.8814242 3.67262712,24.994498 3.76889827,25.0164846 L4.12815404,25.0965785 C4.21894635,25.1169946 4.31286942,25.0376859 4.3355675,24.9151893 L4.43966558,24.3349007 L5.7193675,24.6207262 L5.73893481,25.228498 C5.74284827,25.3572765 5.82033481,25.4750617 5.91660596,25.4970483 L6.26020788,25.5732161 C6.35100019,25.5936322 6.42300788,25.5088268 6.41909442,25.3871154 L6.32595404,22.3561087 C6.32282327,22.2414644 6.25472904,22.1189678 6.16393673,22.0985517 M4.54689442,23.6753034 L4.68386558,22.9340416 C4.73395788,22.6505718 4.9155425,22.5037329 5.14565404,22.5547732 L5.65988288,22.6702027 L5.6990175,23.9320752 L4.54689442,23.6753034 M2.91263288,21.3714242 L2.49467519,21.2787664 C2.40388288,21.2583503 2.30917712,21.3109611 2.24421365,21.4507329 L1.98670788,22.0569342 C1.8528675,22.3757396 1.70180788,22.4825315 1.49282904,22.4354174 L1.10148288,22.3482564 L1.06626173,21.186894 C1.06234827,21.0589007 0.984079038,20.9403302 0.887807885,20.9191289 L0.5504675,20.8437463 C0.459675192,20.8233302 0.382188654,20.9065651 0.386102115,21.0345584 L0.478459808,24.0459342 C0.482373269,24.1747128 0.565338654,24.3003503 0.656913654,24.3207664 L0.994254038,24.396149 C1.09052519,24.4181356 1.16253288,24.3333302 1.15861942,24.2116188 L1.12261558,23.0306255 L1.51317904,23.1177866 C1.74407327,23.1688268 1.88965404,23.4091087 2.03758288,23.731055 L2.37492327,24.4770282 C2.43753865,24.6183705 2.56355212,24.747149 2.65982327,24.7683503 L3.07308481,24.8610081 C3.16935596,24.8822094 3.19283673,24.787196 3.13022135,24.6458537 L2.65121365,23.5865718 C2.53694058,23.3462899 2.34518096,23.0015718 2.16672712,22.915196 C2.41092712,22.8892832 2.52676558,22.6804107 2.61677519,22.4786054 L2.97837904,21.6140617 C3.02768865,21.4915651 3.00890404,21.3934107 2.91263288,21.3714242" id="Fill-27" fill="#FFFFFF"></path>
                        <path d="M20.8185979,3.1513047 L9.33337096,0.584371812 C8.60546712,0.421828188 8.03331904,1.03823758 8.06149596,1.95696242 L8.50606519,16.4257007 C8.53424212,17.3444255 9.15178635,18.2262443 9.87969019,18.3895732 L21.3649171,20.956506 C22.0936037,21.1190497 22.6696652,20.5034255 22.642271,19.5854859 L22.1977017,5.11596242 C22.1703075,4.19802282 21.5472844,3.31463356 20.8185979,3.1513047" id="Fill-29" fill="#F4B619"></path>
                        <path d="M12.3654703,8.26513388 C12.3543832,8.650166 12.343296,9.41509648 12.3364732,9.96868711 C12.3364732,10.5162883 12.3219746,11.3975841 12.3219746,11.916094 C12.3142989,12.4405933 12.3100346,13.4331206 12.3083289,14.127034 C12.3057703,14.8132468 12.4354045,15.4566783 12.5889187,15.5413853 C12.7484028,15.6355043 13.1466868,15.7681265 13.4793008,15.842566 C13.8059448,15.9161499 14.2724572,15.9760438 14.5155213,15.9717657 C14.7585854,15.9751882 14.9206281,15.6021348 14.8899253,15.1572088 C14.8523996,14.7028709 14.7730839,13.7864945 14.7048554,13.1062711 C14.6434498,12.4277589 14.5863084,11.3043208 14.5820441,10.601851 L14.5794855,9.93617329 C14.5752213,9.2345592 14.256253,8.49786441 13.8801433,8.30449272 C13.5023279,8.11026541 13.0136412,7.8621336 12.7901928,7.76116962 C12.7705771,7.75090209 12.7492557,7.74405708 12.7304928,7.73977894 C12.5343359,7.69614197 12.3757046,7.91603809 12.3654703,8.26513388 Z" id="Fill-31" fill="#FFFFFF"></path>
                        <path d="M17.7816747,9.09686849 C17.7632215,9.0928439 17.743966,9.09123406 17.7255128,9.09203898 C17.5177139,9.09364882 17.0611982,9.12182097 16.7121923,9.14677345 C16.3639888,9.17253085 16.1088535,9.74080341 16.1457599,10.4088859 L16.1818639,11.0423569 C16.2187703,11.7112442 16.228398,12.7576385 16.2043287,13.3782308 C16.1850732,13.998823 16.1610038,14.8391581 16.1529807,15.2569109 C16.1433529,15.6674194 16.3262801,16.0924164 16.5525322,16.1914214 C16.7844005,16.2984756 17.2304861,16.4393363 17.5377717,16.5085594 C17.8514758,16.5777824 18.2229464,16.6196381 18.3641534,16.5962955 C18.5109766,16.581002 18.5976263,16.0231934 18.5502899,15.3663798 C18.5133835,14.7055416 18.4459893,13.7557376 18.4138968,13.2534684 C18.3769904,12.7568336 18.3184216,11.9124739 18.2807129,11.3884719 C18.2422019,10.8572256 18.1876447,10.1231398 18.1539476,9.75126735 C18.1290759,9.41481136 17.9654042,9.13791934 17.7816747,9.09686849" id="Fill-33" fill="#FFFFFF"></path>
                        <path d="M18.2341856,6.40476915 C17.9798089,6.34805735 17.3450783,6.24030493 16.8153286,6.16414908 L16.1596018,6.06530851 C15.9092628,6.02642042 15.5813994,5.96160693 15.2486907,5.88707142 C14.8844878,5.80524439 14.5146321,5.71288517 14.2360289,5.62862763 L13.7321207,5.4746956 C13.2007559,5.31428221 12.5248405,5.1287536 12.2317016,5.06312995 C11.9385626,4.99750629 11.6777255,5.24379754 11.6446162,5.60270224 C11.6179672,5.96403743 11.6308879,6.41611152 11.6753029,6.60650114 C11.7253707,6.80418228 12.1735583,7.11204635 12.6790817,7.30810715 C13.184605,7.49687643 13.9735767,7.78367612 14.43307,7.93517765 C14.6632204,8.01457417 14.9660499,8.09559103 15.2688794,8.1636452 C15.5717088,8.23088919 15.8737308,8.28436032 16.1022661,8.30866538 C16.5649895,8.36294667 17.3458858,8.42694999 17.8417186,8.46178724 C18.3415891,8.49014314 18.7833164,8.38158055 18.8164258,8.20172312 C18.8551879,8.03077754 18.8406521,7.57789329 18.785739,7.19873439 C18.7348637,6.82119582 18.4829096,6.45986062 18.2341856,6.40476915" id="Fill-35" fill="#FFFFFF"></path>
                    </g>
                    <polygon id="Path-34" fill="#B2E282" points="43.0332031 60.9428711 40.2470703 44.0170898 65.6259766 56.3461914 68.9291992 66.1132812"></polygon>
                    <polygon id="Path-35" fill="#BEEE8E" points="40.3427734 44.1552734 54.9321289 39.1845703 65.831543 56.5332031"></polygon>
                    <polygon id="Path-36" fill="#BBE78E" points="54.9326172 39.2027588 80.828125 52.3022461 65.1711426 56.421875"></polygon>
                    <polygon id="Path-37" fill="#95C368" points="80.5024414 52.2836914 83.4233398 68.9780273 68.5823975 66.0827637 64.9324951 56.0447998"></polygon>
                    <path d="M40.449707,44.1733398 L57.934082,63.9890137 L69.1328125,66.2067871 L65.590332,56.3845215 L40.449707,44.1733398 Z" id="Path-38" fill="#8FBA65" opacity="0.155117754"></path>
                    <polygon id="Path-39" fill="#B37BE5" points="70.3928223 47.0065918 84.2509766 46.831543 92.1149902 52.8300781 81.1982422 56.2858887 80.5419922 52.2583008"></polygon>
                    <polygon id="Path-40" fill="#A36FD0" points="92.1047363 52.8491211 95.3591309 53.189209 84.2346191 46.8588867"></polygon>
                    <polyline id="Path-41" fill="#A36FD0" points="95.2573242 53.1181641 98.3547363 58.666748 96.4179688 64.9089355 81.8288574 60.1984863 81.0605469 56.25 92.1530762 52.7104492 94.9235229 52.9348755"></polyline>
                    <polygon id="Path-42" fill="#915BBF" points="96.4084473 64.8530273 93.6236572 71.0588379 83.2027588 69.057251 81.8554688 60.1337891"></polygon>
                    <polygon id="Path-18" fill="#F4F4F4" points="98.1103516 117 168.388672 102.342773 148.282715 96.4980469"></polygon>
                    <circle id="Oval-4" fill="#D19CFF" filter="url(#filter-1)" cx="95" cy="60" r="18"></circle>
                    <circle id="Oval-4" fill="#A9E968" filter="url(#filter-2)" cx="50" cy="52" r="18"></circle>
                    <polygon id="Path-43" fill="#DEFFBC" opacity="0.5" points="40.7514648 44.0615234 44.0444336 43.0422363 65.1689453 56.0371094"></polygon>
                </g>
            </g>
        </g>
    </g>
</svg>