<?xml version="1.0" encoding="UTF-8"?>
<svg width="24px" height="24px" viewBox="0 0 24 24" version="1.1" xmlns="http://www.w3.org/2000/svg" xmlns:xlink="http://www.w3.org/1999/xlink">
    <!-- Generator: Sketch 44.1 (41455) - http://www.bohemiancoding.com/sketch -->
    <title>Icon/App/Telegram</title>
    <desc>Created with Sketch.</desc>
    <defs>
        <path d="M5.77181543,0.00603400291 C5.67698873,0.0328931764 5.58716607,0.0923089239 5.50259767,0.150096843 C3.70189112,1.37992142 1.9026858,2.61191644 0.100728244,3.83929928 C-0.00110412495,3.9087533 -0.020119506,3.96789775 0.0186618632,4.08889968 C0.151519328,4.50263947 0.272367078,4.92017753 0.397718471,5.33690168 C0.56460346,5.89144866 0.731238246,6.44572433 0.898373437,7 C0.907380723,6.99755826 0.916388009,6.9945739 0.925395294,6.99213216 C0.930399342,6.96717212 0.937655211,6.94275469 0.93965683,6.91833726 C0.991198521,6.31495542 1.04574264,5.7121162 1.09052887,5.10792044 C1.10053696,4.97362458 1.14307137,4.87785399 1.23639685,4.78723819 C1.9764955,4.06990835 2.7120905,3.34742371 3.44918672,2.62683821 C4.26509669,1.82893084 5.08125685,1.03183739 5.89416439,0.230674363 C5.94445507,0.181296893 5.96547207,0.09719241 6,0.0288236047 C5.92343807,0.0198705468 5.84137169,-0.0134999415 5.77181543,0.00603400291" id="path-1"></path>
        <path d="M17.8330667,8.60226667 C17.2792,11.2177333 16.7248,13.8329333 16.168,16.4478667 C16.0357333,17.0684 15.5997333,17.2305333 15.0888,16.8537333 C14.2330667,16.2230667 13.3781333,15.5902667 12.5229333,14.9588 C12.4821333,14.9292 12.4397333,14.9004 12.3930667,14.8676 C11.9309333,15.318 11.4728,15.7606667 11.0189333,16.2068 C10.8602667,16.3630667 10.6818667,16.4494667 10.4541333,16.4374667 C10.2986667,16.4292 10.2117333,16.3609333 10.164,16.2132 C9.81626667,15.134 9.46346667,14.0574667 9.1176,12.9772 C9.084,12.8726667 9.0344,12.8214667 8.92826667,12.7886667 C8.10906667,12.5388 7.29146667,12.2828 6.4752,12.0230667 C6.3496,11.9833333 6.22293333,11.9308 6.1144,11.8569333 C5.94666667,11.7433333 5.92213333,11.5582667 6.07226667,11.4249333 C6.21146667,11.3017333 6.37733333,11.1948 6.5496,11.1265333 C7.55093333,10.7297333 8.5576,10.3454667 9.56266667,9.95826667 C12.1133333,8.97346667 14.664,7.9892 17.2149333,7.00466667 C17.7,6.8172 18.0728,7.0812 18.0224,7.60573333 C17.9901333,7.9412 17.9032,8.27133333 17.8330667,8.60226667 M12,-0.000133333333 C5.37253333,-0.000133333333 0,5.37266667 0,11.9998667 C0,18.6276 5.37253333,23.9998667 12,23.9998667 C18.6274667,23.9998667 24,18.6276 24,11.9998667 C24,5.37266667 18.6274667,-0.000133333333 12,-0.000133333333" id="path-3"></path>
    </defs>
    <g id="Symbols" stroke="none" stroke-width="1" fill="none" fill-rule="evenodd" opacity="0.199999988">
        <g id="Верхнее-меню/Сокращенное" transform="translate(-696.000000, -34.000000)">
            <g id="Верхнее-меню/Каталог-скрыт-Black">
                <g id="Верхнее-меню" transform="translate(128.000000, 24.000000)">
                    <g id="Месенджеры" transform="translate(568.000000, 10.000000)">
                        <g id="Icon/Telegram">
                            <g id="telegram">
                                <g id="Mixin/Fill/Black" transform="translate(9.500000, 9.000000)">
                                    <mask id="mask-2" fill="white">
                                        <use xlink:href="#path-1"></use>
                                    </mask>
                                    <use id="Mask" fill="#000000" xlink:href="#path-1"></use>
                                    <g mask="url(#mask-2)" fill="#000000">
                                        <g transform="translate(-162.500000, -34.500000)">
                                            <rect x="0" y="0" width="331" height="75"></rect>
                                        </g>
                                    </g>
                                </g>
                                <g id="Mixin/Fill/Black">
                                    <mask id="mask-4" fill="white">
                                        <use xlink:href="#path-3"></use>
                                    </mask>
                                    <use id="Mask" fill="#000000" xlink:href="#path-3"></use>
                                    <g mask="url(#mask-4)" fill="#000000">
                                        <g transform="translate(-153.000000, -25.500000)">
                                            <rect x="0" y="0" width="331" height="75"></rect>
                                        </g>
                                    </g>
                                </g>
                            </g>
                        </g>
                    </g>
                </g>
            </g>
        </g>
    </g>
</svg>