<?xml version="1.0" encoding="UTF-8"?>
<svg width="16px" height="16px" viewBox="0 0 16 16" version="1.1" xmlns="http://www.w3.org/2000/svg" xmlns:xlink="http://www.w3.org/1999/xlink">
    <!-- Generator: Sketch 45.1 (43504) - http://www.bohemiancoding.com/sketch -->
    <title>timer</title>
    <desc>Created with Sketch.</desc>
    <defs></defs>
    <g id="Карточка-товара" stroke="none" stroke-width="1" fill="none" fill-rule="evenodd">
        <g id="Карточки" transform="translate(-1297.000000, -3127.000000)" fill-rule="nonzero" fill="#C7C7C7">
            <g id="Если-незарегистрирован" transform="translate(272.000000, 401.000000)">
                <g id="Если-срочная-скидка" transform="translate(0.000000, 2500.000000)">
                    <g id="Блок-с-ценой" transform="translate(576.000000, 140.000000)">
                        <g id="Цена-вырастет" transform="translate(380.000000, 58.000000)">
                            <g id="timer" transform="translate(69.000000, 28.000000)">
                                <path d="M8,16 C3.6,16 0,12.4 0,8 C0,3.6 3.6,0 8,0 L8.75,0 L8.75,3.375 L7.25,3.375 L7.25,1.525 C4.025,1.925 1.5,4.675 1.5,8 C1.5,11.575 4.425,14.5 8,14.5 C11.575,14.5 14.5,11.575 14.5,8 C14.5,6.25 13.825,4.625 12.6,3.4 L13.65,2.35 C15.175,3.85 16,5.875 16,8.025 C16,12.4 12.4,16 8,16 Z" id="Shape"></path>
                                <rect id="Rectangle-path" transform="translate(9.794370, 6.571997) rotate(-42.937384) translate(-9.794370, -6.571997) " x="7.34436528" y="5.82199606" width="4.90000943" height="1.50000289"></rect>
                            </g>
                        </g>
                    </g>
                </g>
            </g>
        </g>
    </g>
</svg>