<?xml version="1.0" encoding="UTF-8"?>
<svg width="24px" height="24px" viewBox="0 0 24 24" version="1.1" xmlns="http://www.w3.org/2000/svg" xmlns:xlink="http://www.w3.org/1999/xlink">
    <!-- Generator: Sketch 44.1 (41455) - http://www.bohemiancoding.com/sketch -->
    <title>user</title>
    <desc>Created with Sketch.</desc>
    <defs></defs>
    <g id="Symbols" stroke="none" stroke-width="1" fill="none" fill-rule="evenodd">
        <g id="Верхнее-меню/Мобильная-версия" transform="translate(-236.000000, -12.000000)">
            <g id="Шапка">
                <g id="Иконки" transform="translate(192.000000, 8.000000)">
                    <g id="user" transform="translate(40.000000, 0.000000)">
                        <rect id="Rectangle-3" x="0" y="0" width="32" height="32"></rect>
                        <path d="M16,18.9333333 C19.2130667,18.9333333 22.0688,20.3896 23.9749333,22.6749333 C22.0688,24.9514667 19.2085333,26.4 16,26.4 C12.7912,26.4 9.9312,24.9514667 8.02506667,22.6749333 C9.9312,20.3896 12.7869333,18.9333333 16,18.9333333 M16,8 C17.5677333,8 18.9333333,9.48853333 18.9333333,11.4666667 C18.9333333,13.4448 17.5677333,14.9333333 16,14.9333333 C14.4322667,14.9333333 13.0666667,13.4448 13.0666667,11.4666667 C13.0666667,9.48853333 14.4322667,8 16,8 M16,6.4 C13.444,6.4 11.4666667,8.732 11.4666667,11.4666667 C11.4666667,14.2013333 13.444,16.5333333 16,16.5333333 C18.556,16.5333333 20.5333333,14.2013333 20.5333333,11.4666667 C20.5333333,8.732 18.556,6.4 16,6.4 M16,5.6 C21.7530667,5.6 26.4,10.2466667 26.4,16 C26.4,17.9472 25.8690667,19.7685333 24.9416,21.3250667 C22.7448,18.8733333 19.5477333,17.3333333 16,17.3333333 C12.4522667,17.3333333 9.2552,18.8733333 7.0584,21.3250667 C6.13093333,19.7685333 5.6,17.9472 5.6,16 C5.6,10.2466667 10.2466667,5.6 16,5.6 M16,4 C9.38213333,4 4,9.38213333 4,16 C4,22.6178667 9.38213333,28 16,28 C22.6178667,28 28,22.6178667 28,16 C28,9.38213333 22.6178667,4 16,4" id="Fill-1" fill="#575757"></path>
                    </g>
                </g>
            </g>
        </g>
    </g>
</svg>