<?xml version="1.0" encoding="UTF-8"?>
<svg width="24px" height="24px" viewBox="0 0 36 36" version="1.1" xmlns="http://www.w3.org/2000/svg" xmlns:xlink="http://www.w3.org/1999/xlink">
    <g id="icons" stroke="none" stroke-width="1" fill="none" fill-rule="evenodd">
        <g transform="translate(-270.000000, -309.000000)" id="icon-user">
            <g transform="translate(264.000000, 303.000000)">
                <rect id="Rectangle-2" x="0" y="0" width="48" height="48"></rect>
                <path d="M24,40 C19.315,40 15.108,37.964 12.18,34.745 C13.007,32.863 16.243,27 24.5,27 C31.703,27 35.484,31.843 36.68,33.72 C33.752,37.529 29.165,40 24,40 M24,8 C32.822,8 40,15.178 40,24 C40,26.887 39.22,29.591 37.877,31.932 C36.092,29.447 31.871,25 24.5,25 C16.264,25 12.315,30.28 10.813,33.042 C9.042,30.468 8,27.354 8,24 C8,15.178 15.178,8 24,8 M24,6 C14.075,6 6,14.075 6,24 C6,33.925 14.075,42 24,42 C33.925,42 42,33.925 42,24 C42,14.075 33.925,6 24,6" id="Fill-1" fill="#575757"></path>
                <path d="M24.656,13 C26.672,13 28.312,14.794 28.312,17 C28.312,19.206 26.672,21 24.656,21 C22.64,21 21,19.206 21,17 C21,14.794 22.64,13 24.656,13 M24.656,23 C27.775,23 30.312,20.309 30.312,17 C30.312,13.691 27.775,11 24.656,11 C21.537,11 19,13.691 19,17 C19,20.309 21.537,23 24.656,23" id="Fill-3" fill="#575757"></path>
            </g>
        </g>
    </g>
</svg>