<?xml version="1.0" encoding="UTF-8"?>
<svg width="49px" height="16px" viewBox="0 0 49 16" version="1.1" xmlns="http://www.w3.org/2000/svg" xmlns:xlink="http://www.w3.org/1999/xlink">
    <!-- Generator: Sketch 44.1 (41455) - http://www.bohemiancoding.com/sketch -->
    <title>VISA</title>
    <desc>Created with Sketch.</desc>
    <defs></defs>
    <g id="Symbols" stroke="none" stroke-width="1" fill="none" fill-rule="evenodd">
        <g id="Футер" transform="translate(-709.000000, -842.000000)" fill="#C9C9C9">
            <g id="Копирайт">
                <g transform="translate(0.000000, 797.000000)">
                    <g transform="translate(228.000000, 16.000000)" id="Payment">
                        <g transform="translate(481.000000, 0.000000)">
                            <g id="VISA" transform="translate(0.000000, 29.000000)">
                                <polygon id="Fill-1" points="20.2005 0.3 16.9005 15.5 20.8995 15.5 24.1005 0.3"></polygon>
                                <path d="M14.3998,0.3002 L10.2998,10.6002 L8.5998,1.8002 C8.3998,0.8002 7.5998,0.3002 6.7998,0.3002 L0.0998,0.3002 L-0.0002,0.7002 C1.3998,1.0002 2.8998,1.5002 3.8998,2.0002 C4.4998,2.3002 4.5998,2.6002 4.7998,3.3002 L7.8998,15.4002 L12.0998,15.4002 L18.4998,0.2002 L14.3998,0.2002 L14.3998,0.3002 Z" id="Fill-2"></path>
                                <path d="M40.7001,10.1 L42.8001,4.4 L44.0001,10.1 L40.7001,10.1 Z M45.5001,0.3 L42.0991,0.3 C41.3001,0.3 40.7001,0.7 40.4001,1.4 L34.5001,15.5 L38.5991,15.5 L39.4001,13.2 L44.4001,13.2 L44.9001,15.5 L48.5001,15.5 L45.5001,0.3 Z" id="Fill-5"></path>
                                <path d="M29.2997,4.4999 C29.2997,3.9999 29.7997,3.3999 30.9997,3.1999 C31.5997,3.0999 33.0997,3.0999 34.9007,3.8999 L35.5997,0.6999 C34.6997,0.3999 33.4007,-9.99999993e-05 31.9007,-9.99999993e-05 C27.9997,-9.99999993e-05 25.2997,2.0999 25.2997,4.9999 C25.2997,7.1999 27.2997,8.3999 28.6997,9.0999 C30.1997,9.7999 30.6997,10.2999 30.6997,10.9999 C30.6997,11.9999 29.4997,12.4999 28.2997,12.4999 C26.2997,12.4999 25.1997,11.9999 24.2997,11.4999 L23.5997,14.7999 C24.4997,15.1999 26.1997,15.5999 27.9997,15.5999 C32.0997,15.5999 34.7997,13.5999 34.7997,10.3999 C34.7997,6.5999 29.1997,6.2999 29.2997,4.4999" id="Fill-8"></path>
                            </g>
                        </g>
                    </g>
                </g>
            </g>
        </g>
    </g>
</svg>