<?xml version="1.0" encoding="UTF-8"?>
<svg width="24px" height="15px" viewBox="0 0 24 15" version="1.1" xmlns="http://www.w3.org/2000/svg" xmlns:xlink="http://www.w3.org/1999/xlink">
    <!-- Generator: Sketch 44.1 (41455) - http://www.bohemiancoding.com/sketch -->
    <title>Icon/App/Telegram Copy</title>
    <desc>Created with Sketch.</desc>
    <defs>
        <path d="M21.2798856,5.85271114 C21.6206452,5.40244118 21.8913905,5.03996858 22.0921213,4.76740893 C23.5337966,2.80871699 24.1577178,1.55698767 23.9662992,1.01151577 L23.8907664,0.88316944 C23.8411011,0.807713081 23.7117642,0.73719312 23.5041353,0.672667355 C23.2954718,0.609199389 23.0285205,0.599679194 22.7039711,0.640933372 L19.1053013,0.667025758 C19.0218359,0.658915962 18.9383705,0.660326361 18.8562847,0.672667355 C18.7724743,0.686418747 18.7186702,0.69875974 18.6931477,0.711100734 C18.6676252,0.724852126 18.6472762,0.734724921 18.631066,0.742834716 L18.5814006,0.781268096 C18.5396679,0.807713081 18.4937965,0.851788057 18.4437862,0.916313822 C18.3941208,0.979781788 18.3510085,1.05418035 18.3185881,1.1395095 C17.9264386,2.16980614 17.4818646,3.12852502 16.9807272,4.01390314 C16.6737677,4.54139245 16.3892265,5.0001248 16.1319323,5.38727939 C15.8732585,5.77408138 15.6563174,6.06074502 15.4824886,6.24268652 C15.3076251,6.42568583 15.148627,6.57307255 15.0072186,6.68343629 C14.8654654,6.79485782 14.7578571,6.8417536 14.6823244,6.82377101 C14.6067916,6.80719882 14.5367772,6.79062663 14.4695221,6.77299664 C14.3536362,6.69718768 14.2594789,6.59246553 14.1891197,6.46024061 C14.1177257,6.32801568 14.0708195,6.16264637 14.0449521,5.96166448 C14.0208093,5.76174039 14.004599,5.58967168 14.0018398,5.44369536 C13.9966664,5.29912944 13.9994256,5.09532675 14.0073582,4.83087689 C14.0156358,4.56783744 14.0208093,4.38871673 14.0208093,4.29492518 C14.0208093,3.97123856 14.0263276,3.62004915 14.0383991,3.24135696 C14.0518501,2.86125436 14.0611624,2.56083933 14.0708195,2.34046445 C14.0787522,2.11867917 14.082891,1.8845529 14.082891,1.63667523 C14.082891,1.39020796 14.0680603,1.19733587 14.0383991,1.05559075 C14.0101174,0.916313822 13.9656255,0.779857696 13.9076826,0.647632768 C13.8497397,0.51540784 13.7635151,0.413506496 13.651768,0.340518335 C13.5386413,0.268940574 13.3996473,0.211114206 13.2327164,0.168449629 C12.7909016,0.0665482843 12.2290621,0.0115427143 11.5461633,0.00166991964 C9.99653487,-0.0145496715 9.00115812,0.087351673 8.55899839,0.308784353 C8.38413491,0.402575902 8.22651634,0.530569632 8.08476311,0.691707744 C7.93404251,0.880701241 7.91369351,0.982602586 8.0216467,0.999174777 C8.52140447,1.07463114 8.87561511,1.25939344 9.08462353,1.54852528 L9.15877669,1.70155359 C9.21809921,1.81297513 9.27604214,2.00866803 9.33364017,2.28969008 C9.3915831,2.57071212 9.42952192,2.88029475 9.44711174,3.22196397 C9.48884444,3.84324483 9.48884444,4.37496534 9.44711174,4.8185359 C9.40537903,5.26175386 9.36606062,5.60624387 9.32846669,5.85271114 C9.29087277,6.1005888 9.23396454,6.30051289 9.16015628,6.45318861 C9.08462353,6.60762733 9.03461327,6.70106628 9.00909079,6.73421066 C8.98356831,6.76876544 8.9632193,6.79062663 8.94700908,6.79908902 C8.83802119,6.8403432 8.72627411,6.86220439 8.60900866,6.86220439 C8.4931228,6.86220439 8.35171446,6.80296762 8.18443874,6.68343629 C8.01750792,6.56496275 7.84505873,6.40100384 7.66605646,6.19155955 C7.4867093,5.98352567 7.28459885,5.69157302 7.0597251,5.31570163 C6.83450645,4.94229843 6.60170004,4.49872787 6.36027117,3.98781075 L6.1609199,3.61722835 C6.03572179,3.37922348 5.86465219,3.03191267 5.6477111,2.57600112 C5.43077001,2.12008957 5.23935141,1.68075021 5.07380018,1.25375184 C5.006545,1.07463114 4.90686936,0.939938009 4.77339369,0.844736061 L4.71131198,0.807713081 C4.66957927,0.7731583 4.60232409,0.73719312 4.51058112,0.69875974 C4.41883814,0.660326361 4.32330129,0.632470977 4.22362566,0.614840986 L0.80016426,0.640933372 C0.450092396,0.640933372 0.212802305,0.722031328 0.0876041905,0.88316944 L0.0375939243,0.960388798 C0.0120714436,1.00305337 0,1.07216294 0,1.16419149 C0,1.25939344 0.0255224807,1.37363577 0.0755327469,1.5100919 C0.575290511,2.71104685 1.11816057,3.86933722 1.70552253,4.98355261 C2.29288448,6.1005888 2.80367899,6.99866051 3.23618157,7.68058854 C3.67006374,8.36216397 4.11187858,9.00424822 4.56197097,9.60860429 C5.01171847,10.213313 5.30971068,10.601878 5.4549129,10.7711259 C5.60046002,10.9421368 5.71496629,11.0697779 5.7984317,11.1540493 L6.11125453,11.4611637 C6.3106058,11.6663768 6.60411433,11.9103758 6.99109032,12.1966869 C7.37910101,12.4819401 7.8074648,12.7629622 8.2789409,13.03799 C8.7490374,13.3161913 9.29742584,13.54115 9.92134702,13.7160395 C10.5463029,13.8905764 11.1540139,13.9610963 11.7468942,13.9268941 L13.1827062,13.9268941 C13.47518,13.9018596 13.6948803,13.8084206 13.8456009,13.6458721 L13.8956111,13.5820515 C13.9280316,13.5312772 13.9601071,13.453 13.9883888,13.3454571 C14.0180501,13.2393245 14.0328807,13.1222614 14.0328807,12.9956781 C14.024948,12.6293269 14.0518501,12.2985882 14.1139318,12.0052252 C14.1756686,11.7104518 14.2470626,11.4900769 14.3267341,11.340222 C14.4060608,11.1914248 14.4950445,11.0658993 14.5947202,10.963998 C14.6943958,10.8606862 14.7654449,10.800039 14.8075225,10.7781779 C14.8492552,10.7573745 14.8830552,10.7422127 14.9071981,10.7341029 C15.1068943,10.6653459 15.3424599,10.7309295 15.6132051,10.9308536 C15.8839503,11.1321881 16.1388303,11.3783027 16.3757755,11.6716658 C16.6130655,11.9664392 16.8986414,12.29612 17.2314684,12.6624712 C17.56533,13.0288224 17.8564242,13.3013821 18.1071654,13.4805028 L18.356182,13.6335311 C18.5234577,13.7354324 18.7390192,13.8288714 19.0056257,13.9142006 C19.272577,13.9998823 19.506763,14.0213909 19.7064592,13.9787263 L22.9047019,13.9268941 C23.2213187,13.9268941 23.467921,13.8743568 23.6417498,13.7668138 C23.8166133,13.6624443 23.9218073,13.5439708 23.9542277,13.4156244 C23.9880278,13.2886885 23.9904421,13.1444752 23.9607808,12.9819267 C23.9311195,12.8207885 23.9028379,12.7079566 23.8735215,12.6444886 C23.8438602,12.5796103 23.8166133,12.5274255 23.7924704,12.4847609 C23.3747984,11.7175037 22.5801525,10.7764149 21.4047388,9.66114167 L21.3554184,9.61001469 L21.3433469,9.61001469 C20.8097891,9.09098778 20.4728234,8.74120877 20.3314151,8.56208806 C20.0727413,8.22182925 20.0147983,7.87733924 20.1562067,7.52756023 C20.2558823,7.26311037 20.630442,6.70529747 21.2798856,5.85271114" id="path-1"></path>
    </defs>
    <g id="Symbols" stroke="none" stroke-width="1" fill="none" fill-rule="evenodd" opacity="0.199999988">
        <g id="Верхнее-меню/Главная" transform="translate(-608.000000, -39.000000)">
            <g id="Верхнее-меню/Каталог-на-главной" transform="translate(0.000000, 24.000000)">
                <g id="Верхнее-меню">
                    <g id="Месенджеры" transform="translate(568.000000, 10.000000)">
                        <g id="Icon/VK" transform="translate(40.000000, 0.000000)">
                            <g id="vk">
                                <g id="Mixin/Fill/Black" transform="translate(0.000000, 5.500000)">
                                    <mask id="mask-2" fill="white">
                                        <use xlink:href="#path-1"></use>
                                    </mask>
                                    <use id="Mask" fill="#1D1C1B" xlink:href="#path-1"></use>
                                    <g mask="url(#mask-2)" fill="#000000">
                                        <g transform="translate(-153.000000, -31.000000)">
                                            <rect x="0" y="0" width="331" height="75"></rect>
                                        </g>
                                    </g>
                                </g>
                                <rect id="Rectangle" x="0" y="0" width="24" height="24"></rect>
                            </g>
                        </g>
                    </g>
                </g>
            </g>
        </g>
    </g>
</svg>