<?xml version="1.0" encoding="UTF-8"?>
<svg width="34px" height="34px" viewBox="0 0 34 34" version="1.1" xmlns="http://www.w3.org/2000/svg" xmlns:xlink="http://www.w3.org/1999/xlink">
    <!-- Generator: Sketch 44.1 (41455) - http://www.bohemiancoding.com/sketch -->
    <title>VK</title>
    <desc>Created with Sketch.</desc>
    <defs>
        <path d="M16.8465761,4.63339632 C17.1163441,4.2769326 17.3306841,3.98997513 17.4895961,3.77419873 C18.6309223,2.22356762 19.1248599,1.23261524 18.9733202,0.800783318 L18.9135234,0.699175807 C18.874205,0.639439523 18.7718133,0.58361122 18.6074405,0.532528322 C18.4422485,0.48228285 18.230912,0.474746029 17.9739771,0.507405586 L15.1250302,0.528062058 C15.0589534,0.521641803 14.9928766,0.522758369 14.927892,0.532528322 C14.8615422,0.543414842 14.8189472,0.553184795 14.7987419,0.562954748 C14.7785366,0.573841267 14.762427,0.581657229 14.7495939,0.588077484 L14.7102755,0.618503909 C14.6772371,0.639439523 14.6409222,0.674332212 14.6013307,0.725415109 C14.5620123,0.775660582 14.5278817,0.834559441 14.5022156,0.902111688 C14.1917639,1.71776319 13.8398095,2.47674897 13.4430757,3.17767332 C13.2000661,3.59526902 12.9748043,3.95843213 12.7711131,4.26492952 C12.5663296,4.57114776 12.3945846,4.79808981 12.2569702,4.94212683 C12.1185366,5.08700128 11.992663,5.20368243 11.8807148,5.29105373 C11.7684935,5.37926244 11.6833035,5.41638827 11.6235068,5.40215205 C11.56371,5.3890324 11.508282,5.37591275 11.4550383,5.36195567 C11.3632953,5.30194024 11.2887542,5.21903521 11.2330531,5.11435715 C11.1765329,5.00967908 11.1393988,4.87876171 11.1189204,4.71965104 C11.0998073,4.56137781 11.0869742,4.42515675 11.0847899,4.30959216 C11.0806942,4.19514414 11.0828786,4.03380034 11.0891586,3.82444421 C11.0957117,3.61620464 11.0998073,3.47440075 11.0998073,3.4001491 C11.0998073,3.14389719 11.104176,2.86587224 11.1137326,2.56607426 C11.1243813,2.2651597 11.1317535,2.02733113 11.1393988,1.85286769 C11.1456788,1.67728767 11.1489554,1.49193771 11.1489554,1.29570122 C11.1489554,1.10058131 11.1372144,0.947890896 11.1137326,0.835676008 C11.0913429,0.725415109 11.0561202,0.617387343 11.0102487,0.512709275 C10.9643772,0.408031207 10.8961161,0.327359309 10.8076497,0.269577015 C10.718091,0.212911288 10.6080541,0.16713208 10.4759005,0.133355956 C10.1261304,0.0526840584 9.68134086,0.00913798213 9.14071263,0.00132201972 C7.91392344,-0.01151849 7.12591685,0.0691534078 6.77587373,0.244454279 C6.63744014,0.318705922 6.51265877,0.420034292 6.40043746,0.547601964 C6.28111699,0.697221816 6.26500736,0.777893714 6.35047031,0.791013365 C6.74611187,0.850749649 7.02652863,0.997019803 7.19199363,1.22591585 L7.25069821,1.34706326 C7.29766187,1.43527198 7.34353336,1.59019552 7.3891318,1.81267131 C7.43500329,2.0351471 7.46503819,2.28023335 7.47896346,2.55072147 C7.51200185,3.04256882 7.51200185,3.46351423 7.47896346,3.81467425 C7.44592507,4.16555514 7.41479799,4.4382764 7.38503613,4.63339632 C7.35527428,4.8296328 7.31022192,4.98790604 7.25179039,5.10877432 C7.19199363,5.2310383 7.15240217,5.3050108 7.13219687,5.3312501 C7.11199158,5.35860597 7.09588195,5.37591275 7.08304885,5.38261214 C6.99676677,5.4152717 6.90830034,5.43257847 6.81546519,5.43257847 C6.72372222,5.43257847 6.61177395,5.3856827 6.47934734,5.29105373 C6.34719377,5.19726218 6.21067149,5.06746137 6.06896137,4.90165131 C5.9269782,4.73695782 5.76697409,4.50582864 5.58894904,4.20826379 C5.41065094,3.91265293 5.22634587,3.5614929 5.03521468,3.15701684 L4.87739492,2.86363911 C4.77827975,2.67521859 4.64284965,2.4002642 4.47110462,2.03933422 C4.29935959,1.67840424 4.14781987,1.33059391 4.01675848,0.992553539 C3.96351479,0.850749649 3.88460491,0.744117591 3.77893667,0.668749382 L3.72978865,0.639439523 C3.69675026,0.612083654 3.64350657,0.58361122 3.57087672,0.553184795 C3.49824686,0.522758369 3.42261352,0.50070619 3.34370364,0.486749114 L0.633463372,0.507405586 C0.356323147,0.507405586 0.168468492,0.571608135 0.0693533175,0.699175807 L0.0297618567,0.760307799 C0.00955655949,0.794083922 0,0.848795659 0,0.921651594 C0,0.997019803 0.0202052972,1.08746165 0.059796758,1.19548942 C0.455438321,2.14624542 0.885210454,3.0632253 1.35020533,3.94531248 C1.81520021,4.8296328 2.2195792,5.54060624 2.56197708,6.08046593 C2.90546713,6.62004648 3.25523721,7.12836318 3.61156036,7.60681173 C3.96761046,8.08553943 4.20352095,8.39315338 4.31847271,8.52714131 C4.43369752,8.66252494 4.52434831,8.76357417 4.59042509,8.83028899 L4.83807651,9.07342125 C4.99589626,9.23588161 5.22825718,9.42904754 5.53461317,9.65571045 C5.8417883,9.88153594 6.18090964,10.1040117 6.55416155,10.3217421 C6.92632128,10.5419848 7.36046212,10.720077 7.85439973,10.8585312 C8.34915646,10.9967063 8.83026097,11.0525346 9.29962457,11.0254579 L10.4363091,11.0254579 C10.6678508,11.0056388 10.8417802,10.9316663 10.9611007,10.8029821 L11.0006922,10.7524575 C11.0263583,10.7122611 11.0517515,10.6502917 11.0741411,10.5651535 C11.097623,10.4811319 11.1093639,10.3884569 11.1093639,10.2882451 C11.1030839,9.99821709 11.1243813,9.73638235 11.1735294,9.50413661 C11.2224043,9.2707743 11.2789246,9.09631086 11.3419979,8.97767571 C11.4047981,8.85987799 11.4752436,8.76050361 11.5541535,8.67983172 C11.6330634,8.59804325 11.6893105,8.55003091 11.722622,8.53272414 C11.7556604,8.51625479 11.7824187,8.5042517 11.8015318,8.49783145 C11.9596246,8.44339885 12.1461141,8.49531917 12.360454,8.65359241 C12.574794,8.81298222 12.776574,9.007823 12.9641556,9.24006874 C13.1520102,9.47343104 13.3780911,9.73442836 13.6415791,10.0244564 C13.9058862,10.3144844 14.1363358,10.5302608 14.3348392,10.6720647 L14.5319774,10.7932121 C14.664404,10.873884 14.8350569,10.9478565 15.0461203,11.0154088 C15.2574568,11.0832402 15.4428541,11.1002678 15.6009469,11.0664917 L18.132889,11.0254579 C18.3835439,11.0254579 18.5787708,10.9838658 18.7163852,10.8987276 C18.8548188,10.8161017 18.9380974,10.7223102 18.9637636,10.6207027 C18.990522,10.5202117 18.9924333,10.4060428 18.9689515,10.2773586 C18.9454696,10.1497909 18.92308,10.0604656 18.8998712,10.0102202 C18.8763894,9.95885814 18.8548188,9.91754519 18.8357057,9.88376907 C18.5050488,9.27635713 17.8759541,8.53132843 16.9454183,7.64840382 L16.9063729,7.6079283 L16.8968163,7.6079283 C16.4744164,7.19703199 16.2076519,6.92012361 16.0957036,6.77831972 C15.8909202,6.50894815 15.8450487,6.23622689 15.956997,5.95931851 C16.0359068,5.74996238 16.3324332,5.3083605 16.8465761,4.63339632" id="path-1"></path>
    </defs>
    <g id="Symbols" stroke="none" stroke-width="1" fill="none" fill-rule="evenodd">
        <g id="Социалки-Hover" transform="translate(1.000000, 1.000000)">
            <g id="Социалки">
                <g id="VK">
                    <circle id="Oval-5" stroke="#507299" stroke-width="2" cx="16" cy="16" r="16"></circle>
                    <g id="Icon/VK" transform="translate(7.000000, 7.000000)">
                        <g id="vk">
                            <g id="Mixin/Fill/Black" transform="translate(0.000000, 4.354167)">
                                <mask id="mask-2" fill="white">
                                    <use xlink:href="#path-1"></use>
                                </mask>
                                <use id="Mask" fill="#1D1C1B" xlink:href="#path-1"></use>
                                <g id="Mixin/Fill/vk" mask="url(#mask-2)" fill="#507299">
                                    <g transform="translate(-121.125000, -24.541667)" id="Mixin/Fill/Grey">
                                        <rect x="0" y="0" width="262" height="59"></rect>
                                    </g>
                                </g>
                            </g>
                            <rect id="Rectangle" x="0" y="0" width="19" height="19"></rect>
                        </g>
                    </g>
                </g>
            </g>
        </g>
    </g>
</svg>