<?xml version="1.0" encoding="UTF-8"?>
<svg width="24px" height="23px" viewBox="0 0 24 23" version="1.1" xmlns="http://www.w3.org/2000/svg" xmlns:xlink="http://www.w3.org/1999/xlink">
    <!-- Generator: Sketch 45.1 (43504) - http://www.bohemiancoding.com/sketch -->
    <title>Icon/Wish Heart</title>
    <desc>Created with Sketch.</desc>
    <defs>
        <path d="M12,17.5 L17.2900673,20.2811529 L16.2797543,14.3905765 L20.5595086,10.2188471 L14.6450336,9.35942353 L12,4 L9.35496636,9.35942353 L3.44049135,10.2188471 L7.72024568,14.3905765 L6.70993273,20.2811529 L12,17.5 Z M4.71773619,23.0231762 L6.10852482,14.9142563 L0.217049641,9.17148735 L8.3588681,7.98841188 L12,0.610672807 L15.6411319,7.98841188 L23.7829504,9.17148735 L17.8914752,14.9142563 L19.2822638,23.0231762 L12,19.1946636 L4.71773619,23.0231762 Z" id="path-1"></path>
    </defs>
    <g id="Карточка-товара" stroke="none" stroke-width="1" fill="none" fill-rule="evenodd">
        <g id="Карточки" transform="translate(-787.000000, -797.000000)">
            <g id="Если-незарегистрирован" transform="translate(315.000000, 717.000000)">
                <g id="Если-незарегистриров" transform="translate(0.000000, 56.000000)">
                    <g id="Блок-с-фото">
                        <g id="wish" transform="translate(464.000000, 16.000000)">
                            <g id="Icon/Favorite" transform="translate(8.000000, 8.000000)">
                                <mask id="mask-2" fill="white">
                                    <use xlink:href="#path-1"></use>
                                </mask>
                                <use id="Star" fill="#000000" fill-rule="nonzero" xlink:href="#path-1"></use>
                                <g id="Mixin/Fill/White" mask="url(#mask-2)" fill-rule="evenodd" fill="#FFFFFF">
                                    <g transform="translate(-151.500000, -24.000000)" id="Mixin/Fill/Green">
                                        <rect x="0" y="0" width="331" height="75"></rect>
                                    </g>
                                </g>
                            </g>
                        </g>
                    </g>
                </g>
            </g>
        </g>
    </g>
</svg>