<?xml version="1.0" encoding="UTF-8"?>
<svg width="77px" height="20px" viewBox="0 0 77 20" version="1.1" xmlns="http://www.w3.org/2000/svg" xmlns:xlink="http://www.w3.org/1999/xlink">
    <!-- Generator: Sketch 44.1 (41455) - http://www.bohemiancoding.com/sketch -->
    <title>WM</title>
    <desc>Created with Sketch.</desc>
    <defs></defs>
    <g id="Symbols" stroke="none" stroke-width="1" fill="none" fill-rule="evenodd">
        <g id="Футер" transform="translate(-847.000000, -840.000000)" fill="#C7C7C7">
            <g id="Копирайт">
                <g transform="translate(0.000000, 797.000000)">
                    <g transform="translate(228.000000, 16.000000)" id="Payment">
                        <g transform="translate(481.000000, 0.000000)">
                            <g id="WM" transform="translate(138.000000, 27.000000)">
                                <path d="M10.0398921,1.73913049e-05 C11.6160349,1.73913049e-05 13.1088921,0.365234783 14.4384952,1.0148 C14.647146,1.1134087 14.8557968,1.22210435 15.064273,1.34106087 L14.1406222,2.1654087 L12.7518286,0.735321739 L10.4081302,2.8174087 L9.01584444,1.30384348 L4.65041587,5.2241913 L7.44965397,8.2961913 L6.34965397,9.26001739 L9.10646349,12.3372348 L8.01309841,13.2979304 L11.9523206,17.6654087 L14.2906063,15.5210609 L16.3121619,17.8188 C15.9105746,18.1301043 15.472146,18.4234957 14.9897175,18.6944522 C13.5274159,19.524713 11.837781,20.0000174 10.0398921,20.0000174 C4.51003492,20.0000174 3.49206346e-05,15.5078435 3.49206346e-05,10.0000174 C3.49206346e-05,4.49201739 4.51003492,1.73913049e-05 10.0398921,1.73913049e-05" id="Fill-1"></path>
                                <polygon id="Fill-4" points="8.21005079 9.36813913 10.5975746 7.22674783 12.7474635 9.60483478 10.3597651 11.7460522"></polygon>
                                <polygon id="Fill-6" points="9.90799683 13.4773391 12.2956952 11.3361217 14.4450603 13.7140348 12.0575365 15.8557739"></polygon>
                                <polygon id="Fill-8" points="6.50169841 5.30733913 8.88887302 3.16629565 11.0384127 5.5442087 8.6512381 7.68525217"></polygon>
                                <polygon id="Fill-10" points="10.8828063 4.15516522 12.6731873 2.54925217 14.2852984 4.33290435 12.4949175 5.93881739"></polygon>
                                <polygon id="Fill-12" points="14.0646349 11.5099478 15.8548413 9.9042087 17.467127 11.6878609 15.676746 13.2936"></polygon>
                                <polygon id="Fill-14" points="15.6390492 15.1121913 17.4297794 13.5066261 19.0418905 15.2897565 17.2513349 16.8954957"></polygon>
                                <polygon id="Fill-16" points="16.3608238 6.85582609 17.5544111 5.78504348 18.6296175 6.97443478 17.4358556 8.04486957"></polygon>
                                <polygon id="Fill-18" points="14.8355079 3.32313043 16.0289206 2.25269565 17.1037778 3.44191304 15.9100159 4.51234783"></polygon>
                                <polygon id="Fill-20" points="17.8865413 10.3885043 19.0804778 9.31806957 20.1551603 10.507287 18.9613984 11.5775478"></polygon>
                                <polygon id="Fill-22" points="12.5335222 7.7410087 14.323554 6.13526957 15.9358397 7.91892174 14.1456333 9.52483478"></polygon>
                                <path d="M47.7351635,6.15897391 L47.6792905,6.1961913 L47.6232429,6.15897391 C47.2118778,5.78610435 46.7621,5.63688696 46.2011,5.63688696 C44.9095603,5.63688696 44.0672746,6.53184348 44.0672746,7.92993043 L44.0672746,14.4725391 L45.3586397,14.4725391 L45.3586397,7.92975652 C45.3586397,6.99758261 45.9950683,6.92297391 46.2011,6.92297391 C46.3505603,6.92297391 46.5754492,6.9601913 46.7622746,7.1094087 C46.9496238,7.29584348 47.0426873,7.55688696 47.0426873,7.92975652 L47.0426873,14.4725391 L48.3344016,14.4725391 L48.3344016,7.92975652 C48.3344016,6.99758261 48.9710048,6.92297391 49.1761635,6.92297391 C49.325973,6.92297391 49.5506873,6.9601913 49.7378619,7.1094087 C49.9248619,7.29584348 50.0184492,7.55688696 50.0184492,7.92975652 L50.0184492,14.4725391 L51.3094651,14.4725391 L51.3094651,7.92975652 C51.3094651,7.2028 51.0854492,6.60610435 50.6735603,6.19601739 C50.2992111,5.84193043 49.7750524,5.63671304 49.1761635,5.63671304 C48.5963063,5.63688696 48.128719,5.80488696 47.7351635,6.15897391" id="Fill-24"></path>
                                <path d="M56.643854,11.4902435 C56.643854,12.1052 56.643854,12.795113 56.1755683,13.2985913 C55.988219,13.4846783 55.6332508,13.727287 55.0340127,13.727287 C54.4723143,13.727287 54.1169968,13.4846783 53.9299968,13.2985913 C53.4617111,12.7949391 53.4617111,12.1052 53.4617111,11.4902435 L53.4617111,10.9125043 C53.4617111,10.2973739 53.4617111,9.60763478 53.9299968,9.12311304 C54.1169968,8.91806957 54.4723143,8.67528696 55.0340127,8.67528696 C55.6332508,8.67528696 55.988219,8.91806957 56.1755683,9.12311304 C56.643854,9.60763478 56.643854,10.2973739 56.643854,10.9125043 L56.643854,11.4902435 Z M57.1493302,8.65685217 C56.7191079,8.20937391 56.0072508,7.81806957 55.0341873,7.81806957 C54.0984889,7.81806957 53.3871556,8.20937391 52.9571079,8.65685217 C52.2834889,9.38398261 52.1521873,10.4092 52.1521873,11.2104174 C52.1521873,11.9938957 52.2834889,13.019113 52.9571079,13.7460696 C53.3875048,14.1930261 54.0984889,14.5845043 55.0341873,14.5845043 C56.0072508,14.5845043 56.7191079,14.1930261 57.1493302,13.7460696 C57.8226,13.019113 57.9535524,11.9938957 57.9535524,11.2104174 C57.953727,10.4092 57.8227746,9.38398261 57.1493302,8.65685217 L57.1493302,8.65685217 Z" id="Fill-26"></path>
                                <path d="M59.0202556,7.92986087 L60.1061127,7.94846957 L60.1061127,8.5262087 C60.4240651,8.30255652 60.7050016,8.13473043 61.0234778,8.02290435 C61.4165095,7.85507826 61.6969222,7.81786087 62.0897794,7.81786087 C62.6514778,7.81786087 63.2313349,7.92968696 63.699446,8.45177391 C64.1483508,8.97351304 64.2419381,9.5889913 64.2419381,10.1109043 L64.2419381,14.4540348 L63.0439857,14.4540348 L63.0439857,10.0173391 C63.0439857,8.95525217 62.3708905,8.67525217 61.8093667,8.67525217 C61.2474937,8.67525217 60.6678111,8.91803478 60.2000492,9.34638261 L60.2000492,14.4540348 L59.0202556,14.4540348 L59.0202556,8.88046957 L59.0202556,7.92986087 Z" id="Fill-28"></path>
                                <path d="M66.3757635,10.4839652 C66.3757635,9.73787826 66.6189857,9.30918261 66.8066841,9.10396522 C66.9929857,8.89926957 67.2926048,8.67526957 67.798081,8.67526957 C68.1354143,8.67526957 68.4715254,8.74987826 68.7156206,8.99248696 C69.1460175,9.40257391 69.1460175,9.90553043 69.1460175,10.3533565 L69.1460175,10.632487 L66.3761127,10.632487 L66.3757635,10.4839652 Z M70.0998746,13.1867478 C69.8749857,13.2989217 69.6315889,13.3917913 69.3326683,13.4848348 C68.9766524,13.5971826 68.6960651,13.6526609 68.3215413,13.6526609 C67.7044937,13.6526609 67.1427952,13.4477913 66.8431762,13.1121391 C66.6186365,12.8886609 66.3754143,12.4415304 66.3754143,11.6584 L66.3754143,11.4905739 L70.4176524,11.4905739 L70.4176524,11.192487 C70.4176524,10.148487 70.3801127,9.29057391 69.7250016,8.6010087 C69.2947794,8.13509565 68.6394937,7.8184 67.8157159,7.8184 C66.8987,7.8184 66.2254302,8.20970435 65.8137159,8.67561739 C65.1399222,9.44013913 65.0646683,10.4464 65.0646683,11.0989217 C65.0646683,11.8260522 65.1774619,12.9076174 65.8509063,13.6533565 C66.2813032,14.156313 67.0485095,14.5848348 68.1343667,14.5848348 C68.6208111,14.5848348 69.1449698,14.5288348 69.6684302,14.3237913 C69.9491921,14.2119652 70.2676683,14.0630957 70.4733508,13.9507478 L70.0998746,13.1867478 Z" id="Fill-30"></path>
                                <path d="M76.8933873,7.94855652 L74.3293397,15.6287304 C74.2357524,15.9643826 73.9927048,16.523687 73.7115937,16.8398609 C73.3747841,17.2132522 72.9257048,17.3809043 72.4204032,17.3809043 C72.0645619,17.3809043 71.7281016,17.3061217 71.3907683,17.1200348 C71.1852603,16.9890783 70.9792286,16.8589913 70.847927,16.7096 L71.4098,16.0012522 C71.5033873,16.0948174 71.6341651,16.1882087 71.7469587,16.2621217 C71.9339587,16.3744696 72.158673,16.4304696 72.364181,16.4304696 C72.7200222,16.4304696 72.9445619,16.2443826 73.0568317,16.0948174 C73.1876095,15.9269913 73.3185619,15.535687 73.4124984,15.2934261 L73.5623079,14.7713391 L70.8110857,7.94890435 L72.1021016,7.94890435 L73.7489587,12.0311652 C73.9179746,12.4221217 74.0862921,13.019513 74.1238317,13.1869913 L74.1795302,13.1869913 C74.3855619,12.4038609 74.479673,12.1424696 74.6479905,11.6582957 L75.8267365,7.94855652 L76.8933873,7.94855652 Z" id="Fill-32"></path>
                                <path d="M26.5311095,14.0812696 L26.5686492,14.0254435 L26.6248714,14.0812696 C27.0550937,14.4355304 27.4856651,14.6033565 28.0658714,14.6033565 C29.3568873,14.6033565 30.1995222,13.6892696 30.1995222,12.3099652 L30.1995222,5.76718261 L28.8893,5.76718261 L28.8893,12.3099652 C28.8893,13.2419652 28.2528714,13.2986609 28.0658714,13.2986609 C27.8973794,13.2986609 27.6728397,13.2797043 27.504173,13.1118783 C27.3169984,12.9444 27.2235857,12.6645739 27.2235857,12.310487 L27.2235857,5.76753043 L25.9133635,5.76753043 L25.9133635,12.310487 C25.9133635,13.242313 25.2772841,13.2988348 25.071427,13.2988348 C24.9216175,13.2988348 24.6969032,13.2800522 24.5285857,13.1122261 C24.3412365,12.9447478 24.2478238,12.6649217 24.2478238,12.3106609 L24.2478238,5.76787826 L22.9377762,5.76787826 L22.9377762,12.3106609 C22.9377762,13.0195304 23.1623159,13.6157043 23.5742048,14.0257913 C23.9483794,14.3986609 24.4912206,14.6035304 25.071427,14.6035304 C25.6516333,14.6033565 26.1193952,14.4170957 26.5311095,14.0812696" id="Fill-35"></path>
                                <path d="M32.5200508,10.4839652 C32.5200508,9.73787826 32.7445905,9.32813913 32.9507968,9.10396522 C33.1191143,8.91787826 33.4183841,8.67526957 33.9236857,8.67526957 C34.2608444,8.67526957 34.5973048,8.76866087 34.8410508,9.01092174 C35.2710984,9.4024 35.2710984,9.90570435 35.2710984,10.3716174 L35.2710984,10.632487 L32.5200508,10.632487 L32.5200508,10.4839652 Z M36.2069714,13.1867478 C36.0014635,13.2796174 35.7580667,13.3917913 35.4584476,13.4848348 C35.1031302,13.5971826 34.8218444,13.6526609 34.448019,13.6526609 C33.830273,13.6526609 33.2685746,13.4477913 32.968781,13.1121391 C32.7630984,12.8886609 32.5198762,12.4415304 32.5198762,11.6584 L32.5198762,11.4905739 L36.5249238,11.4905739 L36.5249238,11.192487 C36.5249238,10.148487 36.4873841,9.29057391 35.8511302,8.6010087 C35.4209079,8.15370435 34.7656222,7.83683478 33.9235111,7.83683478 C33.0440349,7.83683478 32.3702413,8.22831304 31.958527,8.67561739 C31.2658762,9.45874783 31.2100032,10.4655304 31.2100032,11.0989217 C31.2100032,11.8260522 31.3037651,12.9076174 31.9775587,13.6533565 C32.4266381,14.1378783 33.1751619,14.5848348 34.2606698,14.5848348 C34.7472889,14.5848348 35.2524159,14.5102261 35.7950825,14.3055304 C36.0754952,14.2121391 36.3752889,14.0446609 36.5813206,13.932487 L36.2069714,13.1867478 Z" id="Fill-37"></path>
                                <path d="M40.062,8.67528696 C40.5302857,8.67528696 41.0170794,8.82450435 41.3163492,9.14172174 C41.7278889,9.58902609 41.7278889,10.2599826 41.7278889,10.8378957 L41.7278889,11.3970261 C41.7278889,12.4970261 41.5408889,12.9443304 41.3723968,13.1867652 C41.1852222,13.4295478 40.7925397,13.727287 40.1183968,13.727287 C39.8748254,13.727287 39.5755556,13.6525043 39.3508413,13.5970261 C39.182873,13.5406783 38.9766667,13.4290261 38.8086984,13.335287 L38.8086984,9.0665913 M42.083381,8.48902609 C41.6152698,8.07876522 40.9601587,7.83650435 40.2868889,7.83650435 C39.9870952,7.83650435 39.6694921,7.89233043 39.4446032,7.92989565 C39.2577778,7.98554783 39.0140317,8.07876522 38.8085238,8.15354783 L38.8085238,5.59963478 L37.6290794,5.59963478 L37.6290794,13.8945913 C38.3215556,14.3046783 39.1453333,14.5845043 40.0808571,14.5845043 C40.7729841,14.5845043 41.709381,14.4361565 42.3826508,13.559287 C42.9254921,12.8318087 43.0379365,11.9187652 43.0379365,11.1732 C43.0379365,10.4648522 42.9818889,9.25354783 42.083381,8.48902609" id="Fill-39"></path>
                            </g>
                        </g>
                    </g>
                </g>
            </g>
        </g>
    </g>
</svg>