<svg xmlns="http://www.w3.org/2000/svg" xmlns:xlink="http://www.w3.org/1999/xlink" width="48" height="16" viewBox="0 0 48 16">
    <defs>
        <path id="a" d="M0 .037V14.52h17.6V.037H0z"/>
        <path id="c" d="M.207.394h11.57v14.99H.207V.395z"/>
    </defs>
    <g fill="none" fill-rule="evenodd">
        <path fill="#0066B2" d="M19.109.874L16.69 15.357h3.87L22.978.874z"/>
        <g transform="translate(0 .837)">
            <mask id="b" fill="#fff">
                <use xlink:href="#a"/>
            </mask>
            <path fill="#0066B2" d="M13.434.037L9.745 9.998l-.437-2.144-1.302-6.513S7.849.037 6.17.037H.071L0 .282S1.865.66 4.049 1.938L7.41 14.52h4.032L17.6.037h-4.165z" mask="url(#b)"/>
        </g>
        <path fill="#0066B2" d="M39.615 10.234l2.033-5.42 1.144 5.42h-3.177zm4.258 5.123h3.553L44.328.874h-3.11c-1.437 0-1.787 1.08-1.787 1.08l-5.772 13.403h4.034l.807-2.15h4.919l.454 2.15z"/>
        <g transform="translate(22.737 .222)">
            <mask id="d" fill="#fff">
                <use xlink:href="#c"/>
            </mask>
            <path fill="#0066B2" d="M11.225 4.135l.552-3.11S10.072.393 8.297.393c-1.921 0-6.481.819-6.481 4.795 0 3.742 5.353 3.789 5.353 5.753s-4.801 1.614-6.386.374l-.576 3.251s1.728.819 4.369.819c2.64 0 6.625-1.333 6.625-4.958 0-3.766-5.4-4.117-5.4-5.754 0-1.638 3.768-1.427 5.424-.538" mask="url(#d)"/>
        </g>
        <path fill="#F9A533" d="M9.308 8.691L8.006 2.178S7.849.874 6.17.874H.071l-.07.245s2.931.592 5.743 2.81C8.432 6.049 9.308 8.69 9.308 8.69"/>
    </g>
</svg>
